<svg width="173" height="44" viewBox="0 0 173 44" fill="none" xmlns="http://www.w3.org/2000/svg">
<path d="M21.6848 0.125732C9.76449 0.125732 0 9.68002 0 21.6229C0 33.44 9.63768 43.12 21.6848 43.12C33.6051 43.12 43.3696 33.5657 43.3696 21.6229C43.3696 9.68002 33.6051 0.125732 21.6848 0.125732ZM21.6848 41.36C10.6522 41.36 1.77535 32.56 1.77535 21.6229C1.77535 10.6857 10.6522 1.88573 21.6848 1.88573C32.7174 1.88573 41.5942 10.6857 41.5942 21.6229C41.721 32.4343 32.7174 41.36 21.6848 41.36Z" fill="#77787B"/>
<path d="M21.6848 37.5886C22.4457 37.5886 22.8261 37.0857 22.9529 36.4572C23.0797 36.7086 23.3333 36.96 23.587 37.0857C23.8406 37.0857 24.221 37.0857 24.4746 36.96C24.7283 36.8343 24.9819 36.5829 25.1087 36.3315C25.2355 36.08 25.2355 35.7029 25.1087 35.4514C25.4891 35.9543 25.9964 36.08 26.6304 35.8286C27.3913 35.4515 27.6449 34.9486 27.2645 34.1943C26.3768 32.0572 25.4891 30.0457 24.6014 27.9086C24.4746 27.6572 24.4746 27.5314 24.3478 27.28C24.221 27.1543 24.221 27.0286 24.0942 26.9029C24.0942 26.7772 23.9674 26.7772 23.8406 26.6514C25.2355 26.7772 25.8696 27.28 26.25 27.5315C26.3768 27.6572 26.3768 27.6572 26.7572 27.5315C26.8841 27.5315 27.1377 27.5315 27.2645 27.5315C27.3913 27.6572 27.6449 27.7829 27.7717 27.7829C28.279 28.16 28.7862 28.5372 29.2935 28.9143C29.5471 29.1657 29.8007 29.4172 29.8007 29.7943C29.8007 30.0457 29.0399 30.6743 28.913 30.9257C28.4058 31.4286 29.1667 32.1829 30.1812 32.1829C29.9275 31.9314 29.8007 31.68 29.9275 31.4286C30.0544 31.4286 30.1812 31.4286 30.4348 31.3029C30.6884 31.1772 30.5616 30.5486 30.6884 30.4229C31.0688 30.0457 32.0833 30.0457 32.8442 30.0457C33.0978 30.0457 33.4783 29.92 33.3514 29.5429C33.7319 29.5429 33.8587 29.92 33.8587 30.1715C34.2391 29.92 34.4928 29.04 33.2246 28.7886C33.4783 28.5372 33.8587 28.5372 34.1123 28.7886C34.3659 28.4115 33.7319 27.7829 32.7174 28.16C32.7174 28.16 32.2101 27.5314 30.942 29.04C30.8152 28.9143 30.5616 28.7886 30.4348 28.6629C29.9275 28.16 28.6594 26.9029 28.6594 26.9029C28.6594 26.1486 28.5326 24.7657 27.6449 24.0114C27.2645 23.6343 26.8841 23.5086 25.9964 23.2572C25.9964 23.2572 26.3768 22.6286 26.5036 22.3772C27.2645 23.1315 28.7862 23.3829 28.7862 22.1257C30.0543 23.3829 31.1957 22.6286 31.1957 21.8743C31.1957 22.2515 31.3225 22.6286 31.4493 23.0057C31.5761 23.3829 32.2101 25.0172 33.6051 25.0172C33.6051 25.52 33.6051 27.4057 35.3804 27.7829C35.5072 27.7829 35.5072 27.7829 35.6341 27.9086C36.3949 28.7886 39.3116 29.6686 39.5652 29.4172C39.3116 29.2915 38.9312 29.04 38.9312 28.0343C38.9312 27.4057 38.8044 23.8857 38.8044 18.9829C38.8044 17.2229 38.6775 11.5657 32.971 10.8114C32.0833 10.6857 31.3225 10.8115 30.5616 11.3143C29.5471 12.0686 29.0399 13.3257 29.6739 14.7086V14.8343C29.9275 15.2115 29.8007 15.4629 29.5471 15.7143C29.0399 16.2172 28.5326 16.4686 27.8986 16.5943C27.5181 16.5943 27.1377 16.4686 26.8841 16.2172C26.25 15.5886 25.8696 14.8343 25.6159 13.9543C25.3623 12.32 25.7428 11.44 25.7428 11.3143C26.25 10.4343 27.1377 9.68002 28.279 9.68002C28.7862 8.6743 30.308 9.05145 30.308 9.05145C30.6884 9.17716 30.8152 9.17716 30.942 9.42859C30.942 9.42859 31.5761 8.42288 30.942 8.04574C30.308 7.6686 28.913 7.54288 28.913 7.54288C28.913 6.91431 27.8985 6.41145 25.8696 6.7886C23.587 7.16574 23.0797 6.28574 23.0797 6.28574C22.9529 7.41716 23.8406 7.92002 24.0942 8.17145C23.2065 9.17716 21.9384 11.0629 21.6848 13.7029C21.4312 11.0629 20.163 9.17716 19.2754 8.17145C19.529 8.04574 20.4167 7.41716 20.2899 6.28574C20.2899 6.28574 19.7826 7.16574 17.5 6.7886C15.5978 6.41145 14.4565 6.91431 14.4565 7.54288C14.4565 7.54288 13.0616 7.6686 12.4275 8.04574C11.7935 8.42288 12.4275 9.42859 12.4275 9.42859C12.5543 9.30288 12.6812 9.17716 13.0616 9.05145C13.0616 9.05145 14.5833 8.6743 15.0906 9.68002C16.2319 9.80573 17.1196 10.4343 17.6268 11.3143C17.6268 11.3143 18.1341 12.1943 17.7536 13.9543C17.6268 14.8343 17.1196 15.5886 16.4855 16.2172C16.2319 16.4686 15.8514 16.72 15.471 16.5943C14.837 16.4686 14.3297 16.2172 13.8225 15.7143C13.5688 15.4629 13.442 15.2115 13.6957 14.8343V14.7086C14.3297 13.3257 13.8225 12.0686 12.808 11.3143C12.0471 10.8115 11.2862 10.6857 10.3986 10.8114C4.81884 11.5657 4.56522 17.2229 4.56522 18.9829C4.56522 23.8857 4.43841 27.4057 4.43841 28.0343C4.43841 29.04 4.05798 29.2915 3.80435 29.4172C4.18479 29.6686 7.10145 28.7886 7.73551 27.9086C7.73551 27.9086 7.86232 27.7829 7.98913 27.7829C9.76449 27.4057 9.76449 25.52 9.76449 25.0172C11.1594 25.0172 11.7935 23.3829 11.9203 23.0057C12.0471 22.6286 12.1739 22.2515 12.1739 21.8743C12.1739 22.6286 13.3152 23.2572 14.5833 22.1257C14.5833 23.3829 16.1051 23.1315 16.8659 22.3772C16.9928 22.6286 17.3732 23.2572 17.3732 23.2572C16.4855 23.3829 16.1051 23.6343 15.7246 24.0114C14.7101 24.8914 14.7101 26.2743 14.7101 26.9029C14.7101 26.9029 13.442 28.16 12.9348 28.6629C12.808 28.7886 12.5543 28.9143 12.4275 29.04C11.0326 27.5314 10.6522 28.16 10.6522 28.16C9.63768 27.7829 9.13043 28.4115 9.25724 28.7886C9.51087 28.5372 9.89131 28.6629 10.1449 28.7886C8.75 29.04 9.13044 30.0457 9.51087 30.1715C9.51087 29.92 9.63768 29.5429 10.0181 29.5429C10.0181 29.92 10.2717 30.0457 10.5254 30.0457C11.1594 30.0457 12.3007 30.0457 12.6812 30.4229C12.9348 30.5486 12.808 31.1772 12.9348 31.3029C13.0616 31.4286 13.3152 31.4286 13.442 31.4286C13.442 31.68 13.442 31.8057 13.1884 32.1829C14.2029 32.3086 14.837 31.4286 14.4565 30.9257C14.2029 30.6743 13.5688 30.0457 13.5688 29.7943C13.5688 29.5429 13.8225 29.1657 14.0761 28.9143C14.5833 28.5372 15.0906 28.16 15.5978 27.7829C15.7246 27.6572 15.8514 27.5315 16.1051 27.5315C16.2319 27.4057 16.4855 27.4057 16.6123 27.5315C16.9928 27.6572 16.9928 27.6572 17.1196 27.5315C17.5 27.28 18.1341 26.7772 19.529 26.6514C19.4022 26.6514 19.4022 26.7772 19.2754 26.9029C19.1486 27.0286 19.1486 27.1543 19.0217 27.28C18.8949 27.4057 18.8949 27.6572 18.7681 27.9086C17.8804 30.0457 16.9928 32.0572 16.1051 34.1943C15.8514 34.9486 16.1051 35.4515 16.7391 35.8286C17.2464 36.08 17.8804 35.9543 18.2609 35.4514C18.1341 35.8286 18.1341 36.08 18.2609 36.3315C18.3877 36.5829 18.6413 36.8343 18.8949 36.96C19.1485 37.0857 19.529 37.0857 19.7826 37.0857C20.163 36.96 20.2899 36.8343 20.4167 36.4572C20.5435 37.0857 20.9239 37.5886 21.6848 37.5886Z" fill="#77787B"/>
<path d="M58.2065 14.08C59.3478 14.08 61.8841 13.9543 63.279 13.8286C63.279 14.08 63.279 14.4572 63.279 14.5829C63.279 14.7086 63.279 15.0857 63.279 15.3372C62.0109 15.2114 59.9819 15.0857 59.3478 15.0857C58.8406 15.0857 57.192 15.0857 56.1775 15.2114V20.4915H57.3188C59.6014 20.4915 64.1667 20.8686 64.1667 24.7657C64.1667 27.9086 61.5036 29.2915 58.0797 29.2915C57.6993 29.2915 56.3043 29.2915 55.2898 29.2915C54.9094 29.2915 54.4022 29.2915 54.0217 29.2915C54.1485 26.9029 54.1485 23.76 54.1485 21.12C54.1485 18.7315 54.1485 15.0857 54.0217 13.9543C55.4167 13.9543 57.6993 14.08 58.2065 14.08ZM56.1775 28.0343C56.6848 28.0343 57.4456 28.0343 57.9529 28.0343C60.4891 28.0343 61.8841 26.9029 61.8841 24.64C61.8841 22.2514 60.1087 21.4972 56.0507 21.4972V28.0343H56.1775Z" fill="#77787B"/>
<path d="M66.5761 19.7372C67.4638 18.7314 68.9855 18.2286 70.2536 18.2286C72.5362 18.2286 74.058 19.36 74.058 22V27.28C74.058 28.4114 74.3116 28.6629 74.692 28.6629C74.8188 28.6629 75.0725 28.6629 75.1993 28.5372L75.3261 29.04C74.692 29.4172 74.058 29.4172 73.6775 29.4172C72.9167 29.4172 72.5362 29.04 72.4094 28.5372L72.2826 28.0343C71.1413 28.9143 69.8732 29.4172 68.8587 29.4172C66.9565 29.4172 65.6884 28.4114 65.6884 26.6514C65.6884 24.7657 67.0833 23.8857 69.1123 23.5086L71.2681 23.1315C72.029 23.0057 72.4094 22.7543 72.4094 22.2514C72.4094 19.9886 71.3949 19.36 69.7464 19.36C68.4783 19.36 67.5906 19.7372 66.8297 21.12H66.5761V19.7372ZM72.4094 23.76L71.0145 24.0114C69.4928 24.2629 67.7174 24.7657 67.7174 26.4C67.7174 27.6572 68.3514 28.2857 69.7464 28.2857C70.6341 28.2857 71.3949 28.0343 72.2826 27.0286V23.76H72.4094Z" fill="#77787B"/>
<path d="M78.3696 18.6057C78.6232 18.6057 79.0036 18.6057 79.384 18.6057C79.2572 20.24 79.1304 22.88 79.1304 23.0057C80.0181 23.0057 81.2862 23.1314 82.0471 23.1314C82.808 23.1314 84.0761 23.1315 84.7102 23.0057C84.7102 22.88 84.7101 20.24 84.5833 18.6057C84.9638 18.6057 85.471 18.6057 85.7246 18.6057C85.9783 18.6057 86.3587 18.6057 86.7391 18.6057C86.6123 20.24 86.4855 22.88 86.4855 24.0114C86.4855 24.8914 86.4855 27.7829 86.7391 29.4172C86.3587 29.4172 86.1051 29.4172 85.7246 29.4172C85.3442 29.4172 84.9638 29.4172 84.5833 29.4172C84.7101 27.7829 84.7102 24.8915 84.7102 24.2629C83.8225 24.1372 82.4275 24.1372 82.0471 24.1372C81.413 24.1372 80.0181 24.1372 79.1304 24.2629C79.1304 25.0172 79.1304 27.7829 79.384 29.4172C79.0036 29.4172 78.75 29.4172 78.3696 29.4172C77.9891 29.4172 77.6087 29.4172 77.2283 29.4172C77.3551 27.7829 77.4819 24.8914 77.4819 24.0114C77.4819 22.88 77.4819 20.24 77.2283 18.6057C77.6087 18.6057 78.1159 18.6057 78.3696 18.6057Z" fill="#77787B"/>
<path d="M90.6703 18.6057C90.9239 18.6057 91.3044 18.6057 91.6848 18.6057C91.558 20.24 91.558 22.88 91.558 23.2572H91.9384C92.6993 23.2572 96.25 19.2343 96.6304 18.6057C96.8841 18.6057 97.3913 18.6057 97.6449 18.6057C97.8986 18.6057 98.4058 18.6057 98.6594 18.6057L93.587 23.1315C94.221 23.8857 97.6449 27.6572 99.1667 29.2915C98.5326 29.2915 98.1522 29.2915 97.8986 29.2915C97.5181 29.2915 96.884 29.2915 96.5036 29.2915C95.7427 28.0343 93.3333 25.2686 91.9384 23.76H91.558C91.558 24.5143 91.558 27.6572 91.6848 29.2915C91.4312 29.2915 91.0507 29.2915 90.6703 29.2915C90.2899 29.2915 89.9094 29.2915 89.529 29.2915C89.6558 27.6572 89.7826 24.7657 89.7826 23.8857C89.7826 22.7543 89.7826 20.1143 89.529 18.48C89.9094 18.6057 90.2899 18.6057 90.6703 18.6057Z" fill="#77787B"/>
<path d="M108.424 13.9543C109.185 13.9543 110.072 13.8286 110.707 13.8286C114.638 13.8286 116.159 14.96 116.159 17.7257C116.159 21.12 113.243 22.2514 109.692 22.2514C109.438 22.2514 108.678 22.2514 108.297 22.1257V25.7714C108.297 26.7772 108.297 28.16 108.424 29.1657C108.043 29.1657 107.663 29.1657 107.283 29.1657C106.902 29.1657 106.395 29.1657 106.141 29.1657C106.268 26.7772 106.268 23.6343 106.268 20.9943C106.268 18.6057 106.268 14.96 106.141 13.8286C107.029 13.8286 107.917 13.9543 108.424 13.9543ZM109.312 21.12C112.355 21.12 114.004 19.9886 114.004 17.7257C114.004 15.5886 112.355 15.0857 110.199 15.0857C109.819 15.0857 108.551 15.0857 108.297 15.0857V20.9943C108.678 21.12 109.058 21.12 109.312 21.12Z" fill="#77787B"/>
<path d="M127.319 23.8857C127.319 27.1543 125.163 29.5429 121.866 29.5429C118.569 29.5429 116.54 27.1543 116.54 24.1372C116.54 20.6172 118.822 18.3543 122.12 18.3543C125.29 18.3543 127.319 20.6172 127.319 23.8857ZM118.569 24.0114C118.569 26.4 119.583 28.6629 121.866 28.6629C124.022 28.6629 125.29 26.5257 125.29 23.76C125.29 21.4972 124.402 19.1086 121.993 19.1086C119.71 19.1086 118.569 21.4972 118.569 24.0114Z" fill="#77787B"/>
<path d="M137.717 20.8686H137.464C136.703 19.6114 135.688 19.2343 134.547 19.2343C132.011 19.2343 130.87 21.6229 130.87 24.0114C130.87 26.6514 132.391 28.7886 135.054 28.7886C135.942 28.7886 136.703 28.6629 137.971 27.28L138.225 27.5315L137.971 28.5372C136.957 29.1657 135.815 29.5429 134.42 29.5429C131.123 29.5429 128.967 27.28 128.967 24.0114C128.967 20.6172 131.377 18.48 134.801 18.48C135.942 18.48 137.083 18.7315 138.478 19.36L137.717 20.8686Z" fill="#77787B"/>
<path d="M148.623 20.8686H148.37C147.609 19.6114 146.594 19.2343 145.453 19.2343C142.917 19.2343 141.775 21.6229 141.775 24.0114C141.775 26.6514 143.297 28.7886 145.96 28.7886C146.848 28.7886 147.609 28.6629 148.877 27.28L149.004 27.5315L148.75 28.5372C147.736 29.1657 146.594 29.5429 145.199 29.5429C141.902 29.5429 139.746 27.28 139.746 24.0114C139.746 20.6172 142.156 18.48 145.58 18.48C146.721 18.48 147.862 18.7315 149.257 19.36L148.623 20.8686Z" fill="#77787B"/>
<path d="M151.793 29.1657C151.667 29.1657 151.286 29.1657 151.159 29.1657C151.286 27.5314 151.413 24.64 151.413 23.76C151.413 22.6286 151.413 19.9886 151.159 18.3543C151.54 18.3543 152.047 18.3543 152.301 18.3543C152.554 18.3543 152.935 18.3543 153.315 18.3543C153.188 19.9886 153.062 22.6286 153.062 23.76C153.062 24.64 153.062 25.8972 153.062 26.5257C154.203 25.1429 158.388 19.8629 159.402 18.48C159.656 18.48 159.783 18.48 160.036 18.48C160.163 18.48 160.67 18.48 160.797 18.48C160.67 20.1143 160.543 22.7543 160.543 23.8857C160.543 24.7657 160.543 27.6572 160.797 29.2915C160.417 29.2915 160.163 29.2915 159.783 29.2915C159.402 29.2915 159.022 29.2915 158.641 29.2915C158.768 27.6572 158.895 24.7657 158.895 23.8857C158.895 22.7543 158.895 21.3714 158.895 20.9943C157.5 22.5029 153.569 27.4057 152.428 29.2915C152.174 29.1657 151.92 29.1657 151.793 29.1657Z" fill="#77787B"/>
<path d="M163.841 29.1657C163.714 29.1657 163.333 29.1657 163.207 29.1657C163.333 27.5314 163.333 24.64 163.333 23.76C163.333 22.6286 163.333 19.9886 163.207 18.3543C163.587 18.3543 164.094 18.3543 164.348 18.3543C164.601 18.3543 164.982 18.3543 165.362 18.3543C165.109 20.1143 165.109 22.7543 165.109 23.8857C165.109 24.7657 165.109 26.0229 165.109 26.6514C166.25 25.2686 170.435 19.9886 171.449 18.6057C171.703 18.6057 171.83 18.6057 172.083 18.6057C172.21 18.6057 172.717 18.6057 172.844 18.6057C172.717 20.1143 172.717 22.7543 172.717 23.8857C172.717 24.7657 172.717 27.6572 172.844 29.2915C172.464 29.2915 172.21 29.2915 171.83 29.2915C171.449 29.2915 171.069 29.2915 170.688 29.2915C170.815 27.6572 170.815 24.7657 170.815 23.8857C170.815 22.7543 170.815 21.3714 170.815 20.9943C169.42 22.5029 165.489 27.4057 164.348 29.2915C164.221 29.1657 164.094 29.1657 163.841 29.1657Z" fill="#77787B"/>
</svg>
