<svg width="515" height="649" viewBox="0 0 515 649" fill="none" xmlns="http://www.w3.org/2000/svg">
<path d="M321.015 340.057V314.265H193.085V340.057C193.085 340.057 198.239 419.88 257.05 419.88C315.861 419.88 321.015 340.057 321.015 340.057Z" fill="#E4C6B5"/>
<path fill-rule="evenodd" clip-rule="evenodd" d="M507.426 648.106H6.60797C4.85543 648.106 3.17466 647.409 1.93543 646.169C0.696195 644.929 0 643.247 0 641.493C1.69064 590.512 6.74574 539.699 15.1323 489.386C17.4214 476.28 22.9662 463.96 31.2568 453.56C39.5475 443.159 50.3178 435.012 62.5775 429.866C122.367 405.151 186.414 392.39 251.103 392.303H262.733C327.489 392.364 391.605 405.126 451.457 429.866C463.729 435.003 474.512 443.146 482.815 453.548C491.118 463.949 496.672 476.273 498.968 489.386C507.332 539.701 512.365 590.514 514.034 641.493C514.034 643.247 513.338 644.929 512.099 646.169C510.859 647.409 509.179 648.106 507.426 648.106Z" fill="#DBE2FC"/>
<path fill-rule="evenodd" clip-rule="evenodd" d="M296.698 562.133C296.744 511.977 283.03 462.771 257.05 419.88C231.042 462.759 217.326 511.973 217.402 562.133V648.106H296.698V562.133Z" fill="url(#paint0_linear_2_2)"/>
<path fill-rule="evenodd" clip-rule="evenodd" d="M297.689 393.758V410.026C286.22 420.359 277.307 433.219 271.654 447.59C261.963 446.268 252.137 446.268 242.446 447.59C236.793 433.219 227.88 420.359 216.411 410.026V393.758C227.975 392.898 239.605 392.435 251.235 392.303H262.865C274.495 392.435 286.125 392.898 297.689 393.758Z" fill="#301D73"/>
<path d="M364.694 180.147C360.932 179.536 357.078 180.388 353.923 182.528L358.482 149.461C359.148 144.795 359.479 140.088 359.474 135.375C359.474 108.188 348.683 82.1154 329.474 62.8917C310.266 43.668 284.214 32.8682 257.05 32.8682C229.886 32.8682 203.834 43.668 184.626 62.8917C165.418 82.1154 154.626 108.188 154.626 135.375C154.621 140.088 154.952 144.795 155.618 149.461L160.111 182.528C156.982 180.386 153.148 179.533 149.406 180.147C136.587 181.734 142.798 228.49 152.908 244.495C156.801 251.392 163.111 256.599 170.618 259.11L175.243 292.177C177.998 311.93 187.796 330.021 202.83 343.113C217.864 356.205 237.121 363.416 257.05 363.416C276.979 363.416 296.236 356.205 311.27 343.113C326.304 330.021 336.102 311.93 338.857 292.177L343.416 259.11C350.918 256.668 357.25 251.532 361.192 244.693C371.368 228.49 377.447 181.734 364.694 180.147Z" fill="#EACFC1"/>
<path d="M174.979 156.207C171.177 156.847 167.737 158.852 165.305 161.846C162.872 164.841 161.613 168.619 161.763 172.476V205.013C157.148 194.945 153.86 184.318 151.983 173.401C149.737 156.868 138.305 99.5306 158.591 70.6965C167.116 59.52 196.719 52.3114 230.618 49.9968C212.006 60.3416 196.822 75.9077 186.936 94.7787C177.051 113.65 172.894 135.002 174.979 156.207V156.207ZM355.112 70.6965C346.918 59.52 317.183 52.3114 283.416 49.9968C292.33 54.9165 300.496 61.0851 307.667 68.3157C319.084 79.722 327.827 93.523 333.267 108.722C338.706 123.922 340.706 140.14 339.121 156.207C342.924 156.847 346.363 158.852 348.795 161.846C351.228 164.841 352.487 168.619 352.337 172.476V205.013C356.823 194.888 359.956 184.214 361.654 173.269C364.165 156.868 375.531 99.5306 355.112 70.6965Z" fill="#202F65"/>
<path d="M364.363 92.9834C362.281 79.0653 356.102 66.0837 346.616 55.6949C337.13 45.306 324.767 37.9808 311.103 34.6538C306.35 24.3079 298.73 15.5437 289.15 9.40136C279.569 3.25897 268.428 -0.00386393 257.05 3.43393e-06C224.671 3.43393e-06 174.979 24.7339 149.406 75.0613C149.406 75.0613 174.12 119.04 257.05 119.04C272.592 119.027 287.511 112.927 298.614 102.044C309.381 106.561 321.161 108.103 332.726 106.51C344.292 104.916 355.217 100.245 364.363 92.9834V92.9834Z" fill="#2C408B"/>
<path fill-rule="evenodd" clip-rule="evenodd" d="M251.103 392.303C230.82 405.867 214.784 424.896 204.847 447.193C204.62 447.758 204.238 448.247 203.746 448.605C203.254 448.963 202.671 449.174 202.064 449.216C201.457 449.257 200.851 449.127 200.314 448.839C199.778 448.552 199.334 448.119 199.032 447.59L170.552 397.726C174.373 377.308 181.898 357.763 192.754 340.057C208.258 361.439 228.152 379.252 251.103 392.303V392.303ZM262.733 392.303C283.023 405.859 299.061 424.89 308.989 447.193C309.227 447.756 309.617 448.241 310.115 448.595C310.612 448.949 311.198 449.158 311.807 449.2C312.417 449.241 313.025 449.112 313.566 448.828C314.106 448.544 314.558 448.115 314.87 447.59L343.35 397.726C339.498 377.316 331.975 357.776 321.147 340.057C305.632 361.403 285.767 379.21 262.865 392.303H262.733Z" fill="#EAEEFD"/>
<path d="M68.7229 555.52L87.4895 643.08M445.377 555.52L426.611 643.08" stroke="#BEC6E2" stroke-width="3" stroke-linecap="round" stroke-linejoin="round"/>
<defs>
<linearGradient id="paint0_linear_2_2" x1="109" y1="356" x2="330" y2="675" gradientUnits="userSpaceOnUse">
<stop stop-color="#6549C0"/>
<stop offset="1" stop-color="#301D73"/>
</linearGradient>
</defs>
</svg>
