<svg width="315" height="285" viewBox="0 0 315 285" fill="none" xmlns="http://www.w3.org/2000/svg">
<path d="M39.2209 183.395C17.4315 183.395 0 165.534 0 144.189C0 122.844 17.8673 104.984 39.2209 104.984C60.5745 104.984 78.4418 122.844 78.4418 144.189C78.4418 165.534 61.0103 183.395 39.2209 183.395ZM39.2209 123.279C27.8904 123.279 18.7389 132.427 18.7389 143.753C18.7389 155.079 27.8904 164.227 39.2209 164.227C50.5514 164.227 59.7029 155.079 59.7029 143.753C59.7029 132.427 50.5514 123.279 39.2209 123.279Z" fill="white"/>
<path d="M79.7496 101.934H61.0107V284.022H79.7496V101.934Z" fill="white"/>
<path d="M116.791 0H98.0518V182.088H116.791V0Z" fill="white"/>
<path d="M274.111 183.395C252.321 183.395 234.89 165.534 234.89 144.189C234.89 122.844 252.757 104.984 274.111 104.984C295.464 104.984 313.331 122.844 313.331 144.189C313.331 165.534 295.464 183.395 274.111 183.395ZM274.111 123.279C262.78 123.279 253.629 132.427 253.629 143.753C253.629 155.079 262.78 164.227 274.111 164.227C285.441 164.227 294.593 155.079 294.593 143.753C294.593 132.427 285.441 123.279 274.111 123.279Z" fill="white"/>
<path d="M314.203 101.934H295.464V284.022H314.203V101.934Z" fill="white"/>
<path d="M161.677 101.934H142.938V182.088H161.677V101.934Z" fill="white"/>
<path d="M161.677 47.0469H142.938V77.1044H161.677V47.0469Z" fill="#A81B8D"/>
<path d="M194.282 56.1953L173.02 77.449L186.27 90.6941L207.532 69.4404L194.282 56.1953Z" fill="#A81B8D"/>
<path d="M216.587 101.934H186.518V120.666H216.587V101.934Z" fill="#A81B8D"/>
</svg>
