<svg width="300" height="47" viewBox="0 0 300 47" fill="none" xmlns="http://www.w3.org/2000/svg">
<path d="M2.05088 44.9116H51.1751L26.6118 2.36004L2.05088 44.9116ZM53.226 46.0916H0L26.6118 0L53.226 46.0916Z" fill="url(#paint0_linear_167_33)"/>
<path d="M5.40925 43.6089L48.598 42.5421L26.0809 5.6641L5.40925 43.6089ZM3.58966 44.7582L25.9959 3.52118L50.5049 43.5428L3.58966 44.7582Z" fill="url(#paint1_linear_167_33)"/>
<path d="M8.76993 42.3062L46.0232 40.1821L25.5475 8.96821L8.76993 42.3062ZM7.17926 43.4248L25.3799 7.04242L47.7838 40.994L7.17926 43.4248Z" fill="url(#paint2_linear_167_33)"/>
<path d="M12.1306 41.0034L43.446 37.8032L25.0164 12.284L12.1306 41.0034ZM10.7689 42.0843L24.7615 10.5659L45.0579 38.4427L10.7689 42.0843Z" fill="url(#paint3_linear_167_33)"/>
<path d="M15.4913 39.703L40.8689 35.4337L24.4831 15.5881L15.4913 39.703ZM14.3585 40.7462L24.1456 14.0777L42.3392 35.8821L14.3585 40.7462Z" fill="url(#paint4_linear_167_33)"/>
<path d="M18.8496 38.4003L38.294 33.0643L23.9496 18.904L18.8496 38.4003ZM17.9481 39.4128L23.5272 17.6083L39.618 33.3404L17.9481 39.4128Z" fill="url(#paint5_linear_167_33)"/>
<path d="M23.4187 22.1986L22.2104 37.0975L35.7169 30.6947L23.4187 22.1986ZM21.5307 38.0722L22.9042 21.1295L36.8899 30.7915L21.5307 38.0722Z" fill="url(#paint6_linear_167_33)"/>
<path d="M150.74 10.6934C150.334 10.6934 150.128 10.5029 150.128 10.1161V2.57722C150.128 2.18469 150.339 1.99997 150.757 1.99997C150.839 1.99308 150.922 2.00427 151 2.03279C151.077 2.06131 151.148 2.10647 151.206 2.16518C151.265 2.22388 151.311 2.29472 151.34 2.37283C151.368 2.45093 151.38 2.53445 151.374 2.61763V8.92697L157.332 2.31169C157.414 2.21448 157.515 2.13628 157.63 2.08247C157.744 2.02866 157.869 2.00052 157.995 1.99997C158.072 1.99069 158.151 1.99924 158.224 2.02496C158.298 2.05069 158.365 2.09293 158.42 2.1485C158.475 2.20408 158.517 2.27153 158.542 2.34579C158.568 2.42005 158.576 2.49918 158.567 2.57722V10.1219C158.567 10.5067 158.361 10.6991 157.949 10.6991C157.526 10.6991 157.32 10.5202 157.32 10.1219V3.77213L151.391 10.399C151.311 10.4973 151.212 10.5779 151.1 10.6356C150.985 10.6802 150.862 10.6999 150.74 10.6934V10.6934Z" fill="#4C6886"/>
<path d="M166.989 10.6934C166.571 10.6934 166.36 10.5029 166.36 10.1161V2.57725C166.352 2.49944 166.361 2.42079 166.387 2.34704C166.413 2.27329 166.455 2.20631 166.509 2.15099C166.564 2.09566 166.63 2.0534 166.704 2.02728C166.777 2.00115 166.854 1.99183 166.932 2C167.366 2 167.589 2.19626 167.589 2.57725V5.52699H173.541V2.57725C173.541 2.18472 173.752 2 174.17 2C174.587 2 174.787 2.19626 174.787 2.57725V10.1219C174.787 10.5067 174.581 10.6992 174.17 10.6992C173.752 10.6992 173.541 10.5087 173.541 10.1219V6.50832H167.612V10.1219C167.612 10.5029 167.4 10.6934 166.989 10.6934Z" fill="#4C6886"/>
<path d="M183.215 10.601C183.138 10.6092 183.06 10.5999 182.987 10.5737C182.914 10.5476 182.848 10.5054 182.793 10.45C182.738 10.3947 182.696 10.3277 182.67 10.254C182.644 10.1802 182.635 10.1016 182.643 10.0238V2.6927C182.635 2.61489 182.644 2.53623 182.67 2.46249C182.696 2.38874 182.738 2.32176 182.793 2.26643C182.848 2.21111 182.914 2.16885 182.987 2.14272C183.06 2.1166 183.138 2.10728 183.215 2.11545H186.354C187.394 2.0505 188.436 2.21599 189.407 2.60034C189.71 2.74608 189.963 2.98013 190.133 3.27231C190.303 3.5645 190.383 3.90144 190.362 4.23973C190.368 4.54187 190.307 4.84162 190.185 5.11715C190.067 5.35228 189.889 5.55152 189.67 5.69439C190.099 5.83699 190.469 6.11918 190.722 6.49677C190.97 6.90787 191.091 7.38402 191.071 7.86485V8.14193C191.099 8.66427 190.956 9.18151 190.665 9.61392C190.324 10.0126 189.858 10.2815 189.344 10.3759C188.545 10.5451 187.73 10.6207 186.914 10.601H183.215ZM183.872 5.40577H186.354C186.914 5.41644 187.474 5.38557 188.029 5.31341C188.338 5.28964 188.632 5.1685 188.869 4.96706C188.955 4.86918 189.021 4.75486 189.062 4.6309C189.103 4.50695 189.12 4.37588 189.11 4.2455C189.12 4.11645 189.104 3.98671 189.064 3.86382C189.023 3.74093 188.959 3.62735 188.875 3.52971C188.64 3.32803 188.348 3.20677 188.04 3.18336C187.481 3.11415 186.917 3.0833 186.354 3.091H183.844L183.872 5.40577ZM183.872 9.60815H186.914C187.486 9.60815 187.96 9.60815 188.378 9.55619C188.709 9.53833 189.033 9.456 189.333 9.31375C189.517 9.21584 189.658 9.05078 189.727 8.85195C189.797 8.61413 189.83 8.36682 189.824 8.11884V7.88794C189.834 7.62517 189.795 7.36287 189.71 7.11443C189.633 6.9244 189.491 6.76866 189.31 6.67572C189.054 6.55046 188.776 6.476 188.492 6.45636C188.155 6.42173 187.703 6.40441 187.143 6.40441H183.844L183.872 9.60815Z" fill="#4C6886"/>
<path d="M198.949 10.601C198.873 10.6081 198.795 10.598 198.723 10.5715C198.65 10.545 198.584 10.5027 198.529 10.4477C198.475 10.3926 198.433 10.326 198.407 10.2528C198.381 10.1795 198.371 10.1013 198.378 10.0237V2.69268C198.371 2.6151 198.381 2.53691 198.407 2.46365C198.433 2.39039 198.475 2.32385 198.529 2.26877C198.584 2.21368 198.65 2.17139 198.723 2.14489C198.795 2.11839 198.873 2.10833 198.949 2.11543H206.045C206.548 2.11543 206.799 2.2886 206.799 2.62918C206.799 2.96976 206.548 3.08521 206.045 3.08521H199.601V5.33071H203.975C204.547 5.33071 204.815 5.50388 204.815 5.84446C204.815 6.18504 204.535 6.30626 203.975 6.30626H199.601V9.63122H206.045C206.548 9.63122 206.799 9.80439 206.799 10.1392C206.799 10.474 206.548 10.601 206.045 10.601H198.949Z" fill="#4C6886"/>
<path d="M217.943 10.601C217.123 10.6205 216.304 10.545 215.501 10.3759C214.986 10.2827 214.518 10.0137 214.175 9.61391C213.879 9.18334 213.734 8.66521 213.763 8.14192V4.55143C213.735 4.03353 213.876 3.52054 214.164 3.09099C214.486 2.69708 214.932 2.42619 215.427 2.32324C216.177 2.15023 216.945 2.07266 217.714 2.09234H220.338C220.711 2.07901 221.083 2.14184 221.43 2.27706C221.684 2.37481 221.896 2.55844 222.031 2.79659C222.161 3.03298 222.226 3.29994 222.219 3.5701C222.219 4.06654 222.008 4.31476 221.591 4.31476C221.506 4.32341 221.42 4.31287 221.34 4.28391C221.26 4.25495 221.187 4.20829 221.127 4.14735C221.029 4.01601 220.975 3.85612 220.973 3.69133C220.973 3.51913 220.923 3.35068 220.83 3.20644C220.75 3.1083 220.544 3.06212 220.218 3.06212H217.714C217.154 3.04916 216.593 3.08586 216.039 3.1718C215.882 3.18418 215.73 3.22901 215.591 3.3035C215.452 3.37799 215.33 3.48053 215.233 3.60474C215.068 3.89961 214.992 4.23677 215.015 4.57452V8.1246C214.995 8.46176 215.075 8.79741 215.244 9.08861C215.35 9.21468 215.48 9.31796 215.627 9.39233C215.773 9.4667 215.933 9.51064 216.096 9.52155C216.708 9.6084 217.325 9.64508 217.943 9.63122H220.23C220.556 9.63122 220.762 9.58504 220.842 9.48691C220.933 9.34391 220.982 9.17788 220.985 9.00779C220.982 8.82961 221.045 8.65689 221.162 8.5229C221.295 8.42326 221.457 8.37237 221.622 8.37867C221.788 8.38497 221.946 8.44807 222.071 8.55754C222.134 8.638 222.181 8.73057 222.209 8.82974C222.236 8.92891 222.244 9.03265 222.231 9.13479C222.238 9.41239 222.173 9.687 222.042 9.93139C221.908 10.1695 221.696 10.3532 221.442 10.4509C221.093 10.584 220.722 10.6449 220.35 10.6299L217.943 10.601Z" fill="#4C6886"/>
<path d="M232.454 10.6933C232.276 10.7054 232.1 10.6544 231.956 10.549C231.897 10.5007 231.85 10.4388 231.819 10.3686C231.789 10.2983 231.775 10.2217 231.779 10.145V3.0621H229.292C229.093 3.07757 228.894 3.03339 228.72 2.93511C228.66 2.89873 228.611 2.84706 228.576 2.78527C228.542 2.72348 228.525 2.65372 228.526 2.58299C228.523 2.51042 228.54 2.4385 228.574 2.37461C228.608 2.31071 228.659 2.25712 228.72 2.21932C228.895 2.12411 229.093 2.08013 229.292 2.09232H235.627C236.119 2.09232 236.365 2.25395 236.365 2.58299C236.365 2.91202 236.119 3.0621 235.627 3.0621H233.168V10.145C233.17 10.2223 233.154 10.2989 233.12 10.3682C233.086 10.4376 233.036 10.4976 232.974 10.5433C232.823 10.6515 232.639 10.7044 232.454 10.6933V10.6933Z" fill="#4C6886"/>
<path d="M243.82 10.6934C243.414 10.6934 243.208 10.5029 243.208 10.1161V2.57722C243.208 2.18469 243.42 1.99997 243.837 1.99997C243.92 1.99219 244.003 2.00272 244.082 2.03084C244.16 2.05896 244.231 2.10399 244.291 2.1628C244.35 2.2216 244.396 2.29276 244.425 2.37131C244.455 2.44986 244.467 2.53392 244.46 2.61763V8.92697L250.384 2.31169C250.465 2.21448 250.567 2.13628 250.682 2.08247C250.796 2.02866 250.921 2.00052 251.047 1.99997C251.124 1.99069 251.203 1.99924 251.276 2.02496C251.35 2.05069 251.417 2.09293 251.472 2.1485C251.527 2.20408 251.568 2.27153 251.594 2.34579C251.619 2.42005 251.628 2.49918 251.619 2.57722V10.1219C251.619 10.5067 251.413 10.6991 251.001 10.6991C250.584 10.6991 250.372 10.5202 250.372 10.1219V3.77213L244.449 10.399C244.366 10.4963 244.265 10.5767 244.152 10.6356C244.046 10.6764 243.933 10.696 243.82 10.6934Z" fill="#4C6886"/>
<path d="M267.09 11.8132C267.011 11.8205 266.931 11.8109 266.856 11.7851C266.78 11.7594 266.711 11.718 266.652 11.6637C266.594 11.6093 266.547 11.5432 266.515 11.4696C266.483 11.3959 266.467 11.3164 266.467 11.236V10.6587H259.423V2.86009C259.423 2.45601 259.635 2.28284 260.052 2.28284C260.469 2.28284 260.681 2.4791 260.681 2.86009V9.63122H265.478V2.86009C265.478 2.45601 265.689 2.28284 266.107 2.28284C266.524 2.28284 266.73 2.4791 266.73 2.86009V9.637C266.998 9.63186 267.259 9.72175 267.468 9.89099C267.554 9.982 267.62 10.0901 267.662 10.2083C267.704 10.3266 267.722 10.4525 267.713 10.5779V11.236C267.714 11.3164 267.697 11.3959 267.666 11.4696C267.634 11.5432 267.587 11.6093 267.528 11.6637C267.47 11.718 267.4 11.7594 267.325 11.7851C267.249 11.8109 267.17 11.8205 267.09 11.8132V11.8132Z" fill="#4C6886"/>
<path d="M275.409 10.6934C275.003 10.6934 274.797 10.5029 274.797 10.1161V2.57722C274.797 2.18469 275.009 1.99997 275.426 1.99997C275.509 1.99219 275.593 2.00272 275.671 2.03084C275.749 2.05896 275.821 2.10399 275.88 2.1628C275.939 2.2216 275.985 2.29276 276.014 2.37131C276.044 2.44986 276.056 2.53392 276.049 2.61763V8.92697L282.001 2.31169C282.083 2.21448 282.185 2.13628 282.299 2.08247C282.414 2.02866 282.538 2.00052 282.665 1.99997C282.742 1.99069 282.82 1.99924 282.894 2.02496C282.967 2.05069 283.034 2.09293 283.089 2.1485C283.144 2.20408 283.186 2.27153 283.212 2.34579C283.237 2.42005 283.246 2.49918 283.236 2.57722V10.1219C283.236 10.5067 283.031 10.6991 282.619 10.6991C282.201 10.6991 281.99 10.5202 281.99 10.1219V3.77213L276.067 10.399C275.983 10.4963 275.883 10.5767 275.769 10.6356C275.655 10.6802 275.532 10.6999 275.409 10.6934V10.6934Z" fill="#4C6886"/>
<path d="M291.647 10.6934C291.235 10.6934 291.035 10.5029 291.035 10.1161V2.57722C291.035 2.18469 291.241 1.99997 291.658 1.99997C291.741 1.99219 291.824 2.00272 291.903 2.03084C291.981 2.05896 292.052 2.10399 292.112 2.1628C292.171 2.2216 292.217 2.29276 292.246 2.37131C292.276 2.44986 292.288 2.53392 292.281 2.61763V8.92697L298.233 2.31169C298.315 2.21506 298.417 2.13727 298.532 2.08351C298.646 2.02976 298.77 2.00127 298.896 1.99997C298.974 1.99069 299.052 1.99924 299.126 2.02496C299.199 2.05069 299.266 2.09293 299.321 2.1485C299.376 2.20408 299.418 2.27153 299.444 2.34579C299.469 2.42005 299.477 2.49918 299.468 2.57722V10.1219C299.468 10.5067 299.262 10.6991 298.851 10.6991C298.433 10.6991 298.222 10.5202 298.222 10.1219V3.77213L292.299 10.399C292.215 10.4963 292.114 10.5767 292.001 10.6356C291.888 10.6797 291.768 10.6994 291.647 10.6934V10.6934Z" fill="#4C6886"/>
<path d="M84.6399 15.9541L76.584 31.003C76.4579 31.2338 76.2735 31.4267 76.0494 31.5619C75.8254 31.6972 75.5698 31.77 75.3088 31.773C75.0478 31.7759 74.7906 31.7088 74.5637 31.5786C74.3367 31.4484 74.148 31.2598 74.0169 31.0319L67.8592 20.2027C67.0963 18.7536 66.0003 17.5104 64.6631 16.5776C63.2549 15.637 61.5939 15.1573 59.9061 15.2037H54V16.1215C55.516 16.1284 56.9917 16.615 58.2195 17.5127C59.3921 18.5106 60.3628 19.7278 61.0782 21.0974L71.7928 40.0254L71.2954 40.9028C70.209 43.0502 67.5028 44.1239 63.1765 44.1239V45.6767H65.8923C67.7832 45.7384 69.6578 45.307 71.3354 44.4241C72.7835 43.6094 73.9626 42.3829 74.7258 40.8971L88.4878 15.2037H85.9321C85.6699 15.2004 85.4116 15.2684 85.1843 15.4004C84.957 15.5324 84.769 15.7236 84.6399 15.9541V15.9541Z" fill="#4C6886"/>
<path d="M124.045 43.7083C123.653 43.4068 123.17 43.2517 122.678 43.2696H120.323V15.2037H92.1298V16.3582H92.7702C94.3196 16.3582 95.3259 16.7219 95.8462 17.4781C96.3665 18.2343 96.6066 19.3484 96.6066 20.9012C96.6394 25.0225 96.2834 29.1377 95.5431 33.1908C94.8771 36.7118 93.6715 40.1063 91.9697 43.2523H89.94C89.4474 43.2305 88.9632 43.386 88.5735 43.691C88.4026 43.8296 88.2649 44.0054 88.1708 44.2054C88.0767 44.4053 88.0287 44.6242 88.0304 44.8455V45.2207H124.588V44.8628C124.59 44.6415 124.542 44.4226 124.447 44.2227C124.353 44.0227 124.216 43.8469 124.045 43.7083V43.7083ZM114.102 43.2696H96.881C98.5742 39.9255 99.721 36.3271 100.277 32.6136C100.986 27.4929 101.303 22.3247 101.226 17.1548H114.102V43.2696Z" fill="#4C6886"/>
<path d="M138.115 19.0136L127.824 45.3304H129.842L132.329 38.946H149.482L152.575 45.3304H160.86L149.162 18.7769C148.688 17.7122 147.919 16.8086 146.948 16.1746C145.978 15.5407 144.846 15.2035 143.69 15.2037V15.2037C142.49 15.2028 141.317 15.5654 140.323 16.2446C139.33 16.9238 138.56 17.8884 138.115 19.0136V19.0136ZM132.97 37.2662L139.488 20.6299C139.572 20.41 139.719 20.2203 139.91 20.085C140.101 19.9496 140.328 19.8747 140.561 19.8698C140.795 19.8648 141.025 19.93 141.221 20.0572C141.418 20.1843 141.573 20.3676 141.666 20.5837L148.784 37.2662H132.97Z" fill="#4C6886"/>
<path d="M171.74 19.0135L161.448 45.3303H163.467L173.432 19.9314C173.491 19.7781 173.594 19.6459 173.727 19.5516C173.86 19.4572 174.018 19.4048 174.181 19.4011C174.344 19.3974 174.504 19.4425 174.642 19.5307C174.779 19.6189 174.887 19.7463 174.953 19.8967L186.228 45.3592H194.501L182.798 18.8057C182.328 17.7321 181.559 16.8197 180.584 16.1801C179.609 15.5404 178.471 15.2012 177.309 15.2037V15.2037C176.109 15.2024 174.937 15.5649 173.944 16.2442C172.951 16.9235 172.183 17.8883 171.74 19.0135V19.0135Z" fill="#4C6886"/>
<path d="M224.564 15.1806H189.321V16.8142H202.992L203.037 45.3304H210.899V16.8142H224.564V15.1806Z" fill="#4C6886"/>
<path d="M243.208 14.5514C229.08 14.5514 222.751 22.4943 222.751 30.3623C222.751 41.1684 233.043 45.9999 243.208 45.9999C253.374 45.9999 263.665 41.1799 263.665 30.3623C263.665 22.4943 257.342 14.5514 243.208 14.5514ZM243.208 16.185C251.293 16.185 255.57 21.0628 255.57 30.2757C255.57 39.4886 251.293 44.4067 243.208 44.4067C235.124 44.4067 230.853 39.5232 230.853 30.2757C230.853 21.0281 235.124 16.185 243.208 16.185V16.185Z" fill="#4C6886"/>
<path d="M292.144 15.1806V34.4203H274.952V15.1806H267.09V45.3304H274.952V36.054H292.144V45.3304H300V15.1806H292.144Z" fill="#4C6886"/>
<defs>
<linearGradient id="paint0_linear_167_33" x1="0" y1="23.0482" x2="53.226" y2="23.0482" gradientUnits="userSpaceOnUse">
<stop stop-color="#FBF09C"/>
<stop offset="0.06" stop-color="#F9EC98"/>
<stop offset="0.13" stop-color="#F3E18B"/>
<stop offset="0.2" stop-color="#E8CF75"/>
<stop offset="0.27" stop-color="#D9B556"/>
<stop offset="0.34" stop-color="#C69430"/>
<stop offset="0.35" stop-color="#C6932F"/>
<stop offset="0.4" stop-color="#C89633"/>
<stop offset="0.45" stop-color="#CDA03E"/>
<stop offset="0.49" stop-color="#D6AF50"/>
<stop offset="0.54" stop-color="#E3C66A"/>
<stop offset="0.58" stop-color="#F3E28B"/>
<stop offset="0.6" stop-color="#FBF09C"/>
<stop offset="0.67" stop-color="#F8E994"/>
<stop offset="0.79" stop-color="#F0D87E"/>
<stop offset="0.94" stop-color="#E2BB5A"/>
<stop offset="1" stop-color="#DCAD49"/>
</linearGradient>
<linearGradient id="paint1_linear_167_33" x1="3.58966" y1="24.1385" x2="50.5049" y2="24.1385" gradientUnits="userSpaceOnUse">
<stop stop-color="#FBF09C"/>
<stop offset="0.06" stop-color="#F9EC98"/>
<stop offset="0.13" stop-color="#F3E18B"/>
<stop offset="0.2" stop-color="#E8CF75"/>
<stop offset="0.27" stop-color="#D9B556"/>
<stop offset="0.34" stop-color="#C69430"/>
<stop offset="0.35" stop-color="#C6932F"/>
<stop offset="0.4" stop-color="#C89633"/>
<stop offset="0.45" stop-color="#CDA03E"/>
<stop offset="0.49" stop-color="#D6AF50"/>
<stop offset="0.54" stop-color="#E3C66A"/>
<stop offset="0.58" stop-color="#F3E28B"/>
<stop offset="0.6" stop-color="#FBF09C"/>
<stop offset="0.67" stop-color="#F8E994"/>
<stop offset="0.79" stop-color="#F0D87E"/>
<stop offset="0.94" stop-color="#E2BB5A"/>
<stop offset="1" stop-color="#DCAD49"/>
</linearGradient>
<linearGradient id="paint2_linear_167_33" x1="7.17926" y1="25.2313" x2="47.7838" y2="25.2313" gradientUnits="userSpaceOnUse">
<stop stop-color="#FBF09C"/>
<stop offset="0.06" stop-color="#F9EC98"/>
<stop offset="0.13" stop-color="#F3E18B"/>
<stop offset="0.2" stop-color="#E8CF75"/>
<stop offset="0.27" stop-color="#D9B556"/>
<stop offset="0.34" stop-color="#C69430"/>
<stop offset="0.35" stop-color="#C6932F"/>
<stop offset="0.4" stop-color="#C89633"/>
<stop offset="0.45" stop-color="#CDA03E"/>
<stop offset="0.49" stop-color="#D6AF50"/>
<stop offset="0.54" stop-color="#E3C66A"/>
<stop offset="0.58" stop-color="#F3E28B"/>
<stop offset="0.6" stop-color="#FBF09C"/>
<stop offset="0.67" stop-color="#F8E994"/>
<stop offset="0.79" stop-color="#F0D87E"/>
<stop offset="0.94" stop-color="#E2BB5A"/>
<stop offset="1" stop-color="#DCAD49"/>
</linearGradient>
<linearGradient id="paint3_linear_167_33" x1="10.7689" y1="26.3239" x2="45.0603" y2="26.3239" gradientUnits="userSpaceOnUse">
<stop stop-color="#FBF09C"/>
<stop offset="0.06" stop-color="#F9EC98"/>
<stop offset="0.13" stop-color="#F3E18B"/>
<stop offset="0.2" stop-color="#E8CF75"/>
<stop offset="0.27" stop-color="#D9B556"/>
<stop offset="0.34" stop-color="#C69430"/>
<stop offset="0.35" stop-color="#C6932F"/>
<stop offset="0.4" stop-color="#C89633"/>
<stop offset="0.45" stop-color="#CDA03E"/>
<stop offset="0.49" stop-color="#D6AF50"/>
<stop offset="0.54" stop-color="#E3C66A"/>
<stop offset="0.58" stop-color="#F3E28B"/>
<stop offset="0.6" stop-color="#FBF09C"/>
<stop offset="0.67" stop-color="#F8E994"/>
<stop offset="0.79" stop-color="#F0D87E"/>
<stop offset="0.94" stop-color="#E2BB5A"/>
<stop offset="1" stop-color="#DCAD49"/>
</linearGradient>
<linearGradient id="paint4_linear_167_33" x1="14.3585" y1="27.4167" x2="42.3392" y2="27.4167" gradientUnits="userSpaceOnUse">
<stop stop-color="#FBF09C"/>
<stop offset="0.06" stop-color="#F9EC98"/>
<stop offset="0.13" stop-color="#F3E18B"/>
<stop offset="0.2" stop-color="#E8CF75"/>
<stop offset="0.27" stop-color="#D9B556"/>
<stop offset="0.34" stop-color="#C69430"/>
<stop offset="0.35" stop-color="#C6932F"/>
<stop offset="0.4" stop-color="#C89633"/>
<stop offset="0.45" stop-color="#CDA03E"/>
<stop offset="0.49" stop-color="#D6AF50"/>
<stop offset="0.54" stop-color="#E3C66A"/>
<stop offset="0.58" stop-color="#F3E28B"/>
<stop offset="0.6" stop-color="#FBF09C"/>
<stop offset="0.67" stop-color="#F8E994"/>
<stop offset="0.79" stop-color="#F0D87E"/>
<stop offset="0.94" stop-color="#E2BB5A"/>
<stop offset="1" stop-color="#DCAD49"/>
</linearGradient>
<linearGradient id="paint5_linear_167_33" x1="17.9481" y1="28.5094" x2="39.618" y2="28.5094" gradientUnits="userSpaceOnUse">
<stop stop-color="#FBF09C"/>
<stop offset="0.06" stop-color="#F9EC98"/>
<stop offset="0.13" stop-color="#F3E18B"/>
<stop offset="0.2" stop-color="#E8CF75"/>
<stop offset="0.27" stop-color="#D9B556"/>
<stop offset="0.34" stop-color="#C69430"/>
<stop offset="0.35" stop-color="#C6932F"/>
<stop offset="0.4" stop-color="#C89633"/>
<stop offset="0.45" stop-color="#CDA03E"/>
<stop offset="0.49" stop-color="#D6AF50"/>
<stop offset="0.54" stop-color="#E3C66A"/>
<stop offset="0.58" stop-color="#F3E28B"/>
<stop offset="0.6" stop-color="#FBF09C"/>
<stop offset="0.67" stop-color="#F8E994"/>
<stop offset="0.79" stop-color="#F0D87E"/>
<stop offset="0.94" stop-color="#E2BB5A"/>
<stop offset="1" stop-color="#DCAD49"/>
</linearGradient>
<linearGradient id="paint6_linear_167_33" x1="18.3928" y1="31.4205" x2="33.7527" y2="24.137" gradientUnits="userSpaceOnUse">
<stop stop-color="#FBF09C"/>
<stop offset="0.06" stop-color="#F9EC98"/>
<stop offset="0.13" stop-color="#F3E18B"/>
<stop offset="0.2" stop-color="#E8CF75"/>
<stop offset="0.27" stop-color="#D9B556"/>
<stop offset="0.34" stop-color="#C69430"/>
<stop offset="0.35" stop-color="#C6932F"/>
<stop offset="0.4" stop-color="#C89633"/>
<stop offset="0.45" stop-color="#CDA03E"/>
<stop offset="0.49" stop-color="#D6AF50"/>
<stop offset="0.54" stop-color="#E3C66A"/>
<stop offset="0.58" stop-color="#F3E28B"/>
<stop offset="0.6" stop-color="#FBF09C"/>
<stop offset="0.67" stop-color="#F8E994"/>
<stop offset="0.79" stop-color="#F0D87E"/>
<stop offset="0.94" stop-color="#E2BB5A"/>
<stop offset="1" stop-color="#DCAD49"/>
</linearGradient>
</defs>
</svg>
