<svg width="298" height="46" viewBox="0 0 298 46" fill="none" xmlns="http://www.w3.org/2000/svg">
<path d="M2.27146 43.9628H49.2641L25.7667 3.25764L2.27146 43.9628ZM51.226 45.0916H0.30957L25.7667 1L51.226 45.0916Z" fill="url(#paint0_linear_225_2)"/>
<path d="M5.48411 42.7166L46.7988 41.6961L25.2587 6.41834L5.48411 42.7166ZM3.74347 43.8161L25.1775 4.36841L48.623 42.6534L3.74347 43.8161Z" fill="url(#paint1_linear_225_2)"/>
<path d="M8.69895 41.4704L44.3357 39.4385L24.7485 9.57905L8.69895 41.4704ZM7.17731 42.5405L24.5882 7.73682L46.0199 40.2152L7.17731 42.5405Z" fill="url(#paint2_linear_225_2)"/>
<path d="M11.9137 40.2242L41.8703 37.1628L24.2404 12.751L11.9137 40.2242ZM10.6111 41.2582L23.9966 11.1075L43.4123 37.7747L10.6111 41.2582Z" fill="url(#paint3_linear_225_2)"/>
<path d="M15.1286 38.9802L39.405 34.8961L23.7302 15.9117L15.1286 38.9802ZM14.045 39.9781L23.4074 14.4668L40.8115 35.3251L14.045 39.9781Z" fill="url(#paint4_linear_225_2)"/>
<path d="M18.3412 37.7341L36.9419 32.6296L23.22 19.0837L18.3412 37.7341ZM17.4788 38.7026L22.8159 17.8443L38.2084 32.8937L17.4788 38.7026Z" fill="url(#paint5_linear_225_2)"/>
<path d="M22.7121 22.2353L21.5562 36.4877L34.4766 30.3628L22.7121 22.2353ZM20.906 37.4201L22.2199 21.2126L35.5987 30.4553L20.906 37.4201Z" fill="url(#paint6_linear_225_2)"/>
<path d="M148.74 9.69335C148.334 9.69335 148.128 9.50286 148.128 9.1161V1.57722C148.128 1.18469 148.339 0.999974 148.757 0.999974C148.839 0.993077 148.922 1.00427 149 1.03279C149.077 1.06131 149.148 1.10647 149.206 1.16518C149.265 1.22388 149.311 1.29472 149.34 1.37283C149.368 1.45093 149.38 1.53445 149.374 1.61763V7.92697L155.332 1.31169C155.414 1.21448 155.515 1.13628 155.63 1.08247C155.744 1.02866 155.869 1.00052 155.995 0.999974C156.072 0.990692 156.151 0.999236 156.224 1.02496C156.298 1.05069 156.365 1.09293 156.42 1.1485C156.475 1.20408 156.517 1.27153 156.542 1.34579C156.568 1.42005 156.576 1.49918 156.567 1.57722V9.12188C156.567 9.50671 156.361 9.69913 155.949 9.69913C155.526 9.69913 155.32 9.52018 155.32 9.12188V2.77213L149.391 9.39896C149.311 9.49729 149.212 9.57786 149.1 9.63563C148.985 9.68021 148.862 9.69988 148.74 9.69335Z" fill="#6081A5"/>
<path d="M164.989 9.69338C164.571 9.69338 164.36 9.50289 164.36 9.11613V1.57725C164.352 1.49944 164.361 1.42079 164.387 1.34704C164.413 1.27329 164.455 1.20631 164.509 1.15099C164.564 1.09566 164.63 1.0534 164.704 1.02728C164.777 1.00115 164.854 0.991835 164.932 1C165.366 1 165.589 1.19626 165.589 1.57725V4.52699H171.541V1.57725C171.541 1.18472 171.752 1 172.17 1C172.587 1 172.787 1.19626 172.787 1.57725V9.1219C172.787 9.50673 172.581 9.69915 172.17 9.69915C171.752 9.69915 171.541 9.50866 171.541 9.1219V5.50832H165.612V9.1219C165.612 9.50289 165.4 9.69338 164.989 9.69338Z" fill="#6081A5"/>
<path d="M181.215 9.60102C181.138 9.60918 181.06 9.59986 180.987 9.57374C180.914 9.54762 180.848 9.50535 180.793 9.45003C180.738 9.39471 180.696 9.32772 180.67 9.25398C180.644 9.18023 180.635 9.10158 180.643 9.02377V1.6927C180.635 1.61489 180.644 1.53623 180.67 1.46249C180.696 1.38874 180.738 1.32176 180.793 1.26643C180.848 1.21111 180.914 1.16885 180.987 1.14272C181.06 1.1166 181.138 1.10728 181.215 1.11545H184.354C185.394 1.0505 186.436 1.21599 187.407 1.60034C187.71 1.74608 187.963 1.98013 188.133 2.27231C188.303 2.5645 188.383 2.90144 188.362 3.23973C188.368 3.54187 188.307 3.84162 188.185 4.11715C188.067 4.35228 187.889 4.55152 187.67 4.69439C188.099 4.83699 188.469 5.11918 188.722 5.49677C188.97 5.90787 189.091 6.38402 189.071 6.86485V7.14193C189.099 7.66427 188.956 8.18151 188.665 8.61392C188.324 9.01262 187.858 9.28149 187.344 9.37589C186.545 9.54512 185.73 9.62066 184.914 9.60102H181.215ZM181.872 4.40577H184.354C184.914 4.41644 185.474 4.38557 186.029 4.31341C186.338 4.28964 186.632 4.1685 186.869 3.96706C186.955 3.86918 187.021 3.75486 187.062 3.6309C187.103 3.50695 187.12 3.37588 187.11 3.2455C187.12 3.11645 187.104 2.98671 187.064 2.86382C187.023 2.74093 186.959 2.62735 186.875 2.52971C186.64 2.32803 186.348 2.20677 186.04 2.18336C185.481 2.11415 184.917 2.0833 184.354 2.091H181.844L181.872 4.40577ZM181.872 8.60815H184.914C185.486 8.60815 185.96 8.60815 186.378 8.55619C186.709 8.53833 187.033 8.456 187.333 8.31375C187.517 8.21584 187.658 8.05078 187.727 7.85195C187.797 7.61413 187.83 7.36682 187.824 7.11884V6.88794C187.834 6.62517 187.795 6.36287 187.71 6.11443C187.633 5.9244 187.491 5.76866 187.31 5.67572C187.054 5.55046 186.776 5.476 186.492 5.45636C186.155 5.42173 185.703 5.40441 185.143 5.40441H181.844L181.872 8.60815Z" fill="#6081A5"/>
<path d="M196.949 9.601C196.873 9.6081 196.795 9.59804 196.723 9.57154C196.65 9.54504 196.584 9.50275 196.529 9.44766C196.475 9.39257 196.433 9.32604 196.407 9.25278C196.381 9.17952 196.371 9.10133 196.378 9.02375V1.69268C196.371 1.6151 196.381 1.53691 196.407 1.46365C196.433 1.39039 196.475 1.32385 196.529 1.26877C196.584 1.21368 196.65 1.17139 196.723 1.14489C196.795 1.11839 196.873 1.10833 196.949 1.11543H204.045C204.548 1.11543 204.799 1.2886 204.799 1.62918C204.799 1.96976 204.548 2.08521 204.045 2.08521H197.601V4.33071H201.975C202.547 4.33071 202.815 4.50388 202.815 4.84446C202.815 5.18504 202.535 5.30626 201.975 5.30626H197.601V8.63122H204.045C204.548 8.63122 204.799 8.80439 204.799 9.1392C204.799 9.474 204.548 9.601 204.045 9.601H196.949Z" fill="#6081A5"/>
<path d="M215.943 9.601C215.123 9.62051 214.304 9.54498 213.501 9.37588C212.986 9.28272 212.518 9.01374 212.175 8.61391C211.879 8.18334 211.734 7.66521 211.763 7.14192V3.55143C211.735 3.03353 211.876 2.52054 212.164 2.09099C212.486 1.69708 212.932 1.42619 213.427 1.32324C214.177 1.15023 214.945 1.07266 215.714 1.09234H218.338C218.711 1.07901 219.083 1.14184 219.43 1.27706C219.684 1.37481 219.896 1.55844 220.031 1.79659C220.161 2.03298 220.226 2.29994 220.219 2.5701C220.219 3.06654 220.008 3.31475 219.591 3.31475C219.506 3.32341 219.42 3.31287 219.34 3.28391C219.26 3.25495 219.187 3.20829 219.127 3.14735C219.029 3.01601 218.975 2.85612 218.973 2.69133C218.973 2.51913 218.923 2.35068 218.83 2.20644C218.75 2.1083 218.544 2.06212 218.218 2.06212H215.714C215.154 2.04916 214.593 2.08586 214.039 2.1718C213.882 2.18418 213.73 2.22901 213.591 2.3035C213.452 2.37799 213.33 2.48053 213.233 2.60474C213.068 2.89961 212.992 3.23677 213.015 3.57452V7.1246C212.995 7.46176 213.075 7.79741 213.244 8.08861C213.35 8.21468 213.48 8.31796 213.627 8.39233C213.773 8.4667 213.933 8.51064 214.096 8.52155C214.708 8.6084 215.325 8.64508 215.943 8.63122H218.23C218.556 8.63122 218.762 8.58504 218.842 8.48691C218.933 8.34391 218.982 8.17788 218.985 8.00779C218.982 7.82961 219.045 7.65689 219.162 7.5229C219.295 7.42326 219.457 7.37237 219.622 7.37867C219.788 7.38497 219.946 7.44807 220.071 7.55754C220.134 7.638 220.181 7.73057 220.209 7.82974C220.236 7.92891 220.244 8.03265 220.231 8.13479C220.238 8.41239 220.173 8.687 220.042 8.93139C219.908 9.16955 219.696 9.35318 219.442 9.45092C219.093 9.58402 218.722 9.64488 218.35 9.62987L215.943 9.601Z" fill="#6081A5"/>
<path d="M230.454 9.69334C230.276 9.70544 230.1 9.65438 229.956 9.54903C229.897 9.50067 229.85 9.43882 229.819 9.36857C229.789 9.29831 229.775 9.22167 229.779 9.14496V2.0621H227.292C227.093 2.07757 226.894 2.03339 226.72 1.93511C226.66 1.89873 226.611 1.84706 226.576 1.78527C226.542 1.72348 226.525 1.65372 226.526 1.58299C226.523 1.51042 226.54 1.4385 226.574 1.37461C226.608 1.31071 226.659 1.25712 226.72 1.21932C226.895 1.12411 227.093 1.08013 227.292 1.09232H233.627C234.119 1.09232 234.365 1.25395 234.365 1.58299C234.365 1.91202 234.119 2.0621 233.627 2.0621H231.168V9.14496C231.17 9.22226 231.154 9.29886 231.12 9.36822C231.086 9.43758 231.036 9.49763 230.974 9.54326C230.823 9.65146 230.639 9.70439 230.454 9.69334Z" fill="#6081A5"/>
<path d="M241.82 9.69335C241.414 9.69335 241.208 9.50286 241.208 9.1161V1.57722C241.208 1.18469 241.42 0.999974 241.837 0.999974C241.92 0.992188 242.003 1.00272 242.082 1.03084C242.16 1.05896 242.231 1.10399 242.291 1.1628C242.35 1.2216 242.396 1.29276 242.425 1.37131C242.455 1.44986 242.467 1.53392 242.46 1.61763V7.92697L248.384 1.31169C248.465 1.21448 248.567 1.13628 248.682 1.08247C248.796 1.02866 248.921 1.00052 249.047 0.999974C249.124 0.990692 249.203 0.999236 249.276 1.02496C249.35 1.05069 249.417 1.09293 249.472 1.1485C249.527 1.20408 249.568 1.27153 249.594 1.34579C249.619 1.42005 249.628 1.49918 249.619 1.57722V9.12188C249.619 9.50671 249.413 9.69913 249.001 9.69913C248.584 9.69913 248.372 9.52018 248.372 9.12188V2.77213L242.449 9.39896C242.366 9.49633 242.265 9.57668 242.152 9.63563C242.046 9.67636 241.933 9.69596 241.82 9.69335Z" fill="#6081A5"/>
<path d="M265.09 10.8132C265.011 10.8205 264.931 10.8109 264.856 10.7851C264.78 10.7594 264.711 10.718 264.652 10.6637C264.594 10.6093 264.547 10.5432 264.515 10.4696C264.483 10.3959 264.467 10.3164 264.467 10.236V9.65873H257.423V1.86009C257.423 1.45601 257.635 1.28284 258.052 1.28284C258.469 1.28284 258.681 1.4791 258.681 1.86009V8.63122H263.478V1.86009C263.478 1.45601 263.689 1.28284 264.107 1.28284C264.524 1.28284 264.73 1.4791 264.73 1.86009V8.637C264.998 8.63186 265.259 8.72175 265.468 8.89099C265.554 8.982 265.62 9.09008 265.662 9.20834C265.704 9.3266 265.722 9.45246 265.713 9.57791V10.236C265.714 10.3164 265.697 10.3959 265.666 10.4696C265.634 10.5432 265.587 10.6093 265.528 10.6637C265.47 10.718 265.4 10.7594 265.325 10.7851C265.249 10.8109 265.17 10.8205 265.09 10.8132Z" fill="#6081A5"/>
<path d="M273.409 9.69335C273.003 9.69335 272.797 9.50286 272.797 9.1161V1.57722C272.797 1.18469 273.009 0.999974 273.426 0.999974C273.509 0.992188 273.593 1.00272 273.671 1.03084C273.749 1.05896 273.821 1.10399 273.88 1.1628C273.939 1.2216 273.985 1.29276 274.014 1.37131C274.044 1.44986 274.056 1.53392 274.049 1.61763V7.92697L280.001 1.31169C280.083 1.21448 280.185 1.13628 280.299 1.08247C280.414 1.02866 280.538 1.00052 280.665 0.999974C280.742 0.990692 280.82 0.999236 280.894 1.02496C280.967 1.05069 281.034 1.09293 281.089 1.1485C281.144 1.20408 281.186 1.27153 281.212 1.34579C281.237 1.42005 281.246 1.49918 281.236 1.57722V9.12188C281.236 9.50671 281.031 9.69913 280.619 9.69913C280.201 9.69913 279.99 9.52018 279.99 9.12188V2.77213L274.067 9.39896C273.983 9.49633 273.883 9.57668 273.769 9.63563C273.655 9.68021 273.532 9.69988 273.409 9.69335Z" fill="#6081A5"/>
<path d="M289.647 9.69335C289.235 9.69335 289.035 9.50286 289.035 9.1161V1.57722C289.035 1.18469 289.241 0.999974 289.658 0.999974C289.741 0.992188 289.824 1.00272 289.903 1.03084C289.981 1.05896 290.052 1.10399 290.112 1.1628C290.171 1.2216 290.217 1.29276 290.246 1.37131C290.276 1.44986 290.288 1.53392 290.281 1.61763V7.92697L296.233 1.31169C296.315 1.21506 296.417 1.13727 296.532 1.08351C296.646 1.02976 296.77 1.00127 296.896 0.999974C296.974 0.990692 297.052 0.999236 297.126 1.02496C297.199 1.05069 297.266 1.09293 297.321 1.1485C297.376 1.20408 297.418 1.27153 297.444 1.34579C297.469 1.42005 297.477 1.49918 297.468 1.57722V9.12188C297.468 9.50671 297.262 9.69913 296.851 9.69913C296.433 9.69913 296.222 9.52018 296.222 9.12188V2.77213L290.299 9.39896C290.215 9.49633 290.114 9.57668 290.001 9.63563C289.888 9.67974 289.768 9.69941 289.647 9.69335Z" fill="#6081A5"/>
<path d="M82.6399 14.9541L74.584 30.003C74.4579 30.2338 74.2735 30.4267 74.0494 30.5619C73.8254 30.6972 73.5698 30.77 73.3088 30.773C73.0478 30.7759 72.7906 30.7088 72.5637 30.5786C72.3367 30.4484 72.148 30.2598 72.0169 30.0319L65.8592 19.2027C65.0963 17.7536 64.0003 16.5104 62.6631 15.5776C61.2549 14.637 59.5939 14.1573 57.9061 14.2037H52V15.1215C53.516 15.1284 54.9917 15.615 56.2195 16.5127C57.3921 17.5106 58.3628 18.7278 59.0782 20.0974L69.7928 39.0254L69.2954 39.9028C68.209 42.0502 65.5028 43.1239 61.1765 43.1239V44.6767H63.8923C65.7832 44.7384 67.6578 44.307 69.3354 43.4241C70.7835 42.6094 71.9626 41.3829 72.7258 39.8971L86.4878 14.2037H83.9321C83.6699 14.2004 83.4116 14.2684 83.1843 14.4004C82.957 14.5324 82.769 14.7236 82.6399 14.9541Z" fill="#6081A5"/>
<path d="M122.045 42.7083C121.653 42.4068 121.17 42.2517 120.678 42.2696H118.323V14.2037H90.1298V15.3582H90.7702C92.3196 15.3582 93.3259 15.7219 93.8462 16.4781C94.3665 17.2343 94.6066 18.3484 94.6066 19.9012C94.6394 24.0225 94.2834 28.1377 93.5431 32.1908C92.8771 35.7118 91.6715 39.1063 89.9697 42.2523H87.94C87.4474 42.2305 86.9632 42.386 86.5735 42.691C86.4026 42.8296 86.2649 43.0054 86.1708 43.2054C86.0767 43.4053 86.0287 43.6242 86.0304 43.8455V44.2207H122.588V43.8628C122.59 43.6415 122.542 43.4226 122.447 43.2227C122.353 43.0227 122.216 42.8469 122.045 42.7083ZM112.102 42.2696H94.881C96.5742 38.9255 97.721 35.3271 98.2772 31.6136C98.9862 26.4929 99.3035 21.3247 99.2263 16.1548H112.102V42.2696Z" fill="#6081A5"/>
<path d="M136.115 18.0136L125.824 44.3304H127.842L130.329 37.946H147.482L150.575 44.3304H158.86L147.162 17.7769C146.688 16.7122 145.919 15.8086 144.948 15.1746C143.978 14.5407 142.846 14.2035 141.69 14.2037C140.49 14.2028 139.317 14.5654 138.323 15.2446C137.33 15.9238 136.56 16.8884 136.115 18.0136ZM130.97 36.2662L137.488 19.6299C137.572 19.41 137.719 19.2203 137.91 19.085C138.101 18.9496 138.328 18.8747 138.561 18.8698C138.795 18.8648 139.025 18.93 139.221 19.0572C139.418 19.1843 139.573 19.3676 139.666 19.5837L146.784 36.2662H130.97Z" fill="#6081A5"/>
<path d="M169.74 18.0135L159.448 44.3303H161.467L171.432 18.9314C171.491 18.7781 171.594 18.6459 171.727 18.5516C171.86 18.4572 172.018 18.4048 172.181 18.4011C172.344 18.3974 172.504 18.4425 172.642 18.5307C172.779 18.6189 172.887 18.7463 172.953 18.8967L184.228 44.3592H192.501L180.798 17.8057C180.328 16.7321 179.559 15.8197 178.584 15.1801C177.609 14.5404 176.471 14.2012 175.309 14.2037C174.109 14.2024 172.937 14.5649 171.944 15.2442C170.951 15.9235 170.183 16.8883 169.74 18.0135Z" fill="#6081A5"/>
<path d="M222.564 14.1806H187.321V15.8142H200.992L201.037 44.3304H208.899V15.8142H222.564V14.1806Z" fill="#6081A5"/>
<path d="M241.208 13.5514C227.08 13.5514 220.751 21.4943 220.751 29.3623C220.751 40.1684 231.043 44.9999 241.208 44.9999C251.374 44.9999 261.665 40.1799 261.665 29.3623C261.665 21.4943 255.342 13.5514 241.208 13.5514ZM241.208 15.185C249.293 15.185 253.57 20.0628 253.57 29.2757C253.57 38.4886 249.293 43.4067 241.208 43.4067C233.124 43.4067 228.853 38.5232 228.853 29.2757C228.853 20.0281 233.124 15.185 241.208 15.185Z" fill="#6081A5"/>
<path d="M290.144 14.1806V33.4203H272.952V14.1806H265.09V44.3304H272.952V35.0539H290.144V44.3304H298V14.1806H290.144Z" fill="#6081A5"/>
<defs>
<linearGradient id="paint0_linear_225_2" x1="0.30957" y1="23.0481" x2="51.226" y2="23.0481" gradientUnits="userSpaceOnUse">
<stop stop-color="#FBF09C"/>
<stop offset="0.06" stop-color="#F9EC98"/>
<stop offset="0.13" stop-color="#F3E18B"/>
<stop offset="0.2" stop-color="#E8CF75"/>
<stop offset="0.27" stop-color="#D9B556"/>
<stop offset="0.34" stop-color="#C69430"/>
<stop offset="0.35" stop-color="#C6932F"/>
<stop offset="0.4" stop-color="#C89633"/>
<stop offset="0.45" stop-color="#CDA03E"/>
<stop offset="0.49" stop-color="#D6AF50"/>
<stop offset="0.54" stop-color="#E3C66A"/>
<stop offset="0.58" stop-color="#F3E28B"/>
<stop offset="0.6" stop-color="#FBF09C"/>
<stop offset="0.67" stop-color="#F8E994"/>
<stop offset="0.79" stop-color="#F0D87E"/>
<stop offset="0.94" stop-color="#E2BB5A"/>
<stop offset="1" stop-color="#DCAD49"/>
</linearGradient>
<linearGradient id="paint1_linear_225_2" x1="3.74347" y1="24.0911" x2="48.623" y2="24.0911" gradientUnits="userSpaceOnUse">
<stop stop-color="#FBF09C"/>
<stop offset="0.06" stop-color="#F9EC98"/>
<stop offset="0.13" stop-color="#F3E18B"/>
<stop offset="0.2" stop-color="#E8CF75"/>
<stop offset="0.27" stop-color="#D9B556"/>
<stop offset="0.34" stop-color="#C69430"/>
<stop offset="0.35" stop-color="#C6932F"/>
<stop offset="0.4" stop-color="#C89633"/>
<stop offset="0.45" stop-color="#CDA03E"/>
<stop offset="0.49" stop-color="#D6AF50"/>
<stop offset="0.54" stop-color="#E3C66A"/>
<stop offset="0.58" stop-color="#F3E28B"/>
<stop offset="0.6" stop-color="#FBF09C"/>
<stop offset="0.67" stop-color="#F8E994"/>
<stop offset="0.79" stop-color="#F0D87E"/>
<stop offset="0.94" stop-color="#E2BB5A"/>
<stop offset="1" stop-color="#DCAD49"/>
</linearGradient>
<linearGradient id="paint2_linear_225_2" x1="7.17731" y1="25.1364" x2="46.0199" y2="25.1364" gradientUnits="userSpaceOnUse">
<stop stop-color="#FBF09C"/>
<stop offset="0.06" stop-color="#F9EC98"/>
<stop offset="0.13" stop-color="#F3E18B"/>
<stop offset="0.2" stop-color="#E8CF75"/>
<stop offset="0.27" stop-color="#D9B556"/>
<stop offset="0.34" stop-color="#C69430"/>
<stop offset="0.35" stop-color="#C6932F"/>
<stop offset="0.4" stop-color="#C89633"/>
<stop offset="0.45" stop-color="#CDA03E"/>
<stop offset="0.49" stop-color="#D6AF50"/>
<stop offset="0.54" stop-color="#E3C66A"/>
<stop offset="0.58" stop-color="#F3E28B"/>
<stop offset="0.6" stop-color="#FBF09C"/>
<stop offset="0.67" stop-color="#F8E994"/>
<stop offset="0.79" stop-color="#F0D87E"/>
<stop offset="0.94" stop-color="#E2BB5A"/>
<stop offset="1" stop-color="#DCAD49"/>
</linearGradient>
<linearGradient id="paint3_linear_225_2" x1="10.6111" y1="26.1817" x2="43.4145" y2="26.1817" gradientUnits="userSpaceOnUse">
<stop stop-color="#FBF09C"/>
<stop offset="0.06" stop-color="#F9EC98"/>
<stop offset="0.13" stop-color="#F3E18B"/>
<stop offset="0.2" stop-color="#E8CF75"/>
<stop offset="0.27" stop-color="#D9B556"/>
<stop offset="0.34" stop-color="#C69430"/>
<stop offset="0.35" stop-color="#C6932F"/>
<stop offset="0.4" stop-color="#C89633"/>
<stop offset="0.45" stop-color="#CDA03E"/>
<stop offset="0.49" stop-color="#D6AF50"/>
<stop offset="0.54" stop-color="#E3C66A"/>
<stop offset="0.58" stop-color="#F3E28B"/>
<stop offset="0.6" stop-color="#FBF09C"/>
<stop offset="0.67" stop-color="#F8E994"/>
<stop offset="0.79" stop-color="#F0D87E"/>
<stop offset="0.94" stop-color="#E2BB5A"/>
<stop offset="1" stop-color="#DCAD49"/>
</linearGradient>
<linearGradient id="paint4_linear_225_2" x1="14.045" y1="27.2269" x2="40.8115" y2="27.2269" gradientUnits="userSpaceOnUse">
<stop stop-color="#FBF09C"/>
<stop offset="0.06" stop-color="#F9EC98"/>
<stop offset="0.13" stop-color="#F3E18B"/>
<stop offset="0.2" stop-color="#E8CF75"/>
<stop offset="0.27" stop-color="#D9B556"/>
<stop offset="0.34" stop-color="#C69430"/>
<stop offset="0.35" stop-color="#C6932F"/>
<stop offset="0.4" stop-color="#C89633"/>
<stop offset="0.45" stop-color="#CDA03E"/>
<stop offset="0.49" stop-color="#D6AF50"/>
<stop offset="0.54" stop-color="#E3C66A"/>
<stop offset="0.58" stop-color="#F3E28B"/>
<stop offset="0.6" stop-color="#FBF09C"/>
<stop offset="0.67" stop-color="#F8E994"/>
<stop offset="0.79" stop-color="#F0D87E"/>
<stop offset="0.94" stop-color="#E2BB5A"/>
<stop offset="1" stop-color="#DCAD49"/>
</linearGradient>
<linearGradient id="paint5_linear_225_2" x1="17.4788" y1="28.2723" x2="38.2084" y2="28.2723" gradientUnits="userSpaceOnUse">
<stop stop-color="#FBF09C"/>
<stop offset="0.06" stop-color="#F9EC98"/>
<stop offset="0.13" stop-color="#F3E18B"/>
<stop offset="0.2" stop-color="#E8CF75"/>
<stop offset="0.27" stop-color="#D9B556"/>
<stop offset="0.34" stop-color="#C69430"/>
<stop offset="0.35" stop-color="#C6932F"/>
<stop offset="0.4" stop-color="#C89633"/>
<stop offset="0.45" stop-color="#CDA03E"/>
<stop offset="0.49" stop-color="#D6AF50"/>
<stop offset="0.54" stop-color="#E3C66A"/>
<stop offset="0.58" stop-color="#F3E28B"/>
<stop offset="0.6" stop-color="#FBF09C"/>
<stop offset="0.67" stop-color="#F8E994"/>
<stop offset="0.79" stop-color="#F0D87E"/>
<stop offset="0.94" stop-color="#E2BB5A"/>
<stop offset="1" stop-color="#DCAD49"/>
</linearGradient>
<linearGradient id="paint6_linear_225_2" x1="17.9042" y1="31.0571" x2="32.5977" y2="24.0896" gradientUnits="userSpaceOnUse">
<stop stop-color="#FBF09C"/>
<stop offset="0.06" stop-color="#F9EC98"/>
<stop offset="0.13" stop-color="#F3E18B"/>
<stop offset="0.2" stop-color="#E8CF75"/>
<stop offset="0.27" stop-color="#D9B556"/>
<stop offset="0.34" stop-color="#C69430"/>
<stop offset="0.35" stop-color="#C6932F"/>
<stop offset="0.4" stop-color="#C89633"/>
<stop offset="0.45" stop-color="#CDA03E"/>
<stop offset="0.49" stop-color="#D6AF50"/>
<stop offset="0.54" stop-color="#E3C66A"/>
<stop offset="0.58" stop-color="#F3E28B"/>
<stop offset="0.6" stop-color="#FBF09C"/>
<stop offset="0.67" stop-color="#F8E994"/>
<stop offset="0.79" stop-color="#F0D87E"/>
<stop offset="0.94" stop-color="#E2BB5A"/>
<stop offset="1" stop-color="#DCAD49"/>
</linearGradient>
</defs>
</svg>
