<svg xmlns="http://www.w3.org/2000/svg" viewBox="0 0 314.2 284.02"><defs><style>.cls-1{fill:#fff;}.cls-2{fill:#a81b8d;}</style></defs><title>Ресурс 1</title><g id="Слой_2" data-name="Слой 2"><g id="Слой_1-2" data-name="Слой 1"><path class="cls-1" d="M39.22,183.4A39.33,39.33,0,0,1,0,144.19C0,122.84,17.87,105,39.22,105s39.22,17.86,39.22,39.21A39.33,39.33,0,0,1,39.22,183.4Zm0-60.12A20.48,20.48,0,1,0,59.7,143.75,20.45,20.45,0,0,0,39.22,123.28Z"/><path class="cls-1" d="M79.75,101.93H61V284H79.75Z"/><path class="cls-1" d="M116.79,0H98.05V182.09h18.74Z"/><path class="cls-1" d="M274.11,183.4a39.33,39.33,0,0,1-39.22-39.21c0-21.35,17.87-39.21,39.22-39.21s39.22,17.86,39.22,39.21S295.46,183.4,274.11,183.4Zm0-60.12a20.48,20.48,0,1,0,20.48,20.47A20.45,20.45,0,0,0,274.11,123.28Z"/><path class="cls-1" d="M314.2,101.93H295.46V284H314.2Z"/><path class="cls-1" d="M161.68,101.93H142.94v80.16h18.74Z"/><path class="cls-2" d="M161.68,47.05H142.94V77.1h18.74Z"/><path class="cls-2" d="M194.28,56.2,173,77.45l13.25,13.24,21.26-21.25Z"/><path class="cls-2" d="M216.59,101.93H186.52v18.74h30.07Z"/></g></g></svg>