<svg width="363" height="568" viewBox="0 0 363 568" fill="none" xmlns="http://www.w3.org/2000/svg">
<path d="M111.5 106.1C114.63 100.958 116.179 96.4618 119.9 91.5C121.1 89.9 122.3 88.3 123.5 86.8C125.8 84 127.6 80.7 130.8 78.6C132.1 77.4 133.4 76.1 134.7 74.9C145.701 66.9795 157.927 58.3856 172 58C172.8 58.4 173.3 59 173.6 59.8C175.6 70.1 176.2 80.7 176.7 91.1C177.9 112.2 179.3 133.3 178.7 154.5C178 175.3 177.3 196.1 175.4 216.9C174.1 231.4 172.5 245.8 170.2 260.1C169.6 263.8 171 264.8 174.4 264.7C177.8 264.6 181.1 263.9 184.5 263.6C186.3 263.4 188.2 262.9 190 263.7C192 267.8 190 271.8 189.5 275.8C185.7 309.5 180.5 343 173.9 376.3C173.5 378.5 173.8 380.6 173.5 382.7C172.2 383.6 171.7 386.5 171.7 386.5C162.7 433.9 152 481 140.3 527.8C138.3 535.8 136.5 544 133.8 551.8C127.6 550.3 121.3 549.9 114.9 550.3C113.7 550.4 112.4 550.5 111.7 549.1C110.5 540.7 110.1 532.2 110.1 523.8C109.9 484.2 109.9 444.5 110.1 404.8C110.1 396.9 108.7 389.1 109.1 381.2C109.2 379 109 376.9 109.6 374.8C110.2 372.8 111.8 372.9 113.3 373C117.4 373.4 119.5 371.3 120.7 367.6C124.1 357.2 127 346.7 130.1 336.2C133.7 325.9 136.6 315.3 139.8 304.8C142.2 297 141.2 295.5 133.5 293.1C127 291.1 120.7 288.7 114.1 287.1C112.1 286.6 110.2 285.9 109.6 283.6C109.2 277.8 108.7 272.1 109.9 266.3C111.5 263.9 114 264.5 116.2 264.9C124.3 266.1 132.3 267.3 139.1 269.4C134.4 268.5 129.1 266 124.1 263C119.8 260.5 117.7 256.6 117.6 251.5C117.4 238.6 119.9 226 122.3 213.4C127.6 185.5 134.2 157.9 142.1 130.6C143 127.4 144.1 124.3 145.2 120.5C141.6 131.1 138.8 141.3 135.3 151.3C128.5 170.7 122.1 190.2 115.3 209.6C111.89 219.261 108.986 229.054 106.5 239C104.8 244.4 103.4 249.9 101.8 255.3C101.2 257.4 100.6 259.4 98.2 260.2C91.3 261 84.9 260.1 79.3 255.7C78.4 253.7 79 251.8 79.3 249.8C81.5932 235.713 85.6787 166.35 111.5 106.1Z" fill="#0C3B56"/>
<path d="M334.1 202.199C336.4 203.099 338.699 203.899 340.999 204.799C342.199 209.699 340.6 213.999 337.9 217.999C336.9 218.599 335.799 218.699 334.699 218.799C321.099 218.499 307.699 216.499 294.199 214.899C271.599 212.199 249.299 208.399 227.599 201.199C224.299 200.099 223.899 201.399 224.099 204.199C225.099 214.199 226.3 224.099 227.4 234.099C228.1 240.899 228.799 247.599 229.599 254.399C230.199 259.699 229.199 261.199 223.999 262.799C220.999 263.699 219.599 265.299 219.699 268.399C219.799 270.099 219.699 271.799 219.699 273.499C219.699 313.799 219.699 354.099 219.699 394.399C219.699 397.099 220.399 399.999 218.199 402.299C215.299 400.899 215.999 398.199 215.999 395.899C215.899 381.399 216 366.899 215.9 352.299C215.9 326.699 215.599 300.999 216.099 275.399C216.199 268.499 213.799 263.799 209.099 259.499C213.899 250.399 212.899 240.499 213.099 230.899C213.299 222.899 213.099 214.799 213.199 206.799C213.599 167.099 209.799 127.799 204.499 88.5993C203.799 83.6993 202.599 78.8993 202.699 73.8993C202.999 72.3993 203.9 71.5993 205.4 71.3993C208.5 72.1993 210.299 74.2994 211.599 76.9994C212.799 79.0994 213.999 81.0993 215.199 83.1993C230.867 105.582 240.312 141.101 251 168C278.601 191.101 321 197.073 334.1 202.199Z" fill="#0C3B57"/>
<path d="M206 72.1C205.2 72.4 204.3 72.7 203.5 73C201.5 74.7 197.1 72.8 195 71.5C192.722 70.1385 175 64.5 172 58C172.6 56.1 172.7 53.4 173.6 51.7C174.5 48.3 176.6 41.9 177.5 38.5C177.9 38.3 177.1 41.1 177.6 41.2C180 42.2 181.7 41.1 183.4 39.6C186.6 36.8 188.5 33.1 190.5 29.4C193.7 23.4 197.1 23.2 201.4 28.3C202.2 29.2 202.7 30.8 204.1 30.4C205.8 30 205.6 28.2 205.6 26.9C205.6 22.2 205 17.7 202.6 13.6C201.8 12.3 200.5 11.1 201.6 9.39999C202.7 7.79999 204.5 7.59999 206.2 7.89999C210.9 8.69999 215.5 9.9 219.5 12.6C219.8 13.2 220.2 13.9 220.5 14.5C221.8 15.7 222.1 17.5 222.5 19C222.1 24.1 223.4 28.8 224 33.8C224.2 35.2 225.3 35.8 226.2 36.6C226.2 37.8 226.3 39.1 226.3 40.3C226.8 42.5 227.5 44.6 228.6 46.6C238.298 63.8885 207.5 66 200.6 57.8C202.9 60.4 205.8 61.8 208.5 64C207.4 66.5 208.2 70.2 206 72.1Z" fill="#E99F81"/>
<path d="M219.6 12.6C215.3 11.3 211.1 9.99999 206.8 8.89999C205.4 8.49999 203.5 7.99999 202.5 9.39999C201.2 11.1 203.2 12.1 204 13.3C207.1 18.4 207.3 24.1 207.1 29.8C207 31.1 206.3 32.2 205 32.6C203.5 33.1 202.8 32 202 31C196.1 23.6 194.6 23.8 190.5 32.4C188.4 36.8 185.8 40.7 181.1 42.7C179.8 43.2 177.8 44.7 177.1 41.8C177.4 35.8 179.5 30.2 180.4 24.3C180.9 21.1 181.8 18 181.6 14.7C181.5 11.6 183.2 9.49999 185.9 8.19999H185.8C188 6.29999 190.7 5.39999 193.3 4.39999C195 3.59999 197.2 4 198.7 2.5C206.4 0.499996 214.1 0.599999 221.8 2.8C223.5 3.6 225.3 4.5 227 5.3C229.3 8.1 226.5 9.1 225.1 10.6C223.5 12 221.5 12.1 219.6 12.6Z" fill="#10334D"/>
<path d="M351.8 202.9C356.7 204.5 360.5 207.2 361.4 212.7C361.7 214.3 362.8 216.2 361 217.3C359.2 218.3 357.5 217 356 215.8C354.5 214.6 355.3 211.1 352.7 211.4C349.8 211.7 347.4 213.6 345.2 215.5C343.6 217 342 218.4 339.7 218.6C339.5 218.6 339.3 218.6 339.2 218.6C338.7 218.4 338.3 218.1 338 217.6C339 213.4 340 209.2 340.9 205C344.1 204 347.4 203 350.6 202C351.1 202.2 351.7 202.2 351.8 202.9Z" fill="#EAA081"/>
<path d="M221.8 2.8C214.1 1.5 206.4 1.8 198.7 2.5C206.4 -0.399999 214.1 -0.599996 221.8 2.8Z" fill="#EEF4F9"/>
<path fill-rule="evenodd" clip-rule="evenodd" d="M223.271 20.5819C223.048 20.1771 222.794 19.6608 222.5 19C221.333 22.8264 222.177 26.5266 223.025 30.237C223.484 32.2478 223.943 34.2615 224.084 36.3C224.184 37.9 225.984 37.2 227.084 36.6C227.256 36.4966 227.381 36.4526 227.512 36.4066C227.76 36.3191 228.029 36.2243 228.684 35.7C229.684 34.9 229.284 30.7 227.784 28.4C227.595 28.0911 227.401 27.788 227.207 27.4868C226.68 26.6662 226.161 25.8593 225.795 24.9843C224.992 23.7018 223.93 21.962 223.271 20.5819Z" fill="#E19476"/>
<path d="M193.3 4.3C190.8 5.6 188.3 6.80001 185.8 8.10001C186 6.50001 187.8 6.3 188.5 5.2C190.1 4.9 191.7 4.6 193.3 4.3Z" fill="#EEF4F9"/>
<path d="M225.1 10.6C226.1 9.00001 227.8 7.6 227 5.3C229 8 228.8 8.70001 225.1 10.6Z" fill="#EEF4F9"/>
<path d="M185.8 4.89999C186.9 4.29999 187.3 3.89999 187.8 3.69999C188.4 3.49999 189 3.4 188.8 4.3C188.7 4.6 188.8 5.3 188.1 5.1C187.5 5.1 187 5.09999 185.8 4.89999Z" fill="#EEF4F9"/>
<path d="M217.3 565.4C212.1 565.1 206.9 564.7 201.7 564.4C199.3 564.3 198.4 563.3 198.6 561C198.9 556.6 198.7 552.1 199.7 547.8C200.2 546.8 201 546.1 202.1 545.9C207 545.3 211.8 545.3 216.7 545.9C217.8 546.1 218.5 546.9 219.2 547.8C224.9 551.2 230.5 554.6 236.2 557.9C238.8 559.4 240.1 561.2 239.3 564.2C235.6 566.2 231.6 565 227.7 565.2C224.3 565.4 220.8 565.4 217.3 565.4Z" fill="#030405"/>
<path d="M109.6 557.1C110.5 554.6 111.4 552.1 112.4 549.6C119.6 548.8 126.9 547.1 133.7 551.4C134.6 553 135.4 554.6 136.3 556.3C136.3 556.5 136.3 556.6 136.3 556.8C139.1 565.6 139.1 565.6 129.9 565.6C124.5 565.6 119.1 565.6 113.7 565.3C107.9 565 107.9 564.9 109.3 559.4C109.5 558.7 109.5 557.9 109.6 557.1Z" fill="#060709"/>
<path d="M137.2 567.1C129.9 567.1 122.6 567.1 115.2 567.1C115.2 567 115.2 566.8 115.2 566.7C122.5 566.7 129.9 566.7 137.2 566.7C137.2 566.8 137.2 567 137.2 567.1Z" fill="#F1F1F1"/>
<path d="M219.2 547.8C212.7 546.5 206.2 546.2 199.7 547.8C196.7 537.8 195.8 527.5 194.1 517.3C187.1 475.2 180.2 433.1 173.3 391.1C172.884 388.603 172.6 384 172.6 384C171.5 373.4 175.5 363.6 176.9 353.4C179 338.3 182.1 323.3 183.9 308.1C185.6 294.3 187.5 280.5 189.4 266.8C189.5 265.9 190 265.1 190.3 264.2C196 260.9 202 259 208.6 259.4C210.4 259.7 213.3 258.3 212.6 262.2C212.5 263 212.9 264 213.7 263.9C218.7 263.3 217.1 266.9 217.1 269.2C217.2 311.8 217.2 354.5 217.2 397.1C217.2 398.9 216.5 400.9 218.2 402.3C218.4 419.4 218.6 436.6 218.7 453.7C219 485.1 219.1 516.4 219.2 547.8Z" fill="#0F324C"/>
<path d="M110.3 284.2C118.8 287.8 127.8 289.8 136.6 292.7C141.5 294.3 143.4 296.4 142 301.2C138.7 313.1 135.5 324.9 131.1 336.4C129 339.9 126 339.6 122.6 338.7C111.9 335.7 101.4 332.4 90.8 329.3C87.8 328.4 84.9 327.8 81.8 327.4C80.3 325.2 82.1 323.3 82.6 321.4C83.5 318.2 82.4 316.6 79.3 315.7C74.9 314.4 70.4 313.3 66.1 311.7C62.6 310.4 60.6 311.5 59.6 315.1C59.1 317 59.1 319.1 57.8 320.7C46.2 314.7 33.5 312 21.1 308.4C19.3 307.9 17.4001 307.6 15.9001 306.6C12.2001 303.9 11.6001 306.3 10.7001 309.3C9.60007 312.8 10.0001 317.1 5.90009 319.2C5.50009 318.9 3.60006 325.4 3.50006 325C3.80006 320.1 7.30004 308.8 8.60004 304.2C9.90004 301.2 10.4001 297.9 11.4001 294.8C12.7001 290.5 13.8 286.1 15.1 281.8C17 276.9 18.1 271.8 19.8 266.8C22.3 259.9 25 258.4 32.1 260.4C41.6 263.1 51.1001 265.7 60.4001 268.9C63.6001 270 65.4001 269.1 66.2001 265.9C69.5001 260 72.6001 259 77.5001 262.3C78.1001 263.6 78.0001 264.7 76.9001 265.7C76.0001 266.3 74.9001 266.3 73.9001 266.7C72.0001 267.3 71.3 268.8 71.3 270.6C71.3 272.3 72.8001 272.7 74.2001 273.1C77.8001 274 81.2001 275.2 84.7001 276.3C87.5001 277.2 90.3 277.9 93.1 278.8C95.2 279.5 97.4001 280.2 98.4001 277.2C99.3001 274.6 97.8001 273.5 95.7001 272.8C95.3001 272.6 94.9001 272.4 94.5001 272.2C93.2001 271.1 91.9001 269.8 93.0001 267.9C94.0001 266.3 95.7001 266.8 97.2001 267.2C98.1001 267.4 99 267.7 99.8 268C103.8 269.5 105.8 272.5 104.7 276.6C103.6 280.6 104.3 282.8 108.5 283.4C109.2 283.1 109.8 283.7 110.3 284.2Z" fill="#7B3C11"/>
<path d="M208.7 259.2C202.6 260.8 196.5 262.4 190.4 264C184.3 264.7 178.1 265.2 172 266.1C168.3 266.6 167.9 265.2 168.4 262C172.3 238.2 174.5 214.2 175.8 190.1C178.2 147.6 177.3 105.2 172.7 62.9C172.5 61.5 172.5 60.1 172.4 58.7C179.9 61.8 186.7 66.3 193.6 70.4C196.8 72.3 199.8 73.4 203.5 72.7C211.5 124.4 215.8 176.4 214.5 228.7C214.3 236.1 213.7 243.5 213.7 250.9C213.7 255.2 212.6 258 208.7 259.2Z" fill="#DDE7F2"/>
<path d="M11.0001 296.5C9.50006 306.5 15.5001 303 38.5001 312.5C43.617 314.614 49.7 315.4 55 317C56.8 317.5 56.4 319.7 57.7 320.5C62.9 320.8 67.7 323 72.6 324.4C75.7 325.3 78.8 325.8 81.8 327C86.1 324.8 89.8 327.7 93.6 328.8C103.9 331.6 114 334.9 124.2 337.9C126.8 338.7 129 337.8 131.1 336.3C127.9 347.3 124.8 358.4 121.3 369.3C119.7 374.5 117.2 375.3 110.6 373.6C107.1 372.6 103.7 371.6 100.2 370.7C98.3 371.3 96.5 370.7 94.8 370.2C86.1 367.4 77.3 365.1 68.7 362.2C51.1 357 33.6 351.4 15.9 346.4C12.5 345 8.8 344.5 5.5 343.1C3.1 342.1 0.7 341 0 338.1C6.50006 311 6.50006 310 11.0001 296.5Z" fill="#6F300E"/>
<path d="M125 176.6C131 157.6 137.9 138.9 144.4 120C144.7 119.3 144.8 118.5 146 118.1C143.5 128 141.5 137.9 138.5 147.5C134.5 160.6 131.9 174 128.7 187.2C125.1 202.1 122.2 217.1 119.9 232.3C118.8 239.4 118 246.6 118.5 253.9C118.8 257.9 121.2 260.7 124.7 262.5C129.7 265.2 127.9 264.7 133.5 266C134.7 266.3 167.5 265 170 266.2C163.7 265 131.5 269.2 125.4 268C120.3 267 115.3 266.8 110 267.2C110 258.5 114.5 223 125 176.6Z" fill="#0F324D"/>
<path d="M98.1 260C98.3 262.8 99.5 265.4 99.2 268.3C98.3 268.1 97.4 268 96.5 267.8C95.4 267.6 94 266.6 93.3 268.2C92.6 269.7 94.2 270.3 94.8 271.2C96.4 274.3 94.4 275.4 92 276C89.3 276.8 86.6 276.4 84 275.3C81.8 274.4 79.5 273.5 77.8 271.8C76 269.9 74.3 267.9 76.4 265.1C76.8 264.1 77.1 263.1 77.5 262.2C77.3 260.9 77.9 260 79 259.3C79.5 258.2 80 257 80.5 255.9C86 258.4 92 259.3 98.1 260Z" fill="#F3A889"/>
<path d="M213.9 105.5C217 116.4 218.5 127.6 220.2 138.8C222.7 156 222.5 173.4 224.8 190.5C225.2 193.5 226.1 196.5 229.6 198.7C222 196.7 221.1 195.6 221.1 188.8C221.1 172.2 219 155.8 217.6 139.3C216.5 128 214.3 116.9 213.9 105.5Z" fill="#0E344F"/>
<path d="M339.7 218.6C338.5 218.4 337.3 218.3 336.1 218.1C336.7 217.9 337.4 217.8 338 217.6C338.7 217.7 339.4 217.8 339.7 218.6Z" fill="#F3A98B"/>
<path d="M209 61.9C207.5 68.5 208.5 68 203.7 62.5C201.7 60.5 199.3 58.8 198.3 55.8C201.8 57.9 206.2 58.5 209 61.9Z" fill="#DE9072"/>
<path d="M81.8 327.1C79.3 328.7 77.1 326.8 74.9 326.2C69.1 324.5 63.1 323.5 57.7 320.6C57.7 319.7 57.5 318.7 57.8 317.8C60.3 308.6 60.1 307.9 68.5 311C72.4 312.4 76.4 313.8 80.4 314.6C84.7 315.4 85.1 317.4 84.1 321.1C83.5 323.2 82.1 324.9 81.8 327.1Z" fill="#844513"/>
<path d="M195 90.5C193.8 87.7 192.4 84.9 193.7 81.6C194.4 79.8 195.3 78.2 197.5 78.1C199.6 78 200.8 79.5 201.7 81.2C202.4 82.6 202.9 84.3 202.4 85.7C200.1 91.4 202.4 96.9 203 102.5C206.3 130 208.8 157.5 210.3 185.1C210.6 190.2 210.5 195.3 209.7 200.4C209.2 203.5 208.5 206.5 206.9 209.2C205.7 211.3 204 212.9 201.4 212.8C198.6 212.7 196.9 210.9 196 208.5C194.3 204.1 194.2 199.4 194.2 194.8C194.5 175.6 194.8 156.5 195.1 137.3C195.1 135.3 195 133.3 194.9 131.3C193.6 127.8 194.9 124.3 194.8 120.9C194.6 112.9 195.3 104.9 194.4 96.9C194.3 94.8 194.7 92.7 195 90.5Z" fill="#1AD3C5"/>
<path d="M195 90.5C195.9 104.1 195.8 117.7 195.1 131.3C194 130.6 194.1 129.5 194.1 128.4C194.1 116.7 194.1 105.1 194.1 93.4C194.1 92.4 194 91.3 195 90.5Z" fill="#E7E9F6"/>
</svg>
