<svg width="238" height="559" viewBox="0 0 238 559" fill="none" xmlns="http://www.w3.org/2000/svg">
<path d="M44.4 196.7C61.5 188.8 78.6 180.9 95.7 172.9C104.3 168.9 113.2 165.3 117.7 155.9C118.9 154 120 152.1 121.4 150.3C124.1 145.5 126.6 140.4 129.6 135.9C132.9 130.9 132.9 125.2 134.3 119.7C135.4 118.3 134.1 116.4 135.2 115.1C135.9 110.1 136.3 105.1 138 100.3C138.9 97.6 139.1 94.7 139.9 92C140.7 89.6 140.8 87 141.8 84.6C142.1 81.8 142.5 79 142.8 76.1C151.7 71.9 160.9 68.4 170.1 64.7C172.7 63.7 175.3 62.7 177.6 61.2C179.4 60.6 179.1 62.5 179.8 63.2C185.7 70 191.5 76.8 197.4 83.6C198.2 84.9 199.3 86 200.2 87.3C204.6 94.5 208.6 101.9 212.3 109.6C213.1 111.1 213.3 112.8 214.2 114.2C216.7 123.9 219.3 133.5 222.5 143C223.3 145.7 223.5 148.6 224.4 151.4C224.3 154.3 224.7 157.2 226.2 159.7C227.4 161.4 225.9 163.6 227.1 165.3C228.2 166.7 226.9 168.6 228 169.9C227.7 172.1 228.4 174.3 228.9 176.4C230 177.8 228.7 179.7 229.8 181C229.8 181.3 229.8 181.6 229.8 181.9C230.9 183.3 229.6 185.2 230.7 186.5C230.6 196 233.2 205.3 233.7 214.8C234.1 223.2 235.8 231.5 236.2 239.9C236.8 254.7 238.5 269.6 237 284.3C236.1 293.8 237.5 303.3 235.6 312.7C233.3 310.7 234.4 307.8 234 305.4C233.3 293 235.3 280.7 234.9 268.4C234.7 263.5 234.9 263.6 230 265C217.5 268.7 204.6 270.2 191.6 271.4C179 272.5 166.3 273 153.7 271.5C147.7 270.8 141.8 270 135.8 269.3C131.4 268.2 126.9 267.8 122.6 266.3C122.1 266.1 121.6 265.7 121.2 265.3C119.4 263 119.8 260.3 119.7 257.8C118.9 238.2 121.3 218.8 121.9 199.2C121.9 198 122.5 192.8 123.5 192C129.5 195.3 130.1 200.9 128.5 208.5C127.3 214.1 128.9 219.5 129.4 225C129.5 226.2 130 227.4 131.2 228.1C134 229.7 135.2 227.8 136.1 225.8C137.6 222.5 138 219 138.2 215.5C138.6 209.2 139.7 203 139.3 196.7C139.1 194.2 139.9 191.8 140.4 189.5C141.2 185.2 145.1 183.1 147.7 180.1C158 168.6 166.9 156 174.3 146.2C165.5 157.1 154.5 170.2 141.6 181.7C141.1 182.4 140.5 183 139.9 183.6C136.4 186.3 133 189 129.7 191.9C129.3 192.2 129 192.4 128.6 192.6C126.9 193.3 125.2 193.9 123.6 194.7C108.9 199.9 93.8 203.8 78.6 207.3C69.7 209.3 60.9 211.6 52 213.5C50.2 213.9 48.4 214.6 46.5 214.2C44.2 208.9 42.6 203.2 40.2 197.9C41.7 196.7 43.3 197.7 44.4 196.7Z" fill="#DDE7F2"/>
<path d="M124.2 66.8C123.3 66.5 122.4 66.2 121.5 65.9C117.8 62.5 116.7 58.3 118.7 53.5C119.6 51.2 120.6 48.9 122.3 47.1C124.2 46.4 125.5 47.7 127 48.5C130.2 50.3 133.5 50.2 136.9 49.2C140.1 48.3 141.9 46.2 141.6 42.7C140.7 33.8 139.1 25 140.1 15.9C140.4 13.6 138.7 13 136.7 13.4C134.9 13.7 133.2 14.7 131.5 15.4C129.8 16.1 128.2 17.3 126.3 16C125.4 16 124.6 15.7 124.1 14.9C122.6 13.6 121 12.3 119.9 10.7C117.2 6.79999 118.5 3.39999 123 1.89999C124.8 1.29999 126.7 1.4 128.5 1.3C140 0.499999 151.2 1.4 161.9 6C162.5 6.2 163.1 6.3 163.2 7C164.1 7.5 165 8 165.8 8.5C169.1 10.6 168.9 14.3 169.4 17.5C170.4 23.2 171.2 29 171.2 34.8C171.1 36.8 171.4 38.8 171.6 40.8C172 44.6 170.7 45.8 166.8 45.7C160.3 45.6 156.4 42.1 155.5 35.4C155.3 34.2 155.2 32.9 154.4 31.9C153.4 30.5 152.1 29.3 150.2 29.7C148.3 30.1 147.4 31.5 147.1 33.3C146.5 37.3 147.3 40.9 149.5 44.3C150.8 46.4 152.6 48.1 154.1 50.1C157.5 54.4 157.3 55.7 152.9 59C148.3 62.4 142.8 63.6 137.6 65.7C135.4 66.1 133.1 66.4 130.9 66.8C128.5 67.6 126.4 67.6 124.2 66.8Z" fill="#49261B"/>
<path d="M152 58.5C156.3 56 155.7 53.5 152.5 50.3C148.2 46.1 145 41.2 145.3 34.8C145.4 31.3 146.4 28.2 150.6 28C153.8 27.8 156.5 30.9 156.8 34.8C157.4 42 159.4 43.8 166.8 44.4C169.8 44.6 171.2 43.9 170.7 40.7C170.5 39 170.7 37.3 170.7 35.6C170.8 35.4 170.8 35.1 170.9 34.9C171.1 35.1 171.2 35.3 171.4 35.4C171.5 36.6 171.5 37.8 171.6 39C172.6 41.4 171.3 44.1 172.4 46.5C172.3 47.2 172.4 47.9 173 48.3C174.4 49.5 174.3 51.5 175.1 53C175.3 53.6 175.5 54.2 175.7 54.8C177 56.8 178.4 58.8 178.3 61.4C177.4 63.6 175.2 63.7 173.4 64.4C164.6 68 155.9 71.6 147.1 75.2C145.7 75.8 144.3 76.3 142.7 76V76.1C141.9 73.7 142 71.1 141.2 68.7C144.4 64.8 148 61.4 152 58.5Z" fill="#F3A88A"/>
<path d="M126.2 16C129.5 15.5 132.2 13.7 135.1 12.4C136.8 11.7 138.7 11.1 140.4 12.3C142.2 13.6 141.6 15.6 141.2 17.4C139.7 24.5 141.8 31.5 142.1 38.5C142.2 42.2 144.9 46.7 139.9 49.3C134.8 51.9 129.6 52.5 124.7 48.6C124 48 123.2 47.6 122.4 47.1C120.9 45.5 122.5 43.3 121.4 41.7C121.2 41.4 121.1 41.2 121.2 40.9C121.3 40.6 121.4 40.5 121.4 40.5C122.6 39.8 123.8 39.1 123.8 37.4C123.8 32.4 125.4 27.4 124.5 22.3C125.1 20.3 125.7 18.1 126.2 16Z" fill="#F3A88A"/>
<path d="M40.6 197.7C44.6 202.2 46.4001 207.5 46.5001 213.4C46.2001 213.7 45.8 213.8 45.3 213.9C40 214.1 36.9001 218.4 33.0001 221C32.0001 221.7 31.4 222.8 30.3 223.3C23.5 224.3 19.2001 220 15.0001 215.7C13.9001 214.6 13.9 212.9 14.6 211.4C17.8 208.7 21.0001 206.1 24.7001 204.2C24.7469 204.177 31.4001 200.5 29.1 198.5C27.9 198.1 26.0001 197.7 27.2001 195.5C28.6001 195.6 30.1001 195.1 31.4001 195.9C33.0001 197.2 34.9001 197 36.7001 196.9C37.9001 197.6 39.5 196.6 40.6 197.7Z" fill="#F3A98B"/>
<path d="M163 7.00003C152.3 2.60003 141.2 0.900034 129.7 1.60003C126 1.80003 121.3 0.900034 119.5 5.10003C117.6 9.40003 121.8 11.9 124 14.8C121.4 14.2 119.9 12.2 118.7 10.1C116.5 6.40003 118.1 2.70003 122.2 1.50003C124.4 0.900027 126.7 0.300024 128.9 0.200024C139.7 -0.199976 150.3 0.700025 160.4 4.70002C161.5 5.10002 162.8 5.50003 163 7.00003Z" fill="#EEF4F9"/>
<path d="M124.5 22.4C127.2 24.5 126.1 27.6 125.8 30.1C125.4 32.8 124.9 35.5 125.1 38.2C125.4 41.6 123.8 41.7 121.4 40.8C118.4 39.6 118.8 37.2 119.5 34.9C120.5 31.5 121.8 28.2 123.3 25C123.7 24.2 124.1 23.3 124.5 22.4Z" fill="#E5987B"/>
<path d="M152 58.5C149.1 61.7 146.3 64.8 143.4 67.9C143.2 68.2 142.3 67.9 141.7 67.8C140.3 67.4 140.7 65.8 139.9 64.9C138.8 64.4 138.3 65.6 137.4 65.6C137.5 63.3 139.6 64 140.8 63.4C144.6 61.8 148.3 60.1 152 58.5Z" fill="#D88D71"/>
<path d="M171.4 35.5H171L170.7 35.7C169.9 28.4 169.7 21.1 167.9 13.9C167.4 11.9 166.8 10.1 165.6 8.5C168.9 8.7 168.8 11.7 169.2 13.6C170.7 20.8 172 28.1 171.4 35.5Z" fill="#EEF4F9"/>
<path d="M121.5 41.7C123.4 43.2 122.1 45.3 122.5 47.1C120.8 49.7 119.6 52.4 118.8 55.4C117.6 59.5 119.1 62.8 121.5 65.9C117 64.1 116.9 60.5 117.3 56.5C117.8 51.4 122.5 47.4 121.5 41.7Z" fill="#EEF4F9"/>
<path d="M123.3 25.1C122.3 28.4 121.2 31.8 120.2 35.1C119.5 37.3 119.4 39.3 121.5 40.9C121.5 41.2 121.5 41.5 121.5 41.8C118.2 41 118.2 38.2 118.8 36C119.7 32.1 120.5 28.1 123.3 25.1Z" fill="#EEF4F9"/>
<path d="M140 65C141.5 65.4 141.2 66.9 141.8 67.9C142.1 70.7 143.4 73.3 142.9 76.2C141.5 72.5 140.2 68.9 140 65Z" fill="#EEF4F9"/>
<path d="M178.4 61.4C177.5 59.2 176.7 57 175.8 54.8C179.1 56.6 179.2 60 179.9 63.1C179.4 62.6 178.9 62 178.4 61.4Z" fill="#EEF4F9"/>
<path d="M140 91.9C140.1 94.8 139.7 97.7 138.1 100.2C138 97.3 138.4 94.5 140 91.9Z" fill="#EEF4F9"/>
<path d="M224.4 151.3C222.8 148.7 222.5 145.9 222.5 142.9C224.1 145.5 224.4 148.3 224.4 151.3Z" fill="#EEF4F9"/>
<path d="M121.4 150.3C120.8 152.6 119.7 154.5 117.7 155.9C118.1 153.5 119.2 151.5 121.4 150.3Z" fill="#EEF4F9"/>
<path d="M141.8 84.5C141.9 87.1 141.3 89.6 139.9 91.9C139.9 89.2 140 86.6 141.8 84.5Z" fill="#EEF4F9"/>
<path d="M172.4 46.5C170.8 44.1 171.7 41.5 171.6 39C173.3 41.4 172.1 44.1 172.4 46.5Z" fill="#EEF4F9"/>
<path d="M124.2 66.8C126.4 66.8 128.5 66.8 130.7 66.8C128.5 68.4 126.4 68.3 124.2 66.8Z" fill="#EEF4F9"/>
<path d="M175.2 53.1C173.9 51.8 173.5 50.1 173.1 48.4C175.1 49.3 175.2 51.2 175.2 53.1Z" fill="#EEF4F9"/>
<path d="M214.2 114.2C212.7 113 212.3 111.4 212.3 109.6C213.8 110.7 214.2 112.3 214.2 114.2Z" fill="#EEF4F9"/>
<path d="M26.8 195.9C26.4 195.6 26 195.3 25.7 195C27.6 195.2 29.7 194.2 31.5 195.8C29.9 195.8 28.3 195.8 26.8 195.9Z" fill="#EEF4F9"/>
<path d="M227.2 165.2C225.5 163.6 226.6 161.5 226.3 159.6C227.9 161.2 226.9 163.3 227.2 165.2Z" fill="#EEF4F9"/>
<path d="M0.999976 190.2C0.699976 189.8 0.300001 189.5 0.400001 189.2C0.500001 188.9 0.899964 188.5 1.29996 188.5C1.89996 188.4 2.49999 188.8 2.19999 189.5C2.09999 189.8 1.49998 189.9 0.999976 190.2Z" fill="#EEF4F9"/>
<path d="M200.3 87.3C198.8 86.5 197.6 85.5 197.5 83.6C199 84.3 200.2 85.4 200.3 87.3Z" fill="#EEF4F9"/>
<path d="M172.2 21.3C171.4 20.5 171.4 19.5 171.9 18.5C173 19.4 172.1 20.4 172.2 21.3Z" fill="#EEF4F9"/>
<path d="M125.3 68.7C126.1 68.8 127.6 68.8 127.7 68.9C127.8 70 126.8 69.4 126.3 69.5C125.9 69.6 125.5 69.3 125.1 69.2C125.1 69.1 125.2 68.9 125.3 68.7Z" fill="#EEF4F9"/>
<path d="M228.1 169.8C226.6 168.5 227.4 166.7 227.2 165.2C228.7 166.5 227.9 168.2 228.1 169.8Z" fill="#EEF4F9"/>
<path d="M135.3 115.1C135.1 116.7 135.9 118.4 134.4 119.7C134.6 118.2 133.8 116.4 135.3 115.1Z" fill="#EEF4F9"/>
<path d="M230.9 186.5C229.4 185.2 230.2 183.4 230 181.9C231.5 183.2 230.7 184.9 230.9 186.5Z" fill="#EEF4F9"/>
<path d="M229.9 180.9C228.4 179.6 229.2 177.8 229 176.3C230.6 177.6 229.7 179.4 229.9 180.9Z" fill="#EEF4F9"/>
<path d="M194 505C191.2 489.7 188.4 474.5 185.5 459.2C181.8 447.5 180.7 435.2 178 423.2C177 418 176.2 412.8 175.3 407.6C174.5 400.8 172.6 394.1 172 387.2C170.842 373.886 172.725 391.417 166.1 360.5C160.2 332.3 154.1 304.2 148.3 276C147.6 272.8 145.9 271.9 143 271.2C140.3 270.6 136.6 271.8 135.3 267.9C149.3 269.6 163.2 271.2 177.3 270.6C195.1 269.9 212.8 268.4 230 263.3C236.8 261.3 236.8 261.2 236.5 268.4C236.1 280.6 235.7 292.8 235.4 305C234.3 309.1 234.7 313.3 234.6 317.4C233.9 337.6 233.2 357.9 232.6 378.1C232.5 379.8 232.7 381.5 232.8 383.2C233.1 383.6 233.3 384 233.4 384.4C233.5 386.3 233.3 388.2 233.3 390.1C232.6 406.6 232.3 423.2 231.2 439.7C231.2 441.8 231.5 443.9 231.5 446.1C231 450.2 229.7 454.3 230.3 458.6C229.4 467.7 229 476.8 228.1 485.8C227.1 493.1 226.8 500.4 226.5 507.8C226.5 510.2 225.5 512.5 225.6 514.9C225.6 516.8 225.5 518.7 225.4 520.6C224.5 526.7 224.3 532.9 223.7 539C223.5 541.3 223.6 543.7 221.7 545.4C214.7 545.9 207.8 546.4 200.9 544.7C199 543 198.8 540.7 198.4 538.4C197.4 532.5 196.1 526.6 195.2 520.7C195.2 518.4 194.4 516.3 194.1 514.1C193 511.2 194.7 508 194 505Z" fill="#0C3B57"/>
<path d="M135.3 268C138.6 270.4 142.7 269.5 146.3 270.7C147.8 271.2 148.9 271.4 149.3 273.4C152.1 287.4 155.1 301.3 158 315.2C161.6 332.6 164.7 350.1 169 367.3C170.6 373.7 168.9 379.8 169.8 385.9C169.8 386.1 169.9 386.4 169.9 386.6C170 389.4 169.9 392.1 170 394.9C169.5 405.4 168.3 415.7 165.9 425.9C163.579 436.347 163.821 444.5 162.1 458.8C160.8 469.6 159.3 480.4 158.1 491.3C156 509.9 154 528.6 152 547.3C151.9 547.9 152.1 548.5 152.1 549.1C151.7 556.3 151.7 556.4 144.5 556.6C142.4 556.7 140.3 556.5 138.2 556.5C139.3 553.2 142.2 554.6 144.4 554.2C146.1 553.9 148.5 554.6 149.2 552.3C150.1 549.3 150.3 546.2 149 543.3C148.4 541.9 146.6 542.1 145.2 542.1C142 542 138.7 542.1 135.5 542C133.7 541.9 131.7 542.2 130.4 540.5C128.5 532.6 129.2 524.5 129.5 516.6C129.9 501.3 127.6 486.2 127.1 471C126.8 461.3 126.9 451.6 126.6 441.9C126.5 437.7 126.8 433.5 125.9 429.5C125.3 426.7 126.8 424.4 127.2 421.9C126.8 403.5 126.5 385.2 126.1 366.8C126.1 365.8 125.6 364.7 125.3 363.7C124.4 359.9 123.9 356 124 352.3C124.3 330.3 122.3 308.3 123 286.3C123 285.4 122.9 284.6 123 283.7C122.4 277.6 120.9 271.4 123.5 265.3C127.3 266.3 131.3 267.2 135.3 268Z" fill="#0F324C"/>
<path d="M129 191.5C129.3 191.4 130.5 190 130.5 190.5C131.8 191.7 131.2 193.8 130.9 195.3C129.4 203.1 130.7 211 130.2 217.1C130.2 213.2 130.2 207.5 130.2 201.8C130.2 196.8 132.4 192.7 137.1 191.6C139.6 191 138.9 190 139 188.7C139.1 186.7 139.6 184.7 139.7 182.7C140.1 182.1 140.1 183.1 140.5 182.5C144.5 184.5 141.8 185.8 141.8 188.3C140.4 198.9 140.8 209.7 139.1 220.3C138.7 222.7 138.3 225.2 137.2 227.4C135.7 230.3 133.8 231.8 130.8 229.1C127.1 222.9 128 216.1 128.1 209.5C128.2 205.2 128.8 201 127.7 196.8C127.1 194.8 127.7 193.2 129 191.5Z" fill="#295E78"/>
<path d="M141.8 188.4C141.1 186 143.1 183.3 140.9 181.1C154.5 168.8 166.2 154.6 178.5 141C173.4 149.8 167.4 157.8 161.3 165.8C155.2 173.6 148.3 180.8 141.8 188.4Z" fill="#BCCBD9"/>
<path d="M140.7 115C141.8 109.3 142.8 103.6 144.1 97.9C144.6 95.5 145.1 93.2 144.1 90.7C143.1 88.1 143.8 85.8 146.2 84.3C148.2 83 150.1 83.7 151.6 85.3C153.7 87.6 152.9 89.9 151.3 92C150.3 93.4 149.3 94.7 149.4 96.6C149.7 104 144.3 109 140.7 115Z" fill="#2D627B"/>
<path d="M141 181C144.1 185 138.4 190.7 140.5 195.1C138.4 194.2 139.7 192.5 138.6 191.9C132.4 194.8 129.8 199.4 130.6 206.5C131.2 211.8 130.7 217.2 129.8 222.6C129.8 212.1 129.8 201.6 129.8 191C132.6 187.7 137.5 183.6 141 181Z" fill="#2B5C76"/>
<path d="M129.001 191.5C128.901 200.3 128.7 208.7 128.6 217.5C128.6 221.5 129.4 225.4 130.7 229.2C126.1 225 128 219.2 127.1 214.2C128.048 201.537 123.5 197.5 122.5 195C124.5 194 125.5 194 129.001 191.5Z" fill="#C2D0DE"/>
<path d="M123.3 265.5C123.5 271.5 123.6 277.4 123.8 283.4C119.6 283 117.4 280.8 117.6 276.5C117.7 275.6 118 274.8 118.5 274C117 274.9 115.6 275 114.3 273.6C119.9 273.4 121.2 269.3 122.3 265C122.6 265.2 122.9 265.3 123.3 265.5Z" fill="#EDA68B"/>
<path d="M45.4001 213.6C42.8001 218.9 37.5 221 32.8 223.7C32.1 224.1 31.0001 223.6 30.4001 222.8C32.8001 217.7 38.4001 216.3 42.2001 212.8C43.1001 212 44.6001 212.3 45.4001 213.6Z" fill="#EAA183"/>
<path d="M114.2 273.7C115.8 274.3 119.8 271.3 118.5 276.4C117.9 277.1 117 277.5 116.5 278.3C114.5 280.9 115.2 282.8 118.3 283.6C120.2 284.1 122.3 284 123.7 285.7C123.8 286.8 124 287.8 124 288.9C124.4 309.5 124.8 330.1 125.1 350.8C125.1 355.2 127.2 359.6 125.1 363.9C104.8 360.7 84.5 357.5 64.3 354.1C59.6 353.3 57.9001 350.9 58.7001 346.2C62.1001 325.6 65.5001 305.1 69.0001 284.5C70.0001 278.5 71.9001 277.2 77.9001 278.2C87.1001 279.6 96.2 281 105.3 282.7C109 283.4 111.4 283.3 111.3 278.7C111.3 276.6 112.5 274.9 114.2 273.7Z" fill="#6F300E"/>
<path d="M129.7 540.8C129.9 540.8 130.1 540.8 130.3 540.7C136 540.7 141.7 540.9 147.4 540.8C150.2 540.7 151.1 541.7 151.1 544.5C151.3 555.2 151.4 555.2 141 555.7C139.9 555.8 138.8 555.5 138 556.6C130.2 557.2 122.4 557 114.6 556.8C113.4 556.8 111.9 556.9 111.4 555.5C110.8 553.9 112.2 553 113.2 552.1C117 549 121.4 546.7 125.6 544.2C127.3 543.4 129.2 542.8 129.7 540.8Z" fill="#030405"/>
<path d="M226.1 555.7C225.8 556.6 225.6 557.4 225.3 558.3C215.3 558.3 205.4 558.3 195.4 558.4C193.1 556.4 195.2 555.2 196.3 553.9C196.4 553.6 196.5 553.3 196.5 553C197.1 549.7 198.2 546.6 201.1 544.7C207.9 544.9 214.7 543.7 221.4 545.5C224.3 547.3 224.4 550.7 225.9 553.2C226.3 554 226.3 554.8 226.1 555.7Z" fill="#040505"/>
<path d="M123.8 285.6C121.8 285.3 119.9 285.1 117.9 284.7C116.2 284.3 113.5 284.9 114 281.6C114.5 279 114.1 275.7 118.4 276.3C117.5 280.6 121.5 281.2 123.7 283.3C123.8 284.1 123.8 284.9 123.8 285.6Z" fill="#E8E6E6"/>
<path d="M169.8 386C169.9 388.9 169.8 391.8 168.8 394.5C169.1 391.6 167.7 388.6 169.8 386Z" fill="#0C3B57"/>
</svg>
