<svg width="118" height="67" viewBox="0 0 118 67" fill="none" xmlns="http://www.w3.org/2000/svg">
<path d="M100.904 38.9064C92.604 38.9064 82.304 38.9064 74.004 38.9064C51.804 38.9064 29.704 38.9064 7.50398 38.9064C-2 38.9064 -2.00001 28.1064 7.60398 28.1064C36.604 28.1064 65.604 28.1064 94.604 28.1064C96.204 28.1064 97.804 28.1064 100.904 28.1064C93.804 21.1064 86.5 13.7 80.5 7.5C77.1529 3.89543 83.2331 -2.01574 86.804 1.4064C96.404 10.6064 105.804 20.1064 115.204 29.5064C118.204 32.5064 117.404 35.5064 114.604 38.2064C105.604 47.1064 96.604 56.0064 87.604 64.9064C83 69.4592 76.5 62.6651 81.004 58.3064C87.204 52.3064 93.404 46.3064 99.604 40.3064L100.904 38.9064Z" fill="#3B287C"/>
</svg>
