<svg width="340" height="356" viewBox="0 0 340 356" fill="none" xmlns="http://www.w3.org/2000/svg">
<path d="M313.4 196.7C311.6 210.2 298.5 213.2 289.2 210.9C279.6 208.6 272.6 202.3 266 195.3C265.3 194.6 264.6 193.8 264 193.1C263.1 192 262.2 191 260.7 192.2C259.1 193.4 260.7 194.3 261.2 195C266.5 202.9 272.4 210.4 280.8 215.1C285.2 217.6 283.6 219.5 281.4 221.9C277.4 226.3 268.7 226.4 261.5 222.2C253.7 217.6 249.3 210.3 245.8 202.3C245.3 201.2 245 200.1 244.6 199.1C244.2 198 243.5 197.4 242.3 197.8C241.1 198.2 241.2 199.1 241.4 200.2C243.2 208.8 245 217.5 251.6 223.9C254.2 226.4 253.1 227.4 250.9 228.4C245.2 231 235.8 230 231.6 221.3C229.3 216.6 228.7 211.6 228.6 205.6C226.9 207.5 225.8 208.8 223.9 211C223.9 196.9 223.9 183.9 223.9 170.9C223.9 167.3 226.7 168.9 228.3 168.8C242.2 168.3 249.7 160.7 249.8 146.8C249.8 143.4 249.4 140 248.4 137C245.4 128.2 248.5 122.3 255.5 116.9C265 109.6 273.7 101.4 277.4 89.3C279.7 89.8 280.5 91.9 282.6 92.8C293.4 76.4 305.3 60.6 309.2 40.3C318.4 43.4 322.2 51 324.4 59.7C328.9 77.6 321.4 91 307.8 101.8C303.7 105.1 299.2 108 294.8 111C292 112.9 292 112.9 293.1 117.2C307.5 108 322.5 99.6 332.7 85.3C340.8 92 341.9 107.3 334.9 117.8C329.8 125.5 322.1 129.6 313.7 132.6C308.1 134.6 302.3 136.1 296.6 137.5C295.1 137.9 294.2 138.2 294.2 139.9C294.3 142.3 295.9 141.3 297.1 141.2C310.2 139.3 323.4 137.7 334.6 129.6C336.5 128.2 336.9 129 337.5 130.9C342.5 145.6 333.7 160.1 318.7 162.7C309.8 164.2 301.1 163.2 292.4 162.2C289.6 161.9 288.4 162.3 287.7 165.5C300.7 167.7 313.6 170.7 326.7 167.1C329.7 166.3 330.5 166.6 330.3 169.7C329.6 182.7 320.8 190.1 307.8 188.9C298.2 188.1 289.4 185.2 281 180.6C279.7 179.9 278.1 178.2 276.8 180.4C275.5 182.8 278.2 182.9 279.2 183.6C289.7 191 301 195.6 313.4 196.7Z" fill="#020203"/>
<path d="M115.5 210.5C114.1 208.9 113.1 207.6 111.7 206C111.1 210 110.9 213.7 110 217.3C107.5 227.2 99.2 232.1 90.6 229.2C86.5 227.8 86.3 226.7 89 223.5C94.7 216.9 96.9 208.8 98.5 200.4C98.7 199.4 99 198.4 97.8 197.9C96.3 197.3 95.7 198.3 95.3 199.5C93.8 203.9 91.7 208.1 89.1 211.9C84.6 218.6 78.8 223.6 70.6 225.1C65.2 226.1 59.8 224.2 57.3 220.4C56 218.4 55.8 217.2 58.3 215.8C67.1 210.9 73.3 203.4 78.7 195.1C79.2 194.3 80.8 193.6 79.3 192.3C77.8 191.1 77 192 76 193.1C70.7 199.1 64.9 204.5 57.7 208.3C51.3 211.7 44.5 212.6 37.5 210.5C31 208.5 27.7 203.6 26.5 196.9C39.1 196.1 49.8 190.7 60.2 184.5C61.4 183.8 64.3 183.4 62.9 180.9C61.5 178.4 59.7 180.5 58.3 181.3C47.5 187.2 36.2 191.1 23.6 188.8C15.3 187.3 8.3 176.9 9.3 168.6C9.6 166.4 10.6 166.7 12 167.1C25.4 171.3 38.6 167.9 51.9 166C51.5 162.9 50.5 162.2 47.4 162.6C38.9 163.7 30.3 164.5 21.6 163.1C6.1 160.5 -2.8 146.1 2.3 131.3C3 129.3 3.39999 128.9 5.19999 130.3C16.5 138.6 30 139.8 43.2 142.1C44.2 142.3 45.7 142.8 45.7 140.8C45.7 139.4 45.4 138.5 43.6 138.1C38.6 137 33.7 135.6 28.8 134.1C22.9 132.3 17.4 129.7 12.4 126C-1.10001 116.3 -3.7 96.1 7.1 85.5C17.1 100.1 32.4 108.1 46.5 117.6C48.2 113.4 48.2 113.4 45 111.4C35.7 105.5 26.8 99 20.5 89.8C11.5 76.7 12.9 63.2 19.7 49.9C22 45.4 25.9 42.3 30.8 40.8C34.7 60.9 46.7 76.6 57.4 93.4C59.1 92 60.6 90.8 62.4 89.3C66.2 102.1 75.5 110.3 85.1 117.9C91.8 123.2 94.3 129 91.7 137.3C90.6 140.7 90.1 144.4 90.2 148.1C90.4 160.8 98.2 169 111 169C115.2 169 116.2 170.1 116.1 174.2C115.8 186 116 197.8 116 209.6C115.9 209.4 115.8 209.5 115.5 210.5Z" fill="#020203"/>
<path d="M120.2 195.7C120.2 179.6 120.3 163.5 120.1 147.4C120.1 143.8 121.2 143 124.6 143.1C154.9 143.2 185.1 143.2 215.4 143.1C219.2 143.1 220.1 144.1 220 147.8C219.8 179.5 219.9 211.2 219.9 243C219.9 254 215.7 258.4 204.6 258.5C192.9 258.6 181.4 259.4 171.5 266.7C170.3 267.6 169.6 267.3 168.5 266.5C159.9 260.6 150.1 258.5 139.8 258.5C137 258.5 134.2 258.4 131.4 257.9C123.5 256.3 120.4 252.9 120.4 244.6C120.1 228.2 120.2 211.9 120.2 195.7Z" fill="#020203"/>
<path d="M128.9 285.8C124 283.2 125.6 281.6 129.4 279.4C135 276.2 139.4 271.6 140.1 264.8C140.3 262.6 141.3 262.4 143 262.6C152 263.3 160.9 264.7 167.7 271.4C169.5 273.2 170.4 273.5 172.3 271.6C179.2 264.5 188.5 263.9 197.5 262.7C198.5 262.6 199.6 262.5 199.7 264C200.5 273.5 207.4 278 214.7 282.1C214.3 284.1 212.2 284.3 211.2 286.1C221.9 296.6 233.1 306.6 248.1 310.7C251 311.5 251.3 313 250.4 315.4C248.7 319.6 245.4 322 241.3 323.3C233.4 325.8 225.9 324.6 219.3 319.4C211.4 313.2 205.9 305.2 200.9 296.8C199.9 295.1 198.9 293.4 198 291.6C197.4 290.4 196.5 290.3 195.6 290.8C194.7 291.3 195 292.2 195.4 293C202.5 308 210.5 322.3 225.6 330.8C229.1 332.8 229.1 334.2 227.1 337.1C221.1 345.8 208.4 347.7 200.5 340.8C194.4 335.5 191.2 328.4 188.2 321.2C185.1 313.5 182.9 305.6 181.1 297.5C180.7 295.9 180.8 294.2 179.1 292.9C177 295 178.2 297.5 178.4 299.7C179.4 312.1 183.2 324 185.4 336.2C187.4 347.4 181.7 354.8 170.4 355.6C160.6 356.3 152.6 347.5 154.4 337.4C155.8 329.4 158 321.6 159.5 313.7C160.6 308 161.2 302.2 161.9 296.5C162 295.5 162.6 293.8 161.1 293.6C159.2 293.3 159.2 295.1 159 296.3C156.9 307.2 153.8 317.8 148.8 327.7C144.9 335.4 140.5 342.9 130.7 344.7C123.5 346 115.2 341.9 111.9 335.5C110.9 333.6 111.2 332.8 113.1 331.7C128.5 323.4 136.9 309.2 144.1 294.1C144.6 292.9 145.8 291.7 143.8 290.8C141.8 290 141.7 292 141.1 292.9C136.3 301.7 130.9 309.9 123.5 316.8C116.3 323.6 108.1 326.3 98.4 323.1C95.7 322.2 93.3 320.7 91.4 318.5C87.6 314 88.1 312.1 93.7 310.1C107.7 305.2 118.7 296.2 128.9 285.8Z" fill="#020203"/>
<path d="M224.5 237C229.1 243.6 234.2 249.6 242.5 251C247.4 251.8 249.2 252.9 245.5 257.1C247.4 258.3 250.4 256.3 250.9 258.6C251.7 262.4 248.8 264.9 245.9 267C250.8 273.4 255.5 279.7 264 282.8C261.5 272.2 263.9 263.6 272 256.9C273.8 255.4 275.8 253.9 277.9 253.4C281.9 252.5 283.9 250.4 283.4 245.6C279.9 245.9 272.8 250.6 275.1 241.2C276.7 234.6 280.6 243 283.1 240.1C284.3 239.4 283.1 238.3 283.3 237.3C283.7 235.4 280.4 233.3 282.8 232.1C284.8 231.1 287.7 231.4 290.1 231.9C292.7 232.4 290.7 234.2 290.4 235.3C289.9 236.9 289.1 238.8 290.2 240C291.3 241.1 293.1 239.9 294.2 239.3C297.2 237.7 298.1 238.8 298 241.6C298 243.5 297.8 245.5 297.7 247.7C295 246.9 292.6 246.2 290 245.4C289.3 249.4 290.1 251.6 294.5 253.1C307.2 257.3 313.5 272.1 308.2 284.3C306.5 288.2 307.6 293.8 302.7 295.8C297.9 297.8 293.5 302.1 287.7 300C285.8 299.3 285.5 300.6 284.5 301.2C281 303.4 277 303.6 274.5 300.6C267 291.7 256.9 287.5 246.2 284.3C241.5 282.9 236.7 281.2 233 277.7C230.6 275.5 228.7 277.6 226.7 278C223 278.7 220.4 279 221.3 273.6C222 269.2 221.5 264.6 218.2 261C217.7 260.4 216.8 259.9 217.8 259.1C225 253.3 223.9 245.1 224.5 237Z" fill="#020203"/>
<path d="M206.8 137.9C205.8 139.7 204.2 138.8 202.9 138.8C181 138.9 159.1 138.8 137.1 138.9C133.6 138.9 132.5 137.8 132.3 134.6C132.2 132.5 131.7 130.3 131.2 128.3C127.8 115 119.4 112.1 108.3 120.9C108.2 118.9 108.1 117.2 108 115.3C103.1 116.6 98.3 119 93.3 116.7C91.6 115.9 89.8 114.9 89.4 112C99.5 117.3 106.3 108.9 114.5 106.6C108.9 101.3 101.8 101.8 94.5 108C90.2 103.5 89 98.1 90.4 92.4C91.7 87.2 96.7 86.2 101.4 85.2C102.4 85 104.1 85.7 104.1 84C104.1 78.3 108.3 78.8 111.8 78.8C121.1 78.6 130.4 78.7 139.7 78.7C146.7 78.7 153.6 78.7 159.7 73.3C160.2 81.8 157.7 87.8 149.1 90.8C151.9 92.5 154.1 92.8 156.6 92.3C157.6 92.1 159.2 91.3 159.7 92.6C160.1 93.4 159.4 94.8 158.9 95.8C157.6 99 154.3 99.8 151.4 101.7C161.7 109.3 167.2 119.4 169 131.7C170.1 133 170.6 134.9 172.5 135.5C181.4 137.2 190.3 135.9 199.2 136.3C201.8 136.5 204.6 135.9 206.8 137.9Z" fill="#020203"/>
<path d="M206.8 137.9C196.4 137.9 186 137.9 175.7 137.9C173.9 137.9 171.5 138.9 171 135.8C169.9 134.5 170.1 133.1 171 131.8C172.8 119.7 177.9 109.6 188.3 102.1C186.3 100.7 184.4 99.5 182.6 98.1C180.8 96.7 180.1 94.7 180.1 92.2C183.6 92.3 187 93.8 190.6 91.2C187.5 89.2 183.9 87.9 182.2 84.6C180.6 81.4 179.9 78.1 180.2 73.8C187.7 79.7 196.2 78.7 204.5 78.8C213.1 78.9 221.8 78.9 230.4 78.9C233.2 78.9 235.9 79.6 235.9 83.1C235.8 85.7 237.6 84.9 238.9 85.2C243.4 86.3 248.5 87 249.8 92.4C251.1 98.1 250.1 103.6 245.8 108C238.4 101.7 233.8 101.2 225.6 106.1C233.7 109.2 240.1 116.1 249.8 112.8C247.7 118.2 244.6 118.5 232.6 115.2C231.5 116.8 232.6 118.7 231.8 120.5C229.7 119.2 227.6 117.6 225.3 116.6C219.2 114 213 117.2 210.1 123.9C208.1 128.4 208.1 133.3 206.8 137.9Z" fill="#020203"/>
<path d="M22.6 220.7C24 220.1 25.3 219.6 26.7 219C27.9 218.5 29 218.5 29.8 219.5C30.7 220.6 30.3 221.2 29.1 222.1C27.5 223.3 28.1 225.4 29 227.1C29.4 227.8 29.9 228.7 30.9 228.1C32.5 227.1 33.2 225.5 33.5 223.6C33.7 222.2 31.9 220.1 34.3 219.4C36.4 218.8 38.1 220.2 39.5 221.7C44.4 226.9 42.8 232.5 35.4 235.8C35.9 237 36.9 237.6 38 237.7C41.1 238.1 41.7 239.7 39.7 241.9C38.2 243.5 38.8 244.5 39.7 246.1C44.6 254.2 49.3 262.3 54.1 270.4C54.6 271.3 55.1 272.8 55.7 272.8C61.9 273.4 65.7 279 71.4 280.5C77.9 282.2 83.1 279.4 87.5 274.9C88.9 273.5 90 271.8 91.4 270.4C93.2 268.4 94.7 266.6 91.3 264.5C89.3 263.2 88.3 260.5 89.1 258.3C89.8 256.2 92.4 258.4 94.4 256.7C94.9 255.8 93.1 255.2 92.7 254.1C92.2 252.4 92.4 251.7 94.3 251.5C103.9 250.5 110.3 245.1 115.2 236.3C116.4 239.4 115.9 241.9 115.9 244.4C116 249.7 117.2 254.6 121.4 258.3C122.2 259 123.4 259.5 122.1 260.9C118.3 264.9 118.3 270 119 274.9C119.4 277.9 118.4 279.2 115.7 278.2C110.6 276.3 106.7 278.1 102.2 280.6C97.1 283.4 91.2 285.2 85.4 286.4C77.7 288 76.3 295.1 72.3 299.9C71.5 300.8 72.9 302 73.5 303C76 307.3 78.5 311.6 81.1 315.8C82.7 318.5 82.5 321.1 79.7 322.7C77 324.2 74.6 323.4 73 320.6C71.7 318.3 70.3 316.1 69.1 313.7C67.4 310.4 65.6 307.5 61.2 307.4C58.6 307.3 56.2 305.8 56.5 302.8C56.7 300.8 55 301.4 54.5 300.7C51.5 296.4 48.2 292.3 45.5 287.8C44.4 286.1 45.4 283.4 47.3 282.7C51.6 281.1 49.5 279.1 48.2 276.9C43.2 268.1 38.3 259.3 33.3 250.5C32.8 249.6 32.2 248 31.9 248C25.7 249.4 26.3 245.3 27.1 240.7C22.9 243.9 19.3 246.5 15.2 242.3C11.9 239 10.4 235.3 13 230.5C14.8 231.8 16.1 233.4 18.1 233.6C19.6 233.7 21.9 234.4 22.1 232C22.3 230.2 20.7 229.1 19 228.6C17.7 228.2 15.6 231.2 15 227.7C14.6 225.3 16.8 224.8 18.2 223.8C18.6 223.5 18.9 223.1 19.2 222.8C19.3 222.7 19.5 222.5 19.6 222.5C21.5 222.8 22.5 222.2 22.6 220.7Z" fill="#020203"/>
<path d="M169.8 53.1C166.3 53.1 162.8 52.7 159.4 53.2C154.4 53.9 151.2 51.6 148.6 47.9C144.2 41.5 141.8 34.8 144 26.9C145.2 22.6 147.9 19.7 151.7 17.7C156.9 15 158.8 15.6 160.8 20.9C162.1 24.3 164.1 27.4 166.3 30.2C168.7 33.2 171 33.4 173.5 30.3C176.3 26.8 179.1 23.2 179.9 18.7C180.5 15.6 181.8 15.6 184.3 16.1C192.8 17.9 198 25.4 196.7 34.7C196.3 37.4 195.6 40.2 194.4 42.8C191.4 49.4 187.4 54.8 178.7 53.3C175.8 52.7 172.8 53.1 169.8 53.1Z" fill="#020203"/>
<path d="M212.9 74.4C210.7 74.4 208.6 74.4 206.4 74.4C200.6 74.4 196.1 70 195 63.1C193.8 56.3 196.2 51.5 201.7 49.2C204.2 48.2 206 48 206.7 51.3C207.2 53.9 208.9 56 210.5 58.2C212.4 60.9 214.3 60.5 215.9 58.1C217.2 56.2 219 54.3 219.4 52.2C220.3 47.3 223.1 48.6 225.8 49.8C229.7 51.5 231.3 54.9 231.6 58.9C232.3 68.3 226.6 74.4 217.2 74.4C215.9 74.4 214.4 74.4 212.9 74.4Z" fill="#020304"/>
<path d="M126.7 74.4C124.4 74.4 122.1 74.4 119.7 74.4C114 74.4 109.6 69.8 108.3 62.5C107.2 56.3 110.1 51.2 115.8 49.1C118.1 48.3 119.3 48.3 120.1 51C121.2 54.8 122.9 59.8 126.9 59.7C130.5 59.6 132.2 54.8 133.2 51.1C134 48.4 135.4 48.5 137.6 49.1C143.5 50.8 146.9 56.9 144.7 63.9C142.7 70.3 140.7 75.5 131.7 74.3C130.1 74.2 128.4 74.4 126.7 74.4Z" fill="#020304"/>
<path d="M233.8 73.9C239.2 69.1 241.1 63.9 238.9 57.5C237.4 53.2 238 49.6 241.6 46.4C246 42.5 248.6 42.1 253.4 45.5C258.5 49.1 263.1 53.5 269.7 54.4C271.7 54.7 271.8 56.1 271.3 57.8C270.6 60 270.1 62.3 269.2 64.4C266.7 70.3 267.3 76 270.3 81.6C268.5 82.6 266.3 81.3 264.7 82.6C263 84 263.4 86.3 262.5 88C254.4 82.8 254.3 71.9 262.4 58.6C261.7 57.4 260.4 57.8 259.4 57.6C256.3 56.9 252.9 55.3 250.3 56.1C247.4 57 249 61.3 247.9 64C245.5 70.6 241.4 73.8 233.8 73.9Z" fill="#030304"/>
<path d="M106.6 74.1C97.1 73.9 92 69.1 91.2 59.9C90.9 56.1 89.7 54.6 86 56.2C83.2 57.4 79 56 77.7 58.4C76.6 60.5 80.1 63 81.2 65.5C85.1 74.8 84 82.5 77.6 88.3C76.9 86.5 76.5 84.5 75.4 83C74.1 81.1 71.6 82.5 69.4 81.8C74.4 74.4 71.8 67 69.2 59.7C68 56.4 68 54.8 72.2 53.9C77.6 52.8 81.9 49 86.2 45.6C89.2 43.3 92.4 41.9 95.7 44.5C99.2 47.3 103.4 49.9 101.4 55.9C99 62.6 99.8 68.9 106.6 74.1Z" fill="#030304"/>
<path d="M170 25.1C166.8 20.6 164.7 16.4 163.7 11.7C163.6 11.1 163.3 10.4 163.3 9.8C163 6 164.4 3.09999 167.5 0.999994C169.3 -0.200006 170.9 -0.3 172.8 1.1C175.9 3.4 177.4 6.39999 176.7 9.99999C175.8 15.3 173.6 20.2 170 25.1Z" fill="#070709"/>
<path d="M147 74C151.9 70.5 153.3 65.6 154.1 60.3C154.9 55.1 159.1 58.4 161.7 58C165 57.6 163.4 60.3 163.1 61.8C161.5 69.4 155.5 74 147 74Z" fill="#09090B"/>
<path d="M192.6 74.1C183.4 73.3 177.6 68 176.5 60.7C176.2 58.8 176.5 57.8 178.6 57.9C182.3 58 186.5 56.4 186.4 63.1C186.3 67 188.7 70.8 192.6 74.1Z" fill="#09090B"/>
<path d="M213.4 55.2C210.7 51.1 208.8 47.5 208.7 43.3C208.7 40.2 210.5 37.7 213.1 37.7C216.1 37.6 217.8 40.2 217.9 43.4C217.9 47.7 215.6 51.1 213.4 55.2Z" fill="#0C0C0E"/>
<path d="M126.9 55.3C124.3 51.2 122.2 47.7 122.2 43.4C122.1 40.1 124.1 37.6 127 37.6C129.7 37.6 131.3 40.2 131.4 43.2C131.4 47.5 129.1 50.9 126.9 55.3Z" fill="#0A0A0C"/>
<path d="M22.6 220.7C22.1 222.8 25.9 223.7 24 226.2C20.9 227.3 22.2 222.1 19.4 222.7C20.1 221.4 21.3 221 22.6 220.7Z" fill="#F0EFF1"/>
<path d="M170.9 131.7C170.9 133 170.9 134.4 170.9 135.7C168.1 135.4 168.9 133.4 169 131.7C169.7 131.8 170.3 131.7 170.9 131.7Z" fill="#4D4B50"/>
<path d="M177.9 174.7C182.3 169.3 187.8 167.3 194.6 168.6C198.7 169.4 201.6 172.6 200.8 176.7C200 180.5 198.3 184.1 196.9 187.8C196.4 189.1 195.2 189.3 194 188.9C192.6 188.5 192.2 187.6 192.6 186.3C192.7 186 192.8 185.7 192.8 185.3C192.9 183.5 193.1 181.6 191.9 180.1C191.4 179.5 190.7 179.6 190.2 180.2C188.9 181.9 188.4 184 189.2 185.8C191.8 191.6 191 197.1 189.3 203.1C187.3 210.2 190 217.5 191.3 224.6C191.5 225.9 191.8 227.2 192.1 228.5C191.7 228.8 191.3 229 190.8 228.9C187.8 227.1 187.5 223.7 186.4 220.9C184.8 216.8 182.6 213.3 179.7 210.1C178.6 208.8 178 207.3 177.3 205.8C176.8 204.5 176.4 203.2 175.9 201.9C175.3 200.2 174.8 198.4 174.1 196.7C172.9 194.2 172.3 191.5 171.3 188.9C170.8 187.2 170.1 185.5 169.3 183.9C168.8 182.6 168.4 181.3 168 180.1C167.5 178.4 167 176.7 166.3 175.1C165.9 174.1 165.6 173 165.9 171.9C166.3 169.8 163.4 168.2 165 165.9C165.5 165.5 166 165 166.5 164.6C167.8 163.6 167.1 162.2 167.4 160.9C168.4 157.1 171 155.4 174.2 156.4C177.5 157.5 178.8 160.4 177.5 163.9C177 165.2 175.4 166.3 177.1 167.7C175.2 169.7 175.9 171.7 177 173.8C176.3 176.6 174.5 179 174.2 181.9C174.9 179.2 175.3 176.4 177.9 174.7Z" fill="white"/>
<path d="M191 228.6C191.4 228.6 191.8 228.5 192.2 228.5C193.3 229.1 192.6 231.6 194.5 231.2C196.3 230.8 197.8 229.6 198.8 228C199.1 227.5 199.1 226.7 199.2 226.1C199.3 224.8 198.2 223 200.6 222.6C201.2 222.5 202.4 222.4 202.5 222.7C203.2 224.1 202.4 225.2 201.7 226.5C201.1 227.6 200.6 229 201.6 230.2C202.2 230.9 203.2 230.7 203.9 230.2C204.9 229.4 207.2 229.3 205.9 227.1C205.4 226.2 205.2 225.9 206.4 225.6C207.4 225.4 207 222.6 209.1 224.1C210.5 225.2 211.6 226.5 210.8 228.3C209 232.4 206.3 235.7 202.6 238.3C200.6 239.7 197.1 238.7 196.2 242C190 240.5 193.5 246.1 191.9 248.1C189.9 250.5 190.5 254.6 184.7 253.5C180.7 252.7 175.7 254.8 171 254.5C173.2 249.3 174.2 243.9 174.2 238.4C174.2 235.3 172.1 233.5 169.4 232.9C166.9 232.3 164.4 232.4 162.7 234.9C161.4 236.9 161.2 238.8 163.7 240.9C164.3 238.2 163.5 234.6 167.5 234.7C169.6 234.8 171.3 235.8 172.2 237.8C173.6 241.4 171.7 246.5 168 247.9C164 249.5 159.8 249.4 156.3 246.4C152.9 243.3 151.4 239.4 152.9 234.8C155.3 227.4 162.8 224.4 172.2 227.3C175.6 228.3 176.7 227.1 175.5 224.3C174.9 222.8 175 222.7 176.1 222C177.6 221.2 178.2 222 178.7 223.2C179.5 225 180 227 181.1 228.6C181.6 229.3 182.1 232.4 184.2 229.8C183.7 228.8 184.3 228.6 185.1 228.4C187.2 230.9 187.2 230.9 188.3 234.5C188.9 232.2 189.9 230.3 191 228.6Z" fill="white"/>
<path d="M156.9 151.9C158.5 153.2 159.1 154.5 159.4 156.9C160 162.5 162.5 167.7 165 172.9C166.2 173.8 166.2 175.3 166.9 176.4C167.2 178 168 179.3 168.5 180.8C169 181.8 169 183 169.5 184C170.4 185.8 170.8 187.9 171.7 189.7C172.8 192.2 173.4 195 174.6 197.5C175.1 199.3 175.8 201 176.5 202.6C177 203.7 177 204.9 177.6 205.9C178 206.8 178.1 207.8 177.8 208.8C177.4 209.5 177 210 176 209.7C173.7 209.5 171.4 209.5 169.1 209.2C164.2 208.5 159.1 206.9 156.6 213.5C156.1 214.7 154.5 215.5 153.2 216.3C147.4 220 146 224.2 148.5 230.7C148.8 231.5 149.4 232.1 148.5 232.8C147.7 233.5 146.7 233.6 145.7 233.3C144.9 233.1 143.9 232.5 144.4 231.6C146 228.1 144.5 224.4 145.3 220.8C145.7 219.4 145.8 217.5 146.8 216.7C151.1 212.9 150 208.3 149 203.8C147.1 195.4 150.4 190 158.8 189.2C161.6 188.9 162.1 188 162.1 185.7C162.1 182.3 163.6 178.9 162.8 175.4C162.2 172.9 162.2 170.3 158.7 169.6C157 169.3 156.3 167.5 156.2 165.7C156.1 161.4 156.1 157.2 156 152.9C155.4 151.9 156 151.7 156.9 151.9Z" fill="white"/>
<path d="M160.7 179C160.8 184.5 159.9 185.1 155 182.8C152.7 181.7 150.2 181.3 147.8 181.2C144.5 181 143.6 178.1 142 176.3C141 175.2 143.7 172.9 145.1 171.5C146 170.6 147.1 169.8 148.2 169.1C150.8 167.3 152.7 165.2 155.7 169.7C159.3 174.8 160.6 175.5 160.7 179Z" fill="#FDFDFD"/>
<path d="M136.6 223C140.6 226 140.7 229.2 139.6 232.8C138 238 140.1 240.3 145.5 239.3C146.9 239 148.7 237.7 149.6 238.9C150.8 240.5 151.3 242.7 151.8 244.7C152.1 246 150.6 246.3 149.8 246.3C146.4 246.6 143 247.6 139.5 246.8C132.6 245.3 129.9 239 134.1 233.4C137.6 228.7 137.6 228.7 136.6 223Z" fill="#FCFBFC"/>
<path d="M136.1 211.6C138.5 206.8 138.5 203.1 135 199.3C131.9 195.9 132.5 190.8 135.7 188.2C138.8 185.7 145.3 186.1 148 189.2C148.5 189.8 148.9 190.6 148.9 191.3C148.8 192 148.1 192.3 147.1 192.3C141.3 192 140.4 193.4 142.5 199.2C144.8 205.9 143 209.9 136.1 211.6Z" fill="#FEFEFE"/>
<path d="M191 228.6C190.9 230 193.1 231.9 189.7 232.6C187.3 233.1 190 235.4 188.7 237C186.1 234.8 186.3 231.3 184.7 228.7C183.2 227.5 182.9 225.9 182.9 224.1C182.6 224 182.3 223.8 182.1 223.7C180.6 222.2 181.1 219.9 180.2 218.1C179.7 216.5 178.8 214.9 179 213.1V213.2C178.5 212.5 178.1 211.7 178.3 210.7C178.6 209.8 179.1 209.1 180.2 209.5C184.2 211.1 185 215.2 186.7 218.3C188.5 221.6 189.7 225.1 191 228.6Z" fill="#131214"/>
<path d="M177 167.6C175.6 167.9 174.2 168 173 167.3C173 165.2 174.9 165.5 175.7 164.6C177.4 162.9 177.4 161 176.5 159.2C175.6 157.3 173.6 156.6 171.6 157.1C169.2 157.7 168.3 159.6 168.4 162C168.5 163.4 170.7 165.5 167.2 165.7C164.5 163.8 165.6 161.2 166.1 158.7C166.8 157.3 167.5 155.9 168.2 154.5C171.1 154.4 174 153.8 176.9 154.6C177.6 155.7 178.3 156.8 179.1 157.9C180.5 159.9 179.8 162.3 180.3 164.5C179.2 165.6 178.1 166.6 177 167.6Z" fill="#262528"/>
<path d="M206 214C203.9 212.3 200.3 212.8 203.1 208.7C204.9 206.1 201.7 204.3 200.2 202.6C198.5 200.7 197.4 202.4 196 203.3C194.7 204.2 193.2 204.9 191.6 205.9C191.2 203.9 191.9 202.4 192.5 201C193.1 199.6 192.3 197.2 194.7 197.2C197 197.2 199.1 197.5 201 199.4C205.1 203.2 205.1 208.3 206 214Z" fill="#F7F6F7"/>
<path d="M158.5 225.7C155.9 221.6 157.6 213.8 160.7 211.3C162.4 209.9 164.4 210.4 165.7 211.4C167.2 212.6 165.7 214 164.8 215.2C164.7 215.3 164.6 215.5 164.5 215.6C161.5 218.2 157 219.9 158.5 225.7Z" fill="#F8F8F8"/>
<path d="M177.9 174.7C176.2 178.1 174.8 181.7 174.2 185.5C172.2 180.8 173.9 177.1 177 173.7C177.3 174 177.6 174.4 177.9 174.7Z" fill="#302E32"/>
<path d="M180.2 164.6C178 162.7 179.3 160.2 179 158C182.3 159.7 181.2 162.1 180.2 164.6Z" fill="#D7D6D8"/>
<path d="M176.9 154.6C174 154.9 171.1 155.1 168.2 154.5C171.1 153.6 174 152.7 176.9 154.6Z" fill="#F3F3F4"/>
<path d="M180.8 217.6C181.8 219.5 182.1 221.5 182.1 223.6C179.2 223 180.2 220.5 179.9 218.7C179.4 217.6 180 217.5 180.8 217.6Z" fill="white"/>
<path d="M180.8 217.6C180.5 218 180.2 218.3 179.9 218.7C178.9 216.9 177.2 215.3 179 213.1C180.2 214.3 180.5 216 180.8 217.6Z" fill="#DCDBDD"/>
<path d="M183 224C184.3 225.3 184.4 227 184.8 228.6C184.5 229 184.2 229.3 183.9 229.7C182.9 227.9 181.1 226.3 183 224Z" fill="#DAD8DB"/>
<path d="M166 158.8C166.1 161.2 165.6 163.6 167.1 165.8C166.4 165.8 165.6 165.8 164.9 165.8C165.5 163.4 163.5 160.7 166 158.8Z" fill="#EDECED"/>
<path d="M166.1 176.7C165.7 175.4 165.3 174.2 164.9 172.9C165.2 172.5 165.5 172.2 165.8 171.8C166.2 172.8 166.6 173.8 166.9 174.8C167.6 175.8 167.9 176.7 166.1 176.7Z" fill="#020203"/>
<path d="M178.8 210.9C178.9 211.7 179 212.4 179.1 213.2C176.7 213.3 177.1 210.8 176 209.7C176.4 209.3 176.9 208.8 177.3 208.4C178.8 208.6 178.5 209.9 178.8 210.9Z" fill="#D2D1D4"/>
<path d="M156.9 151.9C156.6 152.3 156.2 152.6 155.9 153C154.5 151.7 154.7 150 153.9 148.1C156.6 148.7 156.5 150.5 156.9 151.9Z" fill="#D6D5D7"/>
<path d="M124.7 88.3C121.5 89.7 119.3 90.4 117.3 91.6C113.5 93.8 111.6 92.7 110.9 88.3C115.1 88.3 119.3 88.3 124.7 88.3Z" fill="#F8F8F8"/>
<path d="M229.1 88.3C228.5 92.9 226.4 93.8 222.5 91.5C220.6 90.4 218.4 89.7 215.2 88.3C220.7 88.3 224.8 88.3 229.1 88.3Z" fill="#F8F8F9"/>
<path d="M174 197.7C172.5 195.2 171.1 192.7 171.3 189.7L171.7 189.5C173.9 191.5 174.5 194.2 174.8 197C175.1 197.8 174.8 198 174 197.7Z" fill="#3E3C40"/>
<path d="M171.8 189.4L171.4 189.6C169.6 188 169 186 169 183.7C169.4 183.3 169.7 183.3 170.1 183.7C171.4 185.4 172.5 187.2 171.8 189.4Z" fill="#48464A"/>
<path d="M174 197.7C174.3 197.5 174.5 197.2 174.8 197C176.5 198.2 176.5 200 176.8 201.8C176.5 202.3 176.5 202.9 175.8 203C174.7 201.3 173.7 199.7 174 197.7Z" fill="#4E4C50"/>
<path d="M178.8 210.9C178.3 210.1 177.8 209.2 177.2 208.4C177.1 207.5 177.1 206.6 177 205.7C177.4 205.3 177.7 205.3 178.1 205.7C178.8 207 179.5 208.3 180.2 209.6C179.7 210 179.3 210.4 178.8 210.9Z" fill="#444247"/>
<path d="M166.1 176.7C166.4 176.1 166.7 175.4 167 174.8C168.2 176.2 168.6 178 168.9 179.8C168.6 180.3 168.5 180.9 167.8 181C166.7 179.8 166.3 178.3 166.1 176.7Z" fill="#525054"/>
<path d="M178.1 205.6C177.7 205.6 177.4 205.6 177 205.6C175.8 205 176.1 203.8 175.8 202.9C176.1 202.5 176.5 202.1 176.8 201.7C177.3 203 177.7 204.3 178.1 205.6Z" fill="#020203"/>
<path d="M167.8 181C168.2 180.6 168.5 180.2 168.9 179.8C169.3 181.1 169.7 182.4 170.1 183.7C169.7 183.7 169.4 183.7 169 183.7C167.8 183.2 168.1 181.9 167.8 181Z" fill="#020304"/>
<path d="M179.2 230.4C182.1 232.1 181.1 235.8 183.7 237.9C177.6 240.1 177.2 236.4 176.8 232.7C177.2 231.4 177.2 229.9 179.2 230.4Z" fill="#201E21"/>
<path d="M179.2 230.4C178.4 231.1 177.6 231.9 176.8 232.6C175.2 231.7 176.2 230.5 176.8 229.9C177.5 229.1 178.5 229.3 179.2 230.4Z" fill="#676469"/>
</svg>
