<svg width="1920" height="185" viewBox="0 0 1920 185" fill="none" xmlns="http://www.w3.org/2000/svg">
<path d="M233.2 168.8C238.1 171 243.5 170.4 248.7 171.3C258.7 173.2 268.8 173.1 278.9 173.5C288.8 173.9 298.8 172.9 308.6 171.6C329.3 168.9 349.1 163 367.6 153.2C383.2 144.9 397.3 134.5 410.2 122.6C433.1 101.4 452.5 77.1 471.7 52.7C484.7 36.1 498.2 19.8 511.4 3.40001C512.1 2.50001 512.9 1.60001 514.8 2.40001C509 9.60001 503.2 16.7 497.5 23.8C485.4 38.9 473.3 53.8 461.4 69C445.2 89.8 427.8 109.6 408.3 127.2C389 144.6 367.1 158.4 342 166.3C327 171 311.5 173.4 295.8 174.9C283.5 176.1 271.3 174.9 259.1 174.6C252.2 174.4 245.4 172.6 238.4 172.7C236.6 171.5 234.4 172.8 232.6 171.8C230.8 170.5 228.7 171.6 226.8 171C225.6 169.9 224.2 170.3 223.4 170.2C222.2 170.3 222.8 171.4 222.7 170.7C222.7 170.5 222.7 170.5 222.8 170.4C224 169.9 225.2 170 226.4 170.6C228.2 171.9 230.5 170.5 232.3 171.5C234.2 172.9 236.5 171.3 238.4 172.6C244.1 175.1 250.4 174.2 256.3 175.5C264.9 177.5 273.9 177.2 282.5 177.2C300.7 177.3 318.8 175.5 336.5 170.7C359.9 164.3 380.9 153.3 399.8 138.3C414.5 126.7 427.6 113.3 439.8 99.2C452.7 84.3 464.8 68.9 477.2 53.7C487.6 40.9 497.8 28 508.3 15.2C512.2 10.4 515.9 5.40001 521.6 0.700012C520.3 6.20001 516.6 8.70001 514 11.8C495.5 33.6 478.1 56.2 460.1 78.4C447.1 94.5 433.8 110.3 418.8 124.5C397.7 144.5 374.2 160.9 346.2 170C330.5 175.1 314.5 177.6 298.1 178.9C279.1 180.4 260.5 178.2 241.8 175.6C240.3 175.4 238.8 175.5 237.3 175.5C235.6 174.3 233.5 175.5 231.7 174.8C230.6 173.8 229.3 174 227.9 174.2C227.2 174.3 228 174.5 228 174.5C229.1 173.7 230.3 174 231.4 174.7C233.2 175.8 235.4 174.4 237.2 175.6C244.7 178.6 252.7 178 260.5 179.5C269.8 181.3 279.4 181.2 288.7 181.3C301.2 181.4 313.7 180.2 326.2 178C342.2 175.1 357.4 170.1 371.8 162.8C385.4 155.9 397.9 147.2 409.5 137.2C431.5 118.1 449.8 95.8 468 73.2C481.7 56.1 495.3 38.8 509.9 22.4C515.1 16.5 520.1 10.3 525.3 4.30001C526.3 3.10001 527.2 1.50001 529.9 2.30001C525.2 7.80001 520.7 13.2 516.1 18.4C504.1 32 492.8 46.2 481.4 60.4C470.1 74.4 458.8 88.4 447.2 102.1C438.3 112.6 428.9 122.6 418.9 132C394.1 155.4 365.8 172.7 331.9 179.3C313.7 182.9 295.4 184.7 276.6 183C265.2 182 253.9 180.3 242.5 179.7C240.8 178.5 238.7 179.7 236.9 179C235.8 177.9 234.4 178.4 233.2 178.3C232.5 178.5 233.3 178.7 233.3 178.7C234.4 177.9 235.6 178.2 236.7 178.9C238.5 180 240.7 178.6 242.5 179.8C250.6 182.6 259 182.7 267.4 183.8C268.8 184 270.4 183.4 271.5 184.8C265.5 184.8 259.5 184.8 253.5 184.8C249.7 184.3 245.9 183.4 242 183.2C240.6 182 239 182.3 236.5 182.6C236.8 182.6 237.4 183.3 237.2 182.7C237.2 182.6 237.3 182.5 237.6 182.5C238.9 182.5 240.2 182.2 241.4 182.9C242.7 184.6 245.8 181.8 246.4 184.9C238.7 184.9 231.1 184.9 223.4 184.9C202.7 181.9 182.1 181.1 161.4 184.9C159.1 184.9 156.7 184.9 154.4 184.9C155 181.7 158 181.8 160.2 181.1C171.8 177.6 183.7 176.9 195.8 177.6C202.4 178 208.9 179 213.5 179.9C207.6 178.5 199.8 177.8 191.9 177.4C174.8 176.5 158 177.4 141.7 183.4C139.7 184.1 137.5 184.1 135.5 184.9C134.2 184.9 132.8 184.9 131.5 184.9C131.5 182.3 133.7 181.8 135.5 181.1C147.4 176 159.7 173.2 172.7 172.4C182.9 171.8 192.9 173.3 202.9 174.5C204.2 174.7 205.4 175.1 205.5 175.1C198.7 173 190.4 172.8 182.2 172C164.4 170.4 147 172.6 130.2 178.9C125.2 180.8 120.7 183.7 115.4 184.8C114.1 184.8 112.7 184.8 111.4 184.8C111.3 182.3 113.4 181.5 115.1 180.6C128.3 173.2 142.5 169.1 157.6 167.4C170.2 165.9 182.4 167.8 194.7 169.5C195.3 169.6 196 169.8 196.1 169.9C194.2 168.9 191.5 169 189 168.6C168.1 165.5 147.3 165.2 126.8 171.2C118.8 173.6 111.3 177.2 104 181.2C101.5 182.6 99 183.8 96.4 184.8C95.4 184.8 94.4 184.8 93.4 184.8C93.1 182 95.5 181.2 97.1 180.1C111.9 170 128.5 164.6 146.3 162.5C159.7 160.9 172.7 162.7 185.8 164.7C186.6 164.8 187.4 165.2 187.4 165.2C185.1 164.2 181.8 164.2 178.6 163.5C175.2 162.7 171.7 162.5 168.3 162.2C150.7 160.7 133.1 161 116 166.3C105.6 169.5 95.9 174.1 87 180.3C84.5 182 82.1 183.6 79.4 185C78.4 185 77.4 185 76.4 185C76 182.1 78.2 180.9 79.9 179.5C101.8 163.2 126.4 155.9 153.7 157C160.8 157.3 167.7 158.3 174.7 159.7C175.3 159.9 174.7 158.6 174.7 159.3C174.7 159.5 174.2 159.6 173.8 159.5C150.7 155.2 127.6 154.8 104.8 161.5C92.1 165.2 80.5 171.3 70.2 179.7C67.8 181.7 65.2 183.5 62.4 185C61.4 185 60.4 185 59.4 185C58.9 182.4 61 181.2 62.5 179.8C86.2 159.4 113.7 150.4 145 152C152 152.4 158.8 153.2 165.6 154.5C158.4 152.8 151.1 152.2 143.7 151.8C119.6 150.3 96.2 152.6 74.5 164.5C66.4 168.9 59.2 174.4 52.4 180.5C50.5 182.2 48.7 183.8 46.4 184.9C45.4 184.9 44.4 184.9 43.4 184.9C42.9 182.5 44.7 181.3 46 179.9C67.3 158.8 93 147.7 123.1 146.7C135.4 146.3 147.6 147.4 159.6 149.7C161.1 151 162.9 150.6 164.6 150.5C163.1 150.5 161.6 150.9 160.2 150.1C147 146.5 133.3 145.8 119.8 145.8C88 146 59.7 155.9 37.2 179.3C35.1 181.5 33 183.5 30.2 184.8C29.2 184.8 28.2 184.8 27.2 184.8C26.7 182.4 28.6 181.2 29.9 179.8C51.5 156.5 78.1 143.7 110 141.4C122.1 140.6 133.8 142.4 145.6 143.7C146.5 143.8 147.2 144.4 148.1 144.5C140.8 142.4 133.3 141.9 125.8 141.2C109.5 139.6 93.3 140.4 77.3 144.6C56.5 150 38.7 160.5 24.1 176.1C21.3 179.1 18.5 182.2 15.2 184.7C14.2 184.7 13.2 184.7 12.2 184.7C31.3 159.4 56.3 144 87.8 138.9C105.2 136.1 122.4 136.7 139.6 139.9C140.4 140 141.2 139.9 141.9 139.5C86.7 126.9 37.9 135.3 0.499971 183C-2.90498e-05 179.3 1.89997 177.7 3.29997 176.1C22 154.4 44.9 139.5 73.5 134.3C89.8 131.3 106 131.3 122.4 133.5C144 136.4 164.5 143.8 185.7 148.2C201.4 151.5 217.1 154.5 233.1 155.9C243.2 156.8 253.3 157.9 263.3 157.7C293.1 157 322 152 348.9 138.8C365.3 130.8 380.3 120.4 394.1 108.4C418.8 86.8 439.3 61.6 459.2 35.8C467.1 25.5 475.2 15.2 483.2 5.00001C484.1 3.80001 484.9 2.10001 487.7 2.50001C483.8 7.70001 480.2 12.7 476.4 17.5C466.2 30.5 456.1 43.5 445.7 56.4C439.2 64.5 432.2 72.2 425.5 80.2C419.5 87.3 412.9 93.9 406.2 100.3C382.6 122.9 356.1 141 324.4 150.6C308.2 155.5 291.6 158.2 274.7 159.4C257.6 160.6 240.7 159 223.7 157C221.7 156.8 219.7 156.9 217.7 156.9C215.9 155.7 213.7 157 211.9 156C210.1 154.7 208 155.8 206.1 155.2C204.9 154.1 203.5 154.5 202.7 154.4C201.5 154.5 202.1 155.6 202 154.9C202 154.7 202 154.7 202.1 154.6C203.3 154.1 204.5 154.2 205.7 154.8C207.5 156.1 209.8 154.7 211.6 155.7C213.5 157.1 215.8 155.5 217.7 156.8C224.3 159 231.4 158.4 238.1 159.9C246.6 161.7 255.3 160.6 263.9 161.5C271 162.2 278.5 161.3 285.7 160.6C302.7 159 319.4 155.8 335.5 149.8C354.8 142.6 372.3 132.4 388.5 119.8C401.1 110 412.3 98.6 423.1 87C435.7 73.5 447.4 59.1 458.6 44.4C469.2 30.5 480.1 16.8 490.9 3.00001C491.6 2.20001 492.3 1.70001 494.2 2.10001C489 8.80001 484.1 15.2 479.1 21.5C465.7 38.5 452.7 55.8 438.8 72.3C417.7 97.3 395 120.7 366.4 137.4C345.5 149.7 322.9 157.4 298.8 160.9C280.9 163.5 262.9 163.8 244.9 162.7C237.8 162.3 230.8 160.7 223.7 160.8C221.5 160 219.1 160.7 217 160C215.2 158.6 213 159.8 211.1 159.1C209.6 157.7 207.7 158.8 206.1 158.1C204.7 157 203.1 157.2 202.1 157.5C202.9 157.1 204.2 157.3 205.5 157.8C207 159.1 208.9 157.9 210.4 158.8C212.1 160.1 214.2 159.1 216.1 159.6C218.4 161.3 221.2 160 223.7 161C228.7 163.7 234.3 163 239.6 163.7C250.7 165.3 262 166.1 273.3 165.9C315.4 165 354 153.5 387.6 127.6C406.1 113.3 422.2 96.5 437.3 78.6C457.4 54.7 476.3 30 495.7 5.50001C496.7 4.20001 497.7 2.40001 500.8 2.40001C497.4 6.80001 494.4 10.7 491.3 14.6C477 32.7 462.8 50.9 448.3 68.9C442.4 76.2 436.4 83.5 430 90.4C416.8 104.8 402.9 118.5 387.2 130.2C362.1 148.8 334.4 160.9 303.3 165.1C290.3 166.9 277.3 168.4 264.3 167.8C253.3 167.3 242.2 165.9 231.2 164.9C230 164.8 228.9 164.9 227.7 164.9C225.9 163.7 223.7 165 221.9 164C220.1 162.7 218 163.8 216.1 163.2C214.9 162.1 213.5 162.4 212.6 162.5C211.4 162.6 212.1 163.7 212 163C212 162.8 212 162.8 212.1 162.7C213.3 162.2 214.5 162.3 215.7 162.9C217.5 164.2 219.8 162.8 221.6 163.8C223.5 165.2 225.8 163.6 227.7 164.9C233.9 167.4 240.7 166.6 247.1 167.9C255.3 169.6 263.6 168.5 271.9 169.6C279.4 170.6 287.1 169.2 294.7 168.6C310 167.3 325.1 164.2 339.7 159.1C360.8 151.8 379.5 140.6 396.8 126.5C419 108.4 437.4 86.7 455.1 64.5C471.4 44.1 487.6 23.7 503.8 3.30001C504.6 2.30001 505.4 1.70001 507.5 2.20001C502.2 9.00001 497.1 15.3 492 21.7C480.2 36.6 468.5 51.5 456.6 66.3C448.4 76.4 440.1 86.5 431.3 96.2C425.2 102.9 419 109.6 412.3 115.9C396.6 130.7 379.6 143.9 359.9 153.2C341.3 162.1 321.6 167.9 301 170C289.8 171.1 278.6 172.4 267.3 171.8C256.2 170.9 244.7 169.7 233.2 168.8C231.4 167.6 229.2 168.9 227.4 167.9C225.6 166.6 223.5 167.7 221.6 167.1C220.4 166 219 166.4 218.2 166.3C217 166.4 217.6 167.5 217.5 166.8C217.5 166.6 217.5 166.6 217.6 166.5C218.8 166 220 166.1 221.2 166.7C223 168 225.3 166.6 227.1 167.6C229 169.1 231.3 167.5 233.2 168.8Z" fill="#A81B8D"/>
<path d="M1914.1 184.7C1905.7 175.2 1897.2 165.7 1888.9 156.1C1879.6 145.3 1870.6 134.4 1861.4 123.6C1855.1 116.2 1849.1 108.5 1842.6 101.3C1832.7 90.4 1823.1 79.2 1812.3 69.1C1796.6 54.5 1780 41.1 1760.7 31.5C1742.9 22.6 1724 17.4 1704.3 14.8C1687.6 12.6 1670.8 12.2 1654.1 13C1632.6 14 1611.9 19 1592 27.4C1566.4 38.2 1543.3 52.7 1522.3 70.9C1501.1 89.3 1482.8 110 1468.9 134.4C1460.6 148.8 1454.3 164.1 1451.4 180.5C1451.1 182 1450.7 183.4 1450.4 184.8C1449.7 184.8 1449.1 184.8 1448.4 184.8C1451.1 167.8 1456.9 152 1465 136.8C1472.4 123 1481.4 110.4 1491.5 98.6C1510 77.1 1531.3 58.9 1555.4 43.9C1579.6 28.9 1605.4 17.8 1633.5 13C1653.4 9.69999 1673.4 10.2 1693.5 11.6C1713.2 12.9 1732.2 17.2 1750.3 24.7C1767.9 31.9 1783.9 41.9 1798.4 54.3C1807 61.6 1815.6 68.8 1823.3 77.1C1836.7 91.7 1849.9 106.5 1862.6 121.7C1873.9 135.3 1884.8 149.2 1896.8 162.2C1903.7 169.6 1910.3 177.2 1917 184.7C1916.1 184.7 1915.1 184.7 1914.1 184.7Z" fill="#A81B8D"/>
<path d="M868.8 184.7C872.8 160.7 866.7 138.5 855.5 117.5C843.9 95.9 828.1 77.6 809.6 61.4C794.6 48.3 778.3 37.5 760.7 28.6C742 19.1 722.1 12.6 701.3 9.90002C683.7 7.60002 665.9 8.20001 648.2 10.2C629.6 12.3 611.2 15.6 593.7 22.6C575.5 29.8 559.1 39.9 543.9 52.2C532.8 61.2 522.5 71 512.7 81.4C501.3 93.6 490.2 106.1 479.6 118.9C472.3 127.7 464.7 136.1 457 144.6C449 153.4 441 162.2 431.8 169.9C425.7 175 419.5 179.8 413.2 184.7C411.9 184.7 410.5 184.7 409.2 184.7C423.2 175.1 436.1 164.3 447.6 151.9C458.7 139.9 469.5 127.7 480 115.1C488 105.5 496.8 96.5 505 86.9C511.9 78.8 519.4 71.3 527.1 64.1C542.6 49.6 559.2 36.4 578.4 27.1C596.7 18.2 616 12.5 636.2 9.70001C650.5 7.70001 664.8 7.00002 679.3 6.80002C703.3 6.40002 726 11.8 747.9 20.8C771.2 30.4 792.2 43.7 811.3 60.2C830.3 76.6 846.1 95.5 858 117.5C868.1 136.3 873.6 156.4 871.9 177.9C871.7 180.2 871.3 182.4 870.9 184.7C870.1 184.7 869.4 184.7 868.8 184.7Z" fill="#A81B8D"/>
<path d="M859.8 184.7C861.5 162.5 856.9 141.7 845.9 122.3C838.5 109.3 829.8 97.4 819.6 86.4C800.5 66 778.4 49.5 753.1 37.7C733.3 28.5 712.6 22.3 690.7 20.6C655 18 620.2 22.7 587 35.9C570.6 42.4 555.8 51.9 542 63C529 73.4 517.3 85.1 505.9 97.2C494.7 109.1 484.4 121.9 473.5 134C458.6 150.6 444 167.6 426.2 181.4C425 182.3 424.2 183.6 423.2 184.7C421.9 184.7 420.5 184.7 419.2 184.7C431.1 175.1 442.3 164.9 452.7 153.8C464.5 141.3 475.4 128.1 486.8 115.2C500.9 99.2 515.4 83.5 531.5 69.3C546.1 56.4 561.8 45.2 579.5 36.9C595.8 29.2 612.9 24.4 630.7 21.6C647.1 19 663.5 17.4 680.1 17.7C703.6 18.1 725.9 23.9 747.5 32.9C765.7 40.5 782.5 50.5 797.6 63C816.4 78.4 833 95.8 845.4 116.9C853.4 130.6 859.3 145 861.7 160.7C862.9 168.7 862.7 176.7 862 184.7C861.1 184.7 860.5 184.7 859.8 184.7Z" fill="#A81B8D"/>
<path d="M1907.1 184.7C1897.3 173.5 1887.5 162.4 1877.8 151.1C1867.6 139.2 1858 126.8 1847.4 115.2C1835.8 102.5 1824.7 89.4 1811.6 78C1801.1 68.8 1790.7 59.8 1778.9 52.3C1760.9 41 1741.6 33.3 1720.6 28.9C1697.6 24 1674.4 23.8 1651.3 24.8C1629.8 25.8 1609.3 32 1589.6 40.8C1557 55.4 1529 76.4 1505.3 102.8C1485 125.4 1468.7 150.5 1461.8 180.7C1461.5 182 1461.5 183.3 1461.3 184.6C1460.6 184.6 1460 184.6 1459.3 184.6C1460.1 173.7 1464 163.7 1468.3 153.9C1481 124.8 1501.3 101.3 1524.8 80.5C1543.4 63.9 1564.3 50.4 1587.2 40.1C1605.7 31.8 1624.7 25.3 1645.2 23.5C1662.3 22.1 1679.3 22.4 1696.4 23.4C1722.1 25 1746.3 31.8 1769 43.8C1781.2 50.3 1792.3 58.3 1802.7 67.3C1809.8 73.5 1817.2 79.4 1823.7 86.3C1838.6 102 1853 118.2 1866.8 134.8C1877.6 147.7 1888.1 160.9 1899.9 173C1903.5 176.7 1906.7 180.7 1910 184.5C1909.1 184.7 1908.1 184.7 1907.1 184.7Z" fill="#A81B8D"/>
<path d="M849.8 184.7C852.3 175.6 850.1 166.7 848.2 157.9C843.5 135.9 831.8 117.4 817.5 100.4C803.1 83.3 786 69.4 766.8 57.9C744.8 44.7 721.3 36.2 695.8 32.5C676.5 29.7 657.5 31.4 638.5 33.8C615 36.7 592.3 42.7 571.2 53.6C557.5 60.7 544.9 69.4 533.2 79.6C521.4 89.9 510.5 101 499.8 112.2C487.8 124.7 477 138.3 465.3 151.1C454.8 162.5 444.4 174.1 431.9 183.6C431.5 183.9 431.3 184.4 431.1 184.8C430.1 184.8 429.1 184.8 428.1 184.8C434.8 178.7 441.8 172.9 448.1 166.3C462.1 151.6 475.5 136.3 489 121.1C501.7 106.7 515.2 93 529.7 80.3C543.7 68 558.8 57.4 575.7 49.4C593.5 41 612.2 35.8 631.6 32.7C646.6 30.3 661.8 28.5 677 28.8C700.5 29.3 722.9 34.8 744.4 43.9C761.9 51.3 778.1 61.1 792.7 73.1C816.9 92.9 836.6 116.3 847.3 146.1C850.8 156 853 166.4 853 177C853 179.7 852.7 182.3 852 184.8C851.1 184.7 850.5 184.7 849.8 184.7Z" fill="#A81B8D"/>
<path d="M1900.1 184.7C1890.6 173.7 1881 162.8 1871.5 151.8C1859.2 137.6 1847 123.2 1834.4 109.2C1825.8 99.6 1816.4 90.6 1806.4 82.3C1795.1 72.9 1783.2 64.2 1770.1 57.3C1755.2 49.5 1739.5 43.9 1723 40.6C1704.1 36.8 1684.9 35.3 1665.7 35.7C1640.4 36.2 1616.2 42 1593.1 52.5C1574.9 60.8 1557.9 71 1542.3 83.4C1520.4 100.7 1501.9 120.9 1487.7 145C1480.3 157.5 1475 170.7 1471.3 184.7C1470.6 184.7 1470 184.7 1469.3 184.7C1475.4 159.1 1488.2 137.1 1504.9 116.9C1528.8 88.1 1557.9 66.2 1591.9 50.8C1611.4 41.9 1631.9 36.1 1653.5 34.5C1685.6 32.2 1717 35.3 1747.6 45.3C1768.5 52.2 1786.9 63.5 1803.8 77.5C1813.9 85.9 1823.6 94.6 1832.5 104.2C1843.8 116.5 1855 128.8 1865.6 141.7C1874.2 152.2 1883.3 162.2 1892.2 172.4C1895.8 176.5 1899.4 180.6 1903 184.7C1902.1 184.7 1901.1 184.7 1900.1 184.7Z" fill="#A81B8D"/>
<path d="M840.8 184.7C841.7 156.8 830.2 133.6 813.5 112.3C794.1 87.5 769.3 69.7 740.7 57C721.8 48.7 702.1 43.6 681.2 42.4C651.5 40.8 622.9 45.8 594.8 54.5C570.9 61.9 550 74.7 530.9 90.7C512.5 106.1 496.8 123.8 480.8 141.5C467.4 156.4 454.2 171.4 439.1 184.7C438.1 184.7 437.1 184.7 436.1 184.7C442.3 178.7 448.7 173 454.6 166.7C470.9 149.1 486.6 131 503.2 113.7C527.6 88.3 554.6 66.4 588.5 54.4C607.8 47.6 627.5 43.3 647.9 41.4C657.1 40.5 666.3 39.1 675.6 39.6C697.4 40.7 718.5 45.3 738.7 53.8C756.6 61.3 773.1 71 787.9 83.4C813.9 105 833.9 130.8 841.6 164.5C843.1 171.2 842.9 177.9 842.9 184.7C842.1 184.7 841.5 184.7 840.8 184.7Z" fill="#A81B8D"/>
<path d="M1893.1 184.7C1881.6 171.5 1870 158.4 1858.8 145C1846.6 130.6 1833.9 116.6 1820.1 103.7C1798.5 83.5 1774.5 67 1745.9 57.9C1729 52.5 1711.5 49.8 1693.8 48.5C1679.9 47.4 1666 47.2 1652.1 48.5C1635.6 50 1619.9 54.5 1604.6 60.4C1582.4 69 1562.4 81.2 1544.2 96.2C1521.4 115.1 1502.5 137.3 1489.8 164.2C1486.7 170.8 1484.4 177.7 1482.5 184.7C1481.8 184.7 1481.2 184.7 1480.5 184.7C1483.5 171.5 1489.2 159.5 1496.1 148C1506.4 130.9 1519.1 115.6 1534 102.3C1564.5 75 1599.5 55.7 1640.1 47.9C1657.9 44.5 1676 45.1 1694.1 46.4C1708.2 47.4 1722 49.4 1735.7 52.9C1760 59.1 1782 69.9 1801.7 85.4C1820.3 100 1836.8 116.6 1852.2 134.4C1863.7 147.8 1875.5 161 1887.2 174.3C1890.2 177.8 1893.2 181.3 1896.3 184.8C1895.1 184.7 1894.1 184.7 1893.1 184.7Z" fill="#A81B8D"/>
<path d="M830.8 184.7C831.4 161.4 822.2 141.6 808.6 123.6C786.2 93.8 756.5 73.6 721.3 61.5C703 55.2 684 51.7 664.8 52.7C628.2 54.8 592.5 61.7 560 79.8C547 87.1 535 95.9 523.7 105.7C517.6 111 511.8 116.7 506.1 122.5C489.4 139.3 473.7 157 457.9 174.5C454.6 178.2 449.8 180.3 447.1 184.7C446.1 184.7 445.1 184.7 444.1 184.7C448.8 178.9 454.7 174.3 459.8 169C478.4 149.5 495.8 128.7 515.5 110.3C545.2 82.5 579.6 64 619.9 56.5C637.1 53.3 654.4 50.1 672 50.6C695.6 51.3 718.1 56.6 739.7 66.3C763.4 76.9 783.8 91.9 801.1 111C817.2 128.9 828.8 149.2 832.6 173.3C833.2 177 832.7 180.9 832.8 184.7C832.1 184.7 831.5 184.7 830.8 184.7Z" fill="#A81B8D"/>
<path d="M1886.1 184.7C1876.3 173.5 1866.4 162.4 1856.9 151.1C1846 138.1 1834.2 126.1 1821.9 114.5C1794 88.1 1761.7 70 1723.3 63.4C1707.9 60.8 1692.5 59 1677 58.6C1651.4 58 1627.1 63.5 1603.5 73.3C1572.7 86.1 1546.8 105.6 1524.9 130.3C1510.8 146.2 1499.3 164 1493.4 184.8C1492.7 184.8 1492.1 184.8 1491.4 184.8C1494 173.8 1498.9 163.7 1504.9 154.1C1524.6 122.8 1551.1 98.7 1583.5 80.7C1604.9 68.8 1627.7 61.1 1651.9 57.7C1668.5 55.4 1685.2 56.5 1702 58.3C1719.2 60.1 1736.1 63.2 1752.4 68.7C1773.4 75.7 1792.1 86.9 1809.3 100.7C1822.1 111 1833.8 122.6 1845 134.5C1856.1 146.3 1866.3 158.8 1877 171C1881 175.6 1885.1 180.1 1889.2 184.7C1888.1 184.7 1887.1 184.7 1886.1 184.7Z" fill="#A81B8D"/>
<path d="M820.8 184.7C821.2 168.9 815.7 154.8 807.8 141.6C790.5 112.8 765.5 92.4 735 78.5C717.4 70.5 698.9 66 679.5 64.2C659 62.3 639.3 65.5 619.5 69.4C598 73.6 577.6 80.7 558.3 91.1C545.4 98.1 533.7 106.5 522.5 116C510.6 126.1 499.9 137.5 489 148.6C477.4 160.4 466.3 172.7 455 184.8C454 184.8 453 184.8 452 184.8C452.4 184.3 452.7 183.6 453.1 183.2C472.5 164.3 490.2 143.9 509.5 125C541.3 93.8 579.3 74.8 623 66.6C638.8 63.6 654.6 61.1 670.8 61.6C691.5 62.3 711.5 66.6 730.6 74.5C753.5 83.9 773.4 97.5 790.4 115.5C806.4 132.4 818.1 151.6 822.5 174.7C823.1 178.1 821.8 181.7 823.7 184.9C822.8 184.7 821.8 184.7 820.8 184.7Z" fill="#A81B8D"/>
<path d="M1879.1 184.7C1860.9 162.5 1841.5 141.5 1820.4 122.1C1792.5 96.4 1759.7 80.2 1721.9 74.2C1705.9 71.7 1689.8 69.3 1673.6 69.5C1649.7 69.9 1626.8 75.2 1604.8 84.9C1578.6 96.4 1555.9 112.7 1536.5 133.5C1522.5 148.4 1511.2 165.2 1504.3 184.7C1503.6 184.7 1503 184.7 1502.3 184.7C1506.8 169.6 1515.1 156.5 1524.6 144.2C1542 121.9 1563.4 104.2 1588.3 90.6C1607.3 80.3 1627.3 73.1 1648.5 69.7C1662.3 67.4 1676.3 67 1690.5 68.2C1712 70 1733.1 73.4 1753.6 80.2C1778 88.2 1799.4 101.5 1818.7 118.3C1829.7 127.9 1840 138.3 1850 148.8C1861.1 160.4 1871.3 172.7 1881.8 184.7C1881.1 184.7 1880.1 184.7 1879.1 184.7Z" fill="#A81B8D"/>
<path d="M810.8 184.7C810.8 168.8 804 155.3 795.7 142.4C782.1 121.4 763.5 105.9 741.5 94C724 84.5 705.4 78.2 685.7 75.5C665.3 72.7 645.1 74.3 625 78.5C601.2 83.5 578.1 90.4 556.6 101.9C541.4 110.1 527.6 120.3 514.7 131.7C506.5 139 498.3 146.3 491.1 154.5C482 164.8 471.2 173.5 463.1 184.6C462.1 184.6 461.1 184.6 460.1 184.6C463.1 181.1 466 177.5 469.2 174.1C479.2 163.7 489.3 153.4 499.4 143.1C531.8 109.9 570.5 87.9 616.2 78.1C636.6 73.7 657.1 70.9 677.9 72.5C708.4 74.8 735.9 85.7 760.7 103.4C774 112.9 785.7 124 795 137.5C804.2 150.7 811.4 164.6 813 180.9C813.1 182.2 813.6 183.5 813.9 184.7C812.8 184.7 811.8 184.7 810.8 184.7Z" fill="#A81B8D"/>
<path d="M1872.1 184.7C1865.9 177.7 1859.7 170.5 1853.3 163.6C1844.2 153.7 1834.9 144.1 1824.9 135.2C1798.1 111.1 1767.6 94.5 1732.1 87.3C1713.9 83.6 1695.6 80.5 1677.1 80.6C1652 80.8 1627.9 86.7 1605.1 97.3C1583.7 107.3 1564.5 120.4 1547.9 137.1C1534.2 150.9 1523.1 166.7 1515.4 184.7C1514.7 184.7 1514.1 184.7 1513.4 184.7C1519.9 168.6 1529.6 154.6 1541.1 141.6C1558.2 122.4 1578.6 107.7 1601.7 96.6C1621.9 86.9 1643 80.9 1665.5 79.2C1693.8 77 1721.2 81.7 1748.2 89.2C1775 96.6 1798.6 110 1819.7 128C1834.3 140.3 1847.7 153.8 1860.1 168.2C1864.9 173.8 1870.1 179.2 1875.1 184.7C1874.1 184.7 1873.1 184.7 1872.1 184.7Z" fill="#A81B8D"/>
<path d="M1865.1 184.7C1850.8 169.1 1836.5 153.5 1819.9 140.1C1809.6 131.7 1798.8 124.1 1787.2 117.7C1763.5 104.8 1737.8 98.1 1711.2 94.2C1695.4 91.9 1679.7 90.5 1663.8 92.4C1645.6 94.6 1628 99.1 1611.3 106.7C1587.2 117.5 1566.1 132.5 1548.6 152.2C1540 162 1532.1 172.4 1527.2 184.7C1526.5 184.7 1525.9 184.7 1525.2 184.7C1529.1 173.8 1535.7 164.5 1542.9 155.7C1561.3 133.3 1583.9 116.3 1610.4 104.6C1628.1 96.8 1646.5 91.9 1665.9 90.2C1701.5 87.3 1735.5 94.6 1768.5 106.7C1790.6 114.8 1809.8 128.2 1827.5 143.8C1840.7 155.4 1852.5 168.5 1864.7 181C1865.7 182.1 1867 183 1866.9 184.7C1866.4 184.7 1865.8 184.7 1865.1 184.7Z" fill="#A81B8D"/>
<path d="M800.8 184.7C800.7 175.2 797 166.6 792.9 158.4C787.1 146.8 779.2 136.6 769.8 127.6C746.6 105.2 719 91.7 687.2 86.3C660.6 81.8 634.9 85.7 609.2 92.3C577.6 100.4 548.6 113.6 522.9 133.7C510.2 143.6 499.1 155.2 487.7 166.6C481.7 172.6 475.9 178.7 470 184.7C469 184.7 468 184.7 467 184.7C481.4 169.8 495.8 154.9 511.3 141.1C522 131.6 533.2 123 545.6 115.8C563.2 105.6 581.8 97.7 601.4 92.3C614.6 88.7 628 85.2 641.6 83.5C659.8 81.2 677.9 81.8 695.9 85.8C727.5 92.7 754.5 107.7 776.3 131.3C789.8 145.9 800.2 162.5 803 182.9C803.1 183.5 803.5 184.1 803.8 184.7C802.8 184.7 801.8 184.7 800.8 184.7Z" fill="#A81B8D"/>
<path d="M790.8 184.7C788.3 169.8 781 157.2 771.8 145.5C759.9 130.3 744.7 118.9 727.5 110.2C713.6 103.1 698.7 98.7 683.2 96.2C649.6 90.9 617.8 98.7 586.5 109.5C559.6 118.8 535.1 132.2 513.4 150.8C500.9 161.5 489.1 172.8 477.9 184.8C476.9 184.8 475.9 184.8 474.9 184.8C483.9 175.3 493.1 166 502.8 157.3C512.6 148.4 522.9 140 533.9 132.8C556 118.3 580.1 108.4 605.5 101.4C617.1 98.2 628.8 95.2 640.8 93.7C654.5 92 668.1 92.3 681.9 94.2C700.2 96.7 717.4 102.4 733.4 111.4C759.3 125.9 779.5 145.7 790 174C791.3 177.5 792.9 181.1 792.7 185C792.2 184.7 791.5 184.7 790.8 184.7Z" fill="#A81B8D"/>
<path d="M1857.1 184.7C1844.5 171.5 1831.8 158.6 1817.4 147.3C1799.2 133.2 1779.2 122.8 1757.6 115.5C1741.3 110 1724.4 106.6 1707.3 104.2C1660 97.5 1617.7 109.5 1579.8 137.9C1564 149.8 1551.1 164.3 1540.8 181C1540.1 182.1 1539.8 183.4 1539.4 184.7C1538.4 184.7 1537.4 184.7 1536.4 184.7C1544.4 170.2 1554.4 157.4 1566.6 146.3C1586.7 127.9 1609.7 114.7 1636 107.1C1653 102.2 1670.3 99.7 1688 100.3C1707.4 101 1726.4 104.8 1745.1 109.7C1776.7 118 1805 132.6 1829.4 154.5C1840.2 164.1 1850.3 174.3 1860.2 184.8C1859.1 184.7 1858.1 184.7 1857.1 184.7Z" fill="#A81B8D"/>
<path d="M779.8 184.7C779.3 176.5 775.2 169.5 771.1 162.8C750.7 130.4 720 113.2 683.1 106.3C655.2 101.1 627.9 105.7 601.1 114.4C586.1 119.3 571.2 124.4 557.1 131.5C542 139.1 527.5 147.7 514.5 158.7C504.7 167 494.3 174.7 485.9 184.6C484.9 184.6 483.9 184.6 482.9 184.6C493.8 172.3 506.5 161.9 519.5 152.1C551.4 128 588.1 114.3 626.7 105.4C639.1 102.6 651.9 101.3 664.7 102.2C695.2 104.3 723.1 113.1 747.1 132.8C761.6 144.7 773 158.7 779.9 176.2C781 179 781.8 181.8 782.7 184.6C781.8 184.7 780.8 184.7 779.8 184.7Z" fill="#A81B8D"/>
<path d="M1849.1 184.7C1839.1 173.4 1827.4 163.9 1815.3 155C1787.7 134.6 1756.2 123.6 1722.8 117.1C1708.8 114.4 1694.7 112.9 1680.4 113.1C1659.7 113.4 1640.1 118.2 1621.2 126.2C1600.7 134.9 1582.6 147.2 1567.3 163.5C1561.2 170 1555.5 176.9 1551.3 184.8C1550.6 184.8 1550 184.8 1549.3 184.8C1555.4 172.3 1564.7 162.1 1574.9 153.1C1587.2 142.2 1600.9 133.2 1615.9 126.3C1631.8 119 1648.3 114.1 1665.8 112.1C1677.3 110.8 1688.8 110.8 1700.1 111.5C1714.6 112.5 1728.8 116 1742.9 119.5C1771.2 126.7 1797.4 138.3 1820.5 156.2C1831.7 164.9 1842.8 173.8 1852.1 184.7C1851.1 184.7 1850.1 184.7 1849.1 184.7Z" fill="#A81B8D"/>
<path d="M769.8 184.7C755.6 147.9 726.9 128.2 690.1 118.1C675.9 114.2 661.3 113.3 646.8 114.3C628.7 115.5 611.4 120.5 594.3 126.3C561.9 137.2 532.2 152.8 505.9 174.6C502.1 177.7 497.7 180.3 495 184.6C494 184.6 493 184.6 492 184.6C501.3 174.4 512.4 166.4 523.7 158.6C552.7 138.6 584.8 125.6 618.7 116.6C634.8 112.3 651.4 110.7 668 112.1C702.5 115.1 732.3 128.4 755.4 154.8C762.9 163.4 768.5 173.4 771.9 184.5C771.2 184.7 770.5 184.7 769.8 184.7Z" fill="#A81B8D"/>
<path d="M1840.1 184.7C1829.3 174.1 1817.1 165.4 1804.3 157.5C1776.6 140.2 1745.8 131 1714.1 125.4C1671.2 117.9 1631.4 127.2 1595.8 152.3C1584 160.6 1573.8 170.8 1565.2 182.5C1564.7 183.1 1564.6 184 1564.3 184.8C1563.3 184.8 1562.3 184.8 1561.3 184.8C1577.3 161.3 1599 144.9 1625 133.7C1648.1 123.7 1672.3 119.8 1697.3 121.4C1715 122.5 1732.2 126.8 1749.2 131.7C1775.6 139.3 1800.2 150.5 1822.1 167C1829.5 172.5 1836.9 178.1 1843.2 184.9C1842.1 184.7 1841.1 184.7 1840.1 184.7Z" fill="#A81B8D"/>
<path d="M757.9 184.7C756.2 176.3 751.1 169.7 745.9 163.4C728.3 142 705.1 130.3 678.2 125.4C664.6 122.9 650.8 123 636.8 124.7C612.9 127.6 591.1 136.5 569.3 145.7C548.7 154.4 529.8 165.9 511.8 178.8C509.4 180.5 507.3 182.6 505.1 184.6C504.1 184.6 503.1 184.6 502.1 184.6C507.6 178.3 514.9 174.2 521.6 169.5C544.6 153.5 570 142.2 596.3 132.6C609.6 127.8 623.1 124 637.1 122.2C660.5 119.3 683.3 121.8 705.3 130.9C719 136.6 731.1 144.6 741.5 154.9C750 163.3 756.6 173.2 761 184.5C759.9 184.7 758.9 184.7 757.9 184.7Z" fill="#A81B8D"/>
<path d="M315.2 184.7C322.2 182.8 329.4 182.5 336.5 180.9C364.4 174.6 389 161.9 410.5 143.1C426.6 129 441.2 113.5 454.9 97.1C472.4 76.3 489 54.7 506.8 34.1C516 23.5 525.6 13.3 534.8 2.70001C535.4 2.00001 536.1 1.70001 537.3 2.20001C535.7 5.10001 533.7 7.50001 531.5 9.80001C516.6 25 503.1 41.5 489.7 58C477.1 73.5 464.1 88.7 451.6 104.2C442.3 115.7 431.7 126 421.2 136.3C396.2 160.7 367.1 177.4 332.3 183.8C331.9 183.9 331.5 184.4 331.1 184.6C325.8 184.7 320.5 184.7 315.2 184.7Z" fill="#A81B8D"/>
<path d="M399.1 184.7C419.2 172.9 435.7 156.9 451.3 140C464.5 125.7 476.7 110.5 489.3 95.7C494.1 90.1 499 84.4 504 78.9C523.2 57.8 543.2 37.6 567.7 22.5C582.7 13.2 598.8 6.19999 616.1 2.19999C618.4 1.69999 620.6 1.59999 623.9 2.29999C610.6 5.49999 598.5 9.29998 586.9 14.7C574.4 20.5 562.8 27.7 551.9 36.2C533.8 50.3 517.8 66.5 502.9 83.9C490.3 98.7 477.2 113.2 464.7 128.1C455.6 138.9 445.7 148.8 435.7 158.8C427.1 167.4 417.8 174.9 407.7 181.7C406.4 182.6 404.6 183.1 404 184.8C402.4 184.7 400.8 184.7 399.1 184.7Z" fill="#A81B8D"/>
<path d="M1919.1 180.7C1910.6 173.7 1903.5 165.4 1896.3 157.2C1886.9 146.3 1877.9 135.2 1868.7 124.2C1859.4 113.1 1850.5 101.6 1840.7 90.8C1828.5 77.4 1816.7 63.5 1802.9 51.5C1791.1 41.2 1779.1 31.5 1765.6 23.7C1748.1 13.5 1729.3 6.80001 1709.2 3.90001C1706.3 3.50001 1703.5 2.50001 1700.5 2.50001C1709.9 0.900006 1718.9 3.2 1727.8 5.6C1753.4 12.5 1775.6 25.5 1795.8 42.5C1813.1 57.1 1828.2 73.6 1843.1 90.5C1857.4 106.8 1870.9 123.6 1884.8 140.2C1894.7 152 1904.5 163.8 1915.5 174.6C1916.7 175.8 1918 176.8 1919.2 177.8C1919.1 178.7 1919.1 179.7 1919.1 180.7Z" fill="#A81B8D"/>
<path d="M1829.1 184.7C1822.6 177.9 1814.5 173.4 1806.6 168.6C1778 151.4 1746.7 140.9 1714 135.3C1684.5 130.2 1655.7 133.6 1628.1 145.9C1610.3 153.9 1594.8 164.9 1581.5 179.1C1579.9 180.8 1578.7 182.8 1577.4 184.7C1576.4 184.7 1575.4 184.7 1574.4 184.7C1597.1 155.9 1627.4 139.8 1663 133.2C1690.8 128 1718 132.5 1744.8 140.3C1771.4 148 1796.8 158.5 1819.6 174.5C1824 177.6 1828.9 180.2 1832.2 184.7C1831.1 184.7 1830.1 184.7 1829.1 184.7Z" fill="#A81B8D"/>
<path d="M1438.4 184.7C1439.6 170.1 1443.9 156.2 1449.9 143C1459.3 122.4 1471.9 103.9 1487 87C1509.3 61.9 1535 41.2 1564.5 25C1583.6 14.5 1603.8 6.80002 1625.2 2.30002C1629.5 1.40002 1633.8 2.00002 1638.1 2.10002C1625.6 3.90002 1613.4 6.70002 1601.5 10.8C1574.3 20.3 1549.7 34.3 1527.1 52.1C1515.6 61.1 1504.8 70.9 1494.8 81.4C1480.9 96.1 1468.8 112.1 1458.9 129.8C1449.7 146.3 1443.5 163.6 1440.5 182.2C1440.4 183 1440.4 183.9 1440.4 184.7C1439.7 184.7 1439.1 184.7 1438.4 184.7Z" fill="#A81B8D"/>
<path d="M344.1 184.7C351.4 182.1 358.7 179.6 366 176.9C381.9 171 395.8 161.9 409 151.5C429.9 135 446.8 114.6 463.8 94.3C478.8 76.3 493.2 57.8 508.8 40.3C519.6 28.2 530.3 16 541.8 4.6C543.3 3.1 544.6 1.1 547.4 2.3C530.7 17.5 516.2 34.7 501.6 51.7C488.9 66.5 477.1 81.9 464.7 96.9C457.9 105.2 450.7 113.1 443.5 121.2C435.9 129.8 427.9 137.8 419.3 145.4C401 161.9 380.5 174.7 357 182.6C355.3 183.2 353.4 183.3 352 184.7C349.5 184.7 346.8 184.7 344.1 184.7Z" fill="#A81B8D"/>
<path d="M388.1 184.7C398.9 178.6 409.4 172 418.9 164C429.2 155.3 438.7 146.1 447.8 136.1C457.3 125.7 466.3 115 475.4 104.3C486.1 91.7 496.5 78.9 507.6 66.7C519.3 53.9 531.2 41.2 544.6 30.1C556.9 20 569.5 10.4 583.8 3.29998C585.7 2.29998 587.6 1.19998 590.8 2.29998C581.2 6.99998 572.5 11.7 564.2 17.5C555.5 23.6 547.6 30.5 539.5 37.3C529.2 46 520.2 56 511.2 65.8C500 78.1 489.5 91.1 478.6 103.7C469.8 114 460.8 124.1 452 134.4C446.9 140.5 441.2 146.1 435.6 151.7C423.9 163.2 411.3 173.6 396.9 181.7C395.5 182.5 394.3 183.6 392.9 184.6C391.4 184.7 389.8 184.7 388.1 184.7Z" fill="#A81B8D"/>
<path d="M746.9 184.7C732.7 156.6 708.8 141.1 678.7 135.2C646.8 128.9 616.2 135 586.6 147.5C565.9 156.2 545.8 165.8 526.8 177.9C523.5 180 520.3 182.4 517.1 184.7C516.1 184.7 515.1 184.7 514.1 184.7C522.3 177.1 532.2 171.9 541.8 166.6C562.9 155 584.7 144.9 607.7 137.6C619.4 133.9 631.4 131.9 643.7 130.8C666.5 128.8 688 132.9 708.1 143.1C725.5 151.9 739.4 164.6 748.2 182.3C748.6 183 748.7 183.9 748.9 184.6C748.2 184.7 747.5 184.7 746.9 184.7Z" fill="#A81B8D"/>
<path d="M361.1 184.7C374.4 179.2 387.6 173.5 399.5 165.2C416.4 153.4 431.1 139.1 445 123.9C458.7 108.9 471.4 93 484.4 77.4C498 61 511.8 44.8 526.2 29.1C534.9 19.6 544.5 10.9 554.6 2.80003C555.4 2.20003 556.2 1.70003 557.8 2.20003C553.7 6.00003 550.1 9.70003 546.1 13C534.8 22.3 525.5 33.5 515.6 44.2C506.6 53.9 498.2 64.1 489.7 74.2C479.5 86.3 469.4 98.5 459.3 110.7C446.8 125.7 433.5 139.9 418.8 152.9C405.8 164.4 391.4 173.7 375.7 181C373.2 182.2 370.2 182.4 368.2 184.7C365.8 184.7 363.5 184.7 361.1 184.7Z" fill="#A81B8D"/>
<path d="M376.1 184.7C384.4 179.3 393.8 175.7 402 170C420.4 157 436.3 141.6 451.1 124.8C463.1 111.3 474.4 97.4 486 83.6C501.7 64.8 517.5 46.2 535.2 29.2C544.8 19.9 554.9 11.1 566.2 3.80003C567.7 2.90003 569 1.20004 571.4 2.40004C564.3 7.90004 556.9 12.9 550.2 18.7C540.5 27.2 530.8 35.7 522.3 45.5C516.1 52.6 509.5 59.3 503.4 66.5C494 77.8 484.3 88.8 474.8 100.1C466.7 109.7 459 119.6 450.6 128.9C435 146.1 418.6 162.4 398.7 174.7C392.9 178.3 386.9 181.4 381.1 184.8C379.4 184.7 377.8 184.7 376.1 184.7Z" fill="#A81B8D"/>
<path d="M877.8 184.7C883.7 156.7 875.7 131.7 862.1 107.6C852.3 90.2 839.9 74.7 825.6 60.9C809.5 45.4 791.5 32.1 771.7 21.5C756.5 13.3 740.6 7.00001 723.4 2.30001C729.1 0.800012 733.7 3.10001 738.3 4.70001C762.1 12.7 783.9 24.6 803.8 39.7C828.4 58.4 849.2 80.5 864.6 107.5C873.5 123.1 879.5 139.5 881.6 157.2C882.7 166.3 882.4 175.7 879.9 184.7C879.1 184.7 878.4 184.7 877.8 184.7Z" fill="#A81B8D"/>
<path d="M1428.4 184.7C1428.8 169.1 1433.3 154.5 1439.3 140.3C1447.3 121.3 1458.3 104 1471.3 88.1C1488.5 67 1508.3 48.5 1530.4 32.5C1546 21.2 1562.7 11.8 1580.2 3.8C1583.4 2.3 1584.9 2 1589.4 2.1C1583.8 4.5 1579.2 6.4 1574.7 8.6C1553 19.2 1533 32.2 1514.4 47.7C1485.8 71.5 1461.9 99 1445.3 132.3C1437.1 148.8 1431.2 166.1 1430.3 184.7C1429.7 184.7 1429.1 184.7 1428.4 184.7Z" fill="#A81B8D"/>
<path d="M1816.1 184.7C1812.3 180.9 1807.4 178.7 1802.8 176.2C1779.1 162.9 1753.6 153.9 1727.2 147.6C1689.7 138.6 1653.5 142.6 1619.6 161.8C1608.9 167.8 1598.9 175 1591.2 184.8C1590.2 184.8 1589.2 184.8 1588.2 184.8C1600.4 170.6 1615.6 160.6 1632.6 153C1644.9 147.5 1657.9 144.3 1671.2 142.3C1686.4 140 1701.6 140.6 1716.6 143.4C1746.1 149 1774.2 158.8 1800.7 172.7C1807.4 176.2 1814.1 179.8 1820 184.7C1818.8 184.7 1817.5 184.7 1816.1 184.7Z" fill="#A81B8D"/>
<path d="M1919.1 173.7C1909.8 165.7 1902.2 156.1 1894.2 146.8C1882.6 133.3 1871.5 119.3 1860.1 105.6C1850.1 93.6 1840.1 81.4 1829.7 69.7C1818.3 56.8 1806.2 44.6 1793.1 33.4C1778.6 21.1 1762.8 10.9 1745.6 2.8C1745.4 2.7 1745.2 2.3 1745 2C1746.9 1.2 1748.5 1.9 1750.2 2.7C1765.5 9.7 1779.2 19.3 1792.1 29.9C1805.5 40.9 1817.6 53 1829.1 65.9C1842.7 81.2 1855.7 96.9 1868.7 112.8C1881.9 128.9 1894.6 145.3 1909.1 160.4C1912.4 163.8 1915.1 167.9 1919.1 170.7C1919.1 171.7 1919.1 172.7 1919.1 173.7Z" fill="#A81B8D"/>
<path d="M886.8 184.7C888 177.9 889.8 171.2 889.8 164.2C889.7 143.2 883.3 123.9 873.5 105.7C862.2 84.7 847.2 66.5 830 50C812.3 33.1 792.7 18.8 770.8 7.70001C767.4 6.00001 764 4.30001 760.3 2.40001C762.9 1.00001 764.4 2.60001 766.1 3.40001C786.1 13 804.5 25 821.3 39.4C845.4 60.1 866 83.6 879.6 112.6C887.8 130.2 892.6 148.6 891.7 168.1C891.4 173.7 890.4 179.2 888.8 184.6C888.1 184.7 887.4 184.7 886.8 184.7Z" fill="#A81B8D"/>
<path d="M1418.4 184.7C1418.2 167.4 1423.3 151.2 1429.7 135.4C1438 114.9 1450 96.5 1464 79.4C1477 63.5 1491.4 49 1507.3 35.8C1521.4 24.2 1536.3 13.8 1552 4.60002C1554.2 3.30002 1556.3 1.50002 1560.5 2.00002C1555 5.30002 1550.3 8.10002 1545.6 10.9C1530 20.1 1515.9 31.2 1502.3 43C1481.6 61 1463.6 81.4 1448.7 104.4C1434.4 126.4 1424.4 150.1 1420.7 176.2C1420.3 179 1420.6 181.8 1420.6 184.6C1419.7 184.7 1419.1 184.7 1418.4 184.7Z" fill="#A81B8D"/>
<path d="M734.9 184.7C721.6 162.7 701.8 149.7 676.9 144C668.7 142.1 660.2 141 651.8 141.2C639.4 141.4 627 142.9 615.1 146.2C586.1 154.2 559.7 168.2 533.9 183.3C533.2 183.7 532.6 184.3 532 184.8C530.7 184.8 529.3 184.8 528 184.8C541.8 175.2 556.8 167.8 571.9 160.6C587.6 153.1 603.5 146.3 620.7 142.6C648.7 136.5 675.9 137.9 701.8 151C715.2 157.8 725.9 167.7 734.5 179.9C735.6 181.4 736.6 182.9 736.8 184.8C736.2 184.7 735.5 184.7 734.9 184.7Z" fill="#A81B8D"/>
<path d="M895.8 184.7C902.6 162.3 899.5 140.5 891.3 119C883 97.1 870.3 77.9 855.1 60.2C835.2 37.1 812 17.9 785 2.20003C788.7 1.40003 790.9 3.40003 793.2 4.70003C815.9 18.5 836.1 35.4 853.7 55.1C875.1 79 892 105.6 899.1 137.5C902.6 153.4 902.6 169.1 897.8 184.8C897.1 184.7 896.4 184.7 895.8 184.7Z" fill="#A81B8D"/>
<path d="M1408.4 184.7C1407.9 162.9 1414.3 142.7 1423.4 123.3C1434.2 100.1 1448.9 79.5 1465.9 60.3C1485 38.8 1506.5 20.1 1530.4 4.10001C1532.2 2.90001 1533.8 1.50001 1536.9 2.10001C1531.2 6.10001 1526 9.90002 1520.6 13.5C1501.8 26.4 1485.3 42 1469.8 58.6C1453.3 76.3 1439.2 95.9 1428.3 117.5C1419.9 134.2 1413.3 151.5 1411.2 170.4C1410.7 175.2 1410.4 179.9 1410.4 184.7C1409.8 184.7 1409.1 184.7 1408.4 184.7Z" fill="#A81B8D"/>
<path d="M1919.1 165.8C1909.6 158 1902 148.3 1894.2 139C1883 125.6 1872 112 1860.9 98.5C1851.9 87.6 1842.8 76.7 1833.8 65.7C1831.2 62.5 1828.3 59.4 1825.4 56.6C1816.8 48.1 1809.3 38.7 1800.1 30.7C1788.8 20.7 1777.5 11 1764.5 2.7C1767.4 2.1 1767.4 2.1 1769 3.1C1778.5 9.2 1787 16.5 1795.7 23.7C1806.5 32.6 1815.7 43 1825.1 53.2C1835.9 65 1846.3 77.1 1856.3 89.6C1868.5 104.8 1880.9 119.7 1893.3 134.7C1900.4 143.2 1907.3 151.9 1915.3 159.5C1916.5 160.6 1917.8 161.7 1919 162.7C1919.1 163.8 1919.1 164.8 1919.1 165.8Z" fill="#A81B8D"/>
<path d="M1398.4 184.7C1397.5 161.8 1403.8 140.4 1413.1 119.7C1424.3 94.8 1439.8 72.8 1457.9 52.4C1473.5 34.9 1490.4 19 1509 4.80003C1510.8 3.40003 1512.6 1.10003 1516 2.30003C1497.3 15.6 1480.9 30.9 1465.4 47.2C1449.8 63.6 1436.2 81.7 1424.8 101.4C1415.7 117.2 1408.4 133.8 1404.1 151.6C1401.4 162.5 1399.9 173.6 1400.4 184.9C1399.8 184.7 1399.1 184.7 1398.4 184.7Z" fill="#A81B8D"/>
<path d="M904.8 184.7C908.2 175.6 909.5 166 909.5 156.6C909.5 146.3 907.9 136 905 126C897.4 100.2 884 77.7 867 57.1C850.7 37.3 832.2 20 811.1 5.39999C809.9 4.59999 808.9 3.49999 807.6 2.39999C810.7 0.999986 812.3 3.49999 814 4.69999C829.9 16.1 844.7 28.9 857.9 43.3C881.1 68.6 899.8 96.6 908.3 130.3C912.9 148.5 913.1 166.7 906.8 184.7C906.1 184.7 905.4 184.7 904.8 184.7Z" fill="#A81B8D"/>
<path d="M1388.4 184.7C1387 150.1 1398.9 119.3 1416.2 90.1C1428.4 69.6 1443.3 51.1 1459.6 33.6C1469.1 23.4 1479.9 14.6 1489.9 5.00002C1491.3 3.60002 1493 2.10002 1496.7 1.90002C1492.9 5.30002 1490 8.20003 1486.8 10.8C1473.6 21.7 1461.8 33.9 1450.6 46.7C1437.8 61.3 1426.4 76.8 1416.7 93.6C1404.6 114.5 1395.5 136.5 1391.6 160.5C1390.3 168.5 1390.5 176.6 1390.5 184.7C1389.8 184.7 1389.1 184.7 1388.4 184.7Z" fill="#A81B8D"/>
<path d="M913.8 184.7C918.9 170.9 919.8 156.6 918.6 142.2C917.5 128.2 913.2 114.8 907.6 101.8C897.7 79 883.8 58.9 867.3 40.4C855.5 27.1 842.6 15 828.7 4.10002C828.1 3.60002 827.3 3.20002 827.7 1.90002C832.1 2.60002 834.8 6.00002 837.7 8.60002C850.9 20 863.2 32.2 874.4 45.5C885.5 58.7 895.3 72.8 903.4 87.9C916.1 111.8 923 137.2 920.6 164.6C920 171.5 917.9 178.1 915.7 184.7C915.1 184.7 914.4 184.7 913.8 184.7Z" fill="#A81B8D"/>
<path d="M1799.2 184.7C1793.7 179.3 1786.2 177.5 1779.5 174.6C1760.3 166.4 1740.8 159.1 1720.1 155.4C1682.1 148.6 1646.7 154.8 1614.8 177.2C1611.8 179.3 1608.3 181.2 1606.4 184.7C1605.4 184.7 1604.4 184.7 1603.4 184.7C1609.5 177.3 1617.6 172.3 1625.7 167.7C1641.3 158.9 1658.1 153.9 1676 151.7C1706.4 148 1734.8 155.2 1762.8 165.6C1775.6 170.3 1788.1 175.6 1800 182.1C1801.4 182.9 1802.8 183.8 1804.2 184.7C1802.5 184.7 1800.8 184.7 1799.2 184.7Z" fill="#A81B8D"/>
<path d="M922.7 184.7C923.8 177.6 927 171 927.9 163.7C929.4 150.8 929.1 138.1 926.3 125.4C919.5 94.9 904.3 68.7 885.2 44.4C875.2 31.7 863.9 20.4 852.6 9C850.3 6.7 846.9 5.5 845.1 2C848.7 2 850.7 4.5 852.6 6.3C870.6 23.3 887.2 41.4 900.8 62.1C914.2 82.6 924.6 104.4 929 128.6C932.4 147.6 931.3 166.3 924.6 184.6C924.1 184.7 923.4 184.7 922.7 184.7Z" fill="#A81B8D"/>
<path d="M1378.4 184.7C1377.1 161.9 1381.3 140 1389.7 118.9C1398.8 95.7 1411.6 74.5 1426.7 54.7C1439 38.6 1452.5 23.7 1467 9.70002C1470.1 6.70002 1473.6 4.20002 1477.3 1.90002C1476.1 5.50002 1472.8 6.90003 1470.4 9.30003C1461.3 18.5 1452 27.5 1443.5 37.2C1432.3 50 1422.1 63.6 1413 78C1397.7 102.1 1386.5 127.8 1381.6 156C1380 165.4 1380.2 175.1 1380.4 184.7C1379.8 184.7 1379.1 184.7 1378.4 184.7Z" fill="#A81B8D"/>
<path d="M1369.4 184.7C1367.4 176.7 1367.9 168.5 1368.6 160.5C1370.2 142 1375.5 124.3 1382.8 107.2C1390.6 88.9 1400.5 71.7 1412 55.5C1425 37.3 1439.4 20.3 1455.7 4.90004C1457 3.70004 1457.9 1.40004 1460.5 2.10004C1460.3 3.90004 1458.9 4.60004 1457.9 5.60004C1439.4 23 1423.1 42.4 1409 63.5C1392 88.9 1378.4 116.1 1372.7 146.4C1370.3 159 1369 171.8 1371.3 184.7C1370.8 184.7 1370.1 184.7 1369.4 184.7Z" fill="#A81B8D"/>
<path d="M1919.1 158.8C1911.2 152.2 1905 144 1898.4 136.2C1886.1 121.6 1874.3 106.5 1862.2 91.7C1851.8 78.9 1841.6 65.9 1830.6 53.6C1818.5 40.1 1806.9 26 1792.7 14.4C1788 10.6 1783.6 6.20004 1778.6 1.60004C1784.1 1.80004 1786.4 5.90004 1789.4 8.40004C1807.9 24.1 1823.6 42.3 1839.3 60.7C1858.4 83 1876.4 106.2 1895 128.9C1902.6 138.2 1910.2 147.6 1919.2 155.7C1919.1 156.8 1919.1 157.8 1919.1 158.8Z" fill="#A81B8D"/>
<path d="M1359.5 184.7C1358.4 178.3 1358.4 171.9 1358.5 165.5C1358.8 142.7 1365 121.3 1373.8 100.6C1385.1 73.9 1401.1 50.2 1419.2 27.7C1426.2 19 1434 10.9 1441.5 2.5C1441.9 2.1 1442.7 2.1 1444.6 1.5C1441.8 4.9 1440 7.5 1437.9 9.8C1419.3 29.2 1403.2 50.5 1389.8 73.7C1377.4 95.1 1367.5 117.6 1363 142C1360.7 154.6 1359.1 167.4 1361.3 180.3C1361.6 181.7 1361.4 183.3 1361.4 184.8C1360.8 184.7 1360.1 184.7 1359.5 184.7Z" fill="#A81B8D"/>
<path d="M1350.5 184.7C1347.5 174.7 1347.9 164.3 1348.7 154.2C1349.8 140.6 1352.6 127.2 1356.9 114.2C1367.4 82.9 1384 54.8 1404 28.6C1410.5 20.1 1417.2 11.7 1424.7 3.99999C1425.5 3.19999 1426.4 2.59999 1427.5 1.79999C1428.6 4.09999 1426.8 4.69999 1426 5.69999C1407.7 25.5 1392.2 47.2 1378.9 70.5C1366.7 91.7 1357.7 114.2 1352.9 138.2C1349.9 153 1349.7 168 1351.7 182.9C1351.8 183.5 1352.2 184.1 1352.5 184.7C1351.8 184.7 1351.1 184.7 1350.5 184.7Z" fill="#A81B8D"/>
<path d="M930.7 184.7C938.2 168.2 939.9 151 938 133C936 114.5 929.9 97.3 921.8 80.9C914.2 65.3 904.6 50.8 893.8 37.2C884.6 25.5 874.4 14.6 863.7 4.29999C863.1 3.79999 862.7 3.09999 862.1 2.39999C864.2 1.29999 865.1 2.79999 866.1 3.79999C875.2 12.5 883.9 21.6 891.8 31.4C904.8 47.5 916.3 64.6 925.2 83.4C936.1 106.3 942.4 130.1 940.6 155.6C940 164.1 938.2 172.5 934.8 180.5C934.2 181.9 933.5 183.2 933.7 184.8C932.7 184.7 931.7 184.7 930.7 184.7Z" fill="#A81B8D"/>
<path d="M939.7 184.7C943.5 175.2 946.7 165.7 947.9 155.4C949.4 143 948.8 130.7 946.3 118.6C940.3 89.5 926.8 63.8 909.5 39.8C900.4 27.2 890.6 15.2 879.6 4.20004C879.1 3.70004 878.2 3.20004 878.8 1.60004C883.2 3.70004 886 7.40004 888.9 10.7C898.9 21.9 908.3 33.6 916.6 46.1C932.5 69.8 944.7 95.2 949.4 123.5C952.8 144.4 951.4 165.3 941.7 184.8C941.1 184.7 940.4 184.7 939.7 184.7Z" fill="#A81B8D"/>
<path d="M948.7 184.7C951.5 176.6 955.1 168.8 956.7 160.3C960.1 142.5 959 124.9 954.6 107.5C947.6 79.9 934.2 55.4 917.9 32.2C910.6 21.8 902.2 12.3 894.2 2.39999C896 1.19999 896.9 2.39998 897.7 3.29998C921.9 31.6 942.8 61.9 954.1 97.9C959.3 114.6 961.8 131.7 960.5 149.1C959.6 161.5 956 173.3 950.7 184.6C950.1 184.7 949.4 184.7 948.7 184.7Z" fill="#A81B8D"/>
<path d="M956.7 184.7C966.3 166.9 970 147.8 968.6 127.8C967.2 109 962 91 954.5 73.6C943.4 47.9 927.8 25.1 910.1 3.50001C909.8 3.10001 909.6 2.70001 909.1 1.70001C913.5 2.40001 914.9 6.10001 916.7 8.40001C929.6 24.7 941.5 41.8 950.7 60.6C959.7 78.9 966.8 97.8 969.6 118.1C972.6 140.6 970.2 162.5 960 183.1C959.8 183.5 959.8 184.1 959.7 184.6C958.7 184.7 957.7 184.7 956.7 184.7Z" fill="#A81B8D"/>
<path d="M544 184.7C546.6 181.2 550.9 180.2 554.4 178.3C571.4 169.1 588.5 159.9 607.1 154C621.1 149.6 635.4 146.7 649.9 147.2C675.5 148 698.6 156 717.1 174.6C720.1 177.7 722.5 181.3 724.9 184.8C723.9 184.8 722.9 184.8 721.9 184.8C718.3 177.3 712 172 705.5 167.4C690.8 156.9 674.4 151.4 656.2 149.9C633.7 148.1 612.9 153.6 592.6 161.8C577.1 168.1 562.3 175.9 548.1 184.8C546.7 184.7 545.3 184.7 544 184.7Z" fill="#A81B8D"/>
<path d="M965.7 184.7C970.5 174.4 974.7 163.9 976.8 152.6C980.6 132.4 978.3 112.7 972.8 93.1C963.6 60.7 946.6 32.4 926.3 5.80002C925.5 4.70002 924.5 3.80002 924.3 1.90002C926.7 2.50002 928 4.30002 929.1 5.80002C948.5 31.8 964.9 59.4 974.3 90.6C979.3 107.2 981.7 124.1 980.5 141.3C979.4 156.5 975.3 171.1 967.7 184.5C967 184.7 966.4 184.7 965.7 184.7Z" fill="#A81B8D"/>
<path d="M973.7 184.7C981.6 172 986 158.1 987.7 143.4C992.4 102.5 977.6 66.7 957.8 32.3C951.9 22 945.1 12.3 938.1 2.59998C939.9 1.39998 940.4 2.49998 941.1 3.49998C948.7 13.5 955.6 24 961.8 34.9C969.1 47.7 975.6 60.9 980.4 74.8C985 87.9 988.3 101.2 989.9 115C992 133.6 990.2 151.5 983.8 168.9C981.8 174.3 979.1 179.5 976.8 184.7C975.7 184.7 974.7 184.7 973.7 184.7Z" fill="#A81B8D"/>
<path d="M982.7 184.7C989.5 172.3 994.9 159.4 997 145.3C998.6 134.5 999 123.8 998 112.8C995.5 86 985.9 61.6 973.8 37.9C968.1 26.7 961.2 16.2 954.1 5.80003C953.4 4.70003 952.4 3.80003 952.3 2.30003C954.1 1.20003 954.6 2.80003 955.2 3.80003C975.6 33.3 991.9 64.7 998.4 100.3C1003.5 128.2 1000.7 155.1 987.2 180.6C986.5 181.9 986.1 183.3 985.6 184.7C984.7 184.7 983.7 184.7 982.7 184.7Z" fill="#A81B8D"/>
<path d="M1919.1 150.9C1909.1 142.6 1901.4 132.2 1893.3 122.3C1880.5 106.8 1868.2 90.9 1855.5 75.3C1844.2 61.5 1833 47.7 1821.2 34.4C1812.7 24.7 1803.3 15.8 1794.4 6.49999C1793.2 5.19999 1791.5 4.29999 1790.9 2.39999C1793.1 1.39999 1794 3.19999 1795 4.29999C1816.5 25.1 1835.9 47.9 1854.6 71.2C1868.9 89.1 1883.4 106.8 1898 124.5C1904.7 132.6 1910.8 141.4 1919.1 148C1919.1 148.9 1919.1 149.9 1919.1 150.9Z" fill="#A81B8D"/>
<path d="M1919.1 143.9C1911 136.3 1904.1 127.7 1897.2 119.1C1883.5 102.2 1870.1 85 1856.4 68.1C1844.2 53.1 1832 38.2 1819.4 23.6C1813.1 16.4 1806.9 9.00001 1799.2 2.50001C1801.9 1.30001 1802.8 2.80001 1803.8 3.90001C1816 16.3 1827.3 29.4 1838.3 42.8C1850.9 58.3 1863.3 73.9 1875.9 89.4C1886.8 102.9 1897.6 116.4 1908.7 129.7C1911.9 133.6 1915.7 137.1 1919.2 140.9C1919.1 141.9 1919.1 142.9 1919.1 143.9Z" fill="#A81B8D"/>
<path d="M1779.2 184.7C1773 180.4 1765.7 178.6 1758.8 175.9C1746.1 170.7 1733 166.7 1719.4 164.5C1694 160.4 1669.1 161.7 1645.1 171.9C1637 175.3 1629.3 179.4 1622.3 184.8C1621.3 184.8 1620.3 184.8 1619.3 184.8C1625.1 178.7 1632.6 175 1640.1 171.6C1658.5 163.1 1678 159.4 1698.1 160.1C1719.3 160.8 1739.7 165.9 1759.3 174C1767.7 177.5 1776.6 179.7 1784.3 184.9C1782.5 184.7 1780.8 184.7 1779.2 184.7Z" fill="#A81B8D"/>
<path d="M1919.1 136C1910.6 128.7 1904.1 119.7 1897.2 111.2C1883.6 94.4 1870.3 77.4 1856.7 60.6C1846.1 47.4 1835.4 34.1 1824.7 21C1819.9 15.1 1814.7 9.60001 1809.7 3.80001C1809.3 3.30001 1808.7 3.00001 1808.8 2.70001C1812 5.30001 1815.8 7.60001 1818.5 10.9C1830.8 25.4 1842.9 40 1854.8 54.7C1866.7 69.4 1878.3 84.5 1890.2 99.2C1899.5 110.7 1908.4 122.6 1919.1 133C1919.1 134 1919.1 135 1919.1 136Z" fill="#A81B8D"/>
<path d="M1919.1 129C1907 116.1 1896.2 102.3 1885.2 88.4C1870.8 70.2 1856.3 52 1841.9 33.8C1833.8 23.6 1825.7 13.4 1816.9 3.80004C1816.6 3.50004 1816.7 2.90004 1817.2 2.10004C1853.4 41.6 1883.7 86 1919.2 126.1C1919.1 127 1919.1 128 1919.1 129Z" fill="#A81B8D"/>
<path d="M1919.1 121.1C1912 114.4 1906.1 106.7 1900 99.1C1883.5 78.3 1867 57.5 1850.6 36.6C1842.1 25.8 1833.8 15 1824.7 4.7C1824.2 4.1 1824 3.2 1823.4 2C1827.2 2.5 1828.5 5.5 1830.1 7.5C1849 31.2 1867.6 55.2 1886.5 79C1896.6 91.8 1907.1 104.3 1917.5 117C1917.9 117.5 1918.6 117.8 1919.1 118.1C1919.1 119.1 1919.1 120.1 1919.1 121.1Z" fill="#A81B8D"/>
<path d="M1919.1 113.1C1911.5 106.8 1905.9 98.8 1899.9 91.2C1882.5 69.5 1865.6 47.3 1848.4 25.4C1843.1 18.7 1837.7 12 1832.3 5.39999C1831.6 4.49999 1830.8 3.69999 1831 1.79999C1836.7 5.59999 1839.9 11.2 1843.7 16.1C1862.5 39.9 1881.2 63.8 1899.9 87.6C1906 95.4 1911.8 103.4 1919.1 110.1C1919.1 111.1 1919.1 112.1 1919.1 113.1Z" fill="#A81B8D"/>
<path d="M1757.2 184.7C1747.6 179.8 1737.2 177.1 1726.8 174.8C1713.5 171.9 1700 171.1 1686.4 171.9C1670.5 172.9 1655 176 1641.3 184.7C1640 184.7 1638.6 184.7 1637.3 184.7C1640.1 181.4 1644.2 180.3 1648 178.7C1660.5 173.6 1673.3 170.6 1686.9 169.6C1713.9 167.6 1739 173.9 1763.3 184.7C1761.2 184.7 1759.2 184.7 1757.2 184.7Z" fill="#A81B8D"/>
<path d="M1731.2 184.7C1725.1 182.1 1718.4 181.7 1712 180.9C1697.2 179 1682.4 180.2 1667.9 183.8C1667.3 183.9 1666.8 184.4 1666.2 184.7C1664.2 184.7 1662.2 184.7 1660.2 184.7C1666.7 180.7 1674.2 180 1681.4 178.9C1701.1 175.9 1720.4 178.7 1739.5 184.1C1739.8 184.2 1740 184.5 1740.2 184.7C1737.2 184.7 1734.2 184.7 1731.2 184.7Z" fill="#A81B8D"/>
</svg>
