<svg width="1208" height="1208" viewBox="0 0 1208 1208" fill="none" xmlns="http://www.w3.org/2000/svg">
<g opacity="0.8">
<g opacity="0.025641">
<path d="M761.19 943.588C605.993 1010.48 331.778 902.57 214.07 840.256C180.535 828.4 113.762 762.381 114.956 593.146C116.447 381.602 320.965 488.833 548.017 381.087C775.069 273.342 866.598 226.039 930.192 294.054C993.786 362.068 944.39 468.106 996.905 520.887C1049.42 573.668 1161.34 567.344 1123.81 648.442C1086.29 729.539 983.077 679.062 822.412 747.011C661.749 814.961 955.188 859.977 761.19 943.588Z" stroke="#2D1C6D" stroke-width="2"/>
</g>
<g opacity="0.0512821">
<path d="M757.604 936.02C605.822 1001.48 337.717 896.047 222.637 835.152C189.849 823.569 124.576 759.034 125.796 593.548C127.321 386.691 327.274 491.481 549.331 386.052C771.387 280.622 860.903 234.338 923.067 300.826C985.231 367.313 936.895 471.016 988.23 522.612C1039.56 574.207 1149.01 567.988 1112.29 647.3C1075.57 726.612 974.657 677.286 817.532 743.781C660.405 810.276 947.33 854.202 757.604 936.02Z" stroke="#2D1C6D" stroke-width="2"/>
</g>
<g opacity="0.0769231">
<path d="M754.015 928.454C605.651 992.476 343.655 889.525 231.202 830.046C199.16 818.738 135.387 755.686 136.635 593.95C138.194 391.78 333.582 494.129 550.642 391.015C767.703 287.901 855.205 242.637 915.939 307.597C976.672 372.558 929.398 473.928 979.552 524.337C1029.71 574.746 1136.67 568.632 1100.76 646.159C1064.85 723.685 966.237 675.51 812.648 740.55C659.061 805.59 939.47 848.426 754.015 928.454Z" stroke="#2D1C6D" stroke-width="2"/>
</g>
<g opacity="0.102564">
<path d="M750.428 920.887C605.482 983.476 349.594 883.003 239.769 824.942C208.474 813.907 146.202 752.339 147.476 594.352C149.068 396.869 339.892 496.778 551.956 395.98C764.02 295.182 849.51 250.936 908.814 314.369C968.117 377.803 921.903 476.838 970.877 526.061C1019.85 575.285 1124.34 569.275 1089.23 645.017C1054.12 720.759 957.817 673.735 807.768 737.32C657.717 800.905 931.611 842.651 750.428 920.887Z" stroke="#2D1C6D" stroke-width="2"/>
</g>
<g opacity="0.128205">
<path d="M746.839 913.32C605.31 974.476 355.531 876.48 248.334 819.838C217.786 809.075 157.013 748.992 158.315 594.755C159.941 401.958 346.2 499.426 553.267 400.943C760.335 302.461 843.813 259.234 901.686 321.141C959.559 383.046 914.406 479.749 962.2 527.786C1009.99 575.823 1112 569.918 1077.7 643.875C1043.4 717.832 949.397 671.959 802.884 734.089C656.372 796.22 923.751 836.875 746.839 913.32Z" stroke="#2D1C6D" stroke-width="2"/>
</g>
<g opacity="0.153846">
<path d="M743.251 905.752C605.139 965.475 361.47 869.957 256.9 814.732C227.097 804.243 167.826 745.643 169.154 595.155C170.814 407.046 352.508 502.073 554.58 405.906C756.652 309.739 838.116 267.532 894.559 327.911C951.001 388.291 906.908 482.658 953.522 529.51C1000.14 576.361 1099.67 570.56 1066.17 642.733C1032.68 714.904 940.976 670.182 798.002 730.858C655.028 791.533 915.891 831.098 743.251 905.752Z" stroke="#2D1C6D" stroke-width="2"/>
</g>
<g opacity="0.179487">
<path d="M739.664 898.187C604.97 956.477 367.41 863.436 265.466 809.629C236.411 799.414 178.639 742.298 179.995 595.56C181.69 412.136 358.817 504.723 555.893 410.872C752.969 317.021 832.421 275.833 887.433 334.685C942.445 393.537 899.414 485.571 944.848 531.236C990.282 576.901 1087.34 571.205 1054.65 641.592C1021.96 711.979 932.558 668.408 793.121 727.628C653.685 786.85 908.034 825.325 739.664 898.187Z" stroke="#2D1C6D" stroke-width="2"/>
</g>
<g opacity="0.205128">
<path d="M736.074 890.617C604.797 947.474 373.346 856.911 274.031 804.523C245.722 794.58 189.451 738.948 190.832 595.959C192.561 417.223 365.125 507.37 557.204 415.834C749.284 324.298 826.723 284.129 880.305 341.454C933.887 398.779 891.916 488.48 936.169 532.958C980.423 577.437 1075 571.846 1043.12 640.448C1011.23 709.049 924.136 666.629 788.238 724.396C652.339 782.161 900.172 819.546 736.074 890.617Z" stroke="#2D1C6D" stroke-width="2"/>
</g>
<g opacity="0.230769">
<path d="M732.488 883.051C604.627 938.475 379.285 850.39 282.598 799.418C255.036 789.749 200.264 735.601 201.673 596.362C203.436 422.313 371.434 510.019 558.518 420.799C745.601 331.578 821.027 292.429 873.178 348.227C925.33 404.024 884.42 491.391 927.493 534.683C970.567 577.976 1062.67 572.49 1031.59 639.307C1000.51 706.124 915.717 664.855 783.356 721.165C650.996 777.477 892.314 813.772 732.488 883.051Z" stroke="#2D1C6D" stroke-width="2"/>
</g>
<g opacity="0.25641">
<path d="M728.9 875.484C604.457 929.475 385.224 843.868 291.163 794.314C264.348 784.919 211.077 732.254 212.514 596.764C214.309 427.402 377.744 512.667 559.831 425.763C741.917 338.858 815.331 300.728 866.052 354.998C916.773 409.269 876.924 494.301 918.817 536.408C960.711 578.515 1050.33 573.133 1020.06 638.165C989.787 703.197 907.297 663.078 778.474 717.935C649.651 772.791 884.455 807.996 728.9 875.484Z" stroke="#2D1C6D" stroke-width="2"/>
</g>
<g opacity="0.282051">
<path d="M725.312 867.918C604.285 920.475 391.162 837.345 299.729 789.21C273.661 780.088 221.889 728.907 223.353 597.167C225.182 432.491 384.052 515.316 561.143 430.726C738.234 346.138 809.634 309.027 858.925 361.77C908.216 414.514 869.428 497.213 910.141 538.133C950.855 579.053 1038 573.777 1008.53 637.024C979.064 700.27 898.877 661.303 773.593 714.705C648.308 768.106 876.596 802.221 725.312 867.918Z" stroke="#2D1C6D" stroke-width="2"/>
</g>
<g opacity="0.307692">
<path d="M721.723 860.349C604.114 911.474 397.1 830.821 308.293 784.104C282.972 775.255 232.701 725.558 234.192 597.567C236.055 437.578 390.359 517.963 562.454 435.689C734.549 353.416 803.937 317.324 851.797 368.541C899.658 419.757 861.93 500.122 901.464 539.856C940.997 579.591 1025.66 574.418 997.002 635.881C968.341 697.341 890.456 659.526 768.709 711.472C646.962 763.419 868.735 796.443 721.723 860.349Z" stroke="#2D1C6D" stroke-width="2"/>
</g>
<g opacity="0.333333">
<path d="M718.136 852.783C603.944 902.475 403.039 824.299 316.86 779C292.285 770.425 243.515 722.212 245.032 597.97C246.929 442.668 396.669 520.611 563.768 440.654C730.866 360.697 798.242 325.623 844.671 375.313C891.101 425.002 854.435 503.033 892.788 541.581C931.141 580.129 1013.33 575.062 985.474 634.739C957.619 694.416 882.037 657.75 763.827 708.242C645.619 758.734 860.877 790.669 718.136 852.783Z" stroke="#2D1C6D" stroke-width="2"/>
</g>
<g opacity="0.358974">
<path d="M714.548 845.217C603.773 893.475 408.977 817.777 325.426 773.896C301.598 765.593 254.327 718.865 255.872 598.373C257.803 447.757 402.978 523.26 565.08 445.618C727.183 367.976 792.545 333.923 837.545 382.085C882.544 430.247 846.938 505.944 884.112 543.306C921.284 580.668 1001 575.706 973.946 633.598C946.896 691.489 873.617 655.975 758.946 705.012C644.275 754.049 853.017 784.893 714.548 845.217Z" stroke="#2D1C6D" stroke-width="2"/>
</g>
<g opacity="0.384615">
<path d="M710.959 837.648C603.602 884.473 414.915 811.253 333.991 768.79C310.909 760.761 265.139 715.516 266.71 598.773C268.675 452.845 409.286 525.907 566.392 450.581C723.499 375.254 786.848 342.22 830.417 388.855C873.986 435.49 839.442 508.853 875.435 545.028C911.427 581.204 988.662 576.348 962.418 632.454C936.173 688.56 865.196 654.197 754.063 701.78C642.929 749.362 845.157 779.116 710.959 837.648Z" stroke="#2D1C6D" stroke-width="2"/>
</g>
<g opacity="0.410256">
<path d="M707.373 830.082C603.433 875.475 420.854 804.733 342.558 763.687C320.223 755.931 275.953 712.17 277.552 599.177C279.55 457.935 415.596 528.557 567.706 455.546C719.816 382.535 781.153 350.52 823.292 395.628C865.43 440.736 831.947 511.765 866.76 546.754C901.572 581.744 976.329 576.992 950.89 631.313C925.452 685.635 856.777 652.424 749.182 698.551C641.587 744.678 837.299 773.341 707.373 830.082Z" stroke="#2D1C6D" stroke-width="2"/>
</g>
<g opacity="0.435897">
<path d="M703.785 822.515C603.261 866.474 426.792 798.209 351.124 758.581C329.536 751.098 286.765 708.822 288.391 599.578C290.423 463.023 421.904 531.205 569.018 460.509C716.132 389.814 775.456 358.818 816.165 402.399C856.873 445.979 824.45 514.674 858.082 548.478C891.715 582.282 963.995 577.634 939.362 630.171C914.729 682.707 848.356 650.647 744.3 695.319C640.242 739.991 829.439 767.565 703.785 822.515Z" stroke="#2D1C6D" stroke-width="2"/>
</g>
<g opacity="0.461538">
<path d="M700.196 814.947C603.09 857.474 432.73 791.687 359.689 753.477C338.847 746.267 297.577 705.474 299.23 599.98C301.295 468.112 428.211 533.853 570.329 465.473C712.448 397.094 769.759 367.117 809.037 409.17C848.314 451.224 816.953 517.584 849.405 550.202C881.858 582.82 951.66 578.278 927.833 629.029C904.005 679.78 839.936 648.871 739.416 692.088C638.897 735.306 821.579 761.789 700.196 814.947Z" stroke="#2D1C6D" stroke-width="2"/>
</g>
<g opacity="0.487179">
<path d="M696.607 807.381C602.919 848.473 438.668 785.164 368.253 748.372C348.158 741.436 308.389 702.126 310.069 600.382C312.168 473.2 434.519 536.501 571.642 470.436C708.764 404.372 764.061 375.415 801.909 415.941C839.757 456.468 809.456 520.496 840.728 551.927C872 583.358 939.326 578.92 916.303 627.886C893.282 676.853 831.515 647.094 734.534 688.857C637.552 730.62 813.719 756.013 696.607 807.381Z" stroke="#2D1C6D" stroke-width="2"/>
</g>
<g opacity="0.512821">
<path d="M693.02 799.814C602.748 839.474 444.607 778.642 376.82 743.268C357.472 736.605 319.202 698.78 320.909 600.784C323.043 478.29 440.829 539.149 572.955 475.401C705.081 411.653 758.366 383.714 794.783 422.714C831.201 461.713 801.96 523.407 832.053 553.653C862.145 583.898 926.993 579.564 904.776 626.746C882.56 673.926 823.096 645.319 729.652 685.627C636.209 725.935 805.86 750.238 693.02 799.814Z" stroke="#2D1C6D" stroke-width="2"/>
</g>
<g opacity="0.538462">
<path d="M689.433 792.246C602.578 830.474 450.546 772.119 385.387 738.163C366.785 731.774 330.016 695.433 331.749 601.186C333.917 483.378 447.138 541.797 574.268 480.365C701.398 418.932 752.67 392.013 787.657 429.485C822.644 466.957 794.464 526.317 823.377 555.376C852.289 584.436 914.658 580.207 893.249 625.603C871.838 670.999 814.676 643.543 724.771 682.396C634.865 721.249 798.002 744.462 689.433 792.246Z" stroke="#2D1C6D" stroke-width="2"/>
</g>
<g opacity="0.564103">
<path d="M685.844 784.678C602.407 821.473 456.483 765.595 393.951 733.058C376.096 726.941 340.827 692.084 342.588 601.587C344.789 488.466 453.445 544.444 575.579 485.327C697.713 426.211 746.973 400.31 780.529 436.256C814.085 472.201 786.967 529.226 814.699 557.1C842.431 584.973 902.323 580.849 881.719 624.46C861.115 668.072 806.255 641.766 719.887 679.164C633.52 716.563 790.141 738.686 685.844 784.678Z" stroke="#2D1C6D" stroke-width="2"/>
</g>
<g opacity="0.589744">
<path d="M682.257 777.113C602.236 812.474 462.423 759.074 402.518 727.954C385.41 722.111 351.641 688.738 353.429 601.991C355.665 493.556 459.756 547.095 576.893 490.293C694.03 433.492 741.277 408.611 773.404 443.029C805.53 477.447 779.472 532.138 806.024 558.826C832.576 585.513 889.991 581.493 870.192 623.32C850.393 665.146 797.836 639.991 715.007 675.935C632.177 711.878 782.283 732.911 682.257 777.113Z" stroke="#2D1C6D" stroke-width="2"/>
</g>
<g opacity="0.615385">
<path d="M678.669 769.546C602.066 803.474 468.361 752.551 411.083 722.85C394.722 717.28 362.453 685.39 364.268 602.393C366.536 498.645 466.064 549.743 578.205 495.257C690.346 440.771 735.58 416.91 766.276 449.8C796.972 482.691 771.975 535.048 797.347 560.55C822.719 586.051 877.656 582.137 858.663 622.178C839.67 662.219 789.416 638.216 710.123 672.704C630.832 707.193 774.423 727.136 678.669 769.546Z" stroke="#2D1C6D" stroke-width="2"/>
</g>
<g opacity="0.641026">
<path d="M675.081 761.978C601.895 794.473 474.298 746.028 419.649 717.744C404.034 712.447 373.265 682.042 375.107 602.793C377.409 503.733 472.372 552.39 579.517 500.22C686.662 448.05 729.884 425.207 759.149 456.571C788.415 487.934 764.478 537.958 788.67 562.273C812.862 586.588 865.322 582.779 847.134 621.035C828.947 659.291 780.995 636.438 705.241 669.473C629.488 702.507 766.563 721.359 675.081 761.978Z" stroke="#2D1C6D" stroke-width="2"/>
</g>
<g opacity="0.666667">
<path d="M671.492 754.411C601.723 785.473 480.237 739.506 428.214 712.64C413.346 707.617 384.078 678.695 385.947 603.196C388.283 508.822 478.681 555.038 580.829 505.184C682.978 455.33 724.187 433.506 752.022 463.343C779.857 493.179 756.982 540.869 779.994 563.998C803.006 587.127 852.988 583.423 835.606 619.893C818.224 656.365 772.575 634.663 700.359 666.242C628.143 697.821 758.704 715.584 671.492 754.411Z" stroke="#2D1C6D" stroke-width="2"/>
</g>
<g opacity="0.692308">
<path d="M667.905 746.844C601.553 776.473 486.175 732.984 436.78 707.536C422.659 702.785 394.891 675.348 396.787 603.598C399.157 513.911 484.989 557.687 582.142 510.148C679.295 462.609 718.491 441.805 744.896 470.114C771.3 498.424 749.486 543.78 771.318 565.722C793.15 587.666 840.654 584.065 824.078 618.752C807.502 653.437 764.155 632.887 695.477 663.011C626.8 693.135 750.845 709.808 667.905 746.844Z" stroke="#2D1C6D" stroke-width="2"/>
</g>
<g opacity="0.717949">
<path d="M664.316 739.277C601.382 767.473 492.113 726.461 445.345 702.431C431.971 697.953 405.703 672 407.626 604C410.03 519 491.297 560.335 583.454 515.112C675.611 469.888 712.794 450.103 737.768 476.886C762.742 503.668 741.988 546.69 762.64 567.447C783.292 588.204 828.319 584.709 812.549 617.609C796.779 650.51 755.734 631.111 690.595 659.781C625.454 688.45 742.985 704.032 664.316 739.277Z" stroke="#2D1C6D" stroke-width="2"/>
</g>
<g opacity="0.74359">
<path d="M660.728 731.709C601.211 758.473 498.052 719.939 453.912 697.325C441.284 693.123 416.516 668.653 418.465 604.402C420.903 524.089 497.606 562.983 584.767 520.075C671.928 477.168 707.098 458.402 730.641 483.658C754.186 508.912 734.493 549.6 753.964 569.171C773.436 588.742 815.986 585.351 801.021 616.467C786.056 647.583 747.314 629.335 685.713 656.55C624.111 683.764 735.126 698.256 660.728 731.709Z" stroke="#2D1C6D" stroke-width="2"/>
</g>
<g opacity="0.769231">
<path d="M657.142 724.143C601.041 749.473 503.991 713.417 462.478 692.222C450.597 688.291 427.329 665.306 429.306 604.805C431.778 529.179 503.916 565.632 586.08 525.04C668.245 484.448 701.402 466.701 723.516 490.43C745.629 514.158 726.997 552.512 745.289 570.896C763.581 589.281 803.653 585.996 789.494 615.326C775.335 644.657 738.896 627.56 680.832 653.32C622.767 679.079 727.267 692.481 657.142 724.143Z" stroke="#2D1C6D" stroke-width="2"/>
</g>
<g opacity="0.794872">
<path d="M653.552 716.574C600.869 740.471 509.928 706.892 471.042 687.115C459.908 683.458 438.14 661.957 440.144 605.204C442.65 534.265 510.223 568.278 587.391 530.002C664.559 491.726 695.704 474.999 716.387 497.199C737.07 519.4 719.499 555.42 736.61 572.619C753.722 589.818 791.317 586.637 777.963 614.182C764.61 641.728 730.474 625.782 675.947 650.087C621.421 674.392 719.406 686.703 653.552 716.574Z" stroke="#2D1C6D" stroke-width="2"/>
</g>
<g opacity="0.820513">
<path d="M649.966 709.009C600.7 731.472 515.868 700.371 479.609 682.013C469.222 678.629 448.954 658.611 450.985 605.609C453.524 539.355 516.533 570.928 588.705 534.967C660.877 499.007 690.009 483.299 709.262 503.973C728.514 524.646 712.004 558.332 727.935 574.345C743.867 590.358 778.984 587.281 766.437 613.042C753.889 638.803 722.055 624.008 671.067 646.858C620.078 669.708 711.548 680.929 649.966 709.009Z" stroke="#2D1C6D" stroke-width="2"/>
</g>
<g opacity="0.846154">
<path d="M646.377 701.442C600.528 722.473 521.805 693.848 488.175 676.907C478.534 673.797 459.766 655.263 461.825 606.01C464.397 544.444 522.841 573.576 590.017 539.931C657.193 506.286 684.312 491.597 702.134 510.744C719.957 529.89 704.507 561.243 719.259 576.069C734.01 590.896 766.649 587.924 754.908 611.9C743.166 635.875 713.635 622.232 666.184 643.627C618.734 665.022 703.688 675.153 646.377 701.442Z" stroke="#2D1C6D" stroke-width="2"/>
</g>
<g opacity="0.871795">
<path d="M642.789 693.874C600.358 713.473 527.744 687.326 496.74 671.803C487.846 668.966 470.579 651.916 472.664 606.412C475.271 549.533 529.15 576.224 591.33 544.895C653.51 513.565 678.616 499.896 695.008 517.515C711.4 535.135 697.011 564.153 710.582 577.794C724.154 591.434 754.316 588.567 743.379 610.757C732.444 632.948 705.214 620.456 661.302 640.396C617.39 660.336 695.829 669.377 642.789 693.874Z" stroke="#2D1C6D" stroke-width="2"/>
</g>
<g opacity="0.897436">
<path d="M639.202 686.308C600.187 704.472 533.682 680.803 505.307 666.698C497.159 664.135 481.392 648.568 483.504 606.814C486.145 554.622 535.458 578.873 592.642 549.859C649.826 520.845 672.919 508.195 687.881 524.287C702.843 540.379 689.515 567.064 701.906 579.518C714.297 591.972 741.982 589.211 731.851 609.616C721.721 630.021 696.795 618.68 656.42 637.165C616.045 655.651 687.97 663.601 639.202 686.308Z" stroke="#2D1C6D" stroke-width="2"/>
</g>
<g opacity="0.923077">
<path d="M635.613 678.739C600.015 695.471 539.619 674.28 513.871 661.592C506.47 659.302 492.204 645.219 494.343 607.215C497.017 559.709 541.766 581.52 593.954 554.821C646.141 528.123 667.222 516.492 680.753 531.057C694.284 545.622 682.018 569.973 693.229 581.241C704.44 592.509 729.647 589.852 720.322 608.473C710.997 627.093 688.374 616.902 651.537 633.933C614.7 650.964 680.11 657.825 635.613 678.739Z" stroke="#2D1C6D" stroke-width="2"/>
</g>
<g opacity="0.948718">
<path d="M632.026 671.174C599.846 686.472 545.559 667.759 522.438 656.49C515.784 654.472 503.017 641.874 505.183 607.619C507.892 564.8 548.076 584.17 595.267 559.787C642.459 535.404 661.527 524.792 673.628 537.831C685.729 550.869 674.522 572.885 684.553 582.967C694.584 593.049 717.314 590.497 708.795 607.332C700.276 624.167 679.955 615.128 646.656 630.704C613.357 646.28 672.251 652.05 632.026 671.174Z" stroke="#2D1C6D" stroke-width="2"/>
</g>
<g opacity="0.974359">
<path d="M628.436 663.605C599.673 677.471 551.496 661.234 531.003 651.383C525.095 649.639 513.828 638.525 516.021 608.019C518.763 569.887 554.383 586.816 596.578 564.749C638.773 542.682 655.828 533.089 666.499 544.6C677.169 556.111 667.024 575.794 675.875 584.69C684.726 593.586 704.978 591.138 697.265 606.188C689.551 621.239 671.533 613.351 641.772 627.471C612.011 641.592 664.39 646.273 628.436 663.605Z" stroke="#2D1C6D" stroke-width="2"/>
</g>
<path d="M624.85 656.04C599.504 668.472 557.435 654.714 539.569 646.28C534.409 644.809 524.642 635.179 526.863 608.422C529.638 574.977 560.693 589.466 597.892 569.714C635.091 549.963 650.133 541.389 659.374 551.373C668.614 561.357 659.529 578.706 667.2 586.416C674.871 594.126 692.646 591.783 685.738 605.048C678.83 618.313 663.114 611.576 636.891 624.242C610.668 636.908 656.532 640.499 624.85 656.04Z" stroke="#2D1C6D" stroke-width="2"/>
</g>
</svg>
