<svg width="1152" height="1185" viewBox="0 0 1152 1185" fill="none" xmlns="http://www.w3.org/2000/svg">
<g opacity="0.8">
<g opacity="0.025641">
<path d="M814.489 880.325C681.471 984.567 388.808 950.131 259.104 919.883C223.654 916.968 142.257 870.152 100.269 706.204C47.7828 501.27 272.879 552.821 464.962 390.753C657.046 228.686 733.492 159.613 812.324 209.168C891.155 258.724 870.423 373.85 934.658 411.501C998.892 449.151 1105.5 414.504 1089.89 502.488C1074.28 590.472 961.61 567.974 823.576 674.636C685.543 781.299 980.763 750.022 814.489 880.325Z" stroke="#949494" stroke-width="2"/>
</g>
<g opacity="0.0512821">
<path d="M809.092 873.922C679.012 975.908 392.889 942.31 266.086 912.764C231.429 909.922 151.861 864.159 110.854 703.83C59.5947 503.419 279.656 553.773 467.498 395.219C655.341 236.664 730.1 169.089 807.16 217.533C884.22 265.977 863.918 378.575 926.71 415.38C989.5 452.184 1093.74 418.271 1078.45 504.323C1063.17 590.375 953.016 568.403 818.033 672.757C683.05 777.111 971.692 746.441 809.092 873.922Z" stroke="#949494" stroke-width="2"/>
</g>
<g opacity="0.0769231">
<path d="M803.693 867.52C676.552 967.25 396.967 934.49 273.067 905.644C239.201 902.878 161.462 858.166 121.437 701.456C71.4056 505.568 286.43 554.726 470.032 399.684C653.634 244.642 726.707 178.566 801.994 225.898C877.281 273.23 857.411 383.302 918.758 419.26C980.106 455.218 1081.98 422.037 1067.01 506.158C1052.05 590.279 944.421 568.833 812.487 670.878C680.555 772.923 962.619 742.86 803.693 867.52Z" stroke="#949494" stroke-width="2"/>
</g>
<g opacity="0.102564">
<path d="M798.296 861.118C674.094 958.59 401.048 926.669 280.05 898.524C246.975 895.832 171.065 852.173 132.022 699.081C83.2183 507.717 293.207 555.678 472.568 404.15C651.929 252.621 723.315 188.043 796.83 234.263C870.345 280.483 850.905 388.027 910.809 423.139C970.713 458.251 1070.22 425.803 1055.58 507.993C1040.94 590.182 935.827 569.262 806.945 668.999C678.061 768.735 953.548 739.278 798.296 861.118Z" stroke="#949494" stroke-width="2"/>
</g>
<g opacity="0.128205">
<path d="M792.896 854.716C671.633 949.931 405.126 918.849 287.031 891.405C254.748 888.786 180.666 846.18 142.606 696.707C95.0292 509.865 299.981 556.631 475.101 408.615C650.222 260.599 719.922 197.52 791.664 242.628C863.406 287.735 844.397 392.753 902.858 427.018C961.319 461.284 1058.45 429.57 1044.14 509.827C1029.82 590.085 927.232 569.692 801.399 667.119C675.566 764.548 944.476 735.697 792.896 854.716Z" stroke="#949494" stroke-width="2"/>
</g>
<g opacity="0.153846">
<path d="M787.498 848.313C669.173 941.271 409.205 911.027 294.011 884.285C262.52 881.74 190.268 840.186 153.189 694.331C106.84 512.014 306.755 557.583 477.635 413.079C648.515 268.576 716.528 206.996 786.498 250.992C856.469 294.987 837.889 397.478 894.907 430.897C951.925 464.317 1046.69 433.335 1032.7 511.662C1018.71 589.987 918.636 570.12 795.854 665.239C673.072 760.358 935.403 732.115 787.498 848.313Z" stroke="#949494" stroke-width="2"/>
</g>
<g opacity="0.179487">
<path d="M782.101 841.912C666.716 932.613 413.286 903.207 300.995 877.166C270.295 874.695 199.871 834.194 163.775 691.959C118.654 514.164 313.532 558.537 480.172 417.546C646.811 276.556 713.137 216.475 781.335 259.358C849.532 302.241 831.385 402.204 886.959 434.778C942.533 467.352 1034.93 437.102 1021.26 513.497C1007.6 589.893 910.044 570.551 790.311 663.361C670.579 756.172 926.333 728.535 782.101 841.912Z" stroke="#949494" stroke-width="2"/>
</g>
<g opacity="0.205128">
<path d="M776.7 835.508C664.254 923.952 417.363 895.385 307.974 870.045C278.066 867.648 209.472 828.199 174.356 689.582C130.463 516.311 320.306 559.488 482.704 422.01C645.103 284.532 709.743 225.949 776.168 267.72C842.593 309.492 824.876 406.928 879.006 438.656C933.137 470.384 1023.16 440.867 1009.82 515.331C996.479 589.794 901.447 570.978 784.765 661.48C668.083 751.981 917.258 724.952 776.7 835.508Z" stroke="#949494" stroke-width="2"/>
</g>
<g opacity="0.230769">
<path d="M771.303 829.106C661.796 915.294 421.444 887.565 314.957 862.926C285.84 860.603 219.074 822.206 184.942 687.208C142.276 518.46 327.082 560.441 485.24 426.476C643.397 292.511 706.351 235.427 771.004 276.086C835.656 316.745 818.37 411.654 871.057 442.536C923.744 473.418 1011.4 444.634 998.384 517.166C985.366 589.698 892.854 571.409 779.221 659.601C665.589 747.795 908.187 721.371 771.303 829.106Z" stroke="#949494" stroke-width="2"/>
</g>
<g opacity="0.25641">
<path d="M765.905 822.703C659.337 906.635 425.523 879.744 321.938 855.807C293.614 853.557 228.677 816.213 195.526 684.834C154.087 520.609 333.858 561.393 487.775 430.941C641.691 300.489 702.959 244.903 765.839 284.451C828.719 323.998 811.864 416.38 863.107 446.415C914.351 476.451 999.641 448.4 986.945 519.001C974.251 589.601 884.259 571.837 773.677 657.722C663.095 743.606 899.115 717.79 765.905 822.703Z" stroke="#949494" stroke-width="2"/>
</g>
<g opacity="0.282051">
<path d="M760.507 816.302C656.877 897.976 429.603 871.923 328.92 848.687C301.387 846.512 238.279 810.22 206.11 682.459C165.898 522.758 340.633 562.346 490.309 435.406C639.985 308.467 699.566 254.381 760.674 292.815C821.782 331.251 805.358 421.106 855.158 450.295C904.958 479.484 987.878 452.167 975.507 520.836C963.137 589.505 875.665 572.268 768.133 655.843C660.601 739.418 890.044 714.209 760.507 816.302Z" stroke="#949494" stroke-width="2"/>
</g>
<g opacity="0.307692">
<path d="M755.107 809.898C654.416 889.316 433.681 864.101 335.9 841.567C309.158 839.465 247.88 804.226 216.693 680.084C177.709 524.906 347.407 563.298 492.842 439.871C638.278 316.444 696.172 263.856 755.507 301.18C814.843 338.503 798.849 425.83 847.206 454.173C895.562 482.517 976.113 455.932 964.067 522.67C952.021 589.406 867.069 572.696 762.587 653.962C658.106 735.23 880.969 710.626 755.107 809.898Z" stroke="#949494" stroke-width="2"/>
</g>
<g opacity="0.333333">
<path d="M749.709 803.496C651.958 880.657 437.762 856.281 342.882 834.448C316.933 832.42 257.483 798.233 227.277 677.709C189.521 527.055 354.184 564.25 495.378 444.337C636.572 324.423 692.781 273.333 750.343 309.545C807.906 345.756 792.343 430.556 839.257 458.053C886.169 485.55 964.352 459.698 952.629 524.505C940.908 589.311 858.475 573.125 757.043 652.083C655.612 731.042 871.899 707.046 749.709 803.496Z" stroke="#949494" stroke-width="2"/>
</g>
<g opacity="0.358974">
<path d="M744.311 797.095C649.498 871.998 441.841 848.46 349.863 827.329C324.706 825.374 267.085 792.24 237.862 675.336C201.333 529.204 360.959 565.203 497.913 448.802C634.867 332.401 689.388 282.81 745.179 317.909C800.969 353.008 785.837 435.281 831.307 461.933C876.776 488.584 952.59 463.465 941.191 526.34C929.793 589.214 849.881 573.555 751.499 650.204C653.119 726.854 862.826 703.465 744.311 797.095Z" stroke="#949494" stroke-width="2"/>
</g>
<g opacity="0.384615">
<path d="M738.911 790.691C647.038 863.338 445.919 840.638 356.844 820.208C332.478 818.328 276.686 786.246 248.444 672.96C213.143 531.352 367.734 566.155 500.446 453.266C633.159 340.378 685.994 292.286 740.012 326.273C794.03 360.26 779.33 440.005 823.355 465.81C867.381 491.615 940.826 467.23 929.752 528.173C918.677 589.116 841.285 573.983 745.954 648.324C650.622 722.664 853.753 699.882 738.911 790.691Z" stroke="#949494" stroke-width="2"/>
</g>
<g opacity="0.410256">
<path d="M733.514 784.289C644.581 854.68 450 832.819 363.827 813.089C340.253 811.283 286.289 780.254 259.03 670.586C224.957 533.502 374.511 567.108 502.983 457.733C631.455 348.357 682.603 301.763 734.849 334.638C787.095 367.514 772.825 444.732 815.407 469.691C857.989 494.65 929.065 470.997 918.315 530.008C907.564 589.02 832.692 574.413 740.411 646.445C648.13 718.478 844.683 696.302 733.514 784.289Z" stroke="#949494" stroke-width="2"/>
</g>
<g opacity="0.435897">
<path d="M728.116 777.886C642.12 846.02 454.079 824.998 370.808 805.969C348.026 804.236 295.891 774.26 269.614 668.211C236.767 535.65 381.285 568.061 505.516 462.197C629.748 356.335 679.21 311.239 729.683 343.003C780.157 374.766 766.317 449.457 807.456 473.57C848.595 497.683 917.302 474.762 906.876 531.843C896.449 588.923 824.097 574.842 734.866 644.566C645.635 714.289 835.61 692.72 728.116 777.886Z" stroke="#949494" stroke-width="2"/>
</g>
<g opacity="0.461538">
<path d="M722.716 771.484C639.66 837.361 458.158 817.176 377.789 798.849C355.798 797.191 305.492 768.267 280.197 665.836C248.577 537.799 388.059 569.013 508.05 466.663C628.041 364.313 675.817 320.716 724.517 351.368C773.218 382.019 759.809 454.182 799.505 477.449C839.201 500.716 905.538 478.529 895.437 533.677C885.334 588.826 815.502 575.271 729.321 642.686C643.14 710.101 826.537 689.139 722.716 771.484Z" stroke="#949494" stroke-width="2"/>
</g>
<g opacity="0.487179">
<path d="M717.317 765.082C637.2 828.701 462.236 809.355 384.769 791.73C363.57 790.145 315.094 762.273 290.78 663.462C260.388 539.947 394.834 569.965 510.584 471.128C626.334 372.29 672.423 330.193 719.352 359.732C766.28 389.271 753.302 458.908 791.554 481.328C829.806 503.749 893.775 482.295 883.996 535.512C874.219 588.729 806.906 575.7 723.776 640.806C640.645 705.912 817.465 685.557 717.317 765.082Z" stroke="#949494" stroke-width="2"/>
</g>
<g opacity="0.512821">
<path d="M711.92 758.68C634.74 820.043 466.317 801.535 391.752 784.61C371.345 783.1 324.696 756.28 301.365 661.088C272.201 542.097 401.61 570.918 513.12 475.594C624.629 380.269 669.031 339.67 714.187 368.097C759.344 396.524 746.796 463.634 783.605 485.209C820.414 506.783 882.014 486.061 872.559 537.348C863.105 588.633 798.313 576.13 718.232 638.927C638.152 701.725 808.393 681.976 711.92 758.68Z" stroke="#949494" stroke-width="2"/>
</g>
<g opacity="0.538462">
<path d="M706.522 752.277C632.282 811.383 470.397 793.713 398.734 777.491C379.118 776.054 334.299 750.287 311.95 658.713C284.013 544.245 408.386 571.87 515.655 480.059C622.923 388.247 665.639 349.147 709.023 376.461C752.406 403.777 740.29 468.358 775.656 489.087C811.021 509.816 870.251 489.827 861.122 539.182C851.991 588.536 789.718 576.559 712.688 637.048C635.657 697.537 799.322 678.395 706.522 752.277Z" stroke="#949494" stroke-width="2"/>
</g>
<g opacity="0.564103">
<path d="M701.122 745.874C629.821 802.723 474.474 785.892 405.714 770.371C386.889 769.008 343.899 744.293 322.532 656.337C295.823 546.393 415.16 572.822 518.188 484.523C621.215 396.224 662.245 358.622 703.856 384.826C745.467 411.028 733.782 473.083 767.704 492.966C801.626 512.848 858.487 493.592 849.681 541.015C840.876 588.439 781.123 576.987 707.142 635.167C633.162 693.348 790.249 674.813 701.122 745.874Z" stroke="#949494" stroke-width="2"/>
</g>
<g opacity="0.589744">
<path d="M695.725 739.473C627.363 794.065 478.556 778.072 412.697 763.252C394.664 761.963 353.503 738.301 333.118 653.964C307.637 548.543 421.937 573.776 520.724 488.99C619.511 404.204 658.854 368.1 698.693 393.191C738.532 418.282 727.277 477.809 759.756 496.846C792.234 515.883 846.727 497.36 838.245 542.851C829.763 588.343 772.529 577.418 701.6 633.289C630.669 689.161 781.178 671.232 695.725 739.473Z" stroke="#949494" stroke-width="2"/>
</g>
<g opacity="0.615385">
<path d="M690.327 733.07C624.903 785.406 482.634 770.251 419.678 756.132C402.437 754.917 363.105 732.307 343.702 651.589C319.446 550.691 428.712 574.729 523.258 493.455C617.804 412.182 655.461 377.577 693.527 401.556C731.593 425.535 720.77 482.534 751.804 500.726C782.839 518.916 834.964 501.126 826.805 544.687C818.648 588.246 763.934 577.847 696.054 631.41C628.174 684.973 772.106 667.651 690.327 733.07Z" stroke="#949494" stroke-width="2"/>
</g>
<g opacity="0.641026">
<path d="M684.928 726.667C622.443 776.746 486.713 762.43 426.659 749.012C410.21 747.871 372.706 726.314 354.285 649.214C331.257 552.84 435.487 575.68 525.792 497.92C616.097 420.159 652.068 387.053 688.362 409.919C724.656 432.786 714.262 487.259 743.854 504.604C773.445 521.949 823.201 504.892 815.366 546.52C807.532 588.148 755.339 578.275 690.51 629.53C625.68 680.784 763.033 664.069 684.928 726.667Z" stroke="#949494" stroke-width="2"/>
</g>
<g opacity="0.666667">
<path d="M679.529 720.265C619.983 768.088 490.793 754.609 433.64 741.893C417.982 740.826 382.308 720.321 364.869 646.84C343.069 554.989 442.262 576.633 528.326 502.385C614.391 428.137 648.675 396.53 683.197 418.285C717.718 440.04 707.756 491.985 735.904 508.484C764.052 524.982 811.438 508.658 803.928 548.355C796.418 588.052 746.745 578.705 684.965 627.651C623.185 676.596 753.961 660.488 679.529 720.265Z" stroke="#949494" stroke-width="2"/>
</g>
<g opacity="0.692308">
<path d="M674.131 713.863C617.525 759.428 494.872 746.789 440.622 734.773C425.756 733.78 391.911 714.328 375.453 644.465C354.881 557.138 449.037 577.586 530.861 506.85C612.685 436.115 645.283 406.006 678.032 426.649C710.781 447.292 701.249 496.711 727.954 512.363C754.659 528.015 799.675 512.424 792.49 550.19C785.304 587.955 738.15 579.134 679.421 625.771C620.692 672.407 744.889 656.906 674.131 713.863Z" stroke="#949494" stroke-width="2"/>
</g>
<g opacity="0.717949">
<path d="M668.731 707.461C615.065 750.769 498.951 738.967 447.602 727.654C433.529 726.734 401.512 708.334 386.036 642.091C366.692 559.286 455.812 578.538 533.395 511.316C610.978 444.093 641.889 415.483 672.866 435.014C703.843 454.544 694.742 501.436 720.003 516.242C745.264 531.049 787.912 516.19 781.05 552.024C774.189 587.858 729.555 579.564 673.876 623.892C618.196 668.22 735.816 653.325 668.731 707.461Z" stroke="#949494" stroke-width="2"/>
</g>
<g opacity="0.74359">
<path d="M663.333 701.058C612.605 742.109 503.03 731.147 454.585 720.533C441.302 719.688 411.114 702.341 396.62 639.716C378.504 561.435 462.588 579.49 535.93 515.781C609.273 452.071 638.497 424.96 667.701 443.379C696.905 461.797 688.236 506.161 712.053 520.121C735.871 534.082 776.15 519.956 769.612 553.859C763.074 587.761 720.96 579.993 668.332 622.012C615.703 664.031 726.744 649.744 663.333 701.058Z" stroke="#949494" stroke-width="2"/>
</g>
<g opacity="0.769231">
<path d="M657.936 694.656C610.147 733.451 507.111 723.326 461.567 713.414C449.076 712.642 420.717 696.348 407.206 637.342C390.316 563.584 469.364 580.443 538.466 520.246C607.568 460.05 635.105 434.437 662.537 451.744C689.969 469.05 681.73 510.887 704.104 524.001C726.478 537.116 764.389 523.723 758.175 555.694C751.961 587.665 712.367 580.423 662.789 620.133C613.209 659.844 717.673 646.163 657.936 694.656Z" stroke="#949494" stroke-width="2"/>
</g>
<g opacity="0.794872">
<path d="M652.535 688.252C607.685 724.79 511.188 715.503 468.546 706.293C456.847 705.596 430.317 690.354 417.788 634.966C402.126 565.732 476.137 581.395 540.998 524.71C605.859 468.026 631.71 443.913 657.37 460.107C683.029 476.302 675.221 515.611 696.151 527.879C717.082 540.148 752.624 527.488 746.733 557.527C740.844 587.567 703.771 580.851 657.241 618.252C610.713 655.654 708.598 642.58 652.535 688.252Z" stroke="#949494" stroke-width="2"/>
</g>
<g opacity="0.820513">
<path d="M647.139 681.851C605.227 716.132 515.27 707.684 475.529 699.175C464.622 698.551 439.921 684.361 428.373 632.593C413.938 567.881 482.914 582.348 543.534 529.177C604.155 476.006 628.319 453.39 652.206 468.473C676.093 483.556 668.716 520.338 688.203 531.76C707.691 543.182 740.863 531.255 735.297 559.363C729.731 587.471 695.177 581.281 651.699 616.374C608.22 651.467 699.529 639 647.139 681.851Z" stroke="#949494" stroke-width="2"/>
</g>
<g opacity="0.846154">
<path d="M641.74 675.449C602.767 707.473 519.348 699.863 482.51 692.055C472.395 691.505 449.522 678.368 438.957 630.217C425.749 570.03 489.689 583.3 546.068 533.642C602.448 483.983 624.926 462.867 647.041 476.837C669.155 490.808 662.209 525.063 680.252 535.639C698.296 546.215 729.1 535.021 723.858 561.198C718.616 587.374 686.583 581.71 646.154 614.494C605.725 647.279 690.456 635.418 641.74 675.449Z" stroke="#949494" stroke-width="2"/>
</g>
<g opacity="0.871795">
<path d="M636.341 669.046C600.308 698.814 523.428 692.042 489.492 684.936C480.168 684.46 459.124 672.375 449.541 627.843C437.561 572.178 496.464 584.253 548.603 538.107C600.742 491.961 621.534 472.343 641.876 485.202C662.218 498.061 655.702 529.788 672.302 539.518C688.903 549.248 717.337 538.787 712.419 563.032C707.502 587.278 677.988 582.139 640.61 612.615C603.231 643.091 681.384 631.837 636.341 669.046Z" stroke="#949494" stroke-width="2"/>
</g>
<g opacity="0.897436">
<path d="M630.944 662.644C597.849 690.154 527.507 684.221 496.473 677.816C487.941 677.414 468.727 666.382 460.125 625.469C449.373 574.327 503.24 585.206 551.138 542.573C599.036 499.94 618.141 481.82 636.711 493.567C655.281 505.313 649.196 534.514 664.352 543.398C679.509 552.281 705.575 542.553 700.981 564.867C696.387 587.181 669.393 582.568 635.065 610.736C600.737 638.903 672.312 628.256 630.944 662.644Z" stroke="#949494" stroke-width="2"/>
</g>
<g opacity="0.923077">
<path d="M625.544 656.24C595.388 681.494 531.585 676.4 503.454 670.695C495.713 670.367 478.328 660.387 470.708 623.093C461.183 576.475 510.014 586.157 553.671 547.037C597.328 507.916 614.747 491.296 631.545 501.93C648.342 512.565 642.688 539.238 656.401 547.276C670.114 555.314 693.811 546.318 689.542 566.701C685.272 587.083 660.798 582.996 629.52 608.855C598.242 634.714 663.239 624.673 625.544 656.24Z" stroke="#949494" stroke-width="2"/>
</g>
<g opacity="0.948718">
<path d="M620.147 649.839C592.93 672.836 535.666 668.58 510.437 663.577C503.488 663.323 487.931 654.395 481.293 620.72C472.996 578.625 516.791 587.111 556.207 551.504C595.624 515.896 611.356 500.774 626.381 510.296C641.406 519.819 636.183 543.965 648.453 551.157C660.722 558.348 682.05 550.086 678.104 568.537C674.158 586.987 652.205 583.427 623.977 606.977C595.749 630.527 654.168 621.093 620.147 649.839Z" stroke="#949494" stroke-width="2"/>
</g>
<g opacity="0.974359">
<path d="M614.746 643.436C590.468 664.176 539.743 660.758 517.416 656.456C511.259 656.276 497.531 648.401 491.875 618.344C484.805 580.773 523.564 588.062 558.74 555.967C593.915 523.873 607.961 510.249 621.214 518.66C634.466 527.07 629.674 548.689 640.5 555.035C651.326 561.38 670.285 553.851 666.664 570.37C663.042 586.889 643.608 583.855 618.43 605.096C593.252 626.338 645.094 617.511 614.746 643.436Z" stroke="#949494" stroke-width="2"/>
</g>
<path d="M609.35 637.035C588.011 655.518 543.825 652.938 524.399 649.338C519.034 649.231 507.135 642.409 502.461 615.97C496.619 582.922 530.341 589.016 561.276 560.434C592.211 531.852 604.57 519.727 616.05 527.025C627.531 534.324 623.169 553.415 632.552 558.915C641.935 564.415 658.525 557.618 655.227 572.206C651.929 586.794 635.015 584.286 612.887 603.218C590.76 622.151 636.023 613.93 609.35 637.035Z" stroke="#949494" stroke-width="2"/>
</g>
</svg>
