<svg width="1882" height="185" viewBox="0 0 1882 185" fill="none" xmlns="http://www.w3.org/2000/svg">
<path d="M228.222 168.8C233.026 171 238.321 170.4 243.419 171.3C253.223 173.2 263.125 173.1 273.027 173.5C282.733 173.9 292.538 172.9 302.146 171.6C322.44 168.9 341.852 163 359.99 153.2C375.284 144.9 389.108 134.5 401.756 122.6C424.207 101.4 443.227 77.1 462.051 52.7C474.796 36.1 488.032 19.8 500.974 3.40001C501.66 2.50001 502.444 1.60001 504.307 2.40001C498.621 9.60001 492.934 16.7 487.346 23.8C475.483 38.9 463.62 53.8 451.953 69C436.07 89.8 419.011 109.6 399.893 127.2C380.971 144.6 359.5 158.4 334.891 166.3C320.185 171 304.989 173.4 289.596 174.9C277.537 176.1 265.576 174.9 253.615 174.6C246.85 174.4 240.183 172.6 233.321 172.7C231.556 171.5 229.399 172.8 227.634 171.8C225.869 170.5 223.811 171.6 221.948 171C220.771 169.9 219.399 170.3 218.614 170.2C217.438 170.3 218.026 171.4 217.928 170.7C217.928 170.5 217.928 170.5 218.026 170.4C219.203 169.9 220.379 170 221.556 170.6C223.32 171.9 225.575 170.5 227.34 171.5C229.203 172.9 231.458 171.3 233.321 172.6C238.909 175.1 245.086 174.2 250.87 175.5C259.302 177.5 268.125 177.2 276.557 177.2C294.4 177.3 312.146 175.5 329.499 170.7C352.441 164.3 373.03 153.3 391.559 138.3C405.971 126.7 418.815 113.3 430.776 99.2C443.423 84.3 455.286 68.9 467.443 53.7C477.64 40.9 487.64 28 497.934 15.2C501.758 10.4 505.385 5.40001 510.974 0.700012C509.699 6.20001 506.072 8.70001 503.523 11.8C485.385 33.6 468.326 56.2 450.678 78.4C437.933 94.5 424.893 110.3 410.187 124.5C389.5 144.5 366.461 160.9 339.009 170C323.617 175.1 307.93 177.6 291.851 178.9C273.223 180.4 254.988 178.2 236.654 175.6C235.183 175.4 233.713 175.5 232.242 175.5C230.575 174.3 228.517 175.5 226.752 174.8C225.673 173.8 224.399 174 223.026 174.2C222.34 174.3 223.124 174.5 223.124 174.5C224.203 173.7 225.379 174 226.458 174.7C228.222 175.8 230.379 174.4 232.144 175.6C239.497 178.6 247.34 178 254.988 179.5C264.106 181.3 273.518 181.2 282.635 181.3C294.891 181.4 307.146 180.2 319.401 178C335.088 175.1 349.99 170.1 364.108 162.8C377.441 155.9 389.697 147.2 401.069 137.2C422.638 118.1 440.58 95.8 458.424 73.2C471.855 56.1 485.189 38.8 499.503 22.4C504.601 16.5 509.503 10.3 514.601 4.30001C515.582 3.10001 516.464 1.50001 519.111 2.30001C514.503 7.80001 510.091 13.2 505.581 18.4C493.816 32 482.738 46.2 471.561 60.4C460.482 74.4 449.404 88.4 438.031 102.1C429.305 112.6 420.089 122.6 410.285 132C385.971 155.4 358.225 172.7 324.989 179.3C307.146 182.9 289.204 184.7 270.772 183C259.596 182 248.517 180.3 237.34 179.7C235.674 178.5 233.615 179.7 231.85 179C230.771 177.9 229.399 178.4 228.222 178.3C227.536 178.5 228.32 178.7 228.32 178.7C229.399 177.9 230.575 178.2 231.654 178.9C233.419 180 235.576 178.6 237.34 179.8C245.282 182.6 253.517 182.7 261.753 183.8C263.125 184 264.694 183.4 265.772 184.8C259.89 184.8 254.007 184.8 248.125 184.8C244.399 184.3 240.674 183.4 236.85 183.2C235.477 182 233.909 182.3 231.458 182.6C231.752 182.6 232.34 183.3 232.144 182.7C232.144 182.6 232.242 182.5 232.536 182.5C233.811 182.5 235.085 182.2 236.262 182.9C237.536 184.6 240.576 181.8 241.164 184.9C233.615 184.9 226.164 184.9 218.614 184.9C198.32 181.9 178.123 181.1 157.829 184.9C155.574 184.9 153.221 184.9 150.966 184.9C151.554 181.7 154.495 181.8 156.652 181.1C168.025 177.6 179.692 176.9 191.555 177.6C198.026 178 204.398 179 208.908 179.9C203.124 178.5 195.477 177.8 187.731 177.4C170.966 176.5 154.495 177.4 138.515 183.4C136.554 184.1 134.397 184.1 132.436 184.9C131.161 184.9 129.789 184.9 128.514 184.9C128.514 182.3 130.671 181.8 132.436 181.1C144.103 176 156.162 173.2 168.907 172.4C178.908 171.8 188.712 173.3 198.516 174.5C199.79 174.7 200.967 175.1 201.065 175.1C194.398 173 186.261 172.8 178.221 172C160.77 170.4 143.711 172.6 127.24 178.9C122.338 180.8 117.926 183.7 112.73 184.8C111.455 184.8 110.083 184.8 108.808 184.8C108.71 182.3 110.769 181.5 112.436 180.6C125.377 173.2 139.299 169.1 154.103 167.4C166.456 165.9 178.417 167.8 190.476 169.5C191.065 169.6 191.751 169.8 191.849 169.9C189.986 168.9 187.339 169 184.888 168.6C164.397 165.5 144.005 165.2 123.906 171.2C116.063 173.6 108.71 177.2 101.553 181.2C99.1019 182.6 96.6509 183.8 94.1018 184.8C93.1214 184.8 92.141 184.8 91.1606 184.8C90.8665 182 93.2195 181.2 94.7881 180.1C109.298 170 125.573 164.6 143.024 162.5C156.162 160.9 168.907 162.7 181.751 164.7C182.535 164.8 183.319 165.2 183.319 165.2C181.065 164.2 177.829 164.2 174.692 163.5C171.358 162.7 167.927 162.5 164.594 162.2C147.338 160.7 130.083 161 113.318 166.3C103.122 169.5 93.6116 174.1 84.8859 180.3C82.4349 182 80.0819 183.6 77.4348 185C76.4544 185 75.474 185 74.4936 185C74.1014 182.1 76.2583 180.9 77.925 179.5C99.3961 163.2 123.514 155.9 150.28 157C157.24 157.3 164.005 158.3 170.868 159.7C171.456 159.9 170.868 158.6 170.868 159.3C170.868 159.5 170.378 159.6 169.986 159.5C147.338 155.2 124.691 154.8 102.337 161.5C89.8861 165.2 78.5132 171.3 68.415 179.7C66.062 181.7 63.5129 183.5 60.7678 185C59.7873 185 58.8069 185 57.8265 185C57.3363 182.4 59.3952 181.2 60.8658 179.8C84.1016 159.4 111.063 150.4 141.75 152C148.613 152.4 155.28 153.2 161.946 154.5C154.887 152.8 147.73 152.2 140.475 151.8C116.847 150.3 93.9057 152.6 72.6308 164.5C64.6894 168.9 57.6304 174.4 50.9636 180.5C49.1008 182.2 47.3361 183.8 45.0811 184.9C44.1007 184.9 43.1203 184.9 42.1399 184.9C41.6497 182.5 43.4144 181.3 44.689 179.9C65.5718 158.8 90.7684 147.7 120.279 146.7C132.338 146.3 144.299 147.4 156.064 149.7C157.535 151 159.299 150.6 160.966 150.5C159.495 150.5 158.025 150.9 156.652 150.1C143.711 146.5 130.279 145.8 117.044 145.8C85.8664 146 58.1206 155.9 36.0613 179.3C34.0025 181.5 31.9436 183.5 29.1984 184.8C28.218 184.8 27.2376 184.8 26.2572 184.8C25.767 182.4 27.6298 181.2 28.9043 179.8C50.0813 156.5 76.1603 143.7 107.435 141.4C119.298 140.6 130.769 142.4 142.338 143.7C143.221 143.8 143.907 144.4 144.789 144.5C137.632 142.4 130.279 141.9 122.926 141.2C106.945 139.6 91.0625 140.4 75.3759 144.6C54.9833 150 37.532 160.5 23.2179 176.1C20.4728 179.1 17.7276 182.2 14.4922 184.7C13.5118 184.7 12.5314 184.7 11.551 184.7C30.2769 159.4 54.7872 144 85.6703 138.9C102.729 136.1 119.593 136.7 136.456 139.9C137.24 140 138.024 139.9 138.711 139.5C84.5918 126.9 36.7476 135.3 0.0801567 183C-0.41005 179.3 1.45274 177.7 2.82531 176.1C21.1591 154.4 43.6105 139.5 71.6504 134.3C87.6311 131.3 103.514 131.3 119.593 133.5C140.77 136.4 160.868 143.8 181.653 148.2C197.045 151.5 212.438 154.5 228.124 155.9C238.027 156.8 247.929 157.9 257.733 157.7C286.949 157 315.283 152 341.656 138.8C357.735 130.8 372.441 120.4 385.971 108.4C410.187 86.8 430.286 61.6 449.796 35.8C457.541 25.5 465.483 15.2 473.326 5.00001C474.208 3.80001 474.993 2.10001 477.738 2.50001C473.914 7.70001 470.385 12.7 466.659 17.5C456.659 30.5 446.757 43.5 436.56 56.4C430.188 64.5 423.325 72.2 416.756 80.2C410.873 87.3 404.403 93.9 397.834 100.3C374.696 122.9 348.715 141 317.636 150.6C301.753 155.5 285.479 158.2 268.91 159.4C252.145 160.6 235.576 159 218.908 157C216.948 156.8 214.987 156.9 213.026 156.9C211.261 155.7 209.104 157 207.34 156C205.575 154.7 203.516 155.8 201.653 155.2C200.477 154.1 199.104 154.5 198.32 154.4C197.143 154.5 197.732 155.6 197.634 154.9C197.634 154.7 197.634 154.7 197.732 154.6C198.908 154.1 200.085 154.2 201.261 154.8C203.026 156.1 205.281 154.7 207.045 155.7C208.908 157.1 211.163 155.5 213.026 156.8C219.497 159 226.458 158.4 233.026 159.9C241.36 161.7 249.89 160.6 258.321 161.5C265.282 162.2 272.635 161.3 279.694 160.6C296.361 159 312.734 155.8 328.519 149.8C347.441 142.6 364.598 132.4 380.481 119.8C392.834 110 403.815 98.6 414.403 87C426.756 73.5 438.227 59.1 449.208 44.4C459.6 30.5 470.287 16.8 480.875 3.00001C481.561 2.20001 482.248 1.70001 484.11 2.10001C479.012 8.80001 474.208 15.2 469.306 21.5C456.169 38.5 443.423 55.8 429.795 72.3C409.109 97.3 386.853 120.7 358.814 137.4C338.323 149.7 316.166 157.4 292.538 160.9C274.988 163.5 257.341 163.8 239.693 162.7C232.732 162.3 225.869 160.7 218.908 160.8C216.752 160 214.399 160.7 212.34 160C210.575 158.6 208.418 159.8 206.555 159.1C205.085 157.7 203.222 158.8 201.653 158.1C200.281 157 198.712 157.2 197.732 157.5C198.516 157.1 199.79 157.3 201.065 157.8C202.536 159.1 204.398 157.9 205.869 158.8C207.536 160.1 209.595 159.1 211.457 159.6C213.712 161.3 216.457 160 218.908 161C223.811 163.7 229.301 163 234.497 163.7C245.38 165.3 256.458 166.1 267.537 165.9C308.812 165 346.656 153.5 379.598 127.6C397.736 113.3 413.521 96.5 428.325 78.6C448.031 54.7 466.561 30 485.581 5.50001C486.561 4.20001 487.542 2.40001 490.581 2.40001C487.248 6.80001 484.306 10.7 481.267 14.6C467.247 32.7 453.325 50.9 439.109 68.9C433.325 76.2 427.442 83.5 421.168 90.4C408.226 104.8 394.599 118.5 379.206 130.2C354.598 148.8 327.44 160.9 296.949 165.1C284.204 166.9 271.459 168.4 258.713 167.8C247.929 167.3 237.046 165.9 226.262 164.9C225.085 164.8 224.007 164.9 222.83 164.9C221.065 163.7 218.908 165 217.144 164C215.379 162.7 213.32 163.8 211.457 163.2C210.281 162.1 208.908 162.4 208.026 162.5C206.849 162.6 207.536 163.7 207.438 163C207.438 162.8 207.438 162.8 207.536 162.7C208.712 162.2 209.889 162.3 211.065 162.9C212.83 164.2 215.085 162.8 216.85 163.8C218.712 165.2 220.967 163.6 222.83 164.9C228.909 167.4 235.576 166.6 241.85 167.9C249.89 169.6 258.027 168.5 266.164 169.6C273.518 170.6 281.067 169.2 288.518 168.6C303.518 167.3 318.322 164.2 332.636 159.1C353.323 151.8 371.657 140.6 388.618 126.5C410.383 108.4 428.423 86.7 445.776 64.5C461.757 44.1 477.64 23.7 493.522 3.30001C494.307 2.30001 495.091 1.70001 497.15 2.20001C491.954 9.00001 486.954 15.3 481.953 21.7C470.385 36.6 458.914 51.5 447.247 66.3C439.207 76.4 431.07 86.5 422.442 96.2C416.462 102.9 410.383 109.6 403.814 115.9C388.422 130.7 371.755 143.9 352.441 153.2C334.205 162.1 314.891 167.9 294.694 170C283.714 171.1 272.733 172.4 261.655 171.8C250.772 170.9 239.497 169.7 228.222 168.8C226.458 167.6 224.301 168.9 222.536 167.9C220.771 166.6 218.712 167.7 216.85 167.1C215.673 166 214.301 166.4 213.516 166.3C212.34 166.4 212.928 167.5 212.83 166.8C212.83 166.6 212.83 166.6 212.928 166.5C214.104 166 215.281 166.1 216.457 166.7C218.222 168 220.477 166.6 222.242 167.6C224.105 169.1 226.36 167.5 228.222 168.8Z" fill="url(#paint0_linear_4_22)"/>
<path d="M1876.2 184.7C1867.96 175.2 1859.63 165.7 1851.49 156.1C1842.38 145.3 1833.55 134.4 1824.53 123.6C1818.36 116.2 1812.47 108.5 1806.1 101.3C1796.39 90.4 1786.98 79.2 1776.39 69.1C1761 54.5 1744.73 41.1 1725.8 31.5C1708.35 22.6 1689.82 17.4 1670.51 14.8C1654.14 12.6 1637.67 12.2 1621.29 13C1600.21 14 1579.92 19 1560.41 27.4C1535.31 38.2 1512.66 52.7 1492.07 70.9C1471.29 89.3 1453.35 110 1439.72 134.4C1431.58 148.8 1425.41 164.1 1422.56 180.5C1422.27 182 1421.88 183.4 1421.58 184.8C1420.9 184.8 1420.31 184.8 1419.62 184.8C1422.27 167.8 1427.95 152 1435.9 136.8C1443.15 123 1451.97 110.4 1461.88 98.6C1480.01 77.1 1500.9 58.9 1524.53 43.9C1548.25 28.9 1573.55 17.8 1601.1 13C1620.61 9.69999 1640.21 10.2 1659.92 11.6C1679.23 12.9 1697.86 17.2 1715.61 24.7C1732.86 31.9 1748.55 41.9 1762.77 54.3C1771.2 61.6 1779.63 68.8 1787.18 77.1C1800.32 91.7 1813.26 106.5 1825.71 121.7C1836.79 135.3 1847.47 149.2 1859.24 162.2C1866 169.6 1872.47 177.2 1879.04 184.7C1878.16 184.7 1877.18 184.7 1876.2 184.7Z" fill="url(#paint1_linear_4_22)"/>
<path d="M851.373 184.7C855.295 160.7 849.315 138.5 838.334 117.5C826.961 95.9 811.471 77.6 793.333 61.4C778.627 48.3 762.646 37.5 745.391 28.6C727.057 19.1 707.547 12.6 687.154 9.90002C669.899 7.60002 652.447 8.20001 635.094 10.2C616.858 12.3 598.819 15.6 581.662 22.6C563.818 29.8 547.739 39.9 532.837 52.2C521.954 61.2 511.856 71 502.248 81.4C491.071 93.6 480.189 106.1 469.796 118.9C462.639 127.7 455.188 136.1 447.639 144.6C439.796 153.4 431.952 162.2 422.933 169.9C416.952 175 410.873 179.8 404.697 184.7C403.422 184.7 402.05 184.7 400.775 184.7C414.501 175.1 427.148 164.3 438.423 151.9C449.306 139.9 459.894 127.7 470.189 115.1C478.032 105.5 486.659 96.5 494.699 86.9C501.464 78.8 508.817 71.3 516.366 64.1C531.562 49.6 547.837 36.4 566.661 27.1C584.603 18.2 603.525 12.5 623.329 9.70001C637.349 7.70001 651.369 7.00002 665.585 6.80002C689.115 6.40002 711.37 11.8 732.841 20.8C755.685 30.4 776.274 43.7 795 60.2C813.627 76.6 829.118 95.5 840.785 117.5C850.687 136.3 856.079 156.4 854.413 177.9C854.217 180.2 853.824 182.4 853.432 184.7C852.648 184.7 851.962 184.7 851.373 184.7Z" fill="url(#paint2_linear_4_22)"/>
<path d="M842.55 184.7C844.216 162.5 839.707 141.7 828.922 122.3C821.667 109.3 813.137 97.4 803.137 86.4C784.411 66 762.744 49.5 737.94 37.7C718.527 28.5 698.233 22.3 676.762 20.6C641.761 18 607.643 22.7 575.093 35.9C559.014 42.4 544.504 51.9 530.974 63C518.229 73.4 506.758 85.1 495.581 97.2C484.601 109.1 474.502 121.9 463.816 134C449.208 150.6 434.894 167.6 417.442 181.4C416.266 182.3 415.481 183.6 414.501 184.7C413.227 184.7 411.854 184.7 410.579 184.7C422.246 175.1 433.227 164.9 443.423 153.8C454.992 141.3 465.679 128.1 476.855 115.2C490.679 99.2 504.895 83.5 520.68 69.3C534.994 56.4 550.386 45.2 567.74 36.9C583.72 29.2 600.486 24.4 617.937 21.6C634.016 19 650.094 17.4 666.369 17.7C689.409 18.1 711.272 23.9 732.449 32.9C750.293 40.5 766.764 50.5 781.568 63C800 78.4 816.275 95.8 828.432 116.9C836.275 130.6 842.059 145 844.412 160.7C845.589 168.7 845.393 176.7 844.707 184.7C843.824 184.7 843.236 184.7 842.55 184.7Z" fill="url(#paint3_linear_4_22)"/>
<path d="M1869.34 184.7C1859.73 173.5 1850.12 162.4 1840.61 151.1C1830.61 139.2 1821.2 126.8 1810.81 115.2C1799.43 102.5 1788.55 89.4 1775.71 78C1765.41 68.8 1755.22 59.8 1743.65 52.3C1726 41 1707.08 33.3 1686.49 28.9C1663.94 24 1641.19 23.8 1618.55 24.8C1597.47 25.8 1577.37 32 1558.06 40.8C1526.09 55.4 1498.64 76.4 1475.41 102.8C1455.5 125.4 1439.52 150.5 1432.76 180.7C1432.46 182 1432.46 183.3 1432.27 184.6C1431.58 184.6 1430.99 184.6 1430.31 184.6C1431.09 173.7 1434.92 163.7 1439.13 153.9C1451.58 124.8 1471.49 101.3 1494.52 80.5C1512.76 63.9 1533.25 50.4 1555.7 40.1C1573.84 31.8 1592.47 25.3 1612.57 23.5C1629.33 22.1 1646 22.4 1662.76 23.4C1687.96 25 1711.69 31.8 1733.94 43.8C1745.9 50.3 1756.79 58.3 1766.98 67.3C1773.94 73.5 1781.2 79.4 1787.57 86.3C1802.18 102 1816.3 118.2 1829.83 134.8C1840.41 147.7 1850.71 160.9 1862.28 173C1865.81 176.7 1868.94 180.7 1872.18 184.5C1871.3 184.7 1870.32 184.7 1869.34 184.7Z" fill="url(#paint4_linear_4_22)"/>
<path d="M832.746 184.7C835.197 175.6 833.04 166.7 831.177 157.9C826.569 135.9 815.098 117.4 801.078 100.4C786.96 83.3 770.195 69.4 751.371 57.9C729.802 44.7 706.762 36.2 681.762 32.5C662.84 29.7 644.212 31.4 625.584 33.8C602.544 36.7 580.289 42.7 559.602 53.6C546.171 60.7 533.817 69.4 522.347 79.6C510.778 89.9 500.091 101 489.601 112.2C477.836 124.7 467.247 138.3 455.776 151.1C445.482 162.5 435.286 174.1 423.031 183.6C422.638 183.9 422.442 184.4 422.246 184.8C421.266 184.8 420.285 184.8 419.305 184.8C425.874 178.7 432.737 172.9 438.913 166.3C452.639 151.6 465.777 136.3 479.012 121.1C491.464 106.7 504.699 93 518.915 80.3C532.641 68 547.445 57.4 564.014 49.4C581.466 41 599.799 35.8 618.819 32.7C633.525 30.3 648.428 28.5 663.33 28.8C686.37 29.3 708.331 34.8 729.41 43.9C746.567 51.3 762.45 61.1 776.764 73.1C800.49 92.9 819.804 116.3 830.295 146.1C833.726 156 835.883 166.4 835.883 177C835.883 179.7 835.589 182.3 834.902 184.8C834.02 184.7 833.432 184.7 832.746 184.7Z" fill="url(#paint5_linear_4_22)"/>
<path d="M1862.47 184.7C1853.16 173.7 1843.75 162.8 1834.43 151.8C1822.38 137.6 1810.41 123.2 1798.06 109.2C1789.63 99.6 1780.41 90.6 1770.61 82.3C1759.53 72.9 1747.86 64.2 1735.02 57.3C1720.41 49.5 1705.02 43.9 1688.84 40.6C1670.31 36.8 1651.49 35.3 1632.67 35.7C1607.86 36.2 1584.13 42 1561.49 52.5C1543.64 60.8 1526.98 71 1511.68 83.4C1490.21 100.7 1472.07 120.9 1458.15 145C1450.9 157.5 1445.7 170.7 1442.07 184.7C1441.39 184.7 1440.8 184.7 1440.11 184.7C1446.09 159.1 1458.64 137.1 1475.01 116.9C1498.45 88.1 1526.98 66.2 1560.31 50.8C1579.43 41.9 1599.53 36.1 1620.7 34.5C1652.18 32.2 1682.96 35.3 1712.96 45.3C1733.45 52.2 1751.49 63.5 1768.06 77.5C1777.96 85.9 1787.47 94.6 1796.2 104.2C1807.28 116.5 1818.26 128.8 1828.65 141.7C1837.08 152.2 1846 162.2 1854.73 172.4C1858.26 176.5 1861.79 180.6 1865.32 184.7C1864.43 184.7 1863.45 184.7 1862.47 184.7Z" fill="url(#paint6_linear_4_22)"/>
<path d="M823.922 184.7C824.804 156.8 813.529 133.6 797.157 112.3C778.136 87.5 753.822 69.7 725.782 57C707.253 48.7 687.938 43.6 667.448 42.4C638.33 40.8 610.29 45.8 582.74 54.5C559.308 61.9 538.818 74.7 520.092 90.7C502.052 106.1 486.659 123.8 470.973 141.5C457.835 156.4 444.894 171.4 430.09 184.7C429.109 184.7 428.129 184.7 427.148 184.7C433.227 178.7 439.502 173 445.286 166.7C461.267 149.1 476.659 131 492.934 113.7C516.856 88.3 543.327 66.4 576.563 54.4C595.485 47.6 614.8 43.3 634.8 41.4C643.82 40.5 652.84 39.1 661.957 39.6C683.33 40.7 704.017 45.3 723.822 53.8C741.371 61.3 757.548 71 772.058 83.4C797.549 105 817.157 130.8 824.706 164.5C826.177 171.2 825.981 177.9 825.981 184.7C825.196 184.7 824.608 184.7 823.922 184.7Z" fill="url(#paint7_linear_4_22)"/>
<path d="M1855.61 184.7C1844.34 171.5 1832.96 158.4 1821.98 145C1810.02 130.6 1797.57 116.6 1784.04 103.7C1762.86 83.5 1739.33 67 1711.29 57.9C1694.73 52.5 1677.57 49.8 1660.21 48.5C1646.59 47.4 1632.96 47.2 1619.33 48.5C1603.15 50 1587.76 54.5 1572.76 60.4C1551 69 1531.39 81.2 1513.54 96.2C1491.19 115.1 1472.66 137.3 1460.21 164.2C1457.17 170.8 1454.92 177.7 1453.05 184.7C1452.37 184.7 1451.78 184.7 1451.09 184.7C1454.03 171.5 1459.62 159.5 1466.39 148C1476.49 130.9 1488.94 115.6 1503.54 102.3C1533.45 75 1567.76 55.7 1607.57 47.9C1625.02 44.5 1642.76 45.1 1660.51 46.4C1674.33 47.4 1687.86 49.4 1701.29 52.9C1725.12 59.1 1746.69 69.9 1766 85.4C1784.24 100 1800.41 116.6 1815.51 134.4C1826.79 147.8 1838.36 161 1849.83 174.3C1852.77 177.8 1855.71 181.3 1858.75 184.8C1857.57 184.7 1856.59 184.7 1855.61 184.7Z" fill="url(#paint8_linear_4_22)"/>
<path d="M814.118 184.7C814.706 161.4 805.686 141.6 792.352 123.6C770.391 93.8 741.273 73.6 706.762 61.5C688.821 55.2 670.193 51.7 651.369 52.7C615.486 54.8 580.485 61.7 548.622 79.8C535.876 87.1 524.111 95.9 513.033 105.7C507.052 111 501.366 116.7 495.777 122.5C479.404 139.3 464.012 157 448.521 174.5C445.286 178.2 440.58 180.3 437.933 184.7C436.953 184.7 435.972 184.7 434.992 184.7C439.6 178.9 445.384 174.3 450.384 169C468.62 149.5 485.679 128.7 504.993 110.3C534.112 82.5 567.838 64 607.348 56.5C624.212 53.3 641.173 50.1 658.428 50.6C681.566 51.3 703.625 56.6 724.802 66.3C748.038 76.9 768.038 91.9 784.999 111C800.784 128.9 812.157 149.2 815.882 173.3C816.471 177 815.98 180.9 816.078 184.7C815.392 184.7 814.804 184.7 814.118 184.7Z" fill="url(#paint9_linear_4_22)"/>
<path d="M1848.75 184.7C1839.14 173.5 1829.43 162.4 1820.12 151.1C1809.43 138.1 1797.86 126.1 1785.81 114.5C1758.45 88.1 1726.78 70 1689.14 63.4C1674.04 60.8 1658.94 59 1643.74 58.6C1618.65 58 1594.82 63.5 1571.68 73.3C1541.49 86.1 1516.09 105.6 1494.62 130.3C1480.8 146.2 1469.52 164 1463.74 184.8C1463.05 184.8 1462.47 184.8 1461.78 184.8C1464.33 173.8 1469.13 163.7 1475.01 154.1C1494.33 122.8 1520.31 98.7 1552.08 80.7C1573.06 68.8 1595.41 61.1 1619.14 57.7C1635.41 55.4 1651.78 56.5 1668.25 58.3C1685.12 60.1 1701.69 63.2 1717.67 68.7C1738.26 75.7 1756.59 86.9 1773.45 100.7C1786 111 1797.47 122.6 1808.45 134.5C1819.34 146.3 1829.34 158.8 1839.83 171C1843.75 175.6 1847.77 180.1 1851.79 184.7C1850.71 184.7 1849.73 184.7 1848.75 184.7Z" fill="url(#paint10_linear_4_22)"/>
<path d="M804.314 184.7C804.706 168.9 799.313 154.8 791.568 141.6C774.607 112.8 750.097 92.4 720.194 78.5C702.939 70.5 684.801 66 665.781 64.2C645.683 62.3 626.368 65.5 606.956 69.4C585.877 73.6 565.877 80.7 546.955 91.1C534.308 98.1 522.837 106.5 511.856 116C500.189 126.1 489.699 137.5 479.012 148.6C467.639 160.4 456.757 172.7 445.678 184.8C444.698 184.8 443.717 184.8 442.737 184.8C443.129 184.3 443.423 183.6 443.815 183.2C462.835 164.3 480.189 143.9 499.111 125C530.288 93.8 567.544 74.8 610.388 66.6C625.878 63.6 641.369 61.1 657.251 61.6C677.546 62.3 697.154 66.6 715.88 74.5C738.332 83.9 757.842 97.5 774.509 115.5C790.196 132.4 801.666 151.6 805.98 174.7C806.568 178.1 805.294 181.7 807.157 184.9C806.274 184.7 805.294 184.7 804.314 184.7Z" fill="url(#paint11_linear_4_22)"/>
<path d="M1841.89 184.7C1824.04 162.5 1805.02 141.5 1784.34 122.1C1756.98 96.4 1724.82 80.2 1687.76 74.2C1672.08 71.7 1656.29 69.3 1640.41 69.5C1616.98 69.9 1594.53 75.2 1572.96 84.9C1547.27 96.4 1525.02 112.7 1506 133.5C1492.27 148.4 1481.19 165.2 1474.43 184.7C1473.74 184.7 1473.15 184.7 1472.47 184.7C1476.88 169.6 1485.01 156.5 1494.33 144.2C1511.39 121.9 1532.37 104.2 1556.78 90.6C1575.41 80.3 1595.02 73.1 1615.8 69.7C1629.33 67.4 1643.06 67 1656.98 68.2C1678.06 70 1698.74 73.4 1718.84 80.2C1742.77 88.2 1763.75 101.5 1782.67 118.3C1793.45 127.9 1803.55 138.3 1813.36 148.8C1824.24 160.4 1834.24 172.7 1844.53 184.7C1843.85 184.7 1842.87 184.7 1841.89 184.7Z" fill="url(#paint12_linear_4_22)"/>
<path d="M794.509 184.7C794.509 168.8 787.843 155.3 779.705 142.4C766.372 121.4 748.136 105.9 726.567 94C709.409 84.5 691.174 78.2 671.86 75.5C651.859 72.7 632.055 74.3 612.349 78.5C589.015 83.5 566.367 90.4 545.288 101.9C530.386 110.1 516.856 120.3 504.209 131.7C496.17 139 488.13 146.3 481.071 154.5C472.149 164.8 461.561 173.5 453.62 184.6C452.639 184.6 451.659 184.6 450.678 184.6C453.62 181.1 456.463 177.5 459.6 174.1C469.404 163.7 479.306 153.4 489.209 143.1C520.974 109.9 558.916 87.9 603.721 78.1C623.721 73.7 643.82 70.9 664.212 72.5C694.115 74.8 721.076 85.7 745.391 103.4C758.43 112.9 769.901 124 779.019 137.5C788.039 150.7 795.098 164.6 796.666 180.9C796.764 182.2 797.255 183.5 797.549 184.7C796.47 184.7 795.49 184.7 794.509 184.7Z" fill="url(#paint13_linear_4_22)"/>
<path d="M1835.02 184.7C1828.94 177.7 1822.87 170.5 1816.59 163.6C1807.67 153.7 1798.55 144.1 1788.75 135.2C1762.47 111.1 1732.57 94.5 1697.76 87.3C1679.92 83.6 1661.98 80.5 1643.84 80.6C1619.23 80.8 1595.61 86.7 1573.25 97.3C1552.27 107.3 1533.45 120.4 1517.17 137.1C1503.74 150.9 1492.86 166.7 1485.31 184.7C1484.62 184.7 1484.03 184.7 1483.35 184.7C1489.72 168.6 1499.23 154.6 1510.51 141.6C1527.27 122.4 1547.27 107.7 1569.92 96.6C1589.72 86.9 1610.41 80.9 1632.47 79.2C1660.21 77 1687.08 81.7 1713.55 89.2C1739.82 96.6 1762.96 110 1783.65 128C1797.96 140.3 1811.1 153.8 1823.26 168.2C1827.96 173.8 1833.06 179.2 1837.96 184.7C1836.98 184.7 1836 184.7 1835.02 184.7Z" fill="url(#paint14_linear_4_22)"/>
<path d="M1828.16 184.7C1814.14 169.1 1800.12 153.5 1783.84 140.1C1773.75 131.7 1763.16 124.1 1751.79 117.7C1728.55 104.8 1703.35 98.1 1677.27 94.2C1661.78 91.9 1646.39 90.5 1630.8 92.4C1612.96 94.6 1595.7 99.1 1579.33 106.7C1555.7 117.5 1535.02 132.5 1517.86 152.2C1509.43 162 1501.68 172.4 1496.88 184.7C1496.19 184.7 1495.6 184.7 1494.92 184.7C1498.74 173.8 1505.21 164.5 1512.27 155.7C1530.31 133.3 1552.47 116.3 1578.45 104.6C1595.8 96.8 1613.84 91.9 1632.86 90.2C1667.76 87.3 1701.1 94.6 1733.45 106.7C1755.12 114.8 1773.94 128.2 1791.3 143.8C1804.24 155.4 1815.81 168.5 1827.77 181C1828.75 182.1 1830.02 183 1829.92 184.7C1829.43 184.7 1828.85 184.7 1828.16 184.7Z" fill="url(#paint15_linear_4_22)"/>
<path d="M784.705 184.7C784.607 175.2 780.98 166.6 776.96 158.4C771.274 146.8 763.528 136.6 754.312 127.6C731.567 105.2 704.507 91.7 673.33 86.3C647.251 81.8 622.055 85.7 596.858 92.3C565.877 100.4 537.445 113.6 512.248 133.7C499.797 143.6 488.914 155.2 477.738 166.6C471.855 172.6 466.169 178.7 460.384 184.7C459.404 184.7 458.424 184.7 457.443 184.7C471.561 169.8 485.679 154.9 500.875 141.1C511.366 131.6 522.347 123 534.504 115.8C551.759 105.6 569.995 97.7 589.211 92.3C602.152 88.7 615.29 85.2 628.623 83.5C646.467 81.2 664.212 81.8 681.86 85.8C712.841 92.7 739.312 107.7 760.685 131.3C773.921 145.9 784.117 162.5 786.862 182.9C786.96 183.5 787.352 184.1 787.646 184.7C786.666 184.7 785.686 184.7 784.705 184.7Z" fill="url(#paint16_linear_4_22)"/>
<path d="M774.901 184.7C772.45 169.8 765.293 157.2 756.273 145.5C744.606 130.3 729.704 118.9 712.841 110.2C699.213 103.1 684.605 98.7 669.409 96.2C636.467 90.9 605.29 98.7 574.603 109.5C548.229 118.8 524.209 132.2 502.934 150.8C490.679 161.5 479.11 172.8 468.13 184.8C467.149 184.8 466.169 184.8 465.188 184.8C474.012 175.3 483.032 166 492.542 157.3C502.15 148.4 512.248 140 523.033 132.8C544.7 118.3 568.328 108.4 593.23 101.4C604.603 98.2 616.074 95.2 627.839 93.7C641.271 92 654.604 92.3 668.134 94.2C686.076 96.7 702.939 102.4 718.625 111.4C744.018 125.9 763.822 145.7 774.117 174C775.391 177.5 776.96 181.1 776.764 185C776.274 184.7 775.587 184.7 774.901 184.7Z" fill="url(#paint17_linear_4_22)"/>
<path d="M1820.32 184.7C1807.96 171.5 1795.51 158.6 1781.39 147.3C1763.55 133.2 1743.94 122.8 1722.77 115.5C1706.78 110 1690.22 106.6 1673.45 104.2C1627.08 97.5 1585.61 109.5 1548.45 137.9C1532.96 149.8 1520.31 164.3 1510.21 181C1509.53 182.1 1509.23 183.4 1508.84 184.7C1507.86 184.7 1506.88 184.7 1505.9 184.7C1513.74 170.2 1523.55 157.4 1535.51 146.3C1555.21 127.9 1577.76 114.7 1603.55 107.1C1620.21 102.2 1637.18 99.7 1654.53 100.3C1673.55 101 1692.18 104.8 1710.51 109.7C1741.49 118 1769.24 132.6 1793.16 154.5C1803.75 164.1 1813.65 174.3 1823.36 184.8C1822.28 184.7 1821.3 184.7 1820.32 184.7Z" fill="url(#paint18_linear_4_22)"/>
<path d="M764.117 184.7C763.626 176.5 759.607 169.5 755.587 162.8C735.587 130.4 705.488 113.2 669.311 106.3C641.957 101.1 615.192 105.7 588.917 114.4C574.21 119.3 559.602 124.4 545.778 131.5C530.974 139.1 516.758 147.7 504.013 158.7C494.405 167 484.208 174.7 475.973 184.6C474.993 184.6 474.012 184.6 473.032 184.6C483.718 172.3 496.17 161.9 508.915 152.1C540.19 128 576.171 114.3 614.015 105.4C626.172 102.6 638.722 101.3 651.271 102.2C681.174 104.3 708.527 113.1 732.057 132.8C746.273 144.7 757.45 158.7 764.215 176.2C765.293 179 766.077 181.8 766.96 184.6C766.077 184.7 765.097 184.7 764.117 184.7Z" fill="url(#paint19_linear_4_22)"/>
<path d="M1812.47 184.7C1802.67 173.4 1791.2 163.9 1779.34 155C1752.28 134.6 1721.39 123.6 1688.65 117.1C1674.92 114.4 1661.1 112.9 1647.08 113.1C1626.78 113.4 1607.57 118.2 1589.04 126.2C1568.94 134.9 1551.19 147.2 1536.19 163.5C1530.21 170 1524.62 176.9 1520.51 184.8C1519.82 184.8 1519.23 184.8 1518.55 184.8C1524.53 172.3 1533.64 162.1 1543.64 153.1C1555.7 142.2 1569.13 133.2 1583.84 126.3C1599.43 119 1615.61 114.1 1632.76 112.1C1644.04 110.8 1655.31 110.8 1666.39 111.5C1680.61 112.5 1694.53 116 1708.35 119.5C1736.1 126.7 1761.79 138.3 1784.43 156.2C1795.41 164.9 1806.3 173.8 1815.41 184.7C1814.43 184.7 1813.45 184.7 1812.47 184.7Z" fill="url(#paint20_linear_4_22)"/>
<path d="M754.312 184.7C740.391 147.9 712.253 128.2 676.173 118.1C662.252 114.2 647.938 113.3 633.722 114.3C615.976 115.5 599.015 120.5 582.25 126.3C550.484 137.2 521.366 152.8 495.581 174.6C491.856 177.7 487.542 180.3 484.895 184.6C483.914 184.6 482.934 184.6 481.953 184.6C491.071 174.4 501.954 166.4 513.033 158.6C541.465 138.6 572.936 125.6 606.172 116.6C621.957 112.3 638.231 110.7 654.506 112.1C688.331 115.1 717.547 128.4 740.194 154.8C747.548 163.4 753.038 173.4 756.371 184.5C755.685 184.7 754.999 184.7 754.312 184.7Z" fill="url(#paint21_linear_4_22)"/>
<path d="M1803.65 184.7C1793.06 174.1 1781.1 165.4 1768.55 157.5C1741.39 140.2 1711.2 131 1680.12 125.4C1638.06 117.9 1599.04 127.2 1564.13 152.3C1552.57 160.6 1542.57 170.8 1534.13 182.5C1533.64 183.1 1533.55 184 1533.25 184.8C1532.27 184.8 1531.29 184.8 1530.31 184.8C1546 161.3 1567.27 144.9 1592.76 133.7C1615.41 123.7 1639.14 119.8 1663.65 121.4C1681 122.5 1697.86 126.8 1714.53 131.7C1740.41 139.3 1764.53 150.5 1786 167C1793.26 172.5 1800.51 178.1 1806.69 184.9C1805.61 184.7 1804.63 184.7 1803.65 184.7Z" fill="url(#paint22_linear_4_22)"/>
<path d="M742.646 184.7C740.979 176.3 735.979 169.7 730.881 163.4C713.625 142 690.88 130.3 664.507 125.4C651.173 122.9 637.643 123 623.917 124.7C600.485 127.6 579.112 136.5 557.739 145.7C537.543 154.4 519.013 165.9 501.366 178.8C499.013 180.5 496.954 182.6 494.797 184.6C493.816 184.6 492.836 184.6 491.856 184.6C497.248 178.3 504.405 174.2 510.974 169.5C533.523 153.5 558.426 142.2 584.211 132.6C597.25 127.8 610.486 124 624.211 122.2C647.153 119.3 669.507 121.8 691.076 130.9C704.507 136.6 716.37 144.6 726.567 154.9C734.9 163.3 741.371 173.2 745.685 184.5C744.606 184.7 743.626 184.7 742.646 184.7Z" fill="url(#paint23_linear_4_22)"/>
<path d="M308.616 184.7C315.479 182.8 322.538 182.5 329.499 180.9C356.853 174.6 380.971 161.9 402.05 143.1C417.834 129 432.148 113.5 445.58 97.1C462.737 76.3 479.012 54.7 496.464 34.1C505.483 23.5 514.895 13.3 523.915 2.70001C524.503 2.00001 525.19 1.70001 526.366 2.20001C524.798 5.10001 522.837 7.50001 520.68 9.80001C506.072 25 492.836 41.5 479.699 58C467.345 73.5 454.6 88.7 442.345 104.2C433.227 115.7 422.835 126 412.54 136.3C388.03 160.7 359.5 177.4 325.381 183.8C324.989 183.9 324.597 184.4 324.205 184.6C319.009 184.7 313.813 184.7 308.616 184.7Z" fill="url(#paint24_linear_4_22)"/>
<path d="M390.873 184.7C410.579 172.9 426.756 156.9 442.051 140C454.992 125.7 466.953 110.5 479.306 95.7C484.012 90.1 488.816 84.4 493.718 78.9C512.542 57.8 532.151 37.6 556.171 22.5C570.877 13.2 586.662 6.19999 603.623 2.19999C605.878 1.69999 608.035 1.59999 611.27 2.29999C598.231 5.49999 586.368 9.29998 574.995 14.7C562.74 20.5 551.367 27.7 540.68 36.2C522.935 50.3 507.248 66.5 492.64 83.9C480.287 98.7 467.443 113.2 455.188 128.1C446.266 138.9 436.56 148.8 426.756 158.8C418.325 167.4 409.207 174.9 399.305 181.7C398.03 182.6 396.265 183.1 395.677 184.8C394.108 184.7 392.54 184.7 390.873 184.7Z" fill="url(#paint25_linear_4_22)"/>
<path d="M1881.1 180.7C1872.77 173.7 1865.81 165.4 1858.75 157.2C1849.53 146.3 1840.71 135.2 1831.69 124.2C1822.57 113.1 1813.85 101.6 1804.24 90.8C1792.28 77.4 1780.71 63.5 1767.18 51.5C1755.61 41.2 1743.84 31.5 1730.61 23.7C1713.45 13.5 1695.02 6.80001 1675.31 3.90001C1672.47 3.50001 1669.72 2.50001 1666.78 2.50001C1676 0.900006 1684.82 3.2 1693.55 5.6C1718.65 12.5 1740.41 25.5 1760.22 42.5C1777.18 57.1 1791.98 73.6 1806.59 90.5C1820.61 106.8 1833.85 123.6 1847.47 140.2C1857.18 152 1866.79 163.8 1877.57 174.6C1878.75 175.8 1880.02 176.8 1881.2 177.8C1881.1 178.7 1881.1 179.7 1881.1 180.7Z" fill="url(#paint26_linear_4_22)"/>
<path d="M1792.86 184.7C1786.49 177.9 1778.55 173.4 1770.81 168.6C1742.77 151.4 1712.08 140.9 1680.02 135.3C1651.1 130.2 1622.86 133.6 1595.8 145.9C1578.35 153.9 1563.15 164.9 1550.11 179.1C1548.55 180.8 1547.37 182.8 1546.09 184.7C1545.11 184.7 1544.13 184.7 1543.15 184.7C1565.41 155.9 1595.12 139.8 1630.02 133.2C1657.27 128 1683.94 132.5 1710.22 140.3C1736.29 148 1761.2 158.5 1783.55 174.5C1787.86 177.6 1792.67 180.2 1795.9 184.7C1794.83 184.7 1793.85 184.7 1792.86 184.7Z" fill="url(#paint27_linear_4_22)"/>
<path d="M1409.82 184.7C1410.99 170.1 1415.21 156.2 1421.09 143C1430.31 122.4 1442.66 103.9 1457.47 87C1479.33 61.9 1504.53 41.2 1533.45 25C1552.17 14.5 1571.98 6.80002 1592.96 2.30002C1597.17 1.40002 1601.39 2.00002 1605.61 2.10002C1593.35 3.90002 1581.39 6.70002 1569.72 10.8C1543.06 20.3 1518.94 34.3 1496.78 52.1C1485.51 61.1 1474.92 70.9 1465.11 81.4C1451.48 96.1 1439.62 112.1 1429.92 129.8C1420.9 146.3 1414.82 163.6 1411.88 182.2C1411.78 183 1411.78 183.9 1411.78 184.7C1411.09 184.7 1410.5 184.7 1409.82 184.7Z" fill="url(#paint28_linear_4_22)"/>
<path d="M336.95 184.7C344.107 182.1 351.264 179.6 358.421 176.9C374.01 171 387.638 161.9 400.579 151.5C421.07 135 437.639 114.6 454.306 94.3C469.012 76.3 483.13 57.8 498.424 40.3C509.013 28.2 519.503 16 530.778 4.6C532.249 3.1 533.523 1.1 536.268 2.3C519.896 17.5 505.679 34.7 491.365 51.7C478.914 66.5 467.345 81.9 455.188 96.9C448.521 105.2 441.462 113.1 434.403 121.2C426.952 129.8 419.109 137.8 410.677 145.4C392.736 161.9 372.637 174.7 349.598 182.6C347.931 183.2 346.068 183.3 344.696 184.7C342.245 184.7 339.597 184.7 336.95 184.7Z" fill="url(#paint29_linear_4_22)"/>
<path d="M380.089 184.7C390.677 178.6 400.971 172 410.285 164C420.384 155.3 429.697 146.1 438.619 136.1C447.933 125.7 456.757 115 465.679 104.3C476.169 91.7 486.365 78.9 497.248 66.7C508.719 53.9 520.386 41.2 533.523 30.1C545.582 20 557.936 10.4 571.955 3.29998C573.818 2.29998 575.681 1.19998 578.818 2.29998C569.406 6.99998 560.877 11.7 552.739 17.5C544.21 23.6 536.465 30.5 528.523 37.3C518.425 46 509.601 56 500.777 65.8C489.797 78.1 479.502 91.1 468.816 103.7C460.188 114 451.365 124.1 442.737 134.4C437.737 140.5 432.149 146.1 426.658 151.7C415.187 163.2 402.834 173.6 388.716 181.7C387.344 182.5 386.167 183.6 384.795 184.6C383.324 184.7 381.755 184.7 380.089 184.7Z" fill="url(#paint30_linear_4_22)"/>
<path d="M731.861 184.7C717.939 156.6 694.507 141.1 664.997 135.2C633.722 128.9 603.721 135 574.701 147.5C554.406 156.2 534.7 165.8 516.072 177.9C512.837 180 509.699 182.4 506.562 184.7C505.581 184.7 504.601 184.7 503.621 184.7C511.66 177.1 521.366 171.9 530.778 166.6C551.465 155 572.838 144.9 595.387 137.6C606.858 133.9 618.623 131.9 630.682 130.8C653.036 128.8 674.115 132.9 693.821 143.1C710.88 151.9 724.508 164.6 733.136 182.3C733.528 183 733.626 183.9 733.822 184.6C733.136 184.7 732.449 184.7 731.861 184.7Z" fill="url(#paint31_linear_4_22)"/>
<path d="M353.617 184.7C366.657 179.2 379.598 173.5 391.265 165.2C407.834 153.4 422.246 139.1 435.874 123.9C449.306 108.9 461.757 93 474.502 77.4C487.836 61 501.366 44.8 515.484 29.1C524.013 19.6 533.425 10.9 543.327 2.80003C544.112 2.20003 544.896 1.70003 546.465 2.20003C542.445 6.00003 538.915 9.70003 534.994 13C523.915 22.3 514.797 33.5 505.091 44.2C496.267 53.9 488.032 64.1 479.699 74.2C469.698 86.3 459.796 98.5 449.894 110.7C437.639 125.7 424.599 139.9 410.187 152.9C397.442 164.4 383.324 173.7 367.931 181C365.48 182.2 362.539 182.4 360.578 184.7C358.225 184.7 355.97 184.7 353.617 184.7Z" fill="url(#paint32_linear_4_22)"/>
<path d="M368.324 184.7C376.461 179.3 385.677 175.7 393.716 170C411.756 157 427.344 141.6 441.855 124.8C453.62 111.3 464.698 97.4 476.071 83.6C491.464 64.8 506.954 46.2 524.307 29.2C533.719 19.9 543.622 11.1 554.7 3.80003C556.171 2.90003 557.445 1.20004 559.798 2.40004C552.837 7.90004 545.582 12.9 539.014 18.7C529.504 27.2 519.994 35.7 511.66 45.5C505.581 52.6 499.111 59.3 493.13 66.5C483.914 77.8 474.404 88.8 465.09 100.1C457.149 109.7 449.6 119.6 441.364 128.9C426.07 146.1 409.991 162.4 390.481 174.7C384.795 178.3 378.912 181.4 373.226 184.8C371.559 184.7 369.99 184.7 368.324 184.7Z" fill="url(#paint33_linear_4_22)"/>
<path d="M860.197 184.7C865.982 156.7 858.138 131.7 844.805 107.6C835.197 90.2 823.039 74.7 809.02 60.9C793.235 45.4 775.587 32.1 756.175 21.5C741.273 13.3 725.684 7.00001 708.821 2.30001C714.41 0.800012 718.92 3.10001 723.429 4.70001C746.763 12.7 768.136 24.6 787.647 39.7C811.765 58.4 832.157 80.5 847.256 107.5C855.981 123.1 861.864 139.5 863.923 157.2C865.001 166.3 864.707 175.7 862.256 184.7C861.472 184.7 860.785 184.7 860.197 184.7Z" fill="url(#paint34_linear_4_22)"/>
<path d="M1400.01 184.7C1400.41 169.1 1404.82 154.5 1410.7 140.3C1418.54 121.3 1429.33 104 1442.07 88.1C1458.94 67 1478.35 48.5 1500.02 32.5C1515.31 21.2 1531.68 11.8 1548.84 3.8C1551.98 2.3 1553.45 2 1557.86 2.1C1552.37 4.5 1547.86 6.4 1543.45 8.6C1522.17 19.2 1502.56 32.2 1484.33 47.7C1456.29 71.5 1432.86 99 1416.58 132.3C1408.54 148.8 1402.76 166.1 1401.88 184.7C1401.29 184.7 1400.7 184.7 1400.01 184.7Z" fill="url(#paint35_linear_4_22)"/>
<path d="M1780.12 184.7C1776.39 180.9 1771.59 178.7 1767.08 176.2C1743.84 162.9 1718.84 153.9 1692.96 147.6C1656.19 138.6 1620.7 142.6 1587.47 161.8C1576.98 167.8 1567.17 175 1559.62 184.8C1558.64 184.8 1557.66 184.8 1556.68 184.8C1568.64 170.6 1583.55 160.6 1600.21 153C1612.27 147.5 1625.02 144.3 1638.06 142.3C1652.96 140 1667.86 140.6 1682.57 143.4C1711.49 149 1739.04 158.8 1765.02 172.7C1771.59 176.2 1778.16 179.8 1783.94 184.7C1782.77 184.7 1781.49 184.7 1780.12 184.7Z" fill="url(#paint36_linear_4_22)"/>
<path d="M1881.1 173.7C1871.98 165.7 1864.53 156.1 1856.69 146.8C1845.32 133.3 1834.43 119.3 1823.26 105.6C1813.45 93.6 1803.65 81.4 1793.45 69.7C1782.28 56.8 1770.41 44.6 1757.57 33.4C1743.35 21.1 1727.86 10.9 1711 2.8C1710.8 2.7 1710.61 2.3 1710.41 2C1712.27 1.2 1713.84 1.9 1715.51 2.7C1730.51 9.7 1743.94 19.3 1756.59 29.9C1769.73 40.9 1781.59 53 1792.86 65.9C1806.2 81.2 1818.94 96.9 1831.69 112.8C1844.63 128.9 1857.08 145.3 1871.3 160.4C1874.53 163.8 1877.18 167.9 1881.1 170.7C1881.1 171.7 1881.1 172.7 1881.1 173.7Z" fill="url(#paint37_linear_4_22)"/>
<path d="M869.021 184.7C870.197 177.9 871.962 171.2 871.962 164.2C871.864 143.2 865.589 123.9 855.981 105.7C844.903 84.7 830.197 66.5 813.333 50C795.98 33.1 776.764 18.8 755.293 7.70001C751.959 6.00001 748.626 4.30001 744.999 2.40001C747.548 1.00001 749.018 2.60001 750.685 3.40001C770.293 13 788.333 25 804.804 39.4C828.432 60.1 848.628 83.6 861.962 112.6C870.001 130.2 874.707 148.6 873.825 168.1C873.531 173.7 872.55 179.2 870.982 184.6C870.295 184.7 869.609 184.7 869.021 184.7Z" fill="url(#paint38_linear_4_22)"/>
<path d="M1390.21 184.7C1390.01 167.4 1395.01 151.2 1401.29 135.4C1409.42 114.9 1421.19 96.5 1434.92 79.4C1447.66 63.5 1461.78 49 1477.37 35.8C1491.19 24.2 1505.8 13.8 1521.19 4.60002C1523.35 3.30002 1525.41 1.50002 1529.53 2.00002C1524.13 5.30002 1519.53 8.10002 1514.92 10.9C1499.62 20.1 1485.8 31.2 1472.47 43C1452.17 61 1434.52 81.4 1419.92 104.4C1405.9 126.4 1396.09 150.1 1392.46 176.2C1392.07 179 1392.37 181.8 1392.37 184.6C1391.48 184.7 1390.9 184.7 1390.21 184.7Z" fill="url(#paint39_linear_4_22)"/>
<path d="M720.096 184.7C707.057 162.7 687.644 149.7 663.232 144C655.193 142.1 646.859 141 638.624 141.2C626.466 141.4 614.309 142.9 602.642 146.2C574.21 154.2 548.328 168.2 523.033 183.3C522.347 183.7 521.758 184.3 521.17 184.8C519.896 184.8 518.523 184.8 517.248 184.8C530.778 175.2 545.484 167.8 560.289 160.6C575.681 153.1 591.27 146.3 608.133 142.6C635.584 136.5 662.252 137.9 687.644 151C700.782 157.8 711.272 167.7 719.704 179.9C720.782 181.4 721.763 182.9 721.959 184.8C721.371 184.7 720.684 184.7 720.096 184.7Z" fill="url(#paint40_linear_4_22)"/>
<path d="M877.845 184.7C884.511 162.3 881.472 140.5 873.433 119C865.295 97.1 852.844 77.9 837.942 60.2C818.432 37.1 795.686 17.9 769.215 2.20003C772.842 1.40003 774.999 3.40003 777.254 4.70003C799.51 18.5 819.314 35.4 836.569 55.1C857.55 79 874.119 105.6 881.08 137.5C884.511 153.4 884.511 169.1 879.805 184.8C879.119 184.7 878.433 184.7 877.845 184.7Z" fill="url(#paint41_linear_4_22)"/>
<path d="M1380.4 184.7C1379.91 162.9 1386.19 142.7 1395.11 123.3C1405.7 100.1 1420.11 79.5 1436.78 60.3C1455.5 38.8 1476.58 20.1 1500.02 4.10001C1501.78 2.90001 1503.35 1.50001 1506.39 2.10001C1500.8 6.10001 1495.7 9.90002 1490.41 13.5C1471.98 26.4 1455.8 42 1440.6 58.6C1424.43 76.3 1410.6 95.9 1399.92 117.5C1391.68 134.2 1385.21 151.5 1383.15 170.4C1382.66 175.2 1382.37 179.9 1382.37 184.7C1381.78 184.7 1381.09 184.7 1380.4 184.7Z" fill="url(#paint42_linear_4_22)"/>
<path d="M1881.1 165.8C1871.79 158 1864.34 148.3 1856.69 139C1845.71 125.6 1834.92 112 1824.04 98.5C1815.22 87.6 1806.3 76.7 1797.47 65.7C1794.92 62.5 1792.08 59.4 1789.24 56.6C1780.81 48.1 1773.45 38.7 1764.43 30.7C1753.35 20.7 1742.28 11 1729.53 2.7C1732.37 2.1 1732.37 2.1 1733.94 3.1C1743.26 9.2 1751.59 16.5 1760.12 23.7C1770.71 32.6 1779.73 43 1788.94 53.2C1799.53 65 1809.73 77.1 1819.53 89.6C1831.49 104.8 1843.65 119.7 1855.81 134.7C1862.77 143.2 1869.53 151.9 1877.38 159.5C1878.55 160.6 1879.83 161.7 1881 162.7C1881.1 163.8 1881.1 164.8 1881.1 165.8Z" fill="url(#paint43_linear_4_22)"/>
<path d="M1370.6 184.7C1369.72 161.8 1375.89 140.4 1385.01 119.7C1395.99 94.8 1411.19 72.8 1428.94 52.4C1444.23 34.9 1460.8 19 1479.03 4.80003C1480.8 3.40003 1482.56 1.10003 1485.9 2.30003C1467.56 15.6 1451.48 30.9 1436.29 47.2C1420.99 63.6 1407.66 81.7 1396.48 101.4C1387.56 117.2 1380.4 133.8 1376.19 151.6C1373.54 162.5 1372.07 173.6 1372.56 184.9C1371.97 184.7 1371.29 184.7 1370.6 184.7Z" fill="url(#paint44_linear_4_22)"/>
<path d="M886.668 184.7C890.002 175.6 891.276 166 891.276 156.6C891.276 146.3 889.708 136 886.864 126C879.413 100.2 866.276 77.7 849.609 57.1C833.628 37.3 815.49 20 794.804 5.39999C793.627 4.59999 792.647 3.49999 791.372 2.39999C794.411 0.999986 795.98 3.49999 797.647 4.69999C813.235 16.1 827.745 28.9 840.687 43.3C863.433 68.6 881.766 96.6 890.1 130.3C894.61 148.5 894.806 166.7 888.629 184.7C887.943 184.7 887.257 184.7 886.668 184.7Z" fill="url(#paint45_linear_4_22)"/>
<path d="M1360.8 184.7C1359.42 150.1 1371.09 119.3 1388.05 90.1C1400.01 69.6 1414.62 51.1 1430.6 33.6C1439.92 23.4 1450.5 14.6 1460.31 5.00002C1461.68 3.60002 1463.35 2.10002 1466.98 1.90002C1463.25 5.30002 1460.41 8.20003 1457.27 10.8C1444.33 21.7 1432.76 33.9 1421.78 46.7C1409.23 61.3 1398.05 76.8 1388.54 93.6C1376.68 114.5 1367.76 136.5 1363.93 160.5C1362.66 168.5 1362.86 176.6 1362.86 184.7C1362.17 184.7 1361.48 184.7 1360.8 184.7Z" fill="url(#paint46_linear_4_22)"/>
<path d="M895.492 184.7C900.492 170.9 901.375 156.6 900.198 142.2C899.12 128.2 894.904 114.8 889.413 101.8C879.707 79 866.08 58.9 849.903 40.4C838.334 27.1 825.687 15 812.059 4.10002C811.471 3.60002 810.686 3.20002 811.078 1.90002C815.392 2.60002 818.039 6.00002 820.883 8.60002C833.824 20 845.883 32.2 856.864 45.5C867.746 58.7 877.354 72.8 885.296 87.9C897.747 111.8 904.512 137.2 902.159 164.6C901.571 171.5 899.512 178.1 897.355 184.7C896.767 184.7 896.08 184.7 895.492 184.7Z" fill="url(#paint47_linear_4_22)"/>
<path d="M1763.55 184.7C1758.16 179.3 1750.8 177.5 1744.24 174.6C1725.41 166.4 1706.29 159.1 1686 155.4C1648.74 148.6 1614.04 154.8 1582.76 177.2C1579.82 179.3 1576.39 181.2 1574.53 184.7C1573.55 184.7 1572.57 184.7 1571.59 184.7C1577.57 177.3 1585.51 172.3 1593.45 167.7C1608.74 158.9 1625.21 153.9 1642.76 151.7C1672.57 148 1700.41 155.2 1727.86 165.6C1740.41 170.3 1752.67 175.6 1764.33 182.1C1765.71 182.9 1767.08 183.8 1768.45 184.7C1766.79 184.7 1765.12 184.7 1763.55 184.7Z" fill="url(#paint48_linear_4_22)"/>
<path d="M904.218 184.7C905.296 177.6 908.434 171 909.316 163.7C910.786 150.8 910.492 138.1 907.747 125.4C901.08 94.9 886.178 68.7 867.452 44.4C857.648 31.7 846.569 20.4 835.491 9C833.236 6.7 829.902 5.5 828.138 2C831.667 2 833.628 4.5 835.491 6.3C853.138 23.3 869.413 41.4 882.747 62.1C895.884 82.6 906.08 104.4 910.394 128.6C913.728 147.6 912.649 166.3 906.08 184.6C905.59 184.7 904.904 184.7 904.218 184.7Z" fill="url(#paint49_linear_4_22)"/>
<path d="M1350.99 184.7C1349.72 161.9 1353.84 140 1362.07 118.9C1370.99 95.7 1383.54 74.5 1398.35 54.7C1410.41 38.6 1423.64 23.7 1437.86 9.70002C1440.9 6.70002 1444.33 4.20002 1447.96 1.90002C1446.78 5.50002 1443.54 6.90003 1441.19 9.30003C1432.27 18.5 1423.15 27.5 1414.82 37.2C1403.84 50 1393.84 63.6 1384.91 78C1369.91 102.1 1358.93 127.8 1354.13 156C1352.56 165.4 1352.76 175.1 1352.95 184.7C1352.36 184.7 1351.68 184.7 1350.99 184.7Z" fill="url(#paint50_linear_4_22)"/>
<path d="M1342.17 184.7C1340.21 176.7 1340.7 168.5 1341.38 160.5C1342.95 142 1348.15 124.3 1355.31 107.2C1362.95 88.9 1372.66 71.7 1383.93 55.5C1396.68 37.3 1410.8 20.3 1426.78 4.90004C1428.05 3.70004 1428.94 1.40004 1431.48 2.10004C1431.29 3.90004 1429.92 4.60004 1428.94 5.60004C1410.8 23 1394.82 42.4 1380.99 63.5C1364.33 88.9 1350.99 116.1 1345.4 146.4C1343.05 159 1341.78 171.8 1344.03 184.7C1343.54 184.7 1342.85 184.7 1342.17 184.7Z" fill="url(#paint51_linear_4_22)"/>
<path d="M1881.1 158.8C1873.36 152.2 1867.28 144 1860.81 136.2C1848.75 121.6 1837.18 106.5 1825.32 91.7C1815.12 78.9 1805.12 65.9 1794.34 53.6C1782.47 40.1 1771.1 26 1757.18 14.4C1752.57 10.6 1748.26 6.20004 1743.35 1.60004C1748.75 1.80004 1751 5.90004 1753.94 8.40004C1772.08 24.1 1787.47 42.3 1802.86 60.7C1821.59 83 1839.24 106.2 1857.47 128.9C1864.93 138.2 1872.38 147.6 1881.2 155.7C1881.1 156.8 1881.1 157.8 1881.1 158.8Z" fill="url(#paint52_linear_4_22)"/>
<path d="M1332.46 184.7C1331.38 178.3 1331.38 171.9 1331.48 165.5C1331.78 142.7 1337.85 121.3 1346.48 100.6C1357.56 73.9 1373.25 50.2 1390.99 27.7C1397.86 19 1405.5 10.9 1412.86 2.5C1413.25 2.1 1414.03 2.1 1415.9 1.5C1413.15 4.9 1411.39 7.5 1409.33 9.8C1391.09 29.2 1375.31 50.5 1362.17 73.7C1350.01 95.1 1340.31 117.6 1335.89 142C1333.64 154.6 1332.07 167.4 1334.23 180.3C1334.52 181.7 1334.33 183.3 1334.33 184.8C1333.74 184.7 1333.05 184.7 1332.46 184.7Z" fill="url(#paint53_linear_4_22)"/>
<path d="M1323.64 184.7C1320.7 174.7 1321.09 164.3 1321.87 154.2C1322.95 140.6 1325.7 127.2 1329.91 114.2C1340.21 82.9 1356.48 54.8 1376.09 28.6C1382.46 20.1 1389.03 11.7 1396.39 3.99999C1397.17 3.19999 1398.05 2.59999 1399.13 1.79999C1400.21 4.09999 1398.44 4.69999 1397.66 5.69999C1379.72 25.5 1364.52 47.2 1351.48 70.5C1339.52 91.7 1330.7 114.2 1325.99 138.2C1323.05 153 1322.85 168 1324.82 182.9C1324.91 183.5 1325.31 184.1 1325.6 184.7C1324.91 184.7 1324.23 184.7 1323.64 184.7Z" fill="url(#paint54_linear_4_22)"/>
<path d="M912.061 184.7C919.414 168.2 921.081 151 919.218 133C917.257 114.5 911.277 97.3 903.335 80.9C895.884 65.3 886.472 50.8 875.884 37.2C866.864 25.5 856.864 14.6 846.373 4.29999C845.785 3.79999 845.393 3.09999 844.805 2.39999C846.863 1.29999 847.746 2.79999 848.726 3.79999C857.648 12.5 866.178 21.6 873.923 31.4C886.668 47.5 897.943 64.6 906.669 83.4C917.355 106.3 923.532 130.1 921.767 155.6C921.179 164.1 919.414 172.5 916.081 180.5C915.492 181.9 914.806 183.2 915.002 184.8C914.022 184.7 913.041 184.7 912.061 184.7Z" fill="url(#paint55_linear_4_22)"/>
<path d="M920.885 184.7C924.61 175.2 927.748 165.7 928.924 155.4C930.395 143 929.807 130.7 927.355 118.6C921.473 89.5 908.237 63.8 891.276 39.8C882.354 27.2 872.746 15.2 861.962 4.20004C861.472 3.70004 860.589 3.20004 861.178 1.60004C865.491 3.70004 868.237 7.40004 871.08 10.7C880.884 21.9 890.1 33.6 898.237 46.1C913.826 69.8 925.787 95.2 930.395 123.5C933.728 144.4 932.356 165.3 922.846 184.8C922.257 184.7 921.571 184.7 920.885 184.7Z" fill="url(#paint56_linear_4_22)"/>
<path d="M929.708 184.7C932.454 176.6 935.983 168.8 937.552 160.3C940.885 142.5 939.807 124.9 935.493 107.5C928.63 79.9 915.493 55.4 899.512 32.2C892.355 21.8 884.119 12.3 876.276 2.39999C878.041 1.19999 878.923 2.39998 879.707 3.29998C903.433 31.6 923.924 61.9 935.003 97.9C940.101 114.6 942.552 131.7 941.277 149.1C940.395 161.5 936.866 173.3 931.669 184.6C931.081 184.7 930.395 184.7 929.708 184.7Z" fill="url(#paint57_linear_4_22)"/>
<path d="M937.552 184.7C946.964 166.9 950.591 147.8 949.219 127.8C947.846 109 942.748 91 935.395 73.6C924.512 47.9 909.218 25.1 891.865 3.50001C891.57 3.10001 891.374 2.70001 890.884 1.70001C895.198 2.40001 896.571 6.10001 898.335 8.40001C910.983 24.7 922.65 41.8 931.669 60.6C940.493 78.9 947.454 97.8 950.199 118.1C953.14 140.6 950.787 162.5 940.787 183.1C940.591 183.5 940.591 184.1 940.493 184.6C939.513 184.7 938.532 184.7 937.552 184.7Z" fill="url(#paint58_linear_4_22)"/>
<path d="M532.935 184.7C535.484 181.2 539.7 180.2 543.131 178.3C559.798 169.1 576.563 159.9 594.799 154C608.525 149.6 622.545 146.7 636.761 147.2C661.859 148 684.507 156 702.645 174.6C705.586 177.7 707.939 181.3 710.292 184.8C709.312 184.8 708.331 184.8 707.351 184.8C703.821 177.3 697.645 172 691.272 167.4C676.86 156.9 660.781 151.4 642.937 149.9C620.878 148.1 600.486 153.6 580.583 161.8C565.387 168.1 550.877 175.9 536.955 184.8C535.582 184.7 534.21 184.7 532.935 184.7Z" fill="url(#paint59_linear_4_22)"/>
<path d="M946.376 184.7C951.082 174.4 955.199 163.9 957.258 152.6C960.984 132.4 958.729 112.7 953.336 93.1C944.317 60.7 927.65 32.4 907.747 5.80002C906.963 4.70002 905.982 3.80002 905.786 1.90002C908.139 2.50002 909.414 4.30002 910.492 5.80002C929.512 31.8 945.591 59.4 954.807 90.6C959.709 107.2 962.062 124.1 960.886 141.3C959.807 156.5 955.787 171.1 948.336 184.5C947.65 184.7 947.062 184.7 946.376 184.7Z" fill="url(#paint60_linear_4_22)"/>
<path d="M954.219 184.7C961.964 172 966.278 158.1 967.945 143.4C972.553 102.5 958.042 66.7 938.63 32.3C932.846 22 926.179 12.3 919.316 2.59998C921.081 1.39998 921.571 2.49998 922.257 3.49998C929.708 13.5 936.473 24 942.552 34.9C949.709 47.7 956.082 60.9 960.788 74.8C965.297 87.9 968.533 101.2 970.102 115C972.16 133.6 970.396 151.5 964.121 168.9C962.16 174.3 959.513 179.5 957.258 184.7C956.18 184.7 955.199 184.7 954.219 184.7Z" fill="url(#paint61_linear_4_22)"/>
<path d="M963.043 184.7C969.709 172.3 975.004 159.4 977.062 145.3C978.631 134.5 979.023 123.8 978.043 112.8C975.592 86 966.18 61.6 954.317 37.9C948.729 26.7 941.964 16.2 935.003 5.80003C934.316 4.70003 933.336 3.80003 933.238 2.30003C935.003 1.20003 935.493 2.80003 936.081 3.80003C956.082 33.3 972.062 64.7 978.435 100.3C983.435 128.2 980.69 155.1 967.454 180.6C966.768 181.9 966.376 183.3 965.886 184.7C965.003 184.7 964.023 184.7 963.043 184.7Z" fill="url(#paint62_linear_4_22)"/>
<path d="M1881.1 150.9C1871.3 142.6 1863.75 132.2 1855.81 122.3C1843.26 106.8 1831.2 90.9 1818.75 75.3C1807.67 61.5 1796.69 47.7 1785.12 34.4C1776.79 24.7 1767.57 15.8 1758.84 6.49999C1757.67 5.19999 1756 4.29999 1755.41 2.39999C1757.57 1.39999 1758.45 3.19999 1759.43 4.29999C1780.51 25.1 1799.53 47.9 1817.87 71.2C1831.89 89.1 1846.1 106.8 1860.42 124.5C1866.98 132.6 1872.96 141.4 1881.1 148C1881.1 148.9 1881.1 149.9 1881.1 150.9Z" fill="url(#paint63_linear_4_22)"/>
<path d="M1881.1 143.9C1873.16 136.3 1866.4 127.7 1859.63 119.1C1846.2 102.2 1833.06 85 1819.63 68.1C1807.67 53.1 1795.71 38.2 1783.35 23.6C1777.18 16.4 1771.1 9.00001 1763.55 2.50001C1766.2 1.30001 1767.08 2.80001 1768.06 3.90001C1780.02 16.3 1791.1 29.4 1801.88 42.8C1814.24 58.3 1826.39 73.9 1838.75 89.4C1849.43 102.9 1860.02 116.4 1870.91 129.7C1874.04 133.6 1877.77 137.1 1881.2 140.9C1881.1 141.9 1881.1 142.9 1881.1 143.9Z" fill="url(#paint64_linear_4_22)"/>
<path d="M1743.94 184.7C1737.86 180.4 1730.71 178.6 1723.94 175.9C1711.49 170.7 1698.65 166.7 1685.31 164.5C1660.41 160.4 1636 161.7 1612.47 171.9C1604.53 175.3 1596.98 179.4 1590.12 184.8C1589.13 184.8 1588.15 184.8 1587.17 184.8C1592.86 178.7 1600.21 175 1607.57 171.6C1625.61 163.1 1644.72 159.4 1664.43 160.1C1685.22 160.8 1705.22 165.9 1724.43 174C1732.67 177.5 1741.39 179.7 1748.94 184.9C1747.18 184.7 1745.51 184.7 1743.94 184.7Z" fill="url(#paint65_linear_4_22)"/>
<path d="M1881.1 136C1872.77 128.7 1866.4 119.7 1859.63 111.2C1846.3 94.4 1833.26 77.4 1819.92 60.6C1809.53 47.4 1799.04 34.1 1788.55 21C1783.84 15.1 1778.75 9.60001 1773.84 3.80001C1773.45 3.30001 1772.86 3.00001 1772.96 2.70001C1776.1 5.30001 1779.83 7.60001 1782.47 10.9C1794.53 25.4 1806.39 40 1818.06 54.7C1829.73 69.4 1841.1 84.5 1852.77 99.2C1861.89 110.7 1870.61 122.6 1881.1 133C1881.1 134 1881.1 135 1881.1 136Z" fill="url(#paint66_linear_4_22)"/>
<path d="M1881.1 129C1869.24 116.1 1858.65 102.3 1847.87 88.4C1833.75 70.2 1819.53 52 1805.41 33.8C1797.47 23.6 1789.53 13.4 1780.9 3.80004C1780.61 3.50004 1780.71 2.90004 1781.2 2.10004C1816.69 41.6 1846.4 86 1881.2 126.1C1881.1 127 1881.1 128 1881.1 129Z" fill="url(#paint67_linear_4_22)"/>
<path d="M1881.1 121.1C1874.14 114.4 1868.36 106.7 1862.38 99.1C1846.2 78.3 1830.02 57.5 1813.94 36.6C1805.61 25.8 1797.47 15 1788.55 4.7C1788.06 4.1 1787.86 3.2 1787.28 2C1791 2.5 1792.28 5.5 1793.85 7.5C1812.37 31.2 1830.61 55.2 1849.14 79C1859.04 91.8 1869.34 104.3 1879.53 117C1879.93 117.5 1880.61 117.8 1881.1 118.1C1881.1 119.1 1881.1 120.1 1881.1 121.1Z" fill="url(#paint68_linear_4_22)"/>
<path d="M1881.1 113.1C1873.65 106.8 1868.16 98.8 1862.28 91.2C1845.22 69.5 1828.65 47.3 1811.79 25.4C1806.59 18.7 1801.3 12 1796 5.39999C1795.32 4.49999 1794.53 3.69999 1794.73 1.79999C1800.32 5.59999 1803.45 11.2 1807.18 16.1C1825.61 39.9 1843.94 63.8 1862.28 87.6C1868.26 95.4 1873.94 103.4 1881.1 110.1C1881.1 111.1 1881.1 112.1 1881.1 113.1Z" fill="url(#paint69_linear_4_22)"/>
<path d="M1722.37 184.7C1712.96 179.8 1702.76 177.1 1692.57 174.8C1679.53 171.9 1666.29 171.1 1652.96 171.9C1637.37 172.9 1622.17 176 1608.74 184.7C1607.47 184.7 1606.1 184.7 1604.82 184.7C1607.57 181.4 1611.59 180.3 1615.31 178.7C1627.57 173.6 1640.12 170.6 1653.45 169.6C1679.92 167.6 1704.53 173.9 1728.35 184.7C1726.29 184.7 1724.33 184.7 1722.37 184.7Z" fill="url(#paint70_linear_4_22)"/>
<path d="M1696.88 184.7C1690.9 182.1 1684.33 181.7 1678.06 180.9C1663.55 179 1649.04 180.2 1634.82 183.8C1634.23 183.9 1633.74 184.4 1633.16 184.7C1631.19 184.7 1629.23 184.7 1627.27 184.7C1633.65 180.7 1641 180 1648.06 178.9C1667.37 175.9 1686.29 178.7 1705.02 184.1C1705.31 184.2 1705.51 184.5 1705.71 184.7C1702.76 184.7 1699.82 184.7 1696.88 184.7Z" fill="url(#paint71_linear_4_22)"/>
<defs>
<linearGradient id="paint0_linear_4_22" x1="357.002" y1="511.5" x2="-146.186" y2="380.707" gradientUnits="userSpaceOnUse">
<stop stop-color="#6549C0" stop-opacity="0.39"/>
<stop offset="0.992923" stop-color="#301D73" stop-opacity="0.43"/>
</linearGradient>
<linearGradient id="paint1_linear_4_22" x1="1735.57" y1="493.547" x2="1286.72" y2="384.355" gradientUnits="userSpaceOnUse">
<stop stop-color="#6549C0" stop-opacity="0.39"/>
<stop offset="0.992923" stop-color="#301D73" stop-opacity="0.43"/>
</linearGradient>
<linearGradient id="paint2_linear_4_22" x1="712.956" y1="499.899" x2="267.886" y2="395.109" gradientUnits="userSpaceOnUse">
<stop stop-color="#6549C0" stop-opacity="0.39"/>
<stop offset="0.992923" stop-color="#301D73" stop-opacity="0.43"/>
</linearGradient>
<linearGradient id="paint3_linear_4_22" x1="709.516" y1="480.616" x2="284.23" y2="378.484" gradientUnits="userSpaceOnUse">
<stop stop-color="#6549C0" stop-opacity="0.39"/>
<stop offset="0.992923" stop-color="#301D73" stop-opacity="0.43"/>
</linearGradient>
<linearGradient id="paint4_linear_4_22" x1="1734.19" y1="471.963" x2="1304.13" y2="363.813" gradientUnits="userSpaceOnUse">
<stop stop-color="#6549C0" stop-opacity="0.39"/>
<stop offset="0.992923" stop-color="#301D73" stop-opacity="0.43"/>
</linearGradient>
<linearGradient id="paint5_linear_4_22" x1="705.793" y1="461.223" x2="299.381" y2="361.092" gradientUnits="userSpaceOnUse">
<stop stop-color="#6549C0" stop-opacity="0.39"/>
<stop offset="0.992923" stop-color="#301D73" stop-opacity="0.43"/>
</linearGradient>
<linearGradient id="paint6_linear_4_22" x1="1732.53" y1="452.067" x2="1320.38" y2="344.909" gradientUnits="userSpaceOnUse">
<stop stop-color="#6549C0" stop-opacity="0.39"/>
<stop offset="0.992923" stop-color="#301D73" stop-opacity="0.43"/>
</linearGradient>
<linearGradient id="paint7_linear_4_22" x1="701.439" y1="441.941" x2="313.628" y2="343.639" gradientUnits="userSpaceOnUse">
<stop stop-color="#6549C0" stop-opacity="0.39"/>
<stop offset="0.992923" stop-color="#301D73" stop-opacity="0.43"/>
</linearGradient>
<linearGradient id="paint8_linear_4_22" x1="1731.45" y1="431.808" x2="1338.22" y2="325.712" gradientUnits="userSpaceOnUse">
<stop stop-color="#6549C0" stop-opacity="0.39"/>
<stop offset="0.992923" stop-color="#301D73" stop-opacity="0.43"/>
</linearGradient>
<linearGradient id="paint9_linear_4_22" x1="697.14" y1="422.359" x2="328.06" y2="325.58" gradientUnits="userSpaceOnUse">
<stop stop-color="#6549C0" stop-opacity="0.39"/>
<stop offset="0.992923" stop-color="#301D73" stop-opacity="0.43"/>
</linearGradient>
<linearGradient id="paint10_linear_4_22" x1="1730" y1="412.271" x2="1355.81" y2="307.385" gradientUnits="userSpaceOnUse">
<stop stop-color="#6549C0" stop-opacity="0.39"/>
<stop offset="0.992923" stop-color="#301D73" stop-opacity="0.43"/>
</linearGradient>
<linearGradient id="paint11_linear_4_22" x1="693.355" y1="403.448" x2="342.333" y2="307.757" gradientUnits="userSpaceOnUse">
<stop stop-color="#6549C0" stop-opacity="0.39"/>
<stop offset="0.992923" stop-color="#301D73" stop-opacity="0.43"/>
</linearGradient>
<linearGradient id="paint12_linear_4_22" x1="1728.34" y1="392.257" x2="1373.77" y2="288.345" gradientUnits="userSpaceOnUse">
<stop stop-color="#6549C0" stop-opacity="0.39"/>
<stop offset="0.992923" stop-color="#301D73" stop-opacity="0.43"/>
</linearGradient>
<linearGradient id="paint13_linear_4_22" x1="689.227" y1="384.276" x2="357.096" y2="289.903" gradientUnits="userSpaceOnUse">
<stop stop-color="#6549C0" stop-opacity="0.39"/>
<stop offset="0.992923" stop-color="#301D73" stop-opacity="0.43"/>
</linearGradient>
<linearGradient id="paint14_linear_4_22" x1="1727.22" y1="372.564" x2="1392.17" y2="269.167" gradientUnits="userSpaceOnUse">
<stop stop-color="#6549C0" stop-opacity="0.39"/>
<stop offset="0.992923" stop-color="#301D73" stop-opacity="0.43"/>
</linearGradient>
<linearGradient id="paint15_linear_4_22" x1="1725.31" y1="353.238" x2="1411.75" y2="251.339" gradientUnits="userSpaceOnUse">
<stop stop-color="#6549C0" stop-opacity="0.39"/>
<stop offset="0.992923" stop-color="#301D73" stop-opacity="0.43"/>
</linearGradient>
<linearGradient id="paint16_linear_4_22" x1="684.53" y1="366.354" x2="370.558" y2="273.048" gradientUnits="userSpaceOnUse">
<stop stop-color="#6549C0" stop-opacity="0.39"/>
<stop offset="0.992923" stop-color="#301D73" stop-opacity="0.43"/>
</linearGradient>
<linearGradient id="paint17_linear_4_22" x1="679.476" y1="348.722" x2="385.495" y2="257.253" gradientUnits="userSpaceOnUse">
<stop stop-color="#6549C0" stop-opacity="0.39"/>
<stop offset="0.992923" stop-color="#301D73" stop-opacity="0.43"/>
</linearGradient>
<linearGradient id="paint18_linear_4_22" x1="1724.22" y1="334.653" x2="1430.89" y2="233.063" gradientUnits="userSpaceOnUse">
<stop stop-color="#6549C0" stop-opacity="0.39"/>
<stop offset="0.992923" stop-color="#301D73" stop-opacity="0.43"/>
</linearGradient>
<linearGradient id="paint19_linear_4_22" x1="675.171" y1="331.355" x2="400.499" y2="241.355" gradientUnits="userSpaceOnUse">
<stop stop-color="#6549C0" stop-opacity="0.39"/>
<stop offset="0.992923" stop-color="#301D73" stop-opacity="0.43"/>
</linearGradient>
<linearGradient id="paint20_linear_4_22" x1="1722.71" y1="315.484" x2="1452.74" y2="215.221" gradientUnits="userSpaceOnUse">
<stop stop-color="#6549C0" stop-opacity="0.39"/>
<stop offset="0.992923" stop-color="#301D73" stop-opacity="0.43"/>
</linearGradient>
<linearGradient id="paint21_linear_4_22" x1="670.676" y1="314.191" x2="417.137" y2="226.35" gradientUnits="userSpaceOnUse">
<stop stop-color="#6549C0" stop-opacity="0.39"/>
<stop offset="0.992923" stop-color="#301D73" stop-opacity="0.43"/>
</linearGradient>
<linearGradient id="paint22_linear_4_22" x1="1720.38" y1="298.01" x2="1473.74" y2="199.484" gradientUnits="userSpaceOnUse">
<stop stop-color="#6549C0" stop-opacity="0.39"/>
<stop offset="0.992923" stop-color="#301D73" stop-opacity="0.43"/>
</linearGradient>
<linearGradient id="paint23_linear_4_22" x1="666.419" y1="297.453" x2="435.086" y2="212.314" gradientUnits="userSpaceOnUse">
<stop stop-color="#6549C0" stop-opacity="0.39"/>
<stop offset="0.992923" stop-color="#301D73" stop-opacity="0.43"/>
</linearGradient>
<linearGradient id="paint24_linear_4_22" x1="458.367" y1="508.451" x2="235.727" y2="483.97" gradientUnits="userSpaceOnUse">
<stop stop-color="#6549C0" stop-opacity="0.39"/>
<stop offset="0.992923" stop-color="#301D73" stop-opacity="0.43"/>
</linearGradient>
<linearGradient id="paint25_linear_4_22" x1="542.444" y1="508.997" x2="317.156" y2="483.958" gradientUnits="userSpaceOnUse">
<stop stop-color="#6549C0" stop-opacity="0.39"/>
<stop offset="0.992923" stop-color="#301D73" stop-opacity="0.43"/>
</linearGradient>
<linearGradient id="paint26_linear_4_22" x1="1814.24" y1="497.335" x2="1595.05" y2="473.068" gradientUnits="userSpaceOnUse">
<stop stop-color="#6549C0" stop-opacity="0.39"/>
<stop offset="0.992923" stop-color="#301D73" stop-opacity="0.43"/>
</linearGradient>
<linearGradient id="paint27_linear_4_22" x1="1716.97" y1="279.894" x2="1496.89" y2="184.361" gradientUnits="userSpaceOnUse">
<stop stop-color="#6549C0" stop-opacity="0.39"/>
<stop offset="0.992923" stop-color="#301D73" stop-opacity="0.43"/>
</linearGradient>
<linearGradient id="paint28_linear_4_22" x1="1544.46" y1="508.7" x2="1343.82" y2="488.877" gradientUnits="userSpaceOnUse">
<stop stop-color="#6549C0" stop-opacity="0.39"/>
<stop offset="0.992923" stop-color="#301D73" stop-opacity="0.43"/>
</linearGradient>
<linearGradient id="paint29_linear_4_22" x1="474.025" y1="508.484" x2="269.835" y2="487.935" gradientUnits="userSpaceOnUse">
<stop stop-color="#6549C0" stop-opacity="0.39"/>
<stop offset="0.992923" stop-color="#301D73" stop-opacity="0.43"/>
</linearGradient>
<linearGradient id="paint30_linear_4_22" x1="516.759" y1="508.646" x2="313.158" y2="488.226" gradientUnits="userSpaceOnUse">
<stop stop-color="#6549C0" stop-opacity="0.39"/>
<stop offset="0.992923" stop-color="#301D73" stop-opacity="0.43"/>
</linearGradient>
<linearGradient id="paint31_linear_4_22" x1="661.934" y1="281.059" x2="455.247" y2="200.334" gradientUnits="userSpaceOnUse">
<stop stop-color="#6549C0" stop-opacity="0.39"/>
<stop offset="0.992923" stop-color="#301D73" stop-opacity="0.43"/>
</linearGradient>
<linearGradient id="paint32_linear_4_22" x1="486.242" y1="508.374" x2="288.556" y2="489.118" gradientUnits="userSpaceOnUse">
<stop stop-color="#6549C0" stop-opacity="0.39"/>
<stop offset="0.992923" stop-color="#301D73" stop-opacity="0.43"/>
</linearGradient>
<linearGradient id="paint33_linear_4_22" x1="500.004" y1="508.668" x2="303.697" y2="489.694" gradientUnits="userSpaceOnUse">
<stop stop-color="#6549C0" stop-opacity="0.39"/>
<stop offset="0.992923" stop-color="#301D73" stop-opacity="0.43"/>
</linearGradient>
<linearGradient id="paint34_linear_4_22" x1="815.896" y1="508.696" x2="655.768" y2="496.116" gradientUnits="userSpaceOnUse">
<stop stop-color="#6549C0" stop-opacity="0.39"/>
<stop offset="0.992923" stop-color="#301D73" stop-opacity="0.43"/>
</linearGradient>
<linearGradient id="paint35_linear_4_22" x1="1508.57" y1="508.219" x2="1346.26" y2="495.273" gradientUnits="userSpaceOnUse">
<stop stop-color="#6549C0" stop-opacity="0.39"/>
<stop offset="0.992923" stop-color="#301D73" stop-opacity="0.43"/>
</linearGradient>
<linearGradient id="paint36_linear_4_22" x1="1712.97" y1="262.599" x2="1521.48" y2="171.147" gradientUnits="userSpaceOnUse">
<stop stop-color="#6549C0" stop-opacity="0.39"/>
<stop offset="0.992923" stop-color="#301D73" stop-opacity="0.43"/>
</linearGradient>
<linearGradient id="paint37_linear_4_22" x1="1827.8" y1="478.504" x2="1652.63" y2="462.468" gradientUnits="userSpaceOnUse">
<stop stop-color="#6549C0" stop-opacity="0.39"/>
<stop offset="0.992923" stop-color="#301D73" stop-opacity="0.43"/>
</linearGradient>
<linearGradient id="paint38_linear_4_22" x1="833.667" y1="508.638" x2="700.809" y2="499.993" gradientUnits="userSpaceOnUse">
<stop stop-color="#6549C0" stop-opacity="0.39"/>
<stop offset="0.992923" stop-color="#301D73" stop-opacity="0.43"/>
</linearGradient>
<linearGradient id="paint39_linear_4_22" x1="1486.02" y1="508.517" x2="1342.55" y2="498.426" gradientUnits="userSpaceOnUse">
<stop stop-color="#6549C0" stop-opacity="0.39"/>
<stop offset="0.992923" stop-color="#301D73" stop-opacity="0.43"/>
</linearGradient>
<linearGradient id="paint40_linear_4_22" x1="658.032" y1="265.722" x2="477.135" y2="190.908" gradientUnits="userSpaceOnUse">
<stop stop-color="#6549C0" stop-opacity="0.39"/>
<stop offset="0.992923" stop-color="#301D73" stop-opacity="0.43"/>
</linearGradient>
<linearGradient id="paint41_linear_4_22" x1="847.82" y1="508.613" x2="729.935" y2="501.811" gradientUnits="userSpaceOnUse">
<stop stop-color="#6549C0" stop-opacity="0.39"/>
<stop offset="0.992923" stop-color="#301D73" stop-opacity="0.43"/>
</linearGradient>
<linearGradient id="paint42_linear_4_22" x1="1467.04" y1="508.443" x2="1337.17" y2="500.179" gradientUnits="userSpaceOnUse">
<stop stop-color="#6549C0" stop-opacity="0.39"/>
<stop offset="0.992923" stop-color="#301D73" stop-opacity="0.43"/>
</linearGradient>
<linearGradient id="paint43_linear_4_22" x1="1833.77" y1="455.468" x2="1678.06" y2="442.148" gradientUnits="userSpaceOnUse">
<stop stop-color="#6549C0" stop-opacity="0.39"/>
<stop offset="0.992923" stop-color="#301D73" stop-opacity="0.43"/>
</linearGradient>
<linearGradient id="paint44_linear_4_22" x1="1449.87" y1="508.983" x2="1330.87" y2="502.057" gradientUnits="userSpaceOnUse">
<stop stop-color="#6549C0" stop-opacity="0.39"/>
<stop offset="0.992923" stop-color="#301D73" stop-opacity="0.43"/>
</linearGradient>
<linearGradient id="paint45_linear_4_22" x1="861.529" y1="508.391" x2="756.243" y2="502.966" gradientUnits="userSpaceOnUse">
<stop stop-color="#6549C0" stop-opacity="0.39"/>
<stop offset="0.992923" stop-color="#301D73" stop-opacity="0.43"/>
</linearGradient>
<linearGradient id="paint46_linear_4_22" x1="1433.78" y1="508.543" x2="1324.11" y2="502.658" gradientUnits="userSpaceOnUse">
<stop stop-color="#6549C0" stop-opacity="0.39"/>
<stop offset="0.992923" stop-color="#301D73" stop-opacity="0.43"/>
</linearGradient>
<linearGradient id="paint47_linear_4_22" x1="874.002" y1="508.543" x2="779.364" y2="504.164" gradientUnits="userSpaceOnUse">
<stop stop-color="#6549C0" stop-opacity="0.39"/>
<stop offset="0.992923" stop-color="#301D73" stop-opacity="0.43"/>
</linearGradient>
<linearGradient id="paint48_linear_4_22" x1="1706.97" y1="244.904" x2="1548.53" y2="160.202" gradientUnits="userSpaceOnUse">
<stop stop-color="#6549C0" stop-opacity="0.39"/>
<stop offset="0.992923" stop-color="#301D73" stop-opacity="0.43"/>
</linearGradient>
<linearGradient id="paint49_linear_4_22" x1="885.969" y1="508.366" x2="799.106" y2="504.676" gradientUnits="userSpaceOnUse">
<stop stop-color="#6549C0" stop-opacity="0.39"/>
<stop offset="0.992923" stop-color="#301D73" stop-opacity="0.43"/>
</linearGradient>
<linearGradient id="paint50_linear_4_22" x1="1417.6" y1="508.543" x2="1317.27" y2="503.62" gradientUnits="userSpaceOnUse">
<stop stop-color="#6549C0" stop-opacity="0.39"/>
<stop offset="0.992923" stop-color="#301D73" stop-opacity="0.43"/>
</linearGradient>
<linearGradient id="paint51_linear_4_22" x1="1403.16" y1="508.419" x2="1309.49" y2="504.128" gradientUnits="userSpaceOnUse">
<stop stop-color="#6549C0" stop-opacity="0.39"/>
<stop offset="0.992923" stop-color="#301D73" stop-opacity="0.43"/>
</linearGradient>
<linearGradient id="paint52_linear_4_22" x1="1838.15" y1="437.291" x2="1696.44" y2="425.823" gradientUnits="userSpaceOnUse">
<stop stop-color="#6549C0" stop-opacity="0.39"/>
<stop offset="0.992923" stop-color="#301D73" stop-opacity="0.43"/>
</linearGradient>
<linearGradient id="paint53_linear_4_22" x1="1389.52" y1="509.529" x2="1302.29" y2="505.819" gradientUnits="userSpaceOnUse">
<stop stop-color="#6549C0" stop-opacity="0.39"/>
<stop offset="0.992923" stop-color="#301D73" stop-opacity="0.43"/>
</linearGradient>
<linearGradient id="paint54_linear_4_22" x1="1375.06" y1="508.72" x2="1294.31" y2="505.535" gradientUnits="userSpaceOnUse">
<stop stop-color="#6549C0" stop-opacity="0.39"/>
<stop offset="0.992923" stop-color="#301D73" stop-opacity="0.43"/>
</linearGradient>
<linearGradient id="paint55_linear_4_22" x1="897.939" y1="508.618" x2="818.109" y2="505.504" gradientUnits="userSpaceOnUse">
<stop stop-color="#6549C0" stop-opacity="0.39"/>
<stop offset="0.992923" stop-color="#301D73" stop-opacity="0.43"/>
</linearGradient>
<linearGradient id="paint56_linear_4_22" x1="909.848" y1="509.352" x2="836.413" y2="506.723" gradientUnits="userSpaceOnUse">
<stop stop-color="#6549C0" stop-opacity="0.39"/>
<stop offset="0.992923" stop-color="#301D73" stop-opacity="0.43"/>
</linearGradient>
<linearGradient id="paint57_linear_4_22" x1="921.207" y1="508.552" x2="853.672" y2="506.324" gradientUnits="userSpaceOnUse">
<stop stop-color="#6549C0" stop-opacity="0.39"/>
<stop offset="0.992923" stop-color="#301D73" stop-opacity="0.43"/>
</linearGradient>
<linearGradient id="paint58_linear_4_22" x1="932.487" y1="508.897" x2="869.945" y2="506.989" gradientUnits="userSpaceOnUse">
<stop stop-color="#6549C0" stop-opacity="0.39"/>
<stop offset="0.992923" stop-color="#301D73" stop-opacity="0.43"/>
</linearGradient>
<linearGradient id="paint59_linear_4_22" x1="654.907" y1="251.51" x2="500.538" y2="184.414" gradientUnits="userSpaceOnUse">
<stop stop-color="#6549C0" stop-opacity="0.39"/>
<stop offset="0.992923" stop-color="#301D73" stop-opacity="0.43"/>
</linearGradient>
<linearGradient id="paint60_linear_4_22" x1="943.885" y1="508.543" x2="886.603" y2="506.941" gradientUnits="userSpaceOnUse">
<stop stop-color="#6549C0" stop-opacity="0.39"/>
<stop offset="0.992923" stop-color="#301D73" stop-opacity="0.43"/>
</linearGradient>
<linearGradient id="paint61_linear_4_22" x1="954.805" y1="508.232" x2="901.441" y2="506.84" gradientUnits="userSpaceOnUse">
<stop stop-color="#6549C0" stop-opacity="0.39"/>
<stop offset="0.992923" stop-color="#301D73" stop-opacity="0.43"/>
</linearGradient>
<linearGradient id="paint62_linear_4_22" x1="965.927" y1="508.492" x2="916.768" y2="507.312" gradientUnits="userSpaceOnUse">
<stop stop-color="#6549C0" stop-opacity="0.39"/>
<stop offset="0.992923" stop-color="#301D73" stop-opacity="0.43"/>
</linearGradient>
<linearGradient id="paint63_linear_4_22" x1="1841.85" y1="414.496" x2="1712.57" y2="404.418" gradientUnits="userSpaceOnUse">
<stop stop-color="#6549C0" stop-opacity="0.39"/>
<stop offset="0.992923" stop-color="#301D73" stop-opacity="0.43"/>
</linearGradient>
<linearGradient id="paint64_linear_4_22" x1="1844.46" y1="395.185" x2="1723.42" y2="385.92" gradientUnits="userSpaceOnUse">
<stop stop-color="#6549C0" stop-opacity="0.39"/>
<stop offset="0.992923" stop-color="#301D73" stop-opacity="0.43"/>
</linearGradient>
<linearGradient id="paint65_linear_4_22" x1="1698.42" y1="228.983" x2="1575.33" y2="155.133" gradientUnits="userSpaceOnUse">
<stop stop-color="#6549C0" stop-opacity="0.39"/>
<stop offset="0.992923" stop-color="#301D73" stop-opacity="0.43"/>
</linearGradient>
<linearGradient id="paint66_linear_4_22" x1="1847.33" y1="372.15" x2="1736.04" y2="363.818" gradientUnits="userSpaceOnUse">
<stop stop-color="#6549C0" stop-opacity="0.39"/>
<stop offset="0.992923" stop-color="#301D73" stop-opacity="0.43"/>
</linearGradient>
<linearGradient id="paint67_linear_4_22" x1="1849.83" y1="353.812" x2="1746.42" y2="346.258" gradientUnits="userSpaceOnUse">
<stop stop-color="#6549C0" stop-opacity="0.39"/>
<stop offset="0.992923" stop-color="#301D73" stop-opacity="0.43"/>
</linearGradient>
<linearGradient id="paint68_linear_4_22" x1="1851.8" y1="332.094" x2="1755.22" y2="325.072" gradientUnits="userSpaceOnUse">
<stop stop-color="#6549C0" stop-opacity="0.39"/>
<stop offset="0.992923" stop-color="#301D73" stop-opacity="0.43"/>
</linearGradient>
<linearGradient id="paint69_linear_4_22" x1="1854.12" y1="310.276" x2="1765.16" y2="303.903" gradientUnits="userSpaceOnUse">
<stop stop-color="#6549C0" stop-opacity="0.39"/>
<stop offset="0.992923" stop-color="#301D73" stop-opacity="0.43"/>
</linearGradient>
<linearGradient id="paint70_linear_4_22" x1="1689.78" y1="212.103" x2="1606.94" y2="151.052" gradientUnits="userSpaceOnUse">
<stop stop-color="#6549C0" stop-opacity="0.39"/>
<stop offset="0.992923" stop-color="#301D73" stop-opacity="0.43"/>
</linearGradient>
<linearGradient id="paint71_linear_4_22" x1="1681.21" y1="197.147" x2="1641.84" y2="156.583" gradientUnits="userSpaceOnUse">
<stop stop-color="#6549C0" stop-opacity="0.39"/>
<stop offset="0.992923" stop-color="#301D73" stop-opacity="0.43"/>
</linearGradient>
</defs>
</svg>
