<svg width="563" height="568" viewBox="0 0 563 568" fill="none" xmlns="http://www.w3.org/2000/svg">
<path d="M111.5 106.1C114.63 100.958 116.179 96.4618 119.9 91.5C121.1 89.9 122.3 88.3 123.5 86.8C125.8 84 127.6 80.7 130.8 78.6C132.1 77.4 133.4 76.1 134.7 74.9C145.701 66.9795 157.927 58.3856 172 58C172.8 58.4 173.3 59 173.6 59.8C175.6 70.1 176.2 80.7 176.7 91.1C177.9 112.2 179.3 133.3 178.7 154.5C178 175.3 177.3 196.1 175.4 216.9C174.1 231.4 172.5 245.8 170.2 260.1C169.6 263.8 171 264.8 174.4 264.7C177.8 264.6 181.1 263.9 184.5 263.6C186.3 263.4 188.2 262.9 190 263.7C192 267.8 190 271.8 189.5 275.8C185.7 309.5 180.5 343 173.9 376.3C173.5 378.5 173.8 380.6 173.5 382.7C172.2 383.6 171.6 384.9 171.7 386.5C162.7 433.9 152 481 140.3 527.8C138.3 535.8 136.5 544 133.8 551.8C127.6 550.3 121.3 549.9 114.9 550.3C113.7 550.4 112.4 550.5 111.7 549.1C110.5 540.7 110.1 532.2 110.1 523.8C109.9 484.2 109.9 444.5 110.1 404.8C110.1 396.9 108.7 389.1 109.1 381.2C109.2 379 109 376.9 109.6 374.8C110.2 372.8 111.8 372.9 113.3 373C117.4 373.4 119.5 371.3 120.7 367.6C124.1 357.2 127 346.7 130.1 336.2C133.7 325.9 136.6 315.3 139.8 304.8C142.2 297 141.2 295.5 133.5 293.1C127 291.1 120.7 288.7 114.1 287.1C112.1 286.6 110.2 285.9 109.6 283.6C109.2 277.8 108.7 272.1 109.9 266.3C111.5 263.9 114 264.5 116.2 264.9C124.3 266.1 132.3 267.3 139.1 269.4C134.4 268.5 129.1 266 124.1 263C119.8 260.5 117.7 256.6 117.6 251.5C117.4 238.6 119.9 226 122.3 213.4C127.6 185.5 134.2 157.9 142.1 130.6C143 127.4 144.1 124.3 145.2 120.5C141.6 131.1 138.8 141.3 135.3 151.3C128.5 170.7 122.1 190.2 115.3 209.6C111.89 219.261 108.986 229.054 106.5 239C104.8 244.4 103.4 249.9 101.8 255.3C101.2 257.4 100.6 259.4 98.1999 260.2C91.2999 261 84.8999 260.1 79.2999 255.7C78.3999 253.7 78.9999 251.8 79.2999 249.8C81.5931 235.713 85.6787 166.35 111.5 106.1Z" fill="#0C3B56"/>
<path d="M369.4 203.7C386.5 195.8 403.6 187.9 420.7 179.9C429.3 175.9 438.2 172.3 442.7 162.9C443.9 161 445 159.1 446.4 157.3C449.1 152.5 451.6 147.4 454.6 142.9C457.9 137.9 457.9 132.2 459.3 126.7C460.4 125.3 459.1 123.4 460.2 122.1C460.9 117.1 461.3 112.1 463 107.3C463.9 104.6 464.1 101.7 464.9 99C465.7 96.6 465.8 94 466.8 91.6C467.1 88.8 467.5 86 467.8 83.1C476.7 78.9 485.9 75.4 495.1 71.7C497.7 70.7 500.3 69.7 502.6 68.2C504.4 67.6 504.1 69.5 504.8 70.2C510.7 77 516.5 83.8 522.4 90.6C523.2 91.9 524.3 93 525.2 94.3C529.6 101.5 533.6 108.9 537.3 116.6C538.1 118.1 538.3 119.8 539.2 121.2C541.7 130.9 544.3 140.5 547.5 150C548.3 152.7 548.5 155.6 549.4 158.4C549.3 161.3 549.7 164.2 551.2 166.7C552.4 168.4 550.9 170.6 552.1 172.3C553.2 173.7 551.9 175.6 553 176.9C552.7 179.1 553.4 181.3 553.9 183.4C555 184.8 553.7 186.7 554.8 188C554.8 188.3 554.8 188.6 554.8 188.9C555.9 190.3 554.6 192.2 555.7 193.5C555.6 203 558.2 212.3 558.7 221.8C559.1 230.2 560.8 238.5 561.2 246.9C561.8 261.7 563.5 276.6 562 291.3C561.1 300.8 562.5 310.3 560.6 319.7C558.3 317.7 559.4 314.8 559 312.4C558.3 300 560.3 287.7 559.9 275.4C559.7 270.5 559.9 270.6 555 272C542.5 275.7 529.6 277.2 516.6 278.4C504 279.5 491.3 280 478.7 278.5C472.7 277.8 466.8 277 460.8 276.3C456.4 275.2 451.9 274.8 447.6 273.3C447.1 273.1 446.6 272.7 446.2 272.3C444.4 270 444.8 267.3 444.7 264.8C443.9 245.2 446.3 225.8 446.9 206.2C446.9 205 447.5 199.8 448.5 199C454.5 202.3 455.1 207.9 453.5 215.5C452.3 221.1 453.9 226.5 454.4 232C454.5 233.2 455 234.4 456.2 235.1C459 236.7 460.2 234.8 461.1 232.8C462.6 229.5 463 226 463.2 222.5C463.6 216.2 464.7 210 464.3 203.7C464.1 201.2 464.9 198.8 465.4 196.5C466.2 192.2 470.1 190.1 472.7 187.1C483 175.6 491.9 163 499.3 153.2C490.5 164.1 479.5 177.2 466.6 188.7C466.1 189.4 465.5 190 464.9 190.6C461.4 193.3 458 196 454.7 198.9C454.3 199.2 454 199.4 453.6 199.6C451.9 200.3 450.2 200.9 448.6 201.7C433.9 206.9 418.8 210.8 403.6 214.3C394.7 216.3 385.9 218.6 377 220.5C375.2 220.9 373.4 221.6 371.5 221.2C369.2 215.9 367.6 210.2 365.2 204.9C366.7 203.7 368.3 204.7 369.4 203.7Z" fill="#DDE7F2"/>
<path d="M334.099 202.199C336.399 203.099 338.699 203.899 340.999 204.799C342.199 209.699 340.6 213.999 337.9 217.999C336.9 218.599 335.799 218.699 334.699 218.799C321.099 218.499 307.699 216.499 294.199 214.899C271.599 212.199 249.299 208.399 227.599 201.199C224.299 200.099 223.899 201.399 224.099 204.199C225.099 214.199 226.299 224.099 227.399 234.099C228.099 240.899 228.799 247.599 229.599 254.399C230.199 259.699 229.199 261.199 223.999 262.799C220.999 263.699 219.599 265.299 219.699 268.399C219.799 270.099 219.699 271.799 219.699 273.499C219.699 313.799 219.699 354.099 219.699 394.399C219.699 397.099 220.399 399.999 218.199 402.299C215.299 400.899 215.999 398.199 215.999 395.899C215.899 381.399 215.999 366.899 215.899 352.299C215.899 326.699 215.599 300.999 216.099 275.399C216.199 268.499 213.799 263.799 209.099 259.499C213.899 250.399 212.899 240.499 213.099 230.899C213.299 222.899 213.099 214.799 213.199 206.799C213.599 167.099 209.799 127.799 204.499 88.5993C203.799 83.6993 202.599 78.8993 202.699 73.8993C202.999 72.3993 203.899 71.5993 205.399 71.3993C208.499 72.1993 210.299 74.2994 211.599 76.9994C212.799 79.0994 213.999 81.0993 215.199 83.1993C230.867 105.582 240.312 141.101 251 168C278.601 191.101 321 197.073 334.099 202.199Z" fill="#0C3B57"/>
<path d="M206 72.1C205.2 72.4 204.3 72.7 203.5 73C201.5 74.7 197.1 72.8 195 71.5C192.721 70.1385 175 64.5 172 58C172.6 56.1 172.7 53.4 173.6 51.7C174.5 48.3 176.6 41.9 177.5 38.5C177.9 38.3 177.1 41.1 177.6 41.2C180 42.2 181.7 41.1 183.4 39.6C186.6 36.8 188.5 33.1 190.5 29.4C193.7 23.4 197.1 23.2 201.4 28.3C202.2 29.2 202.7 30.8 204.1 30.4C205.8 30 205.6 28.2 205.6 26.9C205.6 22.2 205 17.7 202.6 13.6C201.8 12.3 200.5 11.1 201.6 9.39999C202.7 7.79999 204.5 7.59999 206.2 7.89999C210.9 8.69999 215.5 9.9 219.5 12.6C219.8 13.2 220.2 13.9 220.5 14.5C221.8 15.7 222.1 17.5 222.5 19C222.1 24.1 223.4 28.8 224 33.8C224.2 35.2 225.3 35.8 226.2 36.6C226.2 37.8 226.3 39.1 226.3 40.3C226.8 42.5 227.5 44.6 228.6 46.6C238.298 63.8885 207.5 66 200.6 57.8C202.9 60.4 205.8 61.8 208.5 64C207.4 66.5 208.2 70.2 206 72.1Z" fill="#E99F81"/>
<path d="M449.2 73.8C448.3 73.5 447.4 73.2 446.5 72.9C442.8 69.5 441.7 65.3 443.7 60.5C444.6 58.2 445.6 55.9 447.3 54.1C449.2 53.4 450.5 54.7 452 55.5C455.2 57.3 458.5 57.2 461.9 56.2C465.1 55.3 466.9 53.2 466.6 49.7C465.7 40.8 464.1 32 465.1 22.9C465.4 20.6 463.7 20 461.7 20.4C459.9 20.7 458.2 21.7 456.5 22.4C454.8 23.1 453.2 24.3 451.3 23C450.4 23 449.6 22.7 449.1 21.9C447.6 20.6 446 19.3 444.9 17.7C442.2 13.8 443.5 10.4 448 8.89999C449.8 8.29999 451.7 8.4 453.5 8.3C465 7.5 476.2 8.4 486.9 13C487.5 13.2 488.1 13.3 488.2 14C489.1 14.5 490 15 490.8 15.5C494.1 17.6 493.9 21.3 494.4 24.5C495.4 30.2 496.2 36 496.2 41.8C496.1 43.8 496.4 45.8 496.6 47.8C497 51.6 495.7 52.8 491.8 52.7C485.3 52.6 481.4 49.1 480.5 42.4C480.3 41.2 480.2 39.9 479.4 38.9C478.4 37.5 477.1 36.3 475.2 36.7C473.3 37.1 472.4 38.5 472.1 40.3C471.5 44.3 472.3 47.9 474.5 51.3C475.8 53.4 477.6 55.1 479.1 57.1C482.5 61.4 482.3 62.7 477.9 66C473.3 69.4 467.8 70.6 462.6 72.7C460.4 73.1 458.1 73.4 455.9 73.8C453.5 74.6 451.4 74.6 449.2 73.8Z" fill="#49261B"/>
<path d="M219.6 12.6C215.3 11.3 211.1 9.99999 206.8 8.89999C205.4 8.49999 203.5 7.99999 202.5 9.39999C201.2 11.1 203.2 12.1 204 13.3C207.1 18.4 207.3 24.1 207.1 29.8C207 31.1 206.3 32.2 205 32.6C203.5 33.1 202.8 32 202 31C196.1 23.6 194.6 23.8 190.5 32.4C188.4 36.8 185.8 40.7 181.1 42.7C179.8 43.2 177.8 44.7 177.1 41.8C177.4 35.8 179.5 30.2 180.4 24.3C180.9 21.1 181.8 18 181.6 14.7C181.5 11.6 183.2 9.49999 185.9 8.19999H185.8C188 6.29999 190.7 5.39999 193.3 4.39999C195 3.59999 197.2 4 198.7 2.5C206.4 0.499996 214.1 0.599999 221.8 2.8C223.5 3.6 225.3 4.5 227 5.3C229.3 8.1 226.5 9.1 225.1 10.6C223.5 12 221.5 12.1 219.6 12.6Z" fill="#10334D"/>
<path d="M477 65.5C481.3 63 480.7 60.5 477.5 57.3C473.2 53.1 470 48.2 470.3 41.8C470.4 38.3 471.4 35.2 475.6 35C478.8 34.8 481.5 37.9 481.8 41.8C482.4 49 484.4 50.8 491.8 51.4C494.8 51.6 496.2 50.9 495.7 47.7C495.5 46 495.7 44.3 495.7 42.6C495.8 42.4 495.8 42.1 495.9 41.9C496.1 42.1 496.2 42.3 496.4 42.4C496.5 43.6 496.5 44.8 496.6 46C497.6 48.4 496.3 51.1 497.4 53.5C497.3 54.2 497.4 54.9 498 55.3C499.4 56.5 499.3 58.5 500.1 60C500.3 60.6 500.5 61.2 500.7 61.8C502 63.8 503.4 65.8 503.3 68.4C502.4 70.6 500.2 70.7 498.4 71.4C489.6 75 480.9 78.6 472.1 82.2C470.7 82.8 469.3 83.3 467.7 83V83.1C466.9 80.7 467 78.1 466.2 75.7C469.4 71.8 473 68.4 477 65.5Z" fill="#F3A88A"/>
<path d="M451.2 23C454.5 22.5 457.2 20.7 460.1 19.4C461.8 18.7 463.7 18.1 465.4 19.3C467.2 20.6 466.6 22.6 466.2 24.4C464.7 31.5 466.8 38.5 467.1 45.5C467.2 49.2 469.9 53.7 464.9 56.3C459.8 58.9 454.6 59.5 449.7 55.6C449 55 448.2 54.6 447.4 54.1C445.9 52.5 447.5 50.3 446.4 48.7C446.2 48.4 446.1 48.2 446.2 47.9C446.3 47.6 446.4 47.5 446.4 47.5C447.6 46.8 448.8 46.1 448.8 44.4C448.8 39.4 450.4 34.4 449.5 29.3C450.1 27.3 450.7 25.1 451.2 23Z" fill="#F3A88A"/>
<path d="M365.6 204.7C369.6 209.2 371.4 214.5 371.5 220.4C371.2 220.7 370.8 220.8 370.3 220.9C365 221.1 361.9 225.4 358 228C357 228.7 356.4 229.8 355.3 230.3C348.5 231.3 344.2 227 340 222.7C338.9 221.6 338.9 219.9 339.6 218.4C342.8 215.7 346 213.1 349.7 211.2C352.3 209.9 354.4 210 355.9 212.9C356.2 213.6 356.6 214.3 357.2 214.8C357.9 215.5 358.7 216.2 359.6 215.8C361 215.2 360.5 214 360.2 213C359.2 209.7 357.9 206.6 354.1 205.5C352.9 205.1 351 204.7 352.2 202.5C353.6 202.6 355.1 202.1 356.4 202.9C358 204.2 359.9 204 361.7 203.9C362.9 204.6 364.5 203.6 365.6 204.7Z" fill="#F3A98B"/>
<path d="M351.8 202.9C356.7 204.5 360.5 207.2 361.4 212.7C361.7 214.3 362.8 216.2 361 217.3C359.2 218.3 357.5 217 356 215.8C354.5 214.6 355.3 211.1 352.7 211.4C349.8 211.7 347.4 213.6 345.2 215.5C343.6 217 342 218.4 339.7 218.6C339.5 218.6 339.3 218.6 339.2 218.6C338.7 218.4 338.3 218.1 338 217.6C339 213.4 340 209.2 340.9 205C344.1 204 347.4 203 350.6 202C351.1 202.2 351.7 202.2 351.8 202.9Z" fill="#EAA081"/>
<path d="M488 14C477.3 9.6 466.2 7.9 454.7 8.6C451 8.8 446.3 7.9 444.5 12.1C442.6 16.4 446.8 18.9 449 21.8C446.4 21.2 444.9 19.2 443.7 17.1C441.5 13.4 443.1 9.7 447.2 8.5C449.4 7.9 451.7 7.29999 453.9 7.19999C464.7 6.79999 475.3 7.69999 485.4 11.7C486.5 12.1 487.8 12.5 488 14Z" fill="#EEF4F9"/>
<path d="M449.5 29.4C452.2 31.5 451.1 34.6 450.8 37.1C450.4 39.8 449.9 42.5 450.1 45.2C450.4 48.6 448.8 48.7 446.4 47.8C443.4 46.6 443.8 44.2 444.5 41.9C445.5 38.5 446.8 35.2 448.3 32C448.7 31.2 449.1 30.3 449.5 29.4Z" fill="#E5987B"/>
<path d="M477 65.5C474.1 68.7 471.3 71.8 468.4 74.9C468.2 75.2 467.3 74.9 466.7 74.8C465.3 74.4 465.7 72.8 464.9 71.9C463.8 71.4 463.3 72.6 462.4 72.6C462.5 70.3 464.6 71 465.8 70.4C469.6 68.8 473.3 67.1 477 65.5Z" fill="#D88D71"/>
<path d="M496.4 42.5H496L495.7 42.7C494.9 35.4 494.7 28.1 492.9 20.9C492.4 18.9 491.8 17.1 490.6 15.5C493.9 15.7 493.8 18.7 494.2 20.6C495.7 27.8 497 35.1 496.4 42.5Z" fill="#EEF4F9"/>
<path d="M446.5 48.7C448.4 50.2 447.1 52.3 447.5 54.1C445.8 56.7 444.6 59.4 443.8 62.4C442.6 66.5 444.1 69.8 446.5 72.9C442 71.1 441.9 67.5 442.3 63.5C442.8 58.4 447.5 54.4 446.5 48.7Z" fill="#EEF4F9"/>
<path d="M221.8 2.8C214.1 1.5 206.4 1.8 198.7 2.5C206.4 -0.399999 214.1 -0.599996 221.8 2.8Z" fill="#EEF4F9"/>
<path d="M448.3 32.1C447.3 35.4 446.2 38.8 445.2 42.1C444.5 44.3 444.4 46.3 446.5 47.9C446.5 48.2 446.5 48.5 446.5 48.8C443.2 48 443.2 45.2 443.8 43C444.7 39.1 445.5 35.1 448.3 32.1Z" fill="#EEF4F9"/>
<path d="M465 72C466.5 72.4 466.2 73.9 466.8 74.9C467.1 77.7 468.4 80.3 467.9 83.2C466.5 79.5 465.2 75.9 465 72Z" fill="#EEF4F9"/>
<path fill-rule="evenodd" clip-rule="evenodd" d="M223.271 20.5819C223.048 20.1771 222.794 19.6608 222.5 19C221.333 22.8264 222.177 26.5266 223.025 30.237C223.484 32.2478 223.943 34.2615 224.084 36.3C224.184 37.9 225.984 37.2 227.084 36.6C227.256 36.4966 227.381 36.4526 227.512 36.4066C227.76 36.3191 228.029 36.2243 228.684 35.7C229.684 34.9 229.284 30.7 227.784 28.4C227.595 28.0911 227.4 27.788 227.207 27.4868C226.68 26.6662 226.161 25.8593 225.795 24.9843C224.992 23.7018 223.93 21.962 223.271 20.5819Z" fill="#E19476"/>
<path d="M503.4 68.4C502.5 66.2 501.7 64 500.8 61.8C504.1 63.6 504.2 67 504.9 70.1C504.4 69.6 503.9 69 503.4 68.4Z" fill="#EEF4F9"/>
<path d="M193.3 4.3C190.8 5.6 188.3 6.80001 185.8 8.10001C186 6.50001 187.8 6.3 188.5 5.2C190.1 4.9 191.7 4.6 193.3 4.3Z" fill="#EEF4F9"/>
<path d="M465 98.9C465.1 101.8 464.7 104.7 463.1 107.2C463 104.3 463.4 101.5 465 98.9Z" fill="#EEF4F9"/>
<path d="M549.4 158.3C547.8 155.7 547.5 152.9 547.5 149.9C549.1 152.5 549.4 155.3 549.4 158.3Z" fill="#EEF4F9"/>
<path d="M446.4 157.3C445.8 159.6 444.7 161.5 442.7 162.9C443.1 160.5 444.2 158.5 446.4 157.3Z" fill="#EEF4F9"/>
<path d="M466.8 91.5C466.9 94.1 466.3 96.6 464.9 98.9C464.9 96.2 465 93.6 466.8 91.5Z" fill="#EEF4F9"/>
<path d="M225.1 10.6C226.1 9.00001 227.8 7.6 227 5.3C229 8 228.8 8.70001 225.1 10.6Z" fill="#EEF4F9"/>
<path d="M497.4 53.5C495.8 51.1 496.7 48.5 496.6 46C498.3 48.4 497.1 51.1 497.4 53.5Z" fill="#EEF4F9"/>
<path d="M365.6 204.7C364.2 204.8 362.8 204.9 361.8 203.8C364.3 203.8 366.9 203.7 369.5 203.7C368.4 205.1 366.9 204.5 365.6 204.7Z" fill="#EEF4F9"/>
<path d="M449.2 73.8C451.4 73.8 453.5 73.8 455.7 73.8C453.5 75.4 451.4 75.3 449.2 73.8Z" fill="#EEF4F9"/>
<path d="M500.2 60.1C498.9 58.8 498.5 57.1 498.1 55.4C500.1 56.3 500.2 58.2 500.2 60.1Z" fill="#EEF4F9"/>
<path d="M539.2 121.2C537.7 120 537.3 118.4 537.3 116.6C538.8 117.7 539.2 119.3 539.2 121.2Z" fill="#EEF4F9"/>
<path d="M351.8 202.9C351.4 202.6 351 202.3 350.7 202C352.6 202.2 354.7 201.2 356.5 202.8C354.9 202.8 353.3 202.8 351.8 202.9Z" fill="#EEF4F9"/>
<path d="M552.2 172.2C550.5 170.6 551.6 168.5 551.3 166.6C552.9 168.2 551.9 170.3 552.2 172.2Z" fill="#EEF4F9"/>
<path d="M326 197.2C325.7 196.8 325.3 196.5 325.4 196.2C325.5 195.9 325.9 195.5 326.3 195.5C326.9 195.4 327.5 195.8 327.2 196.5C327.1 196.8 326.5 196.9 326 197.2Z" fill="#EEF4F9"/>
<path d="M525.3 94.3C523.8 93.5 522.6 92.5 522.5 90.6C524 91.3 525.2 92.4 525.3 94.3Z" fill="#EEF4F9"/>
<path d="M497.2 28.3C496.4 27.5 496.4 26.5 496.9 25.5C498 26.4 497.1 27.4 497.2 28.3Z" fill="#EEF4F9"/>
<path d="M450.3 75.7C451.1 75.8 452.6 75.8 452.7 75.9C452.8 77 451.8 76.4 451.3 76.5C450.9 76.6 450.5 76.3 450.1 76.2C450.1 76.1 450.2 75.9 450.3 75.7Z" fill="#EEF4F9"/>
<path d="M553.1 176.8C551.6 175.5 552.4 173.7 552.2 172.2C553.7 173.5 552.9 175.2 553.1 176.8Z" fill="#EEF4F9"/>
<path d="M460.3 122.1C460.1 123.7 460.9 125.4 459.4 126.7C459.6 125.2 458.8 123.4 460.3 122.1Z" fill="#EEF4F9"/>
<path d="M185.8 4.89999C186.9 4.29999 187.3 3.89999 187.8 3.69999C188.4 3.49999 189 3.4 188.8 4.3C188.7 4.6 188.8 5.3 188.1 5.1C187.5 5.1 187 5.09999 185.8 4.89999Z" fill="#EEF4F9"/>
<path d="M555.9 193.5C554.4 192.2 555.2 190.4 555 188.9C556.5 190.2 555.7 191.9 555.9 193.5Z" fill="#EEF4F9"/>
<path d="M554.9 187.9C553.4 186.6 554.2 184.8 554 183.3C555.6 184.6 554.7 186.4 554.9 187.9Z" fill="#EEF4F9"/>
<path d="M133.7 551.4C133.4 549.7 133.6 548.1 134.1 546.4C147.8 493.9 159.8 441 170.2 387.7C170.3 386.9 170.6 386.2 170.8 385.5C173.4 385.6 172.8 388.2 173.8 389.5C176.8 401.7 178.3 414.1 180.3 426.4C186.4 464 192.9 501.6 198.8 539.2C199.3 542.1 200 544.9 200.5 547.8C200.5 551.3 199.8 554.8 199.9 558.4C199.9 561.7 201.2 563.1 204.6 563.2C208.9 563.3 213.2 563.3 217.2 565.4C212.2 567.5 206.8 566.7 201.8 566.1C196.1 565.5 190.4 565.5 184.7 565.4C171.3 565.3 157.8 565.3 144.4 565.4C141.4 565.4 139.1 565.3 138.9 561.3C138.8 559.5 138.4 557.2 136.3 556.2C134 555.5 133.2 553.8 133.7 551.4Z" fill="#EFF5F9"/>
<path d="M217.3 565.4C212.1 565.1 206.9 564.7 201.7 564.4C199.3 564.3 198.4 563.3 198.6 561C198.9 556.6 198.7 552.1 199.7 547.8C200.2 546.8 201 546.1 202.1 545.9C207 545.3 211.8 545.3 216.7 545.9C217.8 546.1 218.5 546.9 219.2 547.8C224.9 551.2 230.5 554.6 236.2 557.9C238.8 559.4 240.1 561.2 239.3 564.2C235.6 566.2 231.6 565 227.7 565.2C224.3 565.4 220.8 565.4 217.3 565.4Z" fill="#030405"/>
<path d="M109.6 557.1C110.5 554.6 111.4 552.1 112.4 549.6C119.6 548.8 126.9 547.1 133.7 551.4C134.6 553 135.4 554.6 136.3 556.3C136.3 556.5 136.3 556.6 136.3 556.8C139.1 565.6 139.1 565.6 129.9 565.6C124.5 565.6 119.1 565.6 113.7 565.3C107.9 565 107.9 564.9 109.3 559.4C109.5 558.7 109.5 557.9 109.6 557.1Z" fill="#060709"/>
<path d="M137.2 567.1C129.9 567.1 122.6 567.1 115.2 567.1C115.2 567 115.2 566.8 115.2 566.7C122.5 566.7 129.9 566.7 137.2 566.7C137.2 566.8 137.2 567 137.2 567.1Z" fill="#F1F1F1"/>
<path d="M219.2 547.8C212.7 546.5 206.2 546.2 199.7 547.8C196.7 537.8 195.8 527.5 194.1 517.3C187.1 475.2 180.2 433.1 173.3 391.1C173.2 390.5 173 389.9 172.8 389.3C172.1 387.5 172 385.8 172.6 384C171.5 373.4 175.5 363.6 176.9 353.4C179 338.3 182.1 323.3 183.9 308.1C185.6 294.3 187.5 280.5 189.4 266.8C189.5 265.9 190 265.1 190.3 264.2C196 260.9 202 259 208.6 259.4C210.4 259.7 213.3 258.3 212.6 262.2C212.5 263 212.9 264 213.7 263.9C218.7 263.3 217.1 266.9 217.1 269.2C217.2 311.8 217.2 354.5 217.2 397.1C217.2 398.9 216.5 400.9 218.2 402.3C218.4 419.4 218.6 436.6 218.7 453.7C219 485.1 219.1 516.4 219.2 547.8Z" fill="#0F324C"/>
<path d="M110.3 284.2C118.8 287.8 127.8 289.8 136.6 292.7C141.5 294.3 143.4 296.4 142 301.2C138.7 313.1 135.5 324.9 131.1 336.4C129 339.9 126 339.6 122.6 338.7C111.9 335.7 101.4 332.4 90.8 329.3C87.8 328.4 84.9 327.8 81.8 327.4C80.3 325.2 82.1 323.3 82.6 321.4C83.5 318.2 82.4 316.6 79.3 315.7C74.9 314.4 70.4 313.3 66.1 311.7C62.6 310.4 60.6 311.5 59.6 315.1C59.1 317 59.1 319.1 57.8 320.7C46.2 314.7 33.5 312 21.1 308.4C19.3 307.9 17.4 307.6 15.9 306.6C12.2 303.9 11.6 306.3 10.7 309.3C9.60001 312.8 10 317.1 5.90002 319.2C5.50002 318.9 3.6 325.4 3.5 325C3.8 320.1 7.29998 308.8 8.59998 304.2C9.89998 301.2 10.4 297.9 11.4 294.8C12.7 290.5 13.8 286.1 15.1 281.8C17 276.9 18.1 271.8 19.8 266.8C22.3 259.9 25 258.4 32.1 260.4C41.6 263.1 51.1 265.7 60.4 268.9C63.6 270 65.4 269.1 66.2 265.9C69.5 260 72.6 259 77.5 262.3C78.1 263.6 78 264.7 76.9 265.7C76 266.3 74.9 266.3 73.9 266.7C72 267.3 71.3 268.8 71.3 270.6C71.3 272.3 72.8 272.7 74.2 273.1C77.8 274 81.2 275.2 84.7 276.3C87.5 277.2 90.3 277.9 93.1 278.8C95.2 279.5 97.4 280.2 98.4 277.2C99.3 274.6 97.8 273.5 95.7 272.8C95.3 272.6 94.9 272.4 94.5 272.2C93.2 271.1 91.9 269.8 93 267.9C94 266.3 95.7 266.8 97.2 267.2C98.1 267.4 99 267.7 99.8 268C103.8 269.5 105.8 272.5 104.7 276.6C103.6 280.6 104.3 282.8 108.5 283.4C109.2 283.1 109.8 283.7 110.3 284.2Z" fill="#7B3C11"/>
<path d="M208.7 259.2C202.6 260.8 196.5 262.4 190.4 264C184.3 264.7 178.1 265.2 172 266.1C168.3 266.6 167.9 265.2 168.4 262C172.3 238.2 174.5 214.2 175.8 190.1C178.2 147.6 177.3 105.2 172.7 62.9C172.5 61.5 172.5 60.1 172.4 58.7C179.9 61.8 186.7 66.3 193.6 70.4C196.8 72.3 199.8 73.4 203.5 72.7C211.5 124.4 215.8 176.4 214.5 228.7C214.3 236.1 213.7 243.5 213.7 250.9C213.7 255.2 212.6 258 208.7 259.2Z" fill="#DDE7F2"/>
<path d="M11 296.5C9.5 306.5 15.5 303 38.5 312.5C43.6169 314.614 49.6999 315.4 54.9999 317C56.7999 317.5 56.4 319.7 57.7 320.5C62.9 320.8 67.6999 323 72.5999 324.4C75.6999 325.3 78.7999 325.8 81.7999 327C86.0999 324.8 89.7999 327.7 93.5999 328.8C103.9 331.6 114 334.9 124.2 337.9C126.8 338.7 129 337.8 131.1 336.3C127.9 347.3 124.8 358.4 121.3 369.3C119.7 374.5 117.2 375.3 110.6 373.6C107.1 372.6 103.7 371.6 100.2 370.7C98.3 371.3 96.4999 370.7 94.7999 370.2C86.0999 367.4 77.3 365.1 68.7 362.2C51.1 357 33.6 351.4 15.9 346.4C12.5 345 8.79994 344.5 5.49994 343.1C3.09994 342.1 0.699939 341 -6.10352e-05 338.1C6.5 311 6.5 310 11 296.5Z" fill="#6F300E"/>
<path d="M125 176.6C131 157.6 137.9 138.9 144.4 120C144.7 119.3 144.8 118.5 146 118.1C143.5 128 141.5 137.9 138.5 147.5C134.5 160.6 131.9 174 128.7 187.2C125.1 202.1 122.2 217.1 119.9 232.3C118.8 239.4 118 246.6 118.5 253.9C118.8 257.9 121.2 260.7 124.7 262.5C129.7 265.2 127.9 264.7 133.5 266C134.7 266.3 167.5 265 170 266.2C163.7 265 131.5 269.2 125.4 268C120.3 267 115.3 266.8 110 267.2C110 258.5 114.5 223 125 176.6Z" fill="#0F324D"/>
<path d="M98.0999 260C98.2999 262.8 99.5 265.4 99.2 268.3C98.3 268.1 97.3999 268 96.4999 267.8C95.3999 267.6 93.9999 266.6 93.2999 268.2C92.5999 269.7 94.1999 270.3 94.7999 271.2C96.3999 274.3 94.3999 275.4 91.9999 276C89.2999 276.8 86.5999 276.4 83.9999 275.3C81.7999 274.4 79.4999 273.5 77.7999 271.8C75.9999 269.9 74.3 267.9 76.4 265.1C76.8 264.1 77.0999 263.1 77.4999 262.2C77.2999 260.9 77.8999 260 78.9999 259.3C79.4999 258.2 79.9999 257 80.4999 255.9C85.9999 258.4 91.9999 259.3 98.0999 260Z" fill="#F3A889"/>
<path d="M172.6 383.9C172.7 385.7 172.7 387.4 172.8 389.2C172.2 388 171.5 386.7 170.9 385.5C170.9 384.4 170.1 382.3 172.6 383.9Z" fill="#A9BCC8"/>
<path d="M519 512C516.2 496.7 513.4 481.5 510.5 466.2C506.8 454.5 505.7 442.2 503 430.2C502 425 501.2 419.8 500.3 414.6C499.5 407.8 497.6 401.1 497 394.2C495.842 380.886 497.725 398.417 491.1 367.5C485.2 339.3 479.1 311.2 473.3 283C472.6 279.8 470.9 278.9 468 278.2C465.3 277.6 461.6 278.8 460.3 274.9C474.3 276.6 488.2 278.2 502.3 277.6C520.1 276.9 537.8 275.4 555 270.3C561.8 268.3 561.8 268.2 561.5 275.4C561.1 287.6 560.7 299.8 560.4 312C559.3 316.1 559.7 320.3 559.6 324.4C558.9 344.6 558.2 364.9 557.6 385.1C557.5 386.8 557.7 388.5 557.8 390.2C558.1 390.6 558.3 391 558.4 391.4C558.5 393.3 558.3 395.2 558.3 397.1C557.6 413.6 557.3 430.2 556.2 446.7C556.2 448.8 556.5 450.9 556.5 453.1C556 457.2 554.7 461.3 555.3 465.6C554.4 474.7 554 483.8 553.1 492.8C552.1 500.1 551.8 507.4 551.5 514.8C551.5 517.2 550.5 519.5 550.6 521.9C550.6 523.8 550.5 525.7 550.4 527.6C549.5 533.7 549.3 539.9 548.7 546C548.5 548.3 548.6 550.7 546.7 552.4C539.7 552.9 532.8 553.4 525.9 551.7C524 550 523.8 547.7 523.4 545.4C522.4 539.5 521.1 533.6 520.2 527.7C520.2 525.4 519.4 523.3 519.1 521.1C518 518.2 519.7 515 519 512Z" fill="#0C3B57"/>
<path d="M460.3 275C463.6 277.4 467.7 276.5 471.3 277.7C472.8 278.2 473.9 278.4 474.3 280.4C477.1 294.4 480.1 308.3 483 322.2C486.6 339.6 489.7 357.1 494 374.3C495.6 380.7 493.9 386.8 494.8 392.9C494.8 393.1 494.9 393.4 494.9 393.6C495 396.4 494.9 399.1 495 401.9C494.5 412.4 493.3 422.7 490.9 432.9C488.579 443.347 488.821 451.5 487.1 465.8C485.8 476.6 484.3 487.4 483.1 498.3C481 516.9 479 535.6 477 554.3C476.9 554.9 477.1 555.5 477.1 556.1C476.7 563.3 476.7 563.4 469.5 563.6C467.4 563.7 465.3 563.5 463.2 563.5C464.3 560.2 467.2 561.6 469.4 561.2C471.1 560.9 473.5 561.6 474.2 559.3C475.1 556.3 475.3 553.2 474 550.3C473.4 548.9 471.6 549.1 470.2 549.1C467 549 463.7 549.1 460.5 549C458.7 548.9 456.7 549.2 455.4 547.5C453.5 539.6 454.2 531.5 454.5 523.6C454.9 508.3 452.6 493.2 452.1 478C451.8 468.3 451.9 458.6 451.6 448.9C451.5 444.7 451.8 440.5 450.9 436.5C450.3 433.7 451.8 431.4 452.2 428.9C451.8 410.5 451.5 392.2 451.1 373.8C451.1 372.8 450.6 371.7 450.3 370.7C449.4 366.9 448.9 363 449 359.3C449.3 337.3 447.3 315.3 448 293.3C448 292.4 447.9 291.6 448 290.7C447.4 284.6 445.9 278.4 448.5 272.3C452.3 273.3 456.3 274.2 460.3 275Z" fill="#0F324C"/>
<path d="M454 198.5C454.3 198.4 455.5 197 455.5 197.5C456.8 198.7 456.2 200.8 455.9 202.3C454.4 210.1 455.7 218 455.2 224.1C455.2 220.2 455.2 214.5 455.2 208.8C455.2 203.8 457.4 199.7 462.1 198.6C464.6 198 463.9 197 464 195.7C464.1 193.7 464.6 191.7 464.7 189.7C465.1 189.1 465.1 190.1 465.5 189.5C469.5 191.5 466.8 192.8 466.8 195.3C465.4 205.9 465.8 216.7 464.1 227.3C463.7 229.7 463.3 232.2 462.2 234.4C460.7 237.3 458.8 238.8 455.8 236.1C452.1 229.9 453 223.1 453.1 216.5C453.2 212.2 453.8 208 452.7 203.8C452.1 201.8 452.7 200.2 454 198.5Z" fill="#295E78"/>
<path d="M466.8 195.4C466.1 193 468.1 190.3 465.9 188.1C479.5 175.8 491.2 161.6 503.5 148C498.4 156.8 492.4 164.8 486.3 172.8C480.2 180.6 473.3 187.8 466.8 195.4Z" fill="#BCCBD9"/>
<path d="M465.7 122C466.8 116.3 467.8 110.6 469.1 104.9C469.6 102.5 470.1 100.2 469.1 97.7C468.1 95.1 468.8 92.8 471.2 91.3C473.2 90 475.1 90.7 476.6 92.3C478.7 94.6 477.9 96.9 476.3 99C475.3 100.4 474.3 101.7 474.4 103.6C474.7 111 469.3 116 465.7 122Z" fill="#2D627B"/>
<path d="M466 188C469.1 192 463.4 197.7 465.5 202.1C463.4 201.2 464.7 199.5 463.6 198.9C457.4 201.8 454.8 206.4 455.6 213.5C456.2 218.8 455.7 224.2 454.8 229.6C454.8 219.1 454.8 208.6 454.8 198C457.6 194.7 462.5 190.6 466 188Z" fill="#2B5C76"/>
<path d="M454 198.5C453.9 207.3 453.7 215.7 453.6 224.5C453.6 228.5 454.4 232.4 455.7 236.2C451.1 232 453 226.2 452.1 221.2C453.048 208.537 448.5 204.5 447.5 202C449.5 201 450.5 201 454 198.5Z" fill="#C2D0DE"/>
<path d="M448.3 272.5C448.5 278.5 448.6 284.4 448.8 290.4C444.6 290 442.4 287.8 442.6 283.5C442.7 282.6 443 281.8 443.5 281C442 281.9 440.6 282 439.3 280.6C444.9 280.4 446.2 276.3 447.3 272C447.6 272.2 447.9 272.3 448.3 272.5Z" fill="#EDA68B"/>
<path d="M213.9 105.5C217 116.4 218.5 127.6 220.2 138.8C222.7 156 222.5 173.4 224.8 190.5C225.2 193.5 226.1 196.5 229.6 198.7C222 196.7 221.1 195.6 221.1 188.8C221.1 172.2 219 155.8 217.6 139.3C216.5 128 214.3 116.9 213.9 105.5Z" fill="#0E344F"/>
<path d="M339.7 218.6C338.5 218.4 337.3 218.3 336.1 218.1C336.7 217.9 337.4 217.8 338 217.6C338.7 217.7 339.4 217.8 339.7 218.6Z" fill="#F3A98B"/>
<path d="M209 61.9C207.5 68.5 208.5 68 203.7 62.5C201.7 60.5 199.3 58.8 198.3 55.8C201.8 57.9 206.2 58.5 209 61.9Z" fill="#DE9072"/>
<path d="M370.4 220.6C367.8 225.9 362.5 228 357.8 230.7C357.1 231.1 356 230.6 355.4 229.8C357.8 224.7 363.4 223.3 367.2 219.8C368.1 219 369.6 219.3 370.4 220.6Z" fill="#EAA183"/>
<path d="M439.2 280.7C440.8 281.3 444.8 278.3 443.5 283.4C442.9 284.1 442 284.5 441.5 285.3C439.5 287.9 440.2 289.8 443.3 290.6C445.2 291.1 447.3 291 448.7 292.7C448.8 293.8 449 294.8 449 295.9C449.4 316.5 449.8 337.1 450.1 357.8C450.1 362.2 452.2 366.6 450.1 370.9C429.8 367.7 409.5 364.5 389.3 361.1C384.6 360.3 382.9 357.9 383.7 353.2C387.1 332.6 390.5 312.1 394 291.5C395 285.5 396.9 284.2 402.9 285.2C412.1 286.6 421.2 288 430.3 289.7C434 290.4 436.4 290.3 436.3 285.7C436.3 283.6 437.5 281.9 439.2 280.7Z" fill="#6F300E"/>
<path d="M454.7 547.8C454.9 547.8 455.1 547.8 455.3 547.7C461 547.7 466.7 547.9 472.4 547.8C475.2 547.7 476.1 548.7 476.1 551.5C476.3 562.2 476.4 562.2 466 562.7C464.9 562.8 463.8 562.5 463 563.6C455.2 564.2 447.4 564 439.6 563.8C438.4 563.8 436.9 563.9 436.4 562.5C435.8 560.9 437.2 560 438.2 559.1C442 556 446.4 553.7 450.6 551.2C452.3 550.4 454.2 549.8 454.7 547.8Z" fill="#030405"/>
<path d="M551.1 562.7C550.8 563.6 550.6 564.4 550.3 565.3C540.3 565.3 530.4 565.3 520.4 565.4C518.1 563.4 520.2 562.2 521.3 560.9C521.4 560.6 521.5 560.3 521.5 560C522.1 556.7 523.2 553.6 526.1 551.7C532.9 551.9 539.7 550.7 546.4 552.5C549.3 554.3 549.4 557.7 550.9 560.2C551.3 561 551.3 561.8 551.1 562.7Z" fill="#040505"/>
<path d="M81.7999 327.1C79.2999 328.7 77.1 326.8 74.9 326.2C69.1 324.5 63.1 323.5 57.7 320.6C57.7 319.7 57.4999 318.7 57.7999 317.8C60.2999 308.6 60.1 307.9 68.5 311C72.4 312.4 76.4 313.8 80.4 314.6C84.7 315.4 85.0999 317.4 84.0999 321.1C83.4999 323.2 82.0999 324.9 81.7999 327.1Z" fill="#844513"/>
<path d="M195 90.5C193.8 87.7 192.4 84.9 193.7 81.6C194.4 79.8 195.3 78.2 197.5 78.1C199.6 78 200.8 79.5 201.7 81.2C202.4 82.6 202.9 84.3 202.4 85.7C200.1 91.4 202.4 96.9 203 102.5C206.3 130 208.8 157.5 210.3 185.1C210.6 190.2 210.5 195.3 209.7 200.4C209.2 203.5 208.5 206.5 206.9 209.2C205.7 211.3 204 212.9 201.4 212.8C198.6 212.7 196.9 210.9 196 208.5C194.3 204.1 194.2 199.4 194.2 194.8C194.5 175.6 194.8 156.5 195.1 137.3C195.1 135.3 195 133.3 194.9 131.3C193.6 127.8 194.9 124.3 194.8 120.9C194.6 112.9 195.3 104.9 194.4 96.9C194.3 94.8 194.7 92.7 195 90.5Z" fill="#29A838"/>
<path d="M195 90.5C195.9 104.1 195.8 117.7 195.1 131.3C194 130.6 194.1 129.5 194.1 128.4C194.1 116.7 194.1 105.1 194.1 93.4C194.1 92.4 194 91.3 195 90.5Z" fill="#E7E9F6"/>
<path d="M448.8 292.6C446.8 292.3 444.9 292.1 442.9 291.7C441.2 291.3 438.5 291.9 439 288.6C439.5 286 439.1 282.7 443.4 283.3C442.5 287.6 446.5 288.2 448.7 290.3C448.8 291.1 448.8 291.9 448.8 292.6Z" fill="#E8E6E6"/>
<path d="M494.8 393C494.9 395.9 494.8 398.8 493.8 401.5C494.1 398.6 492.7 395.6 494.8 393Z" fill="#0C3B57"/>
</svg>
