<svg width="885" height="598" viewBox="0 0 885 598" fill="none" xmlns="http://www.w3.org/2000/svg">
<path d="M566.1 446.072L708.34 446.072L708.34 430.272L708.34 414.472L566.1 414.472L423.86 414.472L423.86 430.272L423.86 446.072L566.1 446.072Z" fill="black"/>
<path d="M597.71 367.042L771.56 367.042L771.56 351.242L771.56 335.442L597.71 335.442L423.87 335.442L423.87 351.242L423.87 367.042L597.71 367.042Z" fill="black"/>
<path d="M597.71 288.022L771.56 288.022L771.56 272.222L771.56 256.422L597.71 256.422L423.87 256.422L423.87 272.222L423.87 288.022L597.71 288.022Z" fill="black"/>
<path d="M755.75 446.072L771.55 446.072L771.55 430.272L771.55 414.472L755.75 414.472L739.95 414.472L739.95 430.272L739.95 446.072L755.75 446.072Z" fill="black"/>
<path d="M868.5 70L868.5 528C868.5 557.547 844.547 581.5 815 581.5L70 581.5C40.4527 581.5 16.5 557.547 16.5 528L16.5 70C16.5 40.4528 40.4528 16.5 70 16.5L815 16.5C844.547 16.5 868.5 40.4528 868.5 70Z" stroke="black" stroke-width="33"/>
<path d="M120.892 100.884C129.54 100.884 135.838 102.764 139.786 106.524C143.797 110.221 145.802 115.329 145.802 121.846C145.802 124.791 145.363 127.611 144.486 130.306C143.609 132.938 142.136 135.319 140.068 137.45C138.063 139.518 135.399 141.147 132.078 142.338C128.757 143.529 124.652 144.124 119.764 144.124H113.654V168H99.46V100.884H120.892ZM120.14 112.54H113.654V132.468H118.354C121.049 132.468 123.367 132.123 125.31 131.434C127.253 130.745 128.757 129.648 129.822 128.144C130.887 126.64 131.42 124.697 131.42 122.316C131.42 118.995 130.511 116.551 128.694 114.984C126.877 113.355 124.025 112.54 120.14 112.54ZM197.119 168H158.485V100.884H197.119V112.54H172.679V127.298H195.427V138.954H172.679V156.25H197.119V168ZM253.479 100.884V112.634H225.279V168H211.085V100.884H253.479ZM263.776 100.884H276.56V133.314C276.56 134.881 276.529 136.635 276.466 138.578C276.404 140.521 276.341 142.432 276.278 144.312C276.216 146.129 276.153 147.727 276.09 149.106C276.028 150.422 275.965 151.331 275.902 151.832H276.184L307.204 100.884H324.218V168H311.528V135.758C311.528 134.066 311.56 132.217 311.622 130.212C311.685 128.144 311.748 126.17 311.81 124.29C311.936 122.41 312.03 120.781 312.092 119.402C312.218 117.961 312.312 117.021 312.374 116.582H311.998L280.884 168H263.776V100.884ZM369.643 111.788C366.949 111.788 364.536 112.321 362.405 113.386C360.337 114.451 358.583 115.987 357.141 117.992C355.7 119.935 354.603 122.316 353.851 125.136C353.162 127.956 352.817 131.121 352.817 134.63C352.817 139.393 353.381 143.466 354.509 146.85C355.7 150.171 357.549 152.709 360.055 154.464C362.562 156.219 365.758 157.096 369.643 157.096C372.401 157.096 375.127 156.783 377.821 156.156C380.579 155.529 383.555 154.652 386.751 153.524V165.462C383.806 166.653 380.892 167.53 378.009 168.094C375.127 168.658 371.899 168.94 368.327 168.94C361.434 168.94 355.731 167.53 351.219 164.71C346.77 161.827 343.48 157.817 341.349 152.678C339.219 147.477 338.153 141.429 338.153 134.536C338.153 129.46 338.843 124.823 340.221 120.624C341.6 116.363 343.605 112.697 346.237 109.626C348.932 106.555 352.222 104.174 356.107 102.482C360.055 100.79 364.567 99.944 369.643 99.944C372.965 99.944 376.286 100.383 379.607 101.26C382.991 102.075 386.219 103.203 389.289 104.644L384.683 116.206C382.177 115.015 379.639 113.981 377.069 113.104C374.563 112.227 372.087 111.788 369.643 111.788ZM426.863 168H412.669V112.728H394.433V100.884H445.099V112.728H426.863V168ZM476.88 100.884C485.528 100.884 491.826 102.764 495.774 106.524C499.785 110.221 501.79 115.329 501.79 121.846C501.79 124.791 501.352 127.611 500.474 130.306C499.597 132.938 498.124 135.319 496.056 137.45C494.051 139.518 491.388 141.147 488.066 142.338C484.745 143.529 480.64 144.124 475.752 144.124H469.642V168H455.448V100.884H476.88ZM476.128 112.54H469.642V132.468H474.342C477.037 132.468 479.356 132.123 481.298 131.434C483.241 130.745 484.745 129.648 485.81 128.144C486.876 126.64 487.408 124.697 487.408 122.316C487.408 118.995 486.5 116.551 484.682 114.984C482.865 113.355 480.014 112.54 476.128 112.54ZM550.87 168L545.982 152.02H521.542L516.654 168H501.332L525.02 100.602H542.41L566.192 168H550.87ZM537.71 124.478C537.397 123.413 536.989 122.065 536.488 120.436C535.987 118.807 535.485 117.146 534.984 115.454C534.483 113.762 534.075 112.289 533.762 111.036C533.449 112.289 533.01 113.856 532.446 115.736C531.945 117.553 531.443 119.308 530.942 121C530.503 122.629 530.159 123.789 529.908 124.478L525.114 140.082H542.598L537.71 124.478ZM637.766 156.72V187.552H624.042V168H574.692V100.884H588.886V156.156H613.608V100.884H627.802V156.72H637.766ZM648.13 100.884H660.914V133.314C660.914 134.881 660.883 136.635 660.82 138.578C660.757 140.521 660.695 142.432 660.632 144.312C660.569 146.129 660.507 147.727 660.444 149.106C660.381 150.422 660.319 151.331 660.256 151.832H660.538L691.558 100.884H708.572V168H695.882V135.758C695.882 134.066 695.913 132.217 695.976 130.212C696.039 128.144 696.101 126.17 696.164 124.29C696.289 122.41 696.383 120.781 696.446 119.402C696.571 117.961 696.665 117.021 696.728 116.582H696.352L665.238 168H648.13V100.884ZM748.075 142.244L732.377 168H716.585L735.667 138.484C733.849 137.732 732.032 136.635 730.215 135.194C728.397 133.69 726.893 131.716 725.703 129.272C724.512 126.765 723.917 123.695 723.917 120.06C723.917 113.856 726.141 109.125 730.591 105.866C735.04 102.545 741.275 100.884 749.297 100.884H771.105V168H756.911V142.244H748.075ZM749.861 112.54C747.417 112.54 745.317 112.822 743.563 113.386C741.871 113.95 740.555 114.859 739.615 116.112C738.737 117.365 738.299 119.026 738.299 121.094C738.299 124.039 739.27 126.389 741.213 128.144C743.218 129.836 746.226 130.682 750.237 130.682H756.911V112.54H749.861Z" fill="black"/>
<path fill-rule="evenodd" clip-rule="evenodd" d="M323.66 421.176C356.139 430.373 377 445.069 377 461.64C377 489.458 317.914 512.002 245.013 512.002C172.111 512.002 113 489.458 113 461.64C113 444.669 134.96 429.673 168.638 420.551L172.336 425.549C174.834 428.974 177.657 432.373 180.48 435.697C156.921 441.395 141.831 450.193 141.831 460.066C141.831 477.261 187.526 491.208 243.913 491.208C300.301 491.208 345.996 477.261 345.996 460.066C345.996 450.893 332.904 442.57 312.118 436.921C316.215 431.923 320.063 426.574 323.66 421.176Z" fill="#2B2B2B"/>
<path fill-rule="evenodd" clip-rule="evenodd" d="M288.359 427.899C277.324 440.062 264.613 450.59 250.609 459.166C249.734 459.808 248.685 460.168 247.601 460.199C246.516 460.231 245.448 459.931 244.538 459.341C224.565 446.738 206.834 430.892 192.073 412.453C172.96 388.459 160.793 361.816 156.671 336.147C152.549 310.479 156.396 285.111 169.338 264.766C174.597 256.488 181.209 249.155 188.9 243.071C207.138 228.5 227.924 220.852 248.76 221.002C263.28 221.402 277.469 225.424 290.039 232.705C302.61 239.986 313.162 250.293 320.737 262.691C334.653 285.61 337.651 314.853 331.555 344.47C324.791 375.592 309.884 404.358 288.359 427.824V427.824V427.899ZM244.813 267.265C253.649 267.265 262.286 269.887 269.633 274.798C276.979 279.71 282.705 286.691 286.085 294.858C289.465 303.025 290.349 312.012 288.623 320.681C286.897 329.351 282.64 337.313 276.391 343.562C270.141 349.811 262.179 354.065 253.512 355.787C244.845 357.508 235.863 356.619 227.701 353.233C219.539 349.847 212.564 344.115 207.658 336.763C202.753 329.411 200.137 320.768 200.142 311.929C200.142 306.061 201.298 300.251 203.543 294.831C205.788 289.411 209.079 284.486 213.227 280.338C217.376 276.19 222.3 272.901 227.72 270.658C233.139 268.415 238.948 267.262 244.813 267.265V267.265Z" fill="#A81B8D"/>
</svg>
