<svg width="598" height="886" viewBox="0 0 598 886" fill="none" xmlns="http://www.w3.org/2000/svg">
<path d="M78 718.8V734.6H299.26H520.52V718.8V703H299.26H78V718.8Z" fill="black"/>
<path d="M78 783.8V799.6H267.65H457.3V783.8V768H267.65H78V783.8Z" fill="black"/>
<path d="M70 17H528C557.547 17 581.5 40.9528 581.5 70.5V815.5C581.5 845.047 557.547 869 528 869H70C40.4528 869 16.5 845.047 16.5 815.5V70.5C16.5 40.9528 40.4528 17 70 17Z" stroke="black" stroke-width="33"/>
<g clip-path="url(#clip0_1_38)">
<path fill-rule="evenodd" clip-rule="evenodd" d="M374.501 294.684C368.074 289.049 358.83 289.178 353.526 290.815C357.001 286.549 365.092 283.051 367.477 282.626C369.293 283.307 374.5 288.658 374.5 294.683L374.501 294.684ZM395.021 271.351C390.795 248.741 338.249 263.722 311.787 254.119C311.28 260.71 319.933 271.271 328.211 275.18C314.062 287.459 301.359 312.199 298.796 342.425C296.24 312.199 283.537 287.459 269.388 275.18C277.665 271.271 286.326 260.71 285.812 254.119C259.35 263.722 206.804 248.741 202.57 271.351C201.679 276.136 203.981 283.429 206.469 285.525C206.913 284.008 209.237 279.048 216.561 277.936C253.581 272.342 284.489 329.398 256.59 352.467C256.165 352.817 256.403 353.465 256.98 353.465H340.625C341.194 353.465 341.434 352.817 341.016 352.467C313.109 329.398 344.017 272.342 381.037 277.936C388.368 279.048 390.683 284.008 391.13 285.524C393.617 283.429 395.919 276.136 395.021 271.35V271.351ZM404.025 219.458C403.361 217.322 425.067 217.268 425.067 230.854C425.067 239.96 412.083 244.272 412.083 253.721C412.083 258.122 416.818 261.35 418.27 261.35C414.926 246.18 428.754 254.119 432.488 256.956C425.067 236.555 441.773 236.684 440.128 227.33C438.984 220.792 424.465 222.767 419.209 219.458C409.885 213.588 398.853 190.748 391.583 213.588C405.136 226.171 397.25 244.69 380.045 244.69C380.045 244.69 379.948 247.406 380.106 247.622C400.628 246.617 407.781 231.535 404.026 219.458H404.025ZM164.611 256.956C168.346 254.119 182.172 246.18 178.836 261.35C180.281 261.35 185.016 258.122 185.016 253.721C185.016 244.272 172.031 239.96 172.031 230.854C172.031 217.268 193.738 217.322 193.073 219.458C189.325 231.535 196.48 246.618 217 247.622C217.15 247.406 217.054 244.69 217.054 244.69C199.857 244.69 191.97 226.17 205.516 213.588C198.246 190.748 187.215 213.588 177.89 219.458C172.635 222.768 158.116 220.792 156.972 227.33C155.333 236.684 172.031 236.556 164.61 256.956H164.611ZM222.878 294.683C229.312 289.049 238.555 289.177 243.852 290.814C240.392 286.548 232.287 283.05 229.909 282.626C228.093 283.306 222.879 288.658 222.879 294.683L222.878 294.683ZM308.56 168.204L298.549 155.999L288.539 168.204L298.55 181.049L308.561 168.204H308.56ZM365.703 205.109L358.584 196.435L351.472 205.109L358.584 213.587L365.703 205.109V205.109ZM423.443 455.829L414.419 446.279L405.395 455.829L414.419 464.206L423.443 455.828V455.829ZM245.633 205.108L238.513 196.434L231.401 205.108L238.513 213.587L245.632 205.108H245.633ZM225.242 247.62H251.793C274.115 247.62 284.16 233.919 287.195 222.037H309.909C312.945 233.92 322.982 247.621 345.313 247.621H371.863C371.863 247.621 376.508 241.32 377.672 238.2C381.866 226.971 376.508 221.735 368.69 221.735L358.584 230.894L348.477 221.735C340.659 221.735 335.302 226.971 339.495 238.2C340.03 239.636 341.311 241.744 342.523 243.597C333.102 242.303 321.077 235.854 318.439 222.037C318.439 222.037 325.4 210.979 327.148 206.504C333.424 190.411 325.408 183.832 313.684 183.832L298.548 201.625L283.414 183.832C271.69 183.832 263.674 190.41 269.957 206.504C271.698 210.979 278.666 222.038 278.666 222.038C276.021 235.855 263.996 242.304 254.575 243.598C255.795 241.745 257.069 239.636 257.604 238.2C261.789 226.972 256.446 221.735 248.62 221.735L238.515 230.895L228.409 221.735C220.585 221.735 215.24 226.972 219.427 238.2C220.591 241.32 225.244 247.622 225.244 247.622L225.242 247.62ZM499.744 329.923C494.618 332.518 464.553 346.603 426.039 341.393C426.438 339.556 426.776 337.706 427.053 335.846C452.686 332.78 473.522 328.433 486.801 321.047C501.936 312.622 508.555 292.513 500.915 277.551C500.717 277.173 500.169 277.106 499.895 277.422C495.709 282.241 469.384 310.877 427.91 319.779C427.804 317.631 427.608 315.489 427.321 313.357C447.465 301.933 467.13 288.77 476.497 276.735C490.653 258.537 489.35 235.328 475.88 223.493C475.74 223.373 475.556 223.319 475.373 223.345C475.191 223.371 475.028 223.474 474.927 223.628C470.666 230.657 430.776 295.133 386.979 322.966C386.444 323.308 385.905 323.643 385.362 323.971C384.108 324.733 383.971 326.363 385.04 327.334C390.089 331.91 393.228 338.279 393.228 345.349C393.228 357.641 383.752 367.864 371.227 370.082C364.861 371.315 355.672 370.957 346.847 368.04C346.45 367.911 346.039 368.174 346.039 368.572V407.506C346.039 408.132 346.992 408.288 347.218 407.687C352.582 393.474 368.642 390.454 375.666 390.454C378.194 405.645 382.709 418.228 388.574 425.001C398.124 436.006 413.72 435.852 420.483 428.243C420.595 428.117 420.642 427.947 420.613 427.781C420.583 427.616 420.48 427.472 420.332 427.393C416.358 425.109 393.624 411.152 389.073 388.278C390.87 387.658 392.623 386.957 394.302 386.127C401.64 398.273 412.322 409.089 420.921 413.22C435.365 420.149 448.588 416.779 454.454 406.636C454.666 406.279 454.406 405.834 453.974 405.794C445.039 405.079 417.619 397.221 405.943 378.075C407.28 376.847 408.588 375.567 409.808 374.206C422.024 383.506 439.298 391.728 451.666 393.406C466.136 395.374 482.532 390.757 482.93 373.929C482.937 373.592 482.635 373.316 482.28 373.337C477.133 373.646 443.073 375.129 418.804 361.198C419.647 359.595 420.433 357.963 421.161 356.305C421.161 356.305 457.832 364.973 475.208 362.101C492.475 359.251 502.588 346.378 500.635 330.366C500.58 329.967 500.115 329.732 499.744 329.921L499.744 329.923ZM175.936 356.307C176.666 357.965 177.455 359.597 178.3 361.2C154.038 375.124 119.992 373.654 114.826 373.339C114.463 373.318 114.161 373.607 114.168 373.938C114.573 390.759 130.962 395.375 145.432 393.408C157.794 391.73 175.074 383.508 187.29 374.208C188.517 375.569 189.819 376.849 191.154 378.076C179.472 397.221 152.059 405.08 143.124 405.795C142.692 405.835 142.439 406.28 142.645 406.637C148.51 416.78 161.734 420.149 176.184 413.221C184.777 409.09 195.458 398.273 202.797 386.129C204.482 386.957 206.236 387.659 208.024 388.279C203.474 411.153 180.74 425.11 176.766 427.393C176.619 427.474 176.517 427.617 176.488 427.782C176.458 427.947 176.505 428.117 176.615 428.243C183.378 435.853 198.98 436.007 208.53 425.002C214.397 418.228 218.904 405.646 221.433 390.455C228.462 390.455 244.516 393.476 249.881 407.688C250.114 408.288 251.065 408.132 251.065 407.506V368.572C251.065 368.175 250.648 367.912 250.251 368.04C241.426 370.957 232.238 371.315 225.879 370.082C213.348 367.865 203.872 357.641 203.872 345.349C203.872 338.278 207.016 331.903 212.059 327.327C213.135 326.363 212.991 324.731 211.744 323.97C211.196 323.642 210.652 323.307 210.113 322.966C166.344 295.146 126.473 230.717 122.177 223.64C121.978 223.31 121.499 223.243 121.204 223.499C107.754 235.34 106.445 258.543 120.601 276.733C129.967 288.769 149.631 301.932 169.769 313.356C169.485 315.487 169.291 317.63 169.187 319.777C127.748 310.882 101.444 282.292 97.2159 277.44C96.9352 277.11 96.3723 277.178 96.1811 277.555C88.5565 292.523 95.1746 312.62 110.297 321.045C123.575 328.431 144.412 332.778 170.044 335.844C170.321 337.704 170.659 339.554 171.058 341.391C132.585 346.594 102.533 332.543 97.3673 329.927C96.9835 329.732 96.5172 329.975 96.4696 330.379C94.5248 346.392 104.63 359.251 121.897 362.101C139.266 364.973 175.936 356.305 175.936 356.305V356.307ZM414.419 476.505L401.058 465.991C395.727 469.166 391.808 474.209 390.287 480.118C382.25 481.244 360.337 476.378 362.467 473.15C386.483 439.372 368.114 419.261 346.038 420.38V443.066C346.038 450.351 339.679 456.254 331.847 456.254H316.603C305.667 456.254 298.548 467.247 298.548 467.247C298.548 467.247 291.431 456.254 280.495 456.254H265.25C257.412 456.254 251.067 450.351 251.067 443.066V420.381C228.991 419.263 210.607 439.373 234.63 473.151C236.74 476.345 214.218 481.461 203.653 480.167C200.871 477.282 196.856 475.462 192.361 475.462C190.45 475.463 188.555 475.803 186.763 476.467C186.763 476.467 145.249 437.162 144.488 436.778L144.831 435.983C147.194 431.562 143.577 426.743 141.289 427.08C143.947 423.893 144.071 409.935 129.325 406.707C129.757 409.51 129.976 415.233 129.976 415.233C129.976 415.233 118.596 409.079 112.881 414.389C107.859 420.334 114.828 431.117 114.828 431.117C114.828 431.117 109.004 431.258 106.133 431.016C110.354 445.29 124.51 444.279 127.573 441.462C127.373 443.733 132.492 446.968 136.829 444.373L138.734 443.45C139.07 443.901 179.502 482.101 179.502 482.101C177.645 484.857 176.761 488.241 177.371 491.846C178.33 497.481 183.025 502.151 189.02 503.363C193.253 504.214 197.234 503.391 200.427 501.524L211.13 511.458C212.083 512.321 213.371 512.859 214.809 512.759C217.427 512.583 219.386 510.46 219.188 508.028C219.105 506.929 218.544 505.986 217.769 505.272C217.598 505.082 206.868 495.121 206.868 495.121C215.719 488.914 232.212 484.541 245.902 484.541C248.307 484.541 249.437 482.506 248.608 480.51C242.407 465.595 255.741 454.793 269.533 463.588C275.55 467.422 281.662 474.977 286.266 487.58C263.634 493.06 235.221 508.155 229.472 524.634C227.259 530.996 234.57 539.669 243.449 541.416C243.607 541.45 243.771 541.421 243.906 541.333C244.041 541.246 244.136 541.108 244.169 540.95C248.808 516.35 275.262 498.019 289.027 494.905C289.72 496.758 289.493 496.159 290.185 498.005C275.194 505.095 260.654 520.05 256.502 537.828C254.597 545.97 263.676 553.309 271.171 555.318C271.548 555.419 271.918 555.156 271.939 554.792C273.364 532.309 283.292 513.216 292.185 504.529C292.429 506.227 292.612 507.933 292.734 509.644C292.734 509.644 283.628 535.018 283.628 553.532C283.628 562.144 296.427 568.156 298.319 568.999C300.682 568.156 313.474 562.144 313.474 553.532C313.474 535.018 304.369 509.644 304.369 509.644C304.493 507.933 304.678 506.227 304.924 504.529C313.81 513.216 323.745 532.302 325.164 554.784C325.184 555.149 325.561 555.419 325.93 555.317C333.433 553.31 342.506 545.97 340.607 537.829C336.447 520.051 321.915 505.096 306.923 498.006C307.608 496.159 307.382 496.759 308.075 494.906C321.847 498.019 348.295 516.35 352.933 540.949C352.967 541.107 353.062 541.244 353.197 541.332C353.332 541.419 353.496 541.449 353.653 541.415C362.526 539.67 369.85 530.995 367.624 524.634C361.889 508.155 333.468 493.061 310.837 487.581C315.447 474.978 321.559 467.423 327.575 463.588C341.361 454.794 354.694 465.597 348.493 480.512C347.664 482.506 348.788 484.541 351.2 484.541C366.684 484.541 385.759 490.135 393.309 497.636C398.133 504.874 407.047 509.504 417.106 508.513C428.535 507.395 437.853 498.808 439.141 488.194C440.265 478.893 435.455 470.543 427.788 465.994L414.419 476.508L414.419 476.505ZM315.938 408.753C320.7 406.989 328.162 408.417 327.908 415.291C327.847 416.847 330.033 416.847 330.19 415.257C331.616 404.966 324.661 402 317.384 403.207C316.48 399.668 315.74 396.575 314.897 393.508C314.226 391.029 313.979 386.371 316.851 386.371C318.399 386.371 317.776 390.705 317.632 392.571C317.502 394.209 318.091 395.2 319.421 395.247C320.25 395.281 321.285 394.223 321.901 393.521C326.068 388.811 327.034 381.519 322.155 378.002C318.072 375.049 307.849 377.246 305.038 381.451C304.615 379.867 302.586 377.253 301.612 376.113C300.668 375.002 300.421 374.24 301.73 373.263C302.347 372.791 304.21 370.939 304.21 369.024C304.21 367.892 303.333 365.802 300.545 365.802C298.345 365.802 295.899 367.326 295.899 370.722C295.899 371.478 296.084 372.287 296.57 373.157C295.179 372.927 291.404 373.021 289.465 373.5L316.276 447.074C323.95 443.286 329.575 437.289 329.575 430.853C329.575 425.366 321.496 427.186 317.571 431.466C316.31 424.511 315.186 418.088 313.96 411.685C313.625 409.919 314.522 409.286 315.94 408.754L315.938 408.753ZM278.028 358.775L283.66 374.423C278.837 375.569 271.081 379.087 271.081 383.743C271.081 389.945 282.05 393.981 288.395 393.496C288.079 394.911 288.443 396.171 289.43 397.323C287.128 397.323 282.784 398.395 281.358 399.931C277.994 396.798 272.732 395.659 270.231 397.566C267.717 399.487 267.642 402.742 270.265 406.422C272.094 408.969 272.78 411.484 270.725 414.435C278.371 414.435 275.554 404.495 278.549 404.495C278.158 406.422 278.398 408.653 279.269 411.126C279.844 412.77 279.844 413.936 278.858 415.52C276.391 419.463 272.555 428.52 273.075 436.709C270.567 436.695 269.293 436.081 270.177 432.658C270.506 431.383 269.718 430.474 268.677 432.045C267.525 433.777 266.97 436.735 266.97 438.001C266.97 445.294 275.657 446.763 278.974 445.22C288.567 454.503 307.409 452.027 313.72 448.913L280.544 357.884C279.865 356.165 277.433 356.987 278.029 358.774L278.028 358.775ZM276.876 433.757C276.191 430.009 281.405 423.311 288.038 416.848C286.627 421.059 287.504 428.318 290.272 430.819C285.461 430.819 279.747 431.721 276.877 433.757H276.876Z" fill="#A81B8D"/>
</g>
<path d="M78.46 660V592.884H131.57V660H117.376V604.728H92.654V660H78.46ZM189.579 660L184.691 644.02H160.251L155.363 660H140.041L163.729 592.602H181.119L204.901 660H189.579ZM176.419 616.478C176.106 615.413 175.698 614.065 175.197 612.436C174.696 610.807 174.194 609.146 173.693 607.454C173.192 605.762 172.784 604.289 172.471 603.036C172.158 604.289 171.719 605.856 171.155 607.736C170.654 609.553 170.152 611.308 169.651 613C169.212 614.629 168.868 615.789 168.617 616.478L163.823 632.082H181.307L176.419 616.478ZM241.883 603.788C239.189 603.788 236.776 604.321 234.645 605.386C232.577 606.451 230.823 607.987 229.381 609.992C227.94 611.935 226.843 614.316 226.091 617.136C225.402 619.956 225.057 623.121 225.057 626.63C225.057 631.393 225.621 635.466 226.749 638.85C227.94 642.171 229.789 644.709 232.295 646.464C234.802 648.219 237.998 649.096 241.883 649.096C244.641 649.096 247.367 648.783 250.061 648.156C252.819 647.529 255.795 646.652 258.991 645.524V657.462C256.046 658.653 253.132 659.53 250.249 660.094C247.367 660.658 244.139 660.94 240.567 660.94C233.674 660.94 227.971 659.53 223.459 656.71C219.01 653.827 215.72 649.817 213.589 644.678C211.459 639.477 210.393 633.429 210.393 626.536C210.393 621.46 211.083 616.823 212.461 612.624C213.84 608.363 215.845 604.697 218.477 601.626C221.172 598.555 224.462 596.174 228.347 594.482C232.295 592.79 236.807 591.944 241.883 591.944C245.205 591.944 248.526 592.383 251.847 593.26C255.231 594.075 258.459 595.203 261.529 596.644L256.923 608.206C254.417 607.015 251.879 605.981 249.309 605.104C246.803 604.227 244.327 603.788 241.883 603.788ZM273.253 660V592.884H326.363V660H312.169V604.728H287.447V660H273.253ZM404.206 626.348C404.206 631.549 403.548 636.281 402.232 640.542C400.979 644.741 399.036 648.375 396.404 651.446C393.835 654.517 390.513 656.867 386.44 658.496C382.429 660.125 377.698 660.94 372.246 660.94C366.794 660.94 362.031 660.125 357.958 658.496C353.947 656.804 350.626 654.454 347.994 651.446C345.425 648.375 343.482 644.709 342.166 640.448C340.913 636.187 340.286 631.455 340.286 626.254C340.286 619.298 341.414 613.251 343.67 608.112C345.989 602.973 349.498 598.994 354.198 596.174C358.961 593.291 365.008 591.85 372.34 591.85C379.609 591.85 385.594 593.291 390.294 596.174C394.994 598.994 398.472 603.005 400.728 608.206C403.047 613.345 404.206 619.392 404.206 626.348ZM355.232 626.348C355.232 631.048 355.827 635.09 357.018 638.474C358.209 641.858 360.057 644.459 362.564 646.276C365.071 648.093 368.298 649.002 372.246 649.002C376.319 649.002 379.578 648.093 382.022 646.276C384.529 644.459 386.346 641.858 387.474 638.474C388.665 635.09 389.26 631.048 389.26 626.348C389.26 619.267 387.944 613.721 385.312 609.71C382.68 605.699 378.356 603.694 372.34 603.694C368.329 603.694 365.071 604.603 362.564 606.42C360.057 608.237 358.209 610.838 357.018 614.222C355.827 617.606 355.232 621.648 355.232 626.348ZM439.54 592.884C448.188 592.884 454.486 594.764 458.434 598.524C462.445 602.221 464.45 607.329 464.45 613.846C464.45 616.791 464.012 619.611 463.134 622.306C462.257 624.938 460.784 627.319 458.716 629.45C456.711 631.518 454.048 633.147 450.726 634.338C447.405 635.529 443.3 636.124 438.412 636.124H432.302V660H418.108V592.884H439.54ZM438.788 604.54H432.302V624.468H437.002C439.697 624.468 442.016 624.123 443.958 623.434C445.901 622.745 447.405 621.648 448.47 620.144C449.536 618.64 450.068 616.697 450.068 614.316C450.068 610.995 449.16 608.551 447.342 606.984C445.525 605.355 442.674 604.54 438.788 604.54ZM502.984 660H488.79V604.728H470.554V592.884H521.22V604.728H502.984V660Z" fill="black"/>
<defs>
<clipPath id="clip0_1_38">
<rect width="413" height="413" fill="white" transform="translate(93 156)"/>
</clipPath>
</defs>
</svg>
