<svg width="117" height="66" viewBox="0 0 117 66" fill="none" xmlns="http://www.w3.org/2000/svg">
<g clip-path="url(#clip0_2_40)">
<path d="M9 42.1C4 42.1 0 38 0 33.1C0 28.2 4.1 24.1 9 24.1C13.9 24.1 18 28.2 18 33.1C18 38 14 42.1 9 42.1ZM9 28.3C6.4 28.3 4.3 30.4 4.3 33C4.3 35.6 6.4 37.7 9 37.7C11.6 37.7 13.7 35.6 13.7 33C13.7 30.4 11.6 28.3 9 28.3Z" fill="black"/>
<path d="M18.3 23.4H14V65.2H18.3V23.4Z" fill="black"/>
<path d="M26.8 0H22.5V41.8H26.8V0Z" fill="black"/>
<path d="M62.9 42.1C57.9 42.1 53.9 38 53.9 33.1C53.9 28.2 58 24.1 62.9 24.1C67.8 24.1 71.9 28.2 71.9 33.1C71.9 38 67.8 42.1 62.9 42.1ZM62.9 28.3C60.3 28.3 58.2 30.4 58.2 33C58.2 35.6 60.3 37.7 62.9 37.7C65.5 37.7 67.6 35.6 67.6 33C67.6 30.4 65.5 28.3 62.9 28.3Z" fill="black"/>
<path d="M72.1 23.4H67.8V65.2H72.1V23.4Z" fill="black"/>
<path d="M37.1 23.4H32.8V41.8H37.1V23.4Z" fill="black"/>
<path d="M37.1 10.8H32.8V17.7H37.1V10.8Z" fill="#19D3C5"/>
<path d="M44.5817 12.9003L39.7027 17.7793L42.7432 20.8198L47.6222 15.9408L44.5817 12.9003Z" fill="#19D3C5"/>
<path d="M49.7 23.4H42.8V27.7H49.7V23.4Z" fill="#19D3C5"/>
<path d="M78.4 29.5L80.4 27L78.5 24.9H79.8L81.5 26.7V24.9H82.5V26.7L84.2 24.9H85.5L83.6 27L85.6 29.5H84.3L82.9 27.6L82.6 27.9V29.5H81.6V27.9L81.3 27.6L79.9 29.5H78.4Z" fill="#19D3C5"/>
<path d="M85.6 27.1C85.6 25.8 86.6 24.7 88 24.7C89.4 24.7 90.3 25.8 90.3 27.2V27.4H86.7C86.8 28.1 87.3 28.7 88.2 28.7C88.7 28.7 89.2 28.5 89.5 28.2L90 28.9C89.5 29.3 88.9 29.6 88.1 29.6C86.6 29.6 85.6 28.6 85.6 27.1ZM87.9 25.5C87 25.5 86.6 26.2 86.6 26.7H89.2C89.2 26.2 88.9 25.5 87.9 25.5Z" fill="#19D3C5"/>
<path d="M90.7 28.8C91.1 28.8 91.3 28.3 91.5 27.1L91.8 24.8H95.4V29.5H94.4V25.7H92.7L92.5 27.2C92.3 28.9 91.7 29.6 90.7 29.6V28.8V28.8Z" fill="#19D3C5"/>
<path d="M99.5 29.5V29C99.2 29.4 98.6 29.6 98 29.6C97.2 29.6 96.4 29.1 96.4 28.1C96.4 27 97.3 26.6 98 26.6C98.6 26.6 99.2 26.8 99.5 27.2V26.5C99.5 26 99.1 25.6 98.4 25.6C97.9 25.6 97.4 25.8 97 26.2L96.6 25.5C97.1 25 97.8 24.7 98.6 24.7C99.6 24.7 100.5 25.1 100.5 26.4V29.5H99.5V29.5ZM99.5 28.4V27.7C99.3 27.4 98.8 27.2 98.4 27.2C97.8 27.2 97.4 27.5 97.4 28C97.4 28.5 97.8 28.8 98.4 28.8C98.9 28.9 99.3 28.7 99.5 28.4Z" fill="#19D3C5"/>
<path d="M101.8 29.5V24.8H102.8V26.6H104.9V24.8H105.9V29.5H104.9V27.6H102.8V29.5H101.8Z" fill="#19D3C5"/>
<path d="M107.3 29.5V24.8H108.3V28L110.4 24.9H111.4V29.6H110.4V26.4L108.2 29.6H107.3V29.5Z" fill="#19D3C5"/>
<path d="M112.5 29.5L113.6 27.8C113 27.7 112.5 27.2 112.5 26.4C112.5 25.6 113 24.9 114 24.9H116.7V29.6H115.7V27.9H114.6L113.6 29.6H112.5V29.5ZM115.8 26.9V25.7H114.3C113.9 25.7 113.7 26 113.7 26.3C113.7 26.6 113.9 26.9 114.3 26.9H115.8V26.9Z" fill="#19D3C5"/>
<path d="M79 39.5V34.8H80V36.6H82.1V34.8H83.1V39.5H82.1V37.6H80V39.5H79Z" fill="#19D3C5"/>
<path d="M84.2 37.2C84.2 35.9 85.2 34.8 86.6 34.8C88 34.8 88.9 35.9 88.9 37.3V37.5H85.3C85.4 38.2 85.9 38.8 86.8 38.8C87.3 38.8 87.8 38.6 88.1 38.3L88.6 39C88.1 39.4 87.5 39.7 86.7 39.7C85.2 39.6 84.2 38.6 84.2 37.2ZM86.5 35.6C85.6 35.6 85.2 36.3 85.2 36.8H87.8C87.8 36.2 87.5 35.6 86.5 35.6Z" fill="#19D3C5"/>
<path d="M91.8 39.5L93.8 37L91.9 34.9H93.2L94.9 36.7V34.9H95.9V36.7L97.6 34.9H98.9L96.8 37L98.8 39.5H97.5L96.1 37.6L95.8 37.9V39.5H94.8V37.9L94.5 37.6L93.1 39.5H91.8Z" fill="#19D3C5"/>
<path d="M99.3 38.7C99.7 38.6 99.9 38.4 100.1 37.1L100.4 34.8H104V38.6H104.5V40.7H103.5V39.5H100.4V40.7H99.4V38.7H99.3ZM101.1 37.2C101 37.8 100.8 38.3 100.5 38.6H103V35.7H101.3L101.1 37.2Z" fill="#19D3C5"/>
<path d="M105.3 40.4C105.4 40.4 105.6 40.5 105.7 40.5C106 40.5 106.2 40.4 106.4 40.1L106.6 39.6L104.7 34.9H105.8L107.2 38.4L108.6 34.9H109.7L107.5 40.4C107.2 41.2 106.6 41.4 105.9 41.5C105.8 41.5 105.5 41.5 105.3 41.4V40.4Z" fill="#19D3C5"/>
<path d="M111.4 39.5V35.7H110V34.8H113.7V35.7H112.4V39.5H111.4Z" fill="#19D3C5"/>
</g>
<defs>
<clipPath id="clip0_2_40">
<rect width="116.8" height="65.2" fill="white"/>
</clipPath>
</defs>
</svg>
