<svg width="660" height="285" viewBox="0 0 660 285" fill="none" xmlns="http://www.w3.org/2000/svg">
<path d="M39.2209 183.395C17.4315 183.395 0 165.534 0 144.189C0 122.844 17.8673 104.984 39.2209 104.984C60.5745 104.984 78.4418 122.844 78.4418 144.189C78.4418 165.534 61.0103 183.395 39.2209 183.395ZM39.2209 123.279C27.8904 123.279 18.7389 132.427 18.7389 143.753C18.7389 155.079 27.8904 164.227 39.2209 164.227C50.5514 164.227 59.7029 155.079 59.7029 143.753C59.7029 132.427 50.5514 123.279 39.2209 123.279Z" fill="black"/>
<path d="M79.7496 101.934H61.0107V284.022H79.7496V101.934Z" fill="black"/>
<path d="M116.791 0H98.0518V182.088H116.791V0Z" fill="black"/>
<path d="M274.111 183.395C252.321 183.395 234.89 165.534 234.89 144.189C234.89 122.844 252.757 104.984 274.111 104.984C295.464 104.984 313.331 122.844 313.331 144.189C313.331 165.534 295.464 183.395 274.111 183.395ZM274.111 123.279C262.78 123.279 253.629 132.427 253.629 143.753C253.629 155.079 262.78 164.227 274.111 164.227C285.441 164.227 294.593 155.079 294.593 143.753C294.593 132.427 285.441 123.279 274.111 123.279Z" fill="black"/>
<path d="M314.203 101.934H295.464V284.022H314.203V101.934Z" fill="black"/>
<path d="M161.677 101.934H142.938V182.088H161.677V101.934Z" fill="black"/>
<path d="M161.677 47.0466H142.938V77.1041H161.677V47.0466Z" fill="#19D3C5"/>
<path d="M194.282 56.1957L173.02 77.4493L186.27 90.6944L207.532 69.4407L194.282 56.1957Z" fill="#19D3C5"/>
<path d="M216.587 101.934H186.518V120.666H216.587V101.934Z" fill="#19D3C5"/>
<path d="M342.38 129V108.56H346.52V121.82L356.22 108.56H360.28V129H356.12V115.78L346.44 129H342.38ZM367.008 129V108.56H371.148V116.6H380.788V108.56H384.948V129H380.788V120.28H371.148V129H367.008ZM391.917 129V108.56H401.897C403.684 108.56 405.084 108.827 406.097 109.36C407.11 109.88 407.824 110.56 408.237 111.4C408.65 112.227 408.857 113.087 408.857 113.98C408.857 114.94 408.617 115.793 408.137 116.54C407.67 117.287 407.024 117.853 406.197 118.24C407.344 118.613 408.19 119.247 408.737 120.14C409.297 121.033 409.577 121.987 409.577 123C409.577 123.96 409.35 124.9 408.897 125.82C408.444 126.74 407.684 127.5 406.617 128.1C405.564 128.7 404.124 129 402.297 129H391.917ZM396.077 125.36H402.537C403.564 125.36 404.29 125.107 404.717 124.6C405.144 124.093 405.357 123.513 405.357 122.86C405.357 122.193 405.13 121.613 404.677 121.12C404.224 120.627 403.477 120.38 402.437 120.38H396.077V125.36ZM396.077 116.82H402.177C403.07 116.82 403.704 116.58 404.077 116.1C404.45 115.62 404.637 115.087 404.637 114.5C404.637 114.1 404.557 113.727 404.397 113.38C404.237 113.02 403.977 112.733 403.617 112.52C403.27 112.293 402.79 112.18 402.177 112.18H396.077V116.82ZM425.705 129.48C423.692 129.48 421.965 129.027 420.525 128.12C419.099 127.2 417.999 125.933 417.225 124.32C416.465 122.707 416.085 120.853 416.085 118.76C416.085 116.533 416.479 114.627 417.265 113.04C418.065 111.44 419.179 110.213 420.605 109.36C422.045 108.507 423.745 108.08 425.705 108.08C427.305 108.08 428.765 108.427 430.085 109.12C431.419 109.813 432.479 110.88 433.265 112.32C434.052 113.747 434.445 115.573 434.445 117.8C434.445 118.133 434.439 118.527 434.425 118.98C434.412 119.42 434.372 119.893 434.305 120.4H419.285V116.82H430.345C430.279 115.58 430.005 114.587 429.525 113.84C429.059 113.093 428.485 112.56 427.805 112.24C427.125 111.907 426.425 111.74 425.705 111.74C423.759 111.74 422.345 112.353 421.465 113.58C420.585 114.793 420.145 116.44 420.145 118.52C420.145 120.72 420.639 122.48 421.625 123.8C422.612 125.107 423.992 125.76 425.765 125.76C426.632 125.76 427.445 125.613 428.205 125.32C428.965 125.013 429.685 124.527 430.365 123.86L432.825 126.52C431.972 127.387 430.945 128.1 429.745 128.66C428.545 129.207 427.199 129.48 425.705 129.48ZM450.334 129.48C447.547 129.48 445.334 128.547 443.694 126.68C442.054 124.8 441.234 122.173 441.234 118.8C441.234 116.573 441.614 114.66 442.374 113.06C443.134 111.46 444.2 110.233 445.574 109.38C446.96 108.513 448.594 108.08 450.474 108.08C452.46 108.08 454.134 108.513 455.494 109.38C456.854 110.233 457.847 111.547 458.474 113.32L454.574 114.68C454.267 113.893 453.78 113.247 453.114 112.74C452.46 112.233 451.58 111.98 450.474 111.98C448.82 111.98 447.574 112.6 446.734 113.84C445.894 115.08 445.474 116.733 445.474 118.8C445.474 120.893 445.894 122.54 446.734 123.74C447.587 124.94 448.807 125.54 450.394 125.54C451.514 125.54 452.434 125.28 453.154 124.76C453.874 124.227 454.4 123.48 454.734 122.52L458.634 123.78C458.06 125.62 457.074 127.033 455.674 128.02C454.274 128.993 452.494 129.48 450.334 129.48ZM472.502 129V112.24H465.542V108.56H483.582V112.24H476.622V129H472.502ZM490.271 129V108.56H494.411V121.82L504.111 108.56H508.171V129H504.011V115.78L494.331 129H490.271ZM515.279 129V108.56H519.419V125.3H528.299V108.56H532.459V129H515.279ZM531.659 135.62V129H529.339V125.3H535.819V133.7L531.659 135.62ZM539.568 129V108.56H543.708V121.82L553.408 108.56H557.468V129H553.308V115.78L543.628 129H539.568ZM564.216 129V108.56H568.356V121.82L578.056 108.56H582.116V129H577.956V115.78L568.276 129H564.216ZM342.62 173V152.56H352.6C354.387 152.56 355.787 152.827 356.8 153.36C357.813 153.88 358.527 154.56 358.94 155.4C359.353 156.227 359.56 157.087 359.56 157.98C359.56 158.94 359.32 159.793 358.84 160.54C358.373 161.287 357.727 161.853 356.9 162.24C358.047 162.613 358.893 163.247 359.44 164.14C360 165.033 360.28 165.987 360.28 167C360.28 167.96 360.053 168.9 359.6 169.82C359.147 170.74 358.387 171.5 357.32 172.1C356.267 172.7 354.827 173 353 173H342.62ZM346.78 169.36H353.24C354.267 169.36 354.993 169.107 355.42 168.6C355.847 168.093 356.06 167.513 356.06 166.86C356.06 166.193 355.833 165.613 355.38 165.12C354.927 164.627 354.18 164.38 353.14 164.38H346.78V169.36ZM346.78 160.82H352.88C353.773 160.82 354.407 160.58 354.78 160.1C355.153 159.62 355.34 159.087 355.34 158.5C355.34 158.1 355.26 157.727 355.1 157.38C354.94 157.02 354.68 156.733 354.32 156.52C353.973 156.293 353.493 156.18 352.88 156.18H346.78V160.82ZM388.293 173.48C386.319 173.48 384.606 173.053 383.153 172.2C381.699 171.333 380.573 170.107 379.773 168.52C378.986 166.92 378.593 165.013 378.593 162.8C378.593 160.613 378.986 158.72 379.773 157.12C380.573 155.507 381.699 154.267 383.153 153.4C384.606 152.52 386.319 152.08 388.293 152.08C390.279 152.08 391.999 152.513 393.453 153.38C394.919 154.233 396.046 155.467 396.833 157.08C397.619 158.68 398.013 160.58 398.013 162.78C398.013 164.98 397.619 166.88 396.833 168.48C396.046 170.08 394.919 171.313 393.453 172.18C391.999 173.047 390.279 173.48 388.293 173.48ZM388.293 169.54C390.066 169.54 391.426 168.933 392.373 167.72C393.319 166.493 393.793 164.847 393.793 162.78C393.793 160.713 393.326 159.067 392.393 157.84C391.473 156.6 390.106 155.98 388.293 155.98C386.519 155.98 385.159 156.593 384.213 157.82C383.266 159.033 382.793 160.693 382.793 162.8C382.793 164.853 383.266 166.493 384.213 167.72C385.159 168.933 386.519 169.54 388.293 169.54ZM401.761 179.58V169.32H403.721C404.214 169.027 404.594 168.607 404.861 168.06C405.128 167.5 405.308 166.8 405.401 165.96L406.901 152.56H421.041V169.32H423.721V177.8L419.581 179.58V173H405.921V177.8L401.761 179.58ZM408.541 169.3H416.901V156.24H410.541L409.421 166.46C409.368 167.033 409.254 167.553 409.081 168.02C408.921 168.487 408.741 168.913 408.541 169.3ZM428.65 173V152.56H432.79V165.82L442.49 152.56H446.55V173H442.39V159.78L432.71 173H428.65ZM453.278 173V152.56H457.418V160.6H467.058V152.56H471.218V173H467.058V164.28H457.418V173H453.278ZM493.171 170.3V164.8L502.891 152.56H507.551L493.171 170.3ZM490.511 173V152.56H494.671V173H490.511ZM504.211 173L498.031 161.6L500.771 158.18L508.891 173H504.211ZM515.099 173.48L512.919 169.98C514.199 169.62 515.132 169.18 515.719 168.66C516.319 168.127 516.672 167.373 516.779 166.4L518.399 152.56H532.599V173H528.439V156.6H522.099L520.839 167.38C520.639 169.14 520.059 170.52 519.099 171.52C518.152 172.52 516.819 173.173 515.099 173.48ZM539.568 173V152.56H543.708V165.82L553.408 152.56H557.468V173H553.308V159.78L543.628 173H539.568ZM567.116 170.3V164.8L576.836 152.56H581.496L567.116 170.3ZM564.456 173V152.56H568.616V173H564.456ZM578.156 173L571.976 161.6L574.716 158.18L582.836 173H578.156Z" fill="#19D3C5"/>
</svg>
