<svg xmlns="http://www.w3.org/2000/svg" version="1.1" xmlns:xlink="http://www.w3.org/1999/xlink" xmlns:svgjs="http://svgjs.dev/svgjs" viewBox="0 0 1920 1080" class="overflow-hidden rounded-md drop-shadow-lg transition duration-300" style="overflow: hidden; height: 85vh;"><rect width="1920" height="1080" fill="#22194d"/><g clip-path="url(&quot;#SvgjsClipPath2989&quot;)"><g transform="matrix(-0.10022910415980697,-1.1456239028055073,1.1456239028055073,-0.10022910415980697,416.5199558045607,1671.9905362461616)"><path d="M0,-1080C-1.2803951783166287,-1016.8385832777304,-7.813395788390916,-828.7315986554676,-7.682371069899773,-701.0314996663827C-7.55134635140863,-573.3314006772979,2.440627169873113,-459.7645321098121,0.7861483109468566,-313.79940606549116C-0.8683305479793997,-167.8342800211702,-29.71188058111143,31.662582947069183,-17.60924422345731,174.75925659954308C-5.50660786580319,317.85593025201695,66.9513281277348,418.0688967928789,73.40196645687158,544.7806358493523C79.85260478600836,671.4923749058257,21.125190087578602,800.6061054224938,21.09458575136337,935.0296909383835C21.063981415148135,1069.4532764542732,82.74892669273073,1220.9985576944498,73.21834043958017,1351.3221489446905C63.687754186429615,1481.6457401949312,-23.885875027609984,1582.1915965972767,-36.08893176754001,1716.9712384398283C-48.29198850747004,1851.75088028238,-6.0148219612566685,2086.161873073305,0,2160L 1920 2160 L 1920 -1080 Z" fill="url(&quot;#SvgjsLinearGradient2981&quot;)"/><path d="M240,-1080C231.79994939390906,-1003.536621084833,187.14772061474662,-781.1600539414278,190.79969636345436,-621.2197265089976C194.4516721121621,-461.2793990765674,247.45835620515174,-263.3174482235659,261.9118544922465,-120.358035405419C276.36535277934126,22.601377412727913,270.21830138534904,89.70424728154435,277.520686086023,236.53675039988383C284.8230707866969,383.36925351822333,302.96086358612695,585.0908891674248,305.72616269629,760.636983304618C308.491461806453,936.1830774418111,304.98438145166006,1140.6737375161345,294.1124807470012,1289.8133152230425C283.24058004234234,1438.9528929299506,249.5135052595039,1510.4433354165733,240.494758468337,1655.4744495460661C231.47601167717013,1800.505563675559,240.08245974472283,2075.9124082576777,240,2160L 1920 2160 L 1920 -1080 Z" fill="url(&quot;#SvgjsLinearGradient2982&quot;)"/><path d="M480,-1080C473.1735775221805,-982.3360341188545,427.45280506293363,-685.6868660040651,439.0414651330829,-494.01620471312685C450.6301252032322,-302.3455434221886,549.5003839665471,-104.0624120357202,549.5319604208955,70.0239677456292C549.5635368752439,244.1103475269786,462.6979529058025,382.1755405779083,439.23092385917295,550.5020739749694C415.7638948125434,718.8286073720305,390.58881263505305,909.9440095676625,408.7297861411183,1079.9831681279961C426.8707596471836,1250.0223266883297,536.1983959190844,1390.7342200249707,548.0767648955647,1570.7370253369713C559.9551338720449,1750.739830648972,491.3461274825941,2061.7895042228283,480,2160L 1920 2160 L 1920 -1080 Z" fill="url(&quot;#SvgjsLinearGradient2983&quot;)"/><path d="M720,-1080C709.3759410173844,-990.8553901778123,653.3187393367513,-734.2486794572886,656.2556461043064,-545.132341066874C659.1925528718615,-356.0160026764594,717.7565156491513,-122.03776294420496,737.6214406053306,54.6980303424877C757.4863655615098,231.43382362918035,769.2157604795948,355.5861335505066,775.445195841382,515.2824186532819C781.6746312031692,674.9787037560571,776.8268057573213,840.2073350468283,774.998052776054,1012.8757409591394C773.1692997947868,1185.5441468714505,773.639020083121,1360.1054776203384,764.4726779537787,1551.2928541271485C755.3063358244364,1742.4802306339586,727.4121129922964,2058.5488090211916,720,2160L 1920 2160 L 1920 -1080 Z" fill="url(&quot;#SvgjsLinearGradient2984&quot;)"/><path d="M960,-1080C961.1223140593053,-987.4195830010324,966.2880154778059,-706.6869785501915,966.7338843558318,-524.5174980061943C967.1797532338578,-342.34801746219705,975.1174533302576,-160.19596668385233,962.6752132681561,13.01688326398326C950.2329732060546,186.22973321181885,891.2011286799592,348.5794371087769,892.0804439832225,514.7596016808193C892.9597592864858,680.9397662528617,953.5602520497284,833.2601012830033,967.9511050877361,1010.0978706962377C982.3419581257438,1186.9356401094722,979.750746392558,1384.1358632762654,978.4255622112686,1575.7862181602256C977.1003780299792,1767.436573044186,963.0709270352114,2062.631036360038,960,2160L 1920 2160 L 1920 -1080 Z" fill="url(&quot;#SvgjsLinearGradient2985&quot;)"/><path d="M1200,-1080C1204.565072235788,-995.8949270845897,1230.716595322485,-718.8143060956978,1227.390433414728,-575.3695625075378C1224.064271506971,-431.9248189193778,1171.8227069938396,-373.72245539167153,1180.0430285534571,-219.33153847103966C1188.2633501130747,-64.9406215504078,1282.4447832753206,192.47993309919335,1276.7123627724336,350.97593901625345C1270.9799422695467,509.4719449333136,1161.5640424585904,573.386406684551,1145.6485055361356,731.6444970313211C1129.732968613681,889.9025873780911,1172.6240122295103,1151.4900862920208,1181.2191412377058,1300.5244810968738C1189.8142702459013,1449.5588759017269,1194.089136458259,1482.604946043251,1197.219279585308,1625.8508658604387C1200.349422712357,1769.0967856776265,1199.5365465975513,2070.975144310073,1200,2160L 1920 2160 L 1920 -1080 Z" fill="url(&quot;#SvgjsLinearGradient2986&quot;)"/><path d="M1440,-1080C1428.6127284949885,-1003.7513665987367,1363.1704103415523,-765.7694319423177,1371.67637096993,-622.5081995924204C1380.1823315983079,-479.24696724252306,1487.0654435622814,-368.23860082825183,1491.0357637702673,-220.43260590061567C1495.0060839782532,-72.62661097297948,1410.6453355623055,88.03678893637698,1395.4982922178458,264.3277699733968C1380.351248873386,440.61875101041664,1402.6085439514404,666.569236774445,1400.1535037035092,837.3132803215034C1397.698463455578,1008.0573238685618,1362.4748060125062,1155.7445944524175,1380.7680507302578,1288.7920312557474C1399.0612954480093,1421.8394680590773,1500.0409804650608,1490.3965730174405,1509.912972010018,1635.5979011414825C1519.784963554975,1780.7992292655244,1451.6521620016697,2072.5996501902473,1440,2160L 1920 2160 L 1920 -1080 Z" fill="url(&quot;#SvgjsLinearGradient2987&quot;)"/><path d="M1680,-1080C1685.7439630246147,-994.641089349607,1710.531298271598,-752.4157183673195,1714.4637781476886,-567.8465360976421C1718.3962580237792,-383.2773538279647,1712.7798939350957,-148.8872268500857,1703.5948792565437,27.41509361806439C1694.4098645779916,203.7174140862145,1672.1394849171238,302.63820987489476,1659.3536900763759,489.9673867112584C1646.567895235628,677.2965635476221,1618.9081075921308,971.2803767730626,1626.8801102120556,1151.3901546362467C1634.8521128319803,1331.4999324994308,1698.3323908312673,1402.5244129964042,1707.1857057959246,1570.626053890363C1716.039020760582,1738.7276947843218,1684.5309509659874,2061.7710089817274,1680,2160L 1920 2160 L 1920 -1080 Z" fill="url(&quot;#SvgjsLinearGradient2988&quot;)"/></g></g><defs><linearGradient x1="0.1" y1="0" x2="0" y2="1" id="SvgjsLinearGradient2981"><stop stop-color="#22194d" offset="0"/><stop stop-color="#19194d" offset="0"/></linearGradient><linearGradient x1="0.1" y1="0" x2="0" y2="1" id="SvgjsLinearGradient2982"><stop stop-color="#342777" offset="0"/><stop stop-color="#272777" offset="0.125"/></linearGradient><linearGradient x1="0.1" y1="0" x2="0" y2="1" id="SvgjsLinearGradient2983"><stop stop-color="#4734a1" offset="0"/><stop stop-color="#3534a1" offset="0.25"/></linearGradient><linearGradient x1="0.1" y1="0" x2="0" y2="1" id="SvgjsLinearGradient2984"><stop stop-color="#5e48c4" offset="0"/><stop stop-color="#4948c4" offset="0.375"/></linearGradient><linearGradient x1="0.1" y1="0" x2="0" y2="1" id="SvgjsLinearGradient2985"><stop stop-color="#8372d1" offset="0"/><stop stop-color="#7372d1" offset="0.5"/></linearGradient><linearGradient x1="0.1" y1="0" x2="0" y2="1" id="SvgjsLinearGradient2986"><stop stop-color="#a79cdf" offset="0"/><stop stop-color="#9c9cdf" offset="0.625"/></linearGradient><linearGradient x1="0.1" y1="0" x2="0" y2="1" id="SvgjsLinearGradient2987"><stop stop-color="#ccc6ec" offset="0"/><stop stop-color="#c6c6ec" offset="0.75"/></linearGradient><linearGradient x1="0.1" y1="0" x2="0" y2="1" id="SvgjsLinearGradient2988"><stop stop-color="#f1effa" offset="0"/><stop stop-color="#efeffa" offset="0.875"/></linearGradient><clipPath id="SvgjsClipPath2989"><rect width="1920" height="1080"/></clipPath></defs></svg>