<svg width="1920" height="1080" viewBox="0 0 1920 1080" fill="none" xmlns="http://www.w3.org/2000/svg">
<g clip-path="url(#clip0_1_2)">
<path d="M1920 0H0V1080H1920V0Z" fill="white"/>
<path d="M-868.87 806.441C-756.299 804.472 -411.868 827.118 -193.447 794.631C24.9736 762.144 242.222 629.002 441.656 611.517C641.09 594.033 807.968 679.71 1003.16 689.723C1198.35 699.736 1419.82 709.422 1612.8 671.596C1805.78 633.771 1956.03 494.419 2161.05 462.769C2366.08 431.12 2729.3 478.544 2842.95 481.698L2698.62 -1168L-1013.2 -843.258L-868.87 806.441Z" fill="white"/>
<path d="M-214.225 758C-111.034 761.236 113.138 679.828 329.5 657.509C545.862 635.189 883.464 664.554 1083.95 624.083C1284.43 583.611 1425.48 557.73 1607.81 534.587C1790.14 511.444 1979.91 500.437 2177.91 485.226C2375.91 470.015 2575.84 451.98 2795.79 443.319C3015.74 434.658 3380.63 434.935 3497.6 433.258L3377.32 -941.491L-334.5 -616.749L-214.225 758Z" fill="url(#paint0_linear_1_2)"/>
<path d="M-916.98 680.441C-811.03 669.876 -489.934 635.82 -281.281 617.051C-72.6278 598.281 135.254 570.931 334.938 567.824C534.622 564.717 726.53 616.073 916.822 598.41C1107.11 580.746 1275.54 496.054 1476.69 461.843C1677.84 427.632 1904.01 410.836 2123.71 393.145C2343.4 375.454 2682.99 361.94 2794.84 355.698L2698.62 -744.101L-1013.2 -419.358L-916.98 680.441Z" fill="url(#paint1_linear_1_2)"/>
<path d="M-941.035 405.491C-845.14 391.831 -530.331 334.1 -365.664 323.533C-200.996 312.966 -129.082 366.982 46.9677 342.09C223.018 317.198 508.485 183.501 690.637 174.182C872.788 164.863 956.977 283.807 1139.88 286.178C1322.78 288.549 1618.16 213.193 1788.03 188.409C1957.91 163.625 1995.34 155.415 2159.13 137.472C2322.92 119.528 2668.84 90.2026 2770.79 80.7487L2698.62 -744.1L-1013.2 -419.358L-941.035 405.491Z" fill="url(#paint2_linear_1_2)"/>
<path d="M-1308.94 216.143C-1196.62 223.001 -842.244 287.885 -635.012 257.291C-427.779 226.697 -279.961 57.1579 -65.5429 32.5814C148.875 8.00492 393.226 110.234 651.495 109.832C909.765 109.43 1235.49 48.3213 1484.07 30.1697C1732.66 12.0181 1951.89 44.4483 2143.03 0.922489C2334.17 -42.6033 2421.01 -198.158 2630.89 -230.985C2840.77 -263.812 3273.74 -201.862 3402.31 -196.038L3341.24 -894L-1370 -481.819L-1308.94 216.143Z" fill="white"/>
</g>
<defs>
<linearGradient id="paint0_linear_1_2" x1="-899.192" y1="883.755" x2="2697.46" y2="1477.8" gradientUnits="userSpaceOnUse">
<stop stop-color="#5E48C4"/>
<stop offset="0.375" stop-color="#4948C4"/>
</linearGradient>
<linearGradient id="paint1_linear_1_2" x1="-920.474" y1="640.5" x2="2583.71" y2="1417.02" gradientUnits="userSpaceOnUse">
<stop stop-color="#8372D1"/>
<stop offset="0.5" stop-color="#7372D1"/>
</linearGradient>
<linearGradient id="paint2_linear_1_2" x1="-943.032" y1="382.664" x2="2368.07" y2="1433.84" gradientUnits="userSpaceOnUse">
<stop stop-color="#A79CDF"/>
<stop offset="0.625" stop-color="#9C9CDF"/>
</linearGradient>
<clipPath id="clip0_1_2">
<rect width="1920" height="1080" fill="white"/>
</clipPath>
</defs>
</svg>
